/* XPM */
static char *result[] = {
/* columns rows colors chars-per-pixel */
"64 64 174 2 ",
"   c #305C7F",
".  c #46677F",
"X  c #536A7D",
"o  c #6F7170",
"O  c #325D81",
"+  c #366184",
"@  c #396486",
"#  c #3C6688",
"$  c #3D6889",
"%  c #486781",
"&  c #446984",
"*  c #426C8D",
"=  c #4B6D8A",
"-  c #526D8E",
";  c #5F6D8A",
":  c #587887",
">  c #5D718F",
",  c #456F92",
"<  c #467092",
"1  c #4A7396",
"2  c #4C7699",
"3  c #4E7C9D",
"4  c #537495",
"5  c #50779A",
"6  c #597798",
"7  c #517D9D",
"8  c #5B7D9D",
"9  c #646F8B",
"0  c #6A6F8B",
"q  c #62708E",
"w  c #69728F",
"e  c #72728D",
"r  c #6B7491",
"t  c #6C779B",
"y  c #647E9E",
"u  c #6C7E9D",
"i  c #797792",
"p  c #747995",
"a  c #7B7993",
"s  c #747E9C",
"d  c #7C7E9C",
"f  c #4F7DA1",
"g  c #517EA1",
"h  c #597FA3",
"j  c #677EA1",
"k  c #6A7FA3",
"l  c #757EA5",
"z  c #83748E",
"x  c #8E778E",
"c  c #9A768E",
"v  c #9D7B8F",
"b  c #847791",
"n  c #847C96",
"m  c #8B7B95",
"M  c #837E9B",
"N  c #8C7E9A",
"B  c #937B94",
"V  c #9C7D94",
"C  c #947F9A",
"Z  c #9C7F99",
"A  c #A1768D",
"S  c #AA768C",
"D  c #A4788F",
"F  c #B2798E",
"G  c #BD7B8E",
"H  c #A57E95",
"J  c #AB7F94",
"K  c #A47E9A",
"L  c #AD7F9D",
"P  c #B57E94",
"I  c #BC7D95",
"U  c #B57E9C",
"Y  c #BA7E99",
"T  c #AC7FA1",
"R  c #C57B8E",
"E  c #CB7B8D",
"W  c #D47A87",
"Q  c #D17B8A",
"!  c #C37C92",
"~  c #C97D90",
"^  c #54809E",
"/  c #5C819F",
"(  c #7A8B86",
")  c #64809F",
"_  c #6A809F",
"`  c #75809D",
"'  c #7B819E",
"]  c #5581A4",
"[  c #5C82A4",
"{  c #5D8AA6",
"}  c #5783A8",
"|  c #5B85AB",
" . c #5D89AC",
".. c #5E8CB1",
"X. c #5886B9",
"o. c #6584A1",
"O. c #6A82A2",
"+. c #638AA7",
"@. c #6286AB",
"#. c #6D85A9",
"$. c #648AAE",
"%. c #6A8BAE",
"&. c #7382A3",
"*. c #7A83A0",
"=. c #7387AC",
"-. c #7E87AB",
";. c #758AAD",
":. c #7F88AC",
">. c #6994A6",
",. c #6692AF",
"<. c #6B92AE",
"1. c #7292AB",
"2. c #7A92AE",
"3. c #7199AD",
"4. c #7B9DAC",
"5. c #678AB0",
"6. c #698BB0",
"7. c #758EB6",
"8. c #7B8EB5",
"9. c #778EB8",
"0. c #6292B5",
"q. c #6D92B4",
"w. c #6E94B8",
"e. c #6B99BB",
"r. c #7394B4",
"t. c #7298B3",
"y. c #7B91B9",
"u. c #779ABC",
"i. c #7AA3AB",
"p. c #73A0BE",
"a. c #5B88C0",
"s. c #6C9EC2",
"d. c #84819D",
"f. c #8D819B",
"g. c #968097",
"h. c #9A8197",
"j. c #93819C",
"k. c #9A8099",
"l. c #A38097",
"z. c #AC8094",
"x. c #A4809C",
"c. c #AD809E",
"v. c #BE8097",
"b. c #BC819B",
"n. c #8D85A6",
"m. c #8486AC",
"M. c #8987AD",
"N. c #8189AC",
"B. c #9583A3",
"V. c #9D82A4",
"C. c #8397AF",
"Z. c #8C96AA",
"A. c #999EA8",
"S. c #8C8AB0",
"D. c #848FBF",
"F. c #8390BE",
"G. c #A281A1",
"H. c #AC80A2",
"J. c #B481A2",
"K. c #B881A0",
"L. c #80A0A9",
"P. c #82A4B8",
"I. c #87ABB9",
"U. c #8AABBD",
"Y. c #92B7BD",
"T. c #C48096",
"R. c #C98093",
"E. c #C18199",
"W. c #8694C1",
"Q. c #8B91C2",
"!. c #929BCA",
"~. c #8DA0C4",
"^. c #9DC2C2",
"/. c #A1C3C5",
/* pixels */
"7.7.6.7.Z.2.6.6.6.5.6.5.6.5.%.5.5.6.%.%.5.6.u.6.6.6.6.6.6.6.5.6.5.6.5.5.5.5.6.5.6.6.6.6.6.6.W.!.!.!.!.W.6.6.6.6.6.6.7.W.Q.Q.7.5.",
"5.5.%.%.A.C.6.q.6.5.5.6.%.5.%.5.6.6.5.5.6.6.w.6.6.6.5.5.5.6.6.6.6.6.6.5.6.6.6.6.5.5.6.6.6.6.F.Q.Q.Q.Q.D.6.6.5.6.6.6.6.W.Q.Q.9.5.",
"5.%.%.%.;.6.5.6.5.5.5.6.%.5.5.5.5.5.6.5.6.6.6.6.6.6.5.5.6.5.6.6.7.6.6.6.5.6.%.6.q.t.q.e.w.6.y.W.D.W.D.9.6.6.6.6.6.6.6.Q.Q.Q.7.6.",
"5.5.$.5.5.5.%.6.6.6.6.5.6.6.6.%.5.%.6.6.6.5.6.5.6.6.6.5.6.6.6.5.5.5.6.6.6.5.5.q.p.p.p.u.w.5.6.6.5.q.6.5.6.6.6.5.6.6.6.y.y.y.7.6.",
"5.5.6.%.5.%.5.6.6.6.5.6.6.%.6.6.5.5.%.5.6.5.6.6.6.7.Y.i.q.6.5.6.6.%.%.6.5.5.6.6.6.6.6.7.q.6.6.q.6.5.6.5.6.6.%.5.6.6.6.6.6.6.6.7.",
"5.5.5.6.5.5.5.5.6.6.6.5.6.6.2.r.t.5.5.6.5.6.6.6.5.t.~.I.5.5.5.t.u.u.N.6.6.6.6.6.5.%.5.1.r.6.6.6.6.6.6.5.%.6.5.5.5.5.5.6.6.q.6.6.",
"6.5.5.6.5.6.5.%.6.5.6.6.6.6.6.6.7.6.6.6.6.6.6.6.5.t./.U.5.6.5.6.q.6.6.6.6.6.6.6.5.6.6.%.$.5.6.6.6.6.6.6.5.5.6.6.6.6.6.5.5.6.6.6.",
"5.%.6.5.6.5.6.6.6.6.6.6.6.6.6.6.6.6.5.6.6.w.w.w.%.t./.U.5.5.5.6.6.6.6.6.6.6.7.6.6.6.5.5.5.5.6.6.6.6.6.6.5.6.6.7.r.6.5.5.5.6.5.r.",
"5.5.5.6.5.5.5.5.6.5.5.$.5.5.5.5.6.6.6.5.6.r.w.6.5.t.^.U.5.5.5.5.$.$.5.5.5.5.5.5.5.%.$.5.6.6.6.6.6.6.5.5.$.%.6.%.5.6.5.5.6.6.6.r.",
"6.5.5.5.5.5.5.5.@.@.5.| } | 5.5.6.6.6.6.6.5.6.6.%.t.Y.P.5.| | |  .{ | | | $.@.%.;.<.<.%.6.6.6.6.6.6.5.5.5.$.7.Z.7.5.%.6.6.6.6.6.",
"5.5.5.5.7.r.5.$.| | | | } } $.5.6.5.5.5.5.6.6.6.5.5.7.6.5.| | } |  .| $.|  .{ 1.C.4.4.<.5.6.6.6.6.6.5.5.5.5.5.2.%.5.5.5.6.6.5.7.",
"| @.|  .5.r. .$.| | | ] } } $.5.6.5.5.5.5.5.5.6.5.5.5.5.5.| | | | | | | | | | 3.L.i.i.<.6.6.6.$.@.$.$.%.6.6.5.5.5.5.5.5.6.6.6.6.",
"| | | } } | 5.5.| | ] f | 0.| { 6.r.7.5.| ] } } @.} [ 5.$. .{ | $.|  . . .|  .q.i.i.i.,.5.6.5.$.| | | 5.5.5.5.5.6.5.6.6.6.6.6.q.",
"| | | | } | $.5.| } f f ] e.{ | 6.~.r.g g f f ^ ] | .. . .q.,.$.t.5.,.,. .|  . .@. .| 5.6.6.5.$.| | $.6.5.5.5.$.6.6.6.6.6.6.6.6.",
"| @.| } g ] | | | } g g f | | | 6.~.r.f g f f f f ..s...| 5... .0.$.$.$.| |  .|  .| | @.6.6.6.5.| }  .5.| | | | $.5.5.5.$.$.$.6.",
"@.&.| g f ] ..f h } g f g g f { 6.W.r.f f g f ] ] ] 0.] |  .} | | | |  .| | |  .{ | |  .6.q.6.$.| | $.5.| | | { $.6.6.$.| |  .$.",
"h | | g g ] ..f h h g g g g f | $.$.{ g g f g g ] f ] ] } .. . .| } | | | | | |  .| | @.6.6.5.| } | ..5.@.| h h $.5.X.h } | |  .",
"1 8 | g g ] ..g g g g g g } { +.| [ | f g g g f f f 0.0...f } | | | | | | | |  .| | | X.6.6.5.| | | | 5.| l M g g g g g f g g } ",
"1 7 ] h g ]  .f g g f g g  .<.>.{ ] | f g f g f f ] |  .} ^ } | | | | } } } h } } } a.a.5.$.$.| | | | | } l l ] g g g f g g g } ",
"1 2 g g g f g f g g g g f g g f ^ ] o.f g f 3 g f f ] f f ] } } %.6. .f f f g g f f g g f { 5. . .} | | } @.h g g g g g g g g ] ",
"2 3 f f ^ ^ 3 ^ g g g g f f g g ^ ] O.g 2 2 2 g ^ f 3 3 2 3 | | | [ o.f g g g f f f f g g | @.h ] } | | | #.] g g f f f g g g ] ",
"2 2 f f ^ 3 f ] | g g f f f f f f } 5.5 1 2 2 2 2 2 2 2 2 2 ] ] } ] 3 3 g g g 2 2 3 3 3 f g g g g g } @. .| ] f h h ^ ] } g ] | ",
"1 2 3 2 2 1 3 f h g g 2 - 4 1 1 1 ] | 2 1 2 2 f 2 2 2 2 1 2 7 ] g f 3 2 g g 1 1 4 4 1 1 1 1 f g f f ] | | ] ] f f ) h g } ] g | ",
"1 1 1 1 1 2 1 2 2 1 f 2 1 6 4 , 1 3 2 1 1 1 1 2 1 1 1 1 2 1 2 h f f 2 3 g g 2 8 5 1 2 1 1 1 1 5 ] ] 8 g ^ ^ f ] ] ] g f f g ] ] ",
"2 2 5 5 1 +.5 3 2 5 h @.2 f 5 f 2 @.2 , 1 f g @.2 5 f 2 [ [ 2 2 1 2 2 5 $.2 5 8 g 2 @.h 3 5 2 f ] +.h h ] ] ] 6.] ] ] ] ] $.$.| ",
"-.-.:.:.j -.-.-.;.;.;.N.-.:.m.m.:.:.8 6 -.-.m.m.N.-.N.N.N.N.&.#.k -.&.O.N.N.N.:.m.m.m.N.N.N.N.N.N.-.-.N.:.N.N.M.N.N.N.N.N.N.N.N.",
"m.M.M.t - t m.-.5.5.#.m.M.M.M.M.M.m.8 6 m.M.M.M.M.M.M.m.M.m.l l l m.l l M.M.N.M.M.M.M.M.M.M.M.M.M.M.M.M.M.m.M.M.M.M.M.M.M.M.S.S.",
", 2 { $ O @ * h @.@.5.5.5.6.5.6.6.5.7 2 @.@.@.6.@.f @.5.5.@.2 g 5 $.6 [ 6.5.$.%.5.5.6.$.@.$.5.5.5.5.6.5.5.{ 5.6.5.6.5.5.5.$.6.<.",
"O O + O O O O # @ 1 $.| h 6.@.h j $.f 1 @.g f h @.1 @.5.6.@., 1 1 k 2 g 5.%.@.4 5.$.$.h * 5 $.5.6.5.6.6.6.h 5.6.%.%.5.%.6.%.5.6.",
"O O O O O * * * * , g $ # 5 1 O $ h 1 1 h * @ # 2 , @.5.h 2 $ + @ g * $ < h h 1 5.$.2 1 + @ | @.h @.5.5.5 2 5 h 5.%.5.5.6.6.6.7.",
"@ @ @ @ # # # # @ @ @ @ # # @ # $ , $ # , , $ , * # 1 1 , + + + @ , $ + + $ , , 1 2 $ $ @ # 1 1 # , 1 1 @ # $ $ 2 g g h [ %.$.q.",
"h j h y j h j h y j j O.k k k k k k k j k k k k k k k k k k k #.k k k j #.k k j k j #.k k k j h | [ h j | h | j h j o.h @.=.=.8.",
"B.V.B.V.C C C C B.B.T G.V.V.V.V.V.G.V.V.V.V.V.V.V.G.T T J.T H.H.T T T T T T T J.J.T T T J.T V.S.V.V.V.V.B.B.n.n.G.G.B.B.G.J.T J.",
"U U T T U U T U Y U T T T T T T T G.T H.T H.H.T T T T U U U U U U T U U U U U U U U U U U U U U U U T T B.B.B.B.V.G.U U U U U J.",
"T T H.H.U U U U Y U U U U U L V.V.G.V.K V.x.G.L U U U U U U U U U U U U U U U U U U U U U U U U U U G.V.B.B.B.B.B.G.G.c.U U U K.",
"T T T T U U Y U U U U U U U U U U U U L U U U U U U U U U U U U U U U U U U U U Y U U U U U U U U U T T L J.H.c.H.H.J.J.U U U K.",
"T T K U U U Y U Y Y Y U U Y U Y U Y U Y Y Y Y Y U U U U U Y Y U Y U Y Y U U Y Y U Y Y U U U U U U Y U U Y J.G.G.H.U U U b.U U b.",
"T T U U Y Y U Y U Y Y Y Y Y Y U U U I Y Y Y Y U Y Y U Y Y Y Y U Y Y Y Y U U U Y Y I Y Y I I I Y I Y I b.I U U U Y b.I b.I I Y E.",
"J P Y U Y Y Y U Y I Y Y I Y Y Y U Y b.U Y Y I Y U U I Y Y Y Y U Y Y Y Y Y Y Y Y K.Y Y Y ! Y I Y Y Y b.Y I ! b.Y I Y b.I Y Y I b.",
"*.j.U U U I L M C K U Y U Y U Y I I I I b.I I I I T U ! Y I Y Y Y Y ! Y Y ! Y Y ! Y I b.! Y I I ! Y I I Y Y Y I I I Y ! Y I b.E.",
"l ` s d f.P m 3 ^ ) f.n.C C Z K Y I Y Z N N N N K M Z L I ! I I ! Y ! Y I I U K K I I I I ! ! I ! I I I I I I I ! I ! Y I Y I E.",
"3 3 3 ^ 7 m.y 3 ^ { _ y t s d ` d M d 7 2 3 7 7 u ) o.s H U P U U ! ! Y I C d ) _ d M M M M U P Y I ! I ! ! ! ! ! ! I ! ! ! ! E.",
"^ 3 ^ 3 ^ [ [ 3 $ ] 2 ^ 3 ^ ^ 3 7 3 ^ 3 3 3 3 7 3 ^ ^ ^ y O.y O.O.` l l ` [ ^ ^ ^ ] ] 7 ] ^ O.d l M C C C C C C B.Z I I ! I ! E.",
"3 3 3 ^ ^ [ ] 3 ^ ^ ^ 3 3 3 3 f 3 ^ 3 ^ 3 3 3 ] ^ 3 3 ^ 7 3 7 3 d k.Z x.k.f.d.d.d.*.*.' d.d.f.k.k.k.Z k.k.Z Z Z k.J I ! ! ! ! E.",
"3 ^ ^ ] 3 ] ^ ^ ^ 2 ^ ^ ^ 7 / [ / / / [ [ / / / [ / [ [ [ [ [ / Z ! H N J ! I ! P _ _ &.d.P ! ! ! ! ! ! ! ! ! ! ! ! ! ! ! ! ! E.",
"3 ^ ^ $ 3 3 3 3 ^ ^ ^ ^ 3 / ' ' d.' ' ' ' ` d.k.k.k.k.h.l.l.l.j.j.Z ` 3 d P M Z J 8 ^ [ ) h.l.l.J I I ! I ! ! ! ! ! ! I Y ! ! E.",
"3 3 2 ^ ^ 2 3 ^ ^ 2 3 3 3 ^ ^ / ) ) y u _ ) O._ u u s Z J J J d 7 ^ 7 3 y k./ s M 7 ] ] 7 ` ` ` ` Z ! ! I ! ! P I ! ! ! I ! ! E.",
"3 3 ^ 2 3 3 3 3 ^ 2 ^ ^ 3 3 ^ [ [ 7 3 ^ ^ [ [ 3 3 ^ 3 ^ 8 7 ^ ^ 7 7 7 ^ 7 8 7 ^ 3 ^ 3 7 7 7 ^ 3 3 ` M d d N C y N C d s N I Y E.",
"3 3 < 3 2 ^ ^ ^ ^ $ ^ 3 ^ ^ 3 ^ ^ 3 3 ^ ^ 3 ^ ^ 3 ^ ^ 2 7 ^ 3 3 7 3 3 3 3 3 7 7 3 3 ^ 7 3 3 ^ 7 ^ 7 3 ^ ^ 3 ^ 3 ^ / u u s N C j.",
"3 3 3 f ^ ^ $ ^ ^ ] 3 3 3 3 3 3 3 7 2 3 3 3 ^ ^ 3 3 ^ ^ 3 7 8 ' ' ' ' ' ' ' ' ' d.d.M n d.d.d.M d.d.d.d.d.d.d.d.M K I ! I I I v.",
"^ ^ f 3 ^ ^ ^ ^ ^ 3 3 3 ^ ^ ^ 3 ^ 7 2 7 ^ ^ ^ ^ ^ ^ 2 ^ 7 7 8 u u u u s u u u s f.m f.f.f.f.f.j.f.Z I ! R.R ! R.! ! ! ! ! ! R R.",
") ) { ^ ) _ _ ) { { o.o.) o.o.) O.` 8 O.) ) / ) ) o._ g.H K H H l.H l.J l.H H l.l.l.z.l.H H l.z.H z.! R ! E R ! R R E ! E R ! R.",
">.) _ >.) d.f.+.o.o.*.d.' *.n.d.Z P m h.l.Z l.h.h.l.z.! ~ ! ! E E E ~ ~ ! E ~ ~ E E ~ ~ R ~ E ! E E R E R.R E ! E ! ~ ! E ! E R.",
") ) _ >._ d.k.O.o.O.k.z.z.z.v.R R R D ! E ~ ~ ~ E R.E R E E E R ! E ~ R ~ E E ! E E E ~ E E ~ E E R R E E E E ! E E E E ~ E E R.",
">._ _ ` _ l.T.z.z.l.! R E R R R ! R D ! ! E ~ E R E R I z.v.H B I z.I P I P P I I P v.P I I P P v.R I I ! E R.R ~ ! E E ~ ~ ~ R.",
"h.h.z.z.h.x.z.v.Q R.R E E E E E E R D E R E E E E E E v.I v.B q C I I P I z.I I z.I P P z.I P P ! E I I R E E E E E E E ~ E E E ",
"R G R E R R R.R E E E E Q E E E E R S E Q E E E Q R.R A v x 9 - q z G E E E Q Q W E Q Q Q Q Q Q Q E Q Q E E E W E E Q E E E E R.",
"F 9 9 S E Q E E E E E E E Q E Q Q R c G G R R z.h.h.a * & $ $ $ * 1 p h.Z h.g.V h.g.g.h.h.g.h.h.g.V g.h.h.h.h.h.v.R R R Q E W R.",
"F % $ A E E W E Q Q E E E Q S E Q R c P B b n n B z.n * $ $ $ $ * = a z.z.z.J z.z.z.z.z.z.p p z.D m z.z.J J z.z.F v.G Q E E W R.",
"e * & 0 z z b F E E E Q E R e F G R S E e * 1 * - c A $ $ $ $ $ * < b J g.g.g.m g.g.g.g.f.; ; g.D x F G G E E E E E E Q E Q W R.",
"@ # * @ # * * q i e w a e w - r w p w e - $ $ & < > w $ $ $ $ $ $ * 4 6 5 6 7 * < 1 6 ^ < $ & * 4 4 p h.h.J F z.z.z.z.z.F F R R.",
"* @ # # # # $ $ $ $ $ # # # # $ # # $ $ $ $ $ $ $ $ $ $ $ & $ $ $ @ $ $ $ $ $ $ . X = # $ $ $ # $ $ e E W W E W W W W W Q E W R.",
"# # * # # # $ $ # $ @ $ $ : * X & $ $ $ $ $ $ @ + $ $ + @   @     $ @ @ $ & @ $ . X = @ $ $ $ # $ * e E W W W W W W W R.W W W R.",
"# & # # # $ $ $ $ # $ $ & ( = o . $ $ $ @   + +                     +   +     @ @ + + $ $ @ $ $ * $ e W W W W W W W W W W W W A "
};
