/* XPM */
static char *_4cdb6e92f824599a0303cda4317e15dmVqaHM6QuWvsxBJt[] = {
/* columns rows colors chars-per-pixel */
"64 64 170 2 ",
"   c #9B7D7E",
".  c #AD7F72",
"X  c #A47E7E",
"o  c #AB7F7C",
"O  c #DF8C00",
"+  c #DB890C",
"@  c #DA8712",
"#  c #DC8A12",
"$  c #DA871D",
"%  c #DB8A1D",
"&  c #E49100",
"*  c #E08E18",
"=  c #E1931D",
"-  c #D68525",
";  c #D98625",
":  c #DB8A24",
">  c #D5872D",
",  c #D8872D",
"<  c #D78A2F",
"1  c #DB8B2C",
"2  c #DF912C",
"3  c #CF8336",
"4  c #CE8739",
"5  c #D58536",
"6  c #D88730",
"7  c #D68934",
"8  c #DA8B34",
"9  c #D5873A",
"0  c #D6893D",
"q  c #D98C3A",
"w  c #DD9233",
"e  c #DD923C",
"r  c #E09122",
"t  c #E09535",
"y  c #BF855D",
"u  c #B58367",
"i  c #BD8464",
"p  c #B6836E",
"a  c #BB846D",
"s  c #BE896E",
"d  c #A78176",
"f  c #AF8072",
"g  c #A5807B",
"h  c #AA827D",
"j  c #B38176",
"k  c #B98572",
"l  c #B3857B",
"z  c #B9867A",
"x  c #B9897D",
"c  c #CC8543",
"v  c #CE8844",
"b  c #C4854F",
"n  c #CC864D",
"m  c #CD894D",
"M  c #D38642",
"N  c #D68C42",
"B  c #D88F46",
"V  c #D18748",
"C  c #D68E49",
"Z  c #D88F48",
"A  c #D69043",
"S  c #DA9145",
"D  c #D7904C",
"F  c #D9924C",
"G  c #C48555",
"H  c #C98553",
"J  c #CC8B54",
"K  c #C3855B",
"L  c #C5885B",
"P  c #CC8C5A",
"I  c #D28E52",
"U  c #D29156",
"Y  c #DA9652",
"T  c #DB9856",
"R  c #D19058",
"E  c #DC9C5B",
"W  c #C38760",
"Q  c #C78A61",
"!  c #CA8E62",
"~  c #C28A6B",
"^  c #CB9062",
"/  c #DD9F60",
"(  c #DEA265",
")  c #DFA468",
"_  c #E0A56A",
"`  c #E0A66A",
"'  c #E0A66B",
"]  c #2D71BF",
"[  c #3572BD",
"{  c #3E72BD",
"}  c #7C7A95",
"|  c #74779E",
" . c #7C799C",
".. c #7F7A9E",
"X. c #4E73AF",
"o. c #5774AF",
"O. c #5A76AF",
"+. c #4373BB",
"@. c #4472BA",
"#. c #4B73BB",
"$. c #5675B3",
"%. c #5074B7",
"&. c #5475B5",
"*. c #5B75B3",
"=. c #5274BB",
"-. c #6F78A7",
";. c #6376AE",
":. c #6B77AB",
">. c #6B76AE",
",. c #6778AD",
"<. c #6D79AB",
"1. c #7579A4",
"2. c #7C79A2",
"3. c #7C7BA4",
"4. c #7676AB",
"5. c #7276AD",
"6. c #717AA8",
"7. c #7B79A9",
"8. c #6476B3",
"9. c #6C76B2",
"0. c #6F78B1",
"q. c #6175BA",
"w. c #006FC9",
"e. c #026FCB",
"r. c #166FCC",
"t. c #0770C4",
"y. c #1B70C7",
"u. c #1D70C5",
"i. c #2A6FCB",
"p. c #2671C1",
"a. c #2B71C3",
"s. c #2C71C4",
"d. c #3671C5",
"f. c #3C71C2",
"g. c #3170C9",
"h. c #3E71C8",
"j. c #4371C3",
"k. c #4071C8",
"l. c #8E7C8F",
"z. c #9D7D84",
"x. c #957C8C",
"c. c #9C7C8F",
"v. c #837A90",
"b. c #8D7B94",
"n. c #827B9E",
"m. c #8A7B9A",
"M. c #8C7C9B",
"N. c #957C94",
"B. c #9A7F91",
"V. c #957E9C",
"C. c #A27F83",
"Z. c #A97F84",
"A. c #A37E8C",
"S. c #8379A3",
"D. c #837DA6",
"F. c #8B7CA3",
"G. c #9C818B",
"H. c #8D809A",
"J. c #948291",
"K. c #948094",
"L. c #9F8291",
"P. c #9E8197",
"I. c #968098",
"U. c #A68284",
"Y. c #AB8382",
"T. c #AA8783",
"R. c #A5818B",
"E. c #AA838A",
"W. c #B08481",
"Q. c #A58291",
/* pixels */
"' ' ' ' ' ' ' ' ' ) ( ( ( ) ( ( / E E T T Y T T T Y Y T T Y F F Y Y T F Y Y T E T E ( ( ( ( ( ' ) ' ' ' ' ' ' ' ' ' ' ' ' ' ' ' ",
"' ' ' ' ' ' ' ' ( ( ( ( ( ( ( E T T T Z Y Z Y Y Y Y Y T T Y T Y F Y T Y F Y Y Y T T E E ( ) ) ( ) ' ' ' ' ' ' ' ' ' ' ' ' ' ' ' ",
"' ' ' ' ' ' ' ' ( ( ( ( ( E T T T F Y Y Y Z F Y Z T Y Z T Y F F Z F Y Y Y Z Y Y Y T T E ( ( ) ( ( ' ' ' ' ' ' ' ' ' ' ' ' ' ' ' ",
"' ' ' ' ' ' ' ) ( ( ( ( E T Y Y T Y F F F Y Z Y Y Z Y Y F F F F Z Z Z F F F F F F T Y E E ( ( ( E / ) ' ' ' ' ' ' ' ' ' ' ' ' ' ",
"' ' ' ' ' ' ' ) E ( ' / T F Y T Y Y T Y F Z N Z Z F Y Y F B F F D B B F F Z F F Y Y Y T E E ( ( ( / E ' ' ' ' ' ' ' ' ' ' ' ' ' ",
"' ' ' ' ' ' ' ' ( ' / E F F F F F F F F F F B F Z Y F F F Z F F B B N D F F F F F Y E T E ( ( ( ( ( ' ( ' ' ' ' ' ' ' ' ' ' ' ' ",
"' ' ' ) ) ' ( ( ' / / E F Y Y F F F F Z Z F Z F Z F N F F F F F B D B B F F F F F T E T E E ( / / ' E ' ( ' ' ' ' ' ' ' ' ' ' ' ",
") ) ' ( ) ( ( ' ( E / T T T F F Z N F Z B Z B B Z N Z F Z Z F Z F S B B F Z Z T F F F F Y E / / / ' ' / ( ' ' ' ' ' ' ' ' ' ' ' ",
") ) _ ' ) ' ' / / E / E T T F Z Z Z Z B B B N N 0 N 0 N B F Y F F F B N N N S S F B A F F T E E / ( ( ( ( ) ' ' ' ' ' ' ' ' ' ' ",
"( ) ( ( ( ( ) ' E T T T Y F Y F F Z F F Z N N 0 9 N 0 N F F Y F N N M q N M 9 N N B B Z F Y E E / ) ( ( ( ) ( ) ' ' ' ' ' ' ' ' ",
"_ ( ( ' ' E / / E T Y Y Y Y Y F Y F Z F Z N 0 N 0 N N N B F F B 0 0 0 B B N 9 N N M B B B F E E / ( ( / ( ) ) ) ' ' ' ' ' ' ' ' ",
"_ ( ( ' ( / E T E E Y F Y Y F Y F F B B N N 0 0 0 9 0 N 0 B B N 0 N 0 N q 0 N 0 q 0 0 F B F E E E E ( ( ( ( ) ) _ ' ( ' ' ' ' ' ",
"( _ ( _ / E E E E Y Y Y F F Y Y F F Z N 0 0 0 0 N N 0 0 0 0 0 0 N N q 0 M N N 0 M q N F F F T E ( / ( / ( ( ( ( ) ' ) ) ) ) ' ' ",
") ( ( ( E E E T T T F Y T Z F F F F B 0 0 5 0 0 0 0 0 0 0 0 5 0 N 0 0 0 q N N q N N N S F F F E E ( ( ( ( ' ( ' ) ( ) ) ' ( ) ' ",
"' ( ( E T T T T T F F Y Y Z F F F B N 5 5 0 0 N 0 0 0 5 9 0 5 9 0 0 q q M B N M B N 0 N F F F Y E E E E E / E ' ( ( ' ( ) ( ) ' ",
"( ( E T T T E T Y Y F F F Z F Z N N 0 0 0 0 5 0 0 0 5 5 5 0 9 9 0 0 M N q N 0 N 0 N N N B F F Y T T E E T E E / E ( ( ( ( ) ) ' ",
"( ( E T T T T F Y F F Z F F B B B M 0 0 0 0 5 5 9 9 9 9 5 9 7 0 0 0 0 N 0 0 N N 5 0 B N Z F F Y F F E E T T T / E / ( ( ( ( ) ) ",
"( ( E T Y Y T C F F F C F B S B S 9 0 q 9 9 9 5 5 5 5 9 5 9 0 0 0 0 5 0 N 0 0 0 N 0 0 B N Z Y Y F F F T Y Y Y Y T E E ' ( ( ( ) ",
"( / T T Y Y Y Z D F D A B N N N N 9 0 M 9 9 5 9 9 5 8 9 9 9 9 0 N 5 5 0 0 0 N 0 N 0 0 B Z F F F F F F F Y Y F Y T T / / / ( ' ) ",
"/ E T T Y Y F F Y A B N M N N S B M 8 8 N 9 9 0 9 9 9 9 9 0 M 0 0 5 0 0 0 0 5 N N 0 5 N N B Z F F F F F F ~ U Y Y T E / E / ( ( ",
"/ T T T Y F Y F F B N B B 0 N C 9 @ K L q 0 0 N 9 9 0 0 0 q M 0 5 5 N 0 5 0 0 5 0 N 0 N N B B Z F S B B Z T.^ S Y T E T / E / ' ",
"/ E E T T Y F F D N N 0 0 C q q b x.$.p 1 M q 0 9 9 5 9 M 9 9 0 N 0 N 5 0 0 0 0 9 N N 0 N B B B Z S F S J J.T S Y T T E E E ( E ",
"/ / T T T Y Y F N N q N N 9 0 d $.#.k 8 M 0 0 9 9 0 9 0 9 0 0 0 0 0 0 5 0 5 0 0 0 0 N N N B N N M B B e s H.S F F Y Y E E / E / ",
"( / E T Y F Y F B q M N 8 b  .a.4.n % 0 0 0 0 0 0 0 9 5 7 0 0 0 0 N 5 5 5 0 0 N N 0 0 0 N N N 5 q N B w E.D.e T Y Y F F E / / / ",
"/ / E T Y F F B 0 M 8 7 g %.f.L.> ; M 5 9 9 9 9 9 N 9 9 9 0 9 9 0 5 5 9 0 0 9 0 0 N 0 0 N N N 0 N q B w K.I.2 Y Y T Y F E E E ( ",
"E T T T Y Y F B M : 0 m.u.9.i % 9 0 5 5 9 9 9 5 9 9 9 5 5 9 9 0 N 5 0 0 5 0 0 N N N N 5 5 0 0 0 N M N 8 3.R.: U S Y Y F Y E E ( ",
"T T T Y F F C Z 0 Q >.w.V.< 1 M 9 9 9 9 9 9 9 9 9 9 9 9 9 9 5 9 0 5 5 5 5 0 0 N M 8 8 0 N 0 0 0 N B S J ;.z 2 C A F w J ^ Y E / ",
"T T T Y F F F B A R.V.6.l = V 9 9 0 9 9 5 - 5 9 9 5 9 9 9 9 9 5 5 5 0 0 0 0 0 9 8 H H 6 0 0 0 N 0 C w a +.~ w D w F T.H.U Y E / ",
"T T Y F F F F B D e t -.R.: M 5 5 0 M 8 : . x.3 > 5 9 9 9 9 5 9 9 5 9 9 0 0 N , m m.J < q M M q 0 N 1 U.#.P = U U.6.H.U S T T / ",
"T T Y Y F F F B Z S J &.R.# M 5 0 0 : K b.d.*.3 6 9 9 9 5 5 9 6 6 9 9 9 9 9 0 $ S.R.O V M q N N q N 1 N.8.J R.*.7.x S S Y E T ( ",
"T T T T T Y F B Z S J &.Q.* M 0 9 7 g *.d.f.o - 3 5 9 9 9 H ,   G , 9 9 9 M * Z.>.; 0 N q N N N N N : n.j.,.7.x e e F Y T Y E ( ",
"T T T Y T Y Y B C q P +.V.# V < c l.@.k.#.j + 5 9 5 9 6 a W N.[ o $ M 5 9 6 n %.j : M 9 0 N C N 8 1 h #.*.x S 2 A F F Y E E E / ",
"E E T Y T Y F F D e G &.F.1 8 L 1.j.k.%.j $ 9 9 3 9 , G o b #.f.M.$ M 5 N * b.5.$ 0 9 9 0 N 0 % K 2.9.f.V.& D C Z D F T Y T T E ",
"E T Y Y Y Y F B D S J ;.S.O a =.k.g.>.K $ 9 0 5 9 9 @ C.. o { $.5.9 5 M , K @.A.4 n 8 6 M q > C.>.T.K @.P.2 C Z F F F F Y T E / ",
"T Y T Y Y F F F D S P ,.7.k =.i.@.N.M 1 9 9 9 5 9 5 5 N.V S.,.;.#.. * M $ z.p.8.} v.z.v 8 J N.N.P & p a.E.2 Z F F F F T T T E E ",
"T Y Y Y F Y F F F S ! 9.*.#.y.9.p : 0 M 9 9 9 9 9 $ . z.. 6.. ,.@.A.+ M 6 K 2.8.o.,.X.Z.: a i $ 0 e h p.z w C Z F S F Y T T E E ",
"E T F Y F F F F F N U -.h.j.N.C 1 N M 0 0 9 9 9 M + c.Z.z.N.> | #.S.6 5 3 6 , 9 K  .{ N.1 0 1 0 S : L.{ ! e Z F F B F T T E E E ",
"E T T Y F F F Y F S U 8.s.A.O 0 M N 0 0 9 9 5 0 5 5 n.c.>.k + | #.q.H 1 M 9 9 5 - b.u.N.: N 0 N M 8 M.&.I N Z F B B Y Y T E E T ",
"/ E T T Y F F F F F A n.d.R.: N B 0 < 5 5 0 0 M , n :.] S.6 - z.#.#.o % M 9 9 6 G ;.s.o : N 0 M N 1 3.0.q B A Y B F F T T E T E ",
"/ E T T T Y Y F F D w G.a.S.6 0 0 : z.j : 9 0 0 N > o N.N 7 5 c 8.w.Z.* M 9 M 6 X #.#.y < 0 0 C q 0 ,.F.2 Z A F F F F Y T T E T ",
"( E E T T T T Y F D e d #.8.m : c M.t.j : 9 9 0 N 0 8 : 9 9 0 1 . S.K , 0 0 9 v | d.2.9 0 0 0 B q m %.E.2 B S F F Y Y Y E E E ( ",
"( ( E T Y Y T D B B 8 p O.#.k b 2.w.8.v 5 9 9 9 9 0 0 0 0 q 0 M 8 : 6 0 q M 8 u *.d.c.: 0 N 0 N 8 H *.~ e D D F Y Y T T E E / E ",
"( E ( T T T Y F D D e Q *.#.6.,.r.*.K 8 M 9 9 9 9 0 0 0 9 9 0 0 N N M N 0 0 : h a.#.W 1 N N C N r z <.U S D F Y Y Y Y T T E T E ",
"( ( ( / / T T F B B D A 3.d.j.s.2.L 1 B q N 0 0 0 9 0 0 0 0 M q 0 0 N N N M 8 H b.j 8 N M 0 N B r T.M.e F F F T F Y T T T E T ( ",
"( ( / / / E T Y B S D e l 8.7.h 0 8 B N M q M q q M 9 0 q N 0 9 5 0 0 N 0 N N 0 1 8 N N q B B B e G.W.t F F Y T Y Y Y E T E ( ( ",
"' ) ) ( ( / T Y F F Y F e Z e 1 N C Z B N 0 0 B N M q 0 9 M q 0 0 N 0 0 0 N 0 B B A A N q M B S Z k I S D Y Y Y T T Y E T E ( ) ",
"' ' ) ) ) ( / T Y Y Y F D B F Z A F B B B 0 0 M M q q N N 0 q M B N 0 N N N N B B N M M N B D D B 8 S F F Y T T T T E T T / ( ( ",
"' ' ) ) ) ( / / T Y F F F D D S F F B N B N B q B B q M N N N N N 0 N B N N B S N q q B B N N A B Z Z B S Y T T T T T E T / ( ) ",
"' ' ' ) ' / / / E Y F Y F Y F F F F Z N N N N S N N q N N S N A N B S B B N B N q N M B N M B B F S F Z S Y F T T E T E E ( ) ' ",
"' ' ' ) ( ( / E E Y Y F Y Y F F F F B N N N N M N N N N M B N N N Z B N B N B S N A N B S B Z Z F C C F Y Y Y Y E E / ( ) ) ' ' ",
"' ' ' ) ) / / / E E T Y Y Y F F F Z B B N N B B B N N N 0 0 B 0 B F B B B N N N B N S B S Z B F F F F F F F Y Y E E ( ) ) ( ' ' ",
"' ' ' ' ' ( / ( ( E E E Y Y F B F S C Z F S N S B F A B N N B B A F F D F A B N B B F D F F Z F F T F F Y Y Y T Y E ) ) ) ' _ _ ",
"' ' ' ' ' ) / ( ( E E E Y T Y F Y F B B B B B F D S F B B N S B F F F B B B B N A B B Z F F B S F Y Y F Y Y Y Y E ( ) ) ' ' ' _ ",
"' ' ' ' ' ' ) ( ( E E T E Y Y T F Z Z B B F F F F A F Z B N D B F F F F S F D F F B D F F Z F F Y Y Y Y Y Y Y E ( ) ) ) ' ' _ _ ",
"' ' ' ' ' ' ( ) ( E T T E T T T Y Y Y Y F Y F F Z F F F D N S Z F F F F F F Y F F D F S F F F F E T F Y E E E / ( ) ) ) ` ` _ ` ",
"' ' ' ' ' ' ' ) ' ( E T E E E E E E T T T Y Y Y Z F F T F F F F F F F Y F F F F F F F F F F F Y T T Y Y E / E ( ) ) ) ` ` ` ` ` ",
"' ' ' ' ' ' ' ' ' ( ( E E ( ( E E E E E E Y T T Y F F Y F D F F Y Y F F F F F F Y F F F Y F F F T Y T E ( ( ( ) ) ( ) ' ' ' ' ' ",
"' ' ' ' ' ' ' ' ' ' ' ( E ( ( E / E E E E E T E E Y F F S F B F F T E F T T T T Y Y T F F Y F F Y T E ( ( ( ' ) ) ) ' ' ' ' ' ' ",
"' ' ' ' ' ' ' ' ' ' ' ( ( ( E ( / / / E E E E / E ( T T T D F T E E E Y Y T T T Y T / E E T T E E ( ( ( ' ) ( ) ' ' ' ' ' ' ' ' ",
"' ' ' ' ' ' ' ' ' ' ' ' ' ' ( ( ( / / E / / ( / E ( ( ( ( / / / / E / E E E E T E ( ( ' ( ( ) ) ( ' ( ( ' ' ' ' ' ' ' ' ' ' ' ' ",
"' ' ' ' ' ' ' ' ' ' ' ' ' ' ) ) ( ( ( / ( / / ( ( ( ( ( ( / ( ( ( ( ) ( / / / E ( ( ( ( ' ( ( ( ( _ ( ' ' ' ' ' ' ' ' ' ' ' ' ' ",
"' ' ' ' ' ' ' ' ' ' ' ' ' ' ' ) ) ) ( ( ( ( ' ) ' ( ( ( ( ( ( ( ( ' ( ( ( / ( ' ' ( ) ( ( ( ' ( ' ' ' ' ' ' ' ' ' ' ' ' ' ' ' ' ",
"' ' ' ' ' ' ' ' ' ' ' ' ' ' ' ' ' ( ) ) ' ' ' ' ' ) ) ) ( ' ( ( ( ( ( ' ( E ( ( ' ( ) ' ( ' ' ' ' ' ' ' ' ' ' ' ' ' ' ' ' ' ' ' ",
"' ' ' ' ' ' ' ' ' ' ' ' ' ' ' ' ' ' ' ' ' ' ' ' ' ' ) ) ( ) ' ) ( ' ' ( ' ' ( ' ( ) ' ' ' ' ' ' ' ' ' ' ' ' ' ' ' ' ' ' ' ' ' ' "
};
