/* XPM */
static char *_c245bd11e3a4db48ec9f46e5fa7e446lLI5WOpyxbhOjyJI[] = {
/* columns rows colors chars-per-pixel */
"64 64 210 2 ",
"   c #351A3F",
".  c #391C3F",
"X  c #161D54",
"o  c #1A1B54",
"O  c #191B56",
"+  c #1A1E5C",
"@  c #2B1947",
"#  c #361B41",
"$  c #331C44",
"%  c #261D51",
"&  c #14245E",
"*  c #19205E",
"=  c #3B2446",
"-  c #3F2847",
";  c #34244C",
":  c #3B2649",
">  c #35294E",
",  c #3C294C",
"<  c #2C2352",
"1  c #282457",
"2  c #22235B",
"3  c #342B54",
"4  c #3B2D50",
"5  c #322E5B",
"6  c #392F5A",
"7  c #3C3156",
"8  c #3D345B",
"9  c #1B1E60",
"0  c #142661",
"q  c #1A2263",
"w  c #182A66",
"e  c #1A2569",
"r  c #162B6B",
"t  c #1A2A6C",
"y  c #172770",
"u  c #172D74",
"i  c #1A2B73",
"p  c #192E79",
"a  c #17327C",
"s  c #1A327D",
"d  c #2A2C62",
"f  c #242C6E",
"g  c #2A2A6B",
"h  c #342866",
"j  c #2D3063",
"k  c #25326D",
"l  c #2A346D",
"z  c #37376A",
"x  c #33386B",
"c  c #3C3D6D",
"v  c #212E70",
"b  c #302C72",
"n  c #243473",
"m  c #2C3673",
"M  c #2E3A75",
"N  c #21367D",
"B  c #253B7D",
"V  c #2B3E7E",
"C  c #333C73",
"Z  c #3A3E70",
"A  c #303F7F",
"S  c #402646",
"D  c #422C4B",
"F  c #46314C",
"G  c #4A324D",
"H  c #453352",
"J  c #4B3B57",
"K  c #41355A",
"L  c #4D3D5B",
"P  c #523C53",
"I  c #443E61",
"U  c #3E406E",
"Y  c #2E417E",
"T  c #354677",
"R  c #3E4371",
"E  c #33447D",
"W  c #39467D",
"Q  c #36487D",
"!  c #3C4A7C",
"~  c #564354",
"^  c #64474F",
"/  c #684F53",
"(  c #67535E",
")  c #474368",
"_  c #524D6D",
"`  c #5A576B",
"'  c #5C556B",
"]  c #444D76",
"[  c #474C76",
"{  c #434D7A",
"}  c #465172",
"|  c #4C5375",
" . c #465079",
".. c #4B5279",
"X. c #525576",
"o. c #555976",
"O. c #5C5B75",
"+. c #515578",
"@. c #565978",
"#. c #585978",
"$. c #695B67",
"%. c #645B6B",
"&. c #635E74",
"*. c #6E5B7E",
"=. c #715D70",
"-. c #5D626B",
";. c #6A666D",
":. c #776967",
">. c #71666E",
",. c #746A6E",
"<. c #7B6D6C",
"1. c #777364",
"2. c #7D706B",
"3. c #666173",
"4. c #6B6471",
"5. c #67647A",
"6. c #716770",
"7. c #786A75",
"8. c #857764",
"9. c #8C7767",
"0. c #8D7C65",
"q. c #83726A",
"w. c #8A7569",
"e. c #8D7869",
"r. c #947B66",
"t. c #9A7E65",
"y. c #927A69",
"u. c #9D7F69",
"i. c #826F75",
"p. c #E9B63F",
"a. c #EDBC3D",
"s. c #F0BF37",
"d. c #F4C436",
"f. c #F8C735",
"g. c #F3C239",
"h. c #92855C",
"j. c #9C8C5C",
"k. c #A9875F",
"l. c #A3885B",
"z. c #AC895E",
"x. c #B28D5D",
"c. c #AC9653",
"v. c #BE9557",
"b. c #B79A56",
"n. c #B5915B",
"m. c #BB9359",
"M. c #9D8163",
"N. c #A48562",
"B. c #A88661",
"V. c #A78860",
"C. c #AB8860",
"Z. c #C19656",
"A. c #C49A54",
"S. c #CA9E53",
"D. c #C09758",
"F. c #C4A64D",
"G. c #DEAE47",
"H. c #D4A54D",
"J. c #D8A74C",
"K. c #D6A94D",
"L. c #DBAB4A",
"P. c #D7B348",
"I. c #CDA151",
"U. c #D1A251",
"Y. c #E1AF46",
"T. c #E0AE49",
"R. c #E2B144",
"E. c #E4B244",
"W. c #E4B245",
"Q. c #E9B641",
"!. c #E9B542",
"~. c #E4BA43",
"^. c #EBB841",
"/. c #ECBA41",
"(. c #173182",
"). c #163283",
"_. c #193282",
"`. c #183382",
"'. c #193382",
"]. c #193483",
"[. c #1A3583",
"{. c #193284",
"}. c #1A3584",
"|. c #1B3585",
" X c #1A3684",
".X c #1E3882",
"XX c #1C3B8B",
"oX c #183D96",
"OX c #213782",
"+X c #233981",
"@X c #2A3D80",
"#X c #353B94",
"$X c #2D4181",
"%X c #354684",
"&X c #3842A2",
"*X c #524D87",
"=X c #6D6089",
"-X c #736589",
";X c #797488",
":X c #77789C",
">X c #7E79A5",
",X c #7471B1",
"<X c #7F88AF",
"1X c #97868A",
"2X c #9D92A7",
"3X c #8590BB",
"4X c #8787C3",
"5X c #9393CA",
"6X c #9DA4D8",
"7X c #A2A8E7",
/* pixels */
"}.'.].].(.].].].].].].].].`.].].Y F.d.f.f.d.f.d.d.d.d.g.d.d.d.d.d.d.f.b.$X).).}.}.`.`.`.}.`.`.}.`.}.`.}.].].].].].].].].].].].].",
"}.'.'.].].].s (.].].].}.].(.`.].a c.f.d.d.d.d.d.d.d.g.d.d.g.d.g.d.d.f.~.;.}.].).`.`.`.`.`.}.}.`.s `.}.`.(.].].].].].].].].`.].].",
"].].].].].].].].].].].].].].`.].a h.f.f.d.d.d.d.d.g.d.g.g.g.g.g.d.d.d.d.F.Y ).].].`.].].}.}.`.}.`.}.`.}.].].}.`.].].].].}.].].].",
"].].].(.].].'.].].].].].].].].`.a 1.d.f.d.d.d.d.g.g.g.d.d.d.g.g.d.d.d.d.g.h. X].].].].].`.}.}.`.}.`.}.`.].].`.}.].].].].].].].].",
"}.}.].'.].].'.'.].].].].].].].].).-.g.f.d.d.d.g.d.g.g.g.d.g.g.g.g.g.g.g.g.P.! ].].].].].}.}.].].`.}.`.}.`.}.}.`.}.`.}.`.].].}.`.",
"].].].].}.].].].].].].].].].].].(.} ~.d.d.d.d.d.d.g.g.d.d.g.a.g.g.g.g.g.g.g.j.s `.].].`.].].].].}.`.}.`.`.s `.}.`.}.`.}.].].`.}.",
"].].].].].].].].].].].].}.}.].].a T P.f.d.d.g.d.g.g.g.d.d.g.g.g.g.g.a.g.g.g.~.-.(.].].].].].`.].`.}.`.}.`.`.}.`.}.`.}.`.}.`.}.`.",
"].].'.'.].'.'.].].].].].].].].].a Y F.d.d.d.g.g.d.g.d.g.g.g.g.g.g.a.g.g.g.a.g.b.V }.}.].].].s ].}.`.}.`.}.}.`.}.`.}.}.s `.}.`.}.",
"].].].].].].(.].`.s ].(.].].].].].s c.d.f.d.g.g.g.g.g.g.g.g.g.g.g.s.a.a.g./.a.~.:.].|.].].].].].`.`.`..X`.}.`.}.}.`.].].`.`.].].",
"].].].].].].].].}.].}.].].].].].}.(.h.f.d.d.g.g.a.g.s.g.g.g.a.g.s.a.a.a.p.^.^./.F.T ].].].].`.].`.(.}.}.(.`.}.`.}.s ].}.}.}.].].",
"].'.'.].].].].].`.].].].].].].].}.(.1.d.d.f.g.g.g.g.a.g.g.a.a.a.a.g.p.p.p.^.^.^./.8.].].].].].].].].}.`.}.`.`.}.}.`.].].'.].].].",
"].'.].].].].(.].}.`.].].}.].].].}.}.-.a.g.g.g.g.g.a.g.a.a.a.a.a.a.a.p.p.p.!.!.!.!.K.[ '.].].].].].].`.}.`.}.}.`.}.}.].`.].].].].",
"].].].].].].`.'.].].].].].`.].].'.].} ~.g.g.g.g.s.a.a.a.g./.p.a.p.^.p.^.Q.R.!.R.W.!.j.s ].].].].].(.].].`.}.`.}.(.].].].].].].].",
"].}.].].}.].].'.].].].].].}.`.].].].T L.a.g.a.a.a.a.a.p.p.^./.p.Q.Q.p.p.R.R.R.R.R.R.K.O.]..X].].].].].].}.].}.`.].`.].'.].'.].].",
"'.].'.].].].}.`.].].].].].].].].'.].B F.g.a./.a.a.p.a.~.p.!.!./.Q.p.R.R.R.G.E.G.G.G.T.n.Y '.].}.].].].].].].].].].].'.].].'.].].",
"'.'.].].].`.s }.`.}.].].].].].].].].].c.g.p./.p./.!.!.p.!.!.!.W.G.R.Q.G.G.G.G.G.L.J.L.K.;.s ].].}.].].].].].].].].].].].'.].'.].",
"].].(.].].].].].].'.].].].].].'.].'.(.h./.!.!.!.!.!.W.!.W.!.W.R.G.G.G.G.G.L.G.L.L.K.K.U.n.T (.'.}.].].].].].].].].].].].].].s }.",
"'.'.].].].].].].}.'.'.{.}.].].].].'.(.1.!.!.W.!.!.W.R.R.R.R.R.G.L.G.G.G.J.J.H.H.K.K.U.I.U.8.].'.].].].].(.].].].].].].].].(.].].",
"].].].].].].].].|.'.'.'.].].].(.].].(.-.W.!.W.W.W.R.W.Y.G.R.G.G.G.J.P.J.J.H.H.H.U.H.I.I.I.v.} '.'.'.`.].'.].].].].].].].].].(.].",
"].].].].].].].].'.|.].'.].].].].].].(.} L.W.W.T.Y.Y.Y.Y.G.G.G.L.G.J.J.H.H.H.H.H.U.I.I.S.A.I.r.N '.'.].].s ].].].].].].].].].].].",
"(.].}.].`.}.`.}.'.[.'.'.[.'.[.[.'.{.'.T I.T.T.T.T.T.J.T.L.L.L.J.H.H.J.H.H.U.S.S.S.S.S.A.A.A.Z.O.(.].].{.(.].].].'.].].].].].].].",
"].].].].}.`.}.`.].[.'.y y y t e t t t k b.G.G.L.L.J.J.J.J.J.J.U.H.H.H.I.S.I.S.S.S.A.A.A.Z.Z.Z.t.V '.].'.'.].].].].].].].'.(.'.].",
"`.].].].].].].].].].p 0 + q q q 0 q e w l.T.J.J.J.K.H.H.J.H.U.U.I.I.S.I.S.S.A.A.A.Z.m.Z.Z.m.x.m.;.(.].].].'.'.].].].].].].].].(.",
"].].s ].].].].].'.].p & * 9 q * + 9 e y 0.T.J.K.J.H.U.I.H.H.U.S.I.S.S.A.A.A.A.Z.Z.Z.m.m.Z.x.x.x.N.T '.].].'.].].'.].].a ].].].].",
"].].].].].[.[.].].'.i * q q q e q + e y ;.J.K.K.H.H.U.S.S.U.S.A.S.A.A.v.A.v.v.v.m.n.m.n.x.z.z.z.C.,.].].'.].}.].'.'.].].].].].].",
"a ].].].].].].].].p e + 9 q e q q * e y o.I.H.U.I.S.S.S.S.A.A.S.A.v.v.m.v.m.v.n.n.x.x.z.z.z.C.B.V.M.] (.'.].].'.].'.].].].].}.].",
"(.].].].].].s p y t e q q q q q q q e y ] F.I.I.S.S.A.A.A.A.A.Z.v.m.v.m.v.n.n.x.z.z.C.k.l.N.l.N.M.M.2.B (.].].'.'.].].].].].].].",
"p i i t t w q q 0 0 * * e q + + q q q t E m.I.S.A.A.Z.A.Z.Z.Z.m.m.m.m.m.n.x.x.z.k.C.C.k.k.N.t.t.M.M.r.+.(.].].].'.(.(.].].].].].",
"& X * X O * * * 9 q 9 q q q * + q e e y B l.I.A.Z.Z.D.D.D.D.m.n.x.m.x.x.x.x.B.B.N.N.N.k.l.t.t.r.t.r.y.2.Y ].}.'.].].].].].].].].",
"X o O O O * O * 9 9 + q q q + q e e e y s r.A.A.D.v.m.m.m.m.n.x.x.C.C.C.B.t.i.=Xw.t.t.t.r.t.t.r.r.9.e.w.@.].].'.].].].].].].].].",
"X O O * * O * * + q * q q q q q q q q i ].1.v.v.m.n.x.x.x.x.C.z.z.u.C.C.u.i.*X*X*.t.t.r.r.r.9.y.w.w.w.q.<.E `.}.].].].].].].].].",
"O O * O * * * * * + + q e q e e e e e p '.3.m.n.n.x.x.x.C.C.C.B.k.k.C.u.u.2X4X,X=Xy.t.y.r.9.w.w.q.w.q.<.q.O.].].].s ].].].].].].",
"* + O O * * + + * + + q q e q e e q e p ).o.x.x.x.z.C.C.k.B.z.N.u.u.t.t.t.2X7X5X-Xy.y.e.w.w.q.q.2.2.<.<.<.6.W ].].].'.'.'.].].].",
"O O O O O O O + * * * q q q e e q 9 e u {.! N.C.z.C.C.V.N.M.M.t.u.t.t.r.t.1X4X3X>X:.w.q.w.q.q.<.<.<.<.,.4.6.O.+X].].'.'.'.].'.[.",
"o o o o + O O + * + + + q * * q + 0 e p {.Y M.k.N.N.N.M.M.t.t.t.t.r.r.r.y.y.i.-XL P <.2.2.2.<.<.,.<.6.6.>.;.4.{ [.'.'.[.'.[.'.'.",
"O O + + 2 + + + q + q * * * * * + + q s }.B w.k.N.t.M.t.t.r.0.r.t.r.9.9.y.w.q.P D D ( <.<.,.,.>.4.>.4.3.3.3.&.#.+X[.].'.{.].'.[.",
"* + * * O + O + + + + + O O * * X X 0 p s N :.N.t.t.r.r.r.r.9.9.e.w.w.q.q.q.:.G D D P ,.,.6.6.4.4.4.3.&.&.&.O.O.{ ].].].'.(.'.}.",
"X o o o o o o o o o o o o o o o O O O O O O H ^ ^ ^ ^ ^ / 9.q.q.q.q.q.q.q.<.$.D , - F =.6.6.3.3.4.3.&.&.&.&.O.o.o.V '.].'.}.}.'.",
"o o o o % o o o o o o o o o o o o o o o o o ; G G G D D F ( q.q.q.<.<.<.:.i.( S - - - %.;.3.3.3.&.&.&.#.#.X.+.o.| { ].'.].}.'.}.",
"o o o o o o o o o o o o o o o o o o o o O X < G G F F F G $.i.<.<.<.<.q.>.i.L : = , - ' 3.O.&.&.&.O.O.#.o.+.| +.+.+.E }.].(.}.'.",
"+ + O + o O o o + O + O + O O + o o O O 2 O 1 H H H H H L <.q.:.<.<.,.,.>.>.J : : > : ' &.#.#.o.#.X.X.X.X.+.........! OX'.'.].'.",
"q + 9 + + + + q 9 9 9 9 q + q q + + + + 9 + * 8 K K K 8 ' <.,.<.:.>.6.>.$.J = # : ; - ' #.@.o.o.........[ { ..[ *X{ { $X'.'.].].",
"p p p p i i i v i i p i u i p u p i i y i y i c c c c R %.,.>.,.7.;X6.P D = ; > ; ; 4 O.X.X.o.| ........{ { { W T ! ! E OX'.].'.",
"+ + 9 9 9 + 9 9 + + + 9 + + + + + + + + + + + 3 8 7 7 7 $.4.6.:X5X6X;X4 J D ; ; $ $ 8 +.| .... .{ [ [ { W ! { %XW W W ! V '.'.'.",
"9 9 + 9 9 9 9 9 + 9 9 + 9 9 + 9 9 + o o o o o @ , > , , ~ $.5.>X>X:XO.O.) = ; $ $ ; I ..{  .{ { { { ! W W W E { E E E E E +X].].",
"'.p _._.'.'.'.p _._.'.|._._.{.{.'.9 o o o o o < 3 > > > 3 , 7 7 _ ` ~ - #   $ $ $ 3 | .. .! { { ! W W W E T E T E E E E @X@X+X{.",
"'.'.'.[.{.[.|.'.'.'._.[.[.[._.|.'.i e e 9 O o @ > > > > 3 I 8 8 K S .       @ @ < R *X! ! { ! Q E E @XE W @X@X@X@X@XV +X@X@XOX{.",
"[.{.'.[.[.[.'.'.'._.[.[.[._.{.'.'.{.|.|.[.i 9 2 > > 7 ) ) @.@._ ,     = ; 5 h b #X#X&X$XQ Q Q E @XE @XE W %X@X@X@X@X@X+XOXOXOXOX",
"'.'.|.'.].].].s ].].}.}.}.].].}.].].].].].}.].t ; 3 _ o.+...@.) # # 6 R x g g g g g f M E E E E @XA V V @XV @X@X@X@X+X+X+X+XB OX",
"[.'.'.'.].].].].].].].].].].}.`.].].].].].].].p < 3 | } ......8 # ; ! { x z c Z C C j l $X$X$X@X@X@XV +X+X@X+XV V @X+XOX+XOX+XOX",
"].].}.'.].}.'.].].].].].}.}.`.}.].].}.].].].}.p 1 5 | | ] ..{ $ @ 5 ! ! j C ! %X$X$Xm k $XY +X+X+XB OXOX+X+X+X+X+X+XV V OXOX+X+X",
"'.'.}.'.].].(.].].].].].`.`.}.}.}.(.].].].].}.p * 5 { ..{ { ] $ @ z ! E l m @XE E $Xk k +X+X+X+X+X+XOX+X].+XB +X+X+XOX+XOXOX+X+X",
"[.'.].].].}.].].`.}.`.}.}.'.}.`.}.].].].].].].s * 5 ! ! ! Q z   @ C $XE m m @XV +X+Xn f +X.X}..X+X+X+X+X.X+X+X+XOXOXOX+XOX+X.X.X",
"{.{.].].].}.].].(.`.}.`.`.'.`.}.].].].].].].].p * j ! Q E T 1 @ < V @X$Xk n +XV +X+Xv i |..X+X+XOXOX{.+XB ].].+X+X.X+X+X+X].].OX",
"|.{.].].].].].'.}.`.`.}.`.}.}.`.}.'.}.'.].].].s w l Q E %XY x z l $X+X$Xf n +XOXOXOXi t }..X.X.XOXOX[.+X].].+X]..XOX+XOX+XN ].[.",
"{.'.].].'.].].].`.}.}.`.}.}.`.}.'.}.}.{.}.{.'.'.i M %XE Y Y <X3X$X+X+X+Xf p OXOX].|.v i .X}..X.X|.[.[.+X.X]..X].}..X].].}.[.[.[.",
"s `.}.`.].].].].}.`.'.'.}.`.}.`.].].].s ].].'.'.|.+X@XV B m _ I s B B .Xr k s ].s '.t i s s s s s ].s ].s s ].'.}.{.]..Xs .X}.s ",
"}.}.`.}.].].].].`.}.`.}.`.}.a }.].].].].].].].}.oX+Xn d 1 1 @ % w r r r & w r r r t q q r r r r r r r r r i r i u p p s a s s }.",
"`.}.}.`.].].].].}.`.}.`.].].`.}.].].].].].].'.{.oXXXg 2 1 2 2 2 0 & & & & & & & & 0 & q & 0 0 0 & 0 0 0 w & w r r r u u a a }.].",
"}.`.`.}.].].].].`.}.`.}.].].'.(.].].].(.'.].'.].XXXX'.p i i p i p p u u u u u u u u p i u u u u u u u u u a p p a a s s a a ].].",
"(.].].].].].`.}.'.].].].].'.'.(.].].].].'.}.].'.'.(.'.{.s ].{.{.s ].[.].].s s ].'.'.{.{.'.].'.'.].].'.'.].].].'.].].].].].].].].",
"].].].].].].}.`.].].].].].].'.].].'.].].'.'.[.[.'.'.'.'.[.].{.[.[.[.[.].].].].].'.}.{.{.[.].].'.}.}.].'.].].'.'.].].].].]. X].].",
"].].].].].].].].].].].].'.].].].'.}.{.{.}.'.'.].].].'.'.'.].[.].[.[.].].].'.].].'.|.[.].'.[.].].'.'.'.(.].].s ].].].].].].`.].].",
"].].}.].].].].].].].].].].].].].|.{.|.'.{.].[.].'.].].'.[.].'.].].].].].'.].].].'.}.'.'.[.'.'.].].].].].].].].].].].].].]. X X]."
};
