/* XPM */
static char *result[] = {
/* columns rows colors chars-per-pixel */
"64 64 235 2 ",
"   c #632D1E",
".  c #682F1E",
"X  c #662F20",
"o  c #683425",
"O  c #6E3A2A",
"+  c #743625",
"@  c #773827",
"#  c #7B3A25",
"$  c #743C2B",
"%  c #7B3D2B",
"&  c #753E30",
"*  c #6F412C",
"=  c #75402E",
"-  c #7C412D",
";  c #6E4533",
":  c #744233",
">  c #7B4333",
",  c #784938",
"<  c #7A4B3C",
"1  c #7D533C",
"2  c #7C4E43",
"3  c #7D5244",
"4  c #7D5646",
"5  c #7F5950",
"6  c #823C26",
"7  c #833E2C",
"8  c #893F2A",
"9  c #83432D",
"0  c #8D432D",
"q  c #91452E",
"w  c #834331",
"e  c #8E4531",
"r  c #884B34",
"t  c #834C3D",
"y  c #924630",
"u  c #944B33",
"i  c #9B4D35",
"p  c #954E38",
"a  c #9C4E38",
"s  c #86533A",
"d  c #9D5136",
"f  c #93543A",
"g  c #945539",
"h  c #9D5239",
"j  c #9B5A3E",
"k  c #A24F37",
"l  c #A35137",
"z  c #A3543B",
"x  c #A9563D",
"c  c #A4593E",
"v  c #AC5A3E",
"b  c #B15C3F",
"n  c #835644",
"m  c #835C43",
"M  c #895C44",
"N  c #83594B",
"B  c #8A5B4D",
"V  c #965B41",
"C  c #9B5D42",
"Z  c #905E4F",
"A  c #845952",
"S  c #AF5740",
"D  c #A35D41",
"F  c #AD5B41",
"G  c #B15E42",
"H  c #8E6347",
"J  c #85644D",
"K  c #8E634A",
"L  c #936445",
"P  c #9D6244",
"I  c #996847",
"U  c #956649",
"Y  c #956A4B",
"T  c #99694B",
"R  c #8D6B55",
"E  c #8C6558",
"W  c #8D6B5A",
"Q  c #926C54",
"!  c #95675A",
"~  c #956B5C",
"^  c #987457",
"/  c #94745C",
"(  c #99735A",
")  c #A36346",
"_  c #AC6245",
"`  c #A96549",
"'  c #A46A4B",
"]  c #AB6A4C",
"[  c #B46245",
"{  c #B86547",
"}  c #B56649",
"|  c #B96649",
" . c #B5694C",
".. c #BD6C4D",
"X. c #BF704F",
"o. c #A46B50",
"O. c #B36D52",
"+. c #BE6E51",
"@. c #A77355",
"#. c #AB7153",
"$. c #B57457",
"%. c #BE7253",
"&. c #BE7A5C",
"*. c #926C63",
"=. c #977567",
"-. c #9A7C6B",
";. c #A27B6A",
":. c #BB7D63",
">. c #B67D69",
",. c #A27F72",
"<. c #C06F4F",
"1. c #C0704F",
"2. c #C06F50",
"3. c #C27354",
"4. c #C87657",
"5. c #C57957",
"6. c #C57759",
"7. c #C9775A",
"8. c #C6795A",
"9. c #C97C5D",
"0. c #C47E61",
"q. c #CA7E61",
"w. c #C17F6B",
"e. c #BE805E",
"r. c #9D826D",
"t. c #9C8476",
"y. c #AA836C",
"u. c #B78167",
"i. c #BB846B",
"p. c #A38273",
"a. c #A3897B",
"s. c #A98978",
"d. c #BC8573",
"f. c #BC8974",
"g. c #B48878",
"h. c #BC8D7D",
"j. c #AE917B",
"k. c #BE927C",
"l. c #C6815E",
"z. c #CA805E",
"x. c #C48263",
"c. c #CB8363",
"v. c #CE8966",
"b. c #C3856A",
"n. c #CC866A",
"m. c #C4896E",
"M. c #CB8A6B",
"N. c #D08766",
"B. c #D28D6C",
"V. c #D2916F",
"C. c #C18770",
"Z. c #C38B74",
"A. c #CD8D73",
"S. c #C38F7B",
"D. c #C59175",
"F. c #C4927B",
"G. c #CA9379",
"H. c #D79372",
"J. c #A88D81",
"K. c #BF8F85",
"L. c #AC9282",
"P. c #AC978B",
"I. c #B79587",
"U. c #AF9792",
"Y. c #B29D92",
"T. c #BB9E93",
"R. c #B4A295",
"E. c #B9A69A",
"W. c #BAA9A3",
"Q. c #BDAAA3",
"!. c #BEB2AA",
"~. c #BCB7B4",
"^. c #C39582",
"/. c #C69985",
"(. c #CB9B83",
"). c #C29B8B",
"_. c #C99E8D",
"`. c #D19C83",
"'. c #C69E91",
"]. c #CCA28B",
"[. c #D5A28B",
"{. c #C6A493",
"}. c #CCA493",
"|. c #CAA896",
" X c #C4AA9D",
".X c #CDAB9D",
"XX c #D0AB97",
"oX c #D0AC9B",
"OX c #D0B19E",
"+X c #C3ABA3",
"@X c #CAADA4",
"#X c #C1AEAB",
"$X c #D2ABA2",
"%X c #C2B1A4",
"&X c #CEB3A4",
"*X c #C5B3AB",
"=X c #CCB5AC",
"-X c #C8BAAF",
";X c #D2B3A5",
":X c #D3B6A9",
">X c #D5B9AA",
",X c #DBBDAE",
"<X c #C4B4B3",
"1X c #C6B9B3",
"2X c #CBBBB3",
"3X c #CABBB8",
"4X c #D3BDB5",
"5X c #C9C0B5",
"6X c #CCC2BD",
"7X c #D3C2B5",
"8X c #DBC3B7",
"9X c #D2C2BC",
"0X c #D9C7BB",
"qX c #CCC5C3",
"wX c #D1C6C2",
"eX c #D4C9C4",
"rX c #DDCCC3",
"tX c #D5CDCB",
"yX c #D9CCC9",
"uX c #D6D2CC",
"iX c #DBD1CD",
"pX c #D2CCD0",
"aX c #D7D3D3",
"sX c #DCD5D3",
"dX c gray86",
"fX c #E4D1C9",
"gX c #E1D9D4",
"hX c #E3DDDB",
"jX c #DCE6E2",
"kX c #E2E3E4",
"lX c #E8E8E8",
"zX c #EDEBEC",
"xX c #ECEEEF",
"cX c #EEF2F1",
"vX c #F2F3F3",
/* pixels */
":X:X:X.XT.I.'.+X&X:X&X.X|.{.{._.].).F.i.T ^ %X0Xg.>.y.:.:.%X9Xh.d.i.d._.|.h.:.>./.{.+XqXkXkX9X2X:X&X=XpXlXI.L y.].T.).I.).}.oX$X",
"8.0.0.6.6.7.6.:.0.8.8.8.8.8.8.8.l.l.c.%.D =.0X].l.l.9.9.l.u.w.q.9.8.8.&.&.8.9.8.8.0.8.>.h.d.>.&.0.9.q.L.eXR.Y $.l.5.9.8.9.8.l.&.",
"7.8.6.&.6.7.7.7.6.6.6.8.8.8.8.6.6.9.9.O.j ^ y.u.3.&.8.8.6.8.7.7.8.8.7.6.7.9.8.7.8.6.6.7.3.8.8.8.6.8.q.&.( ( Y O.6.$.8.5.8.8.8.6.",
"7.8.8.8.8.8.8.8.7.6.6.8.8.8.8.6.6.6.6. .P I ' ....3.8.5.6.8.8.8.9.7.7.8.8.8.8.8.9.6.6.8.8.8.8.8.8.8.7...C I T ] .. .&.5.8.8.8.&.",
"8.8.8.0.8.8.8.8.8.8.8.8.8.8.0.8.8.3.%._ j Y P { { } 5.5.8.5.8.8.8.8.8.8.8.8.8.8.8.8.8.8.8.8.8.7.8.3.3.[ j I Y ) } } +.6.8.7.8.6.",
"8.8.8.8.8.8.7.7.8.8.8.8.8.8.7.7.3.1...x f I P v [ } X.3.4.3.8.8.8.8.8.8.8.8.q.8.8.8.8.8.8.8.4.7.6.3.1._ f I I D F _ } +.3.3.8.6.",
"6.6.6.8.7.0.7.0.8.8.7.6.6.6.%.+.3...} d f Y P v v G | X.1.3.3.6.7.8.0.7.8.0.8.8.8.8.7.7.8.3.3.2...1...c u Y I x v v [ ..+.3.%.%.",
"+.+.%.3.2.3.2.3.3.3.3.%.+.+.+.+...{ v i f I j v v v G { ..1.....+.2.2.2.6.3.3.2.%.6.%.3.%.3...+.X.| v z u L Y j v v v G | ..<...",
"<...3.+...+.+.+.+.+.+.<.<.2.<.| [ v x i r I g x v v v v [ | | ..+.2.2.2.+...+.+.+.2.2.2.2.2.2...{ F v z q L I d x F v S F G |  .",
"[ [ { | | ..+.+...+.....{ G G v v v x q 9 I f d F v v v S S G G [ | { ......+.+.....+...| { G G v F x d 6 H I s x F v F F S v F ",
"i i h h z h h h a a i y y y y y u y 0 # , ^ s 0 h z z a a a i k z z k D c c z v S z k a i y u u d u y 0 # H Y - y a z h a d i i ",
"4 3 : % = 2 E t.J.,.*.A 2 2 > , 2 2 5 =.2XuXP.,.+X Xg.~ *.p.J.*.n > & % % - $ $ $ $ O O $ $ O $ $ $ O O , Y Y s $ O $ $ = = : : ",
"hXsXR.K t.iXlXxXvXvXzXgXwX3X+X*X4X7X6XaXdXaX6X3XaXzXcXzXkXgXhXhXyXwX#X/ m =.P.a.,.=.;.;.;.p.p.r.p.j.L.s.;.y.y.s.a.J.L.j.j.Y.Q.3X",
"gXhXaXr.9XzX!.qXjXyX{.S.d.C.m.b.i.b.i.f.f.i.b.M.F. X=X@X).Z.S.).$XrXrXj./ 0X}.Z.b.n.m.M.A.G.G.D.Z.Z.M.b.b.n.M.H.(.[.[.].(.XX4XiX",
"b.u.L.p.hXtXD.f.K.Z.N.B.B.B.B.B.B.B.B.B.M.M.M.B.N.v.x.&.8.0.q.0.:.:.o.Z ( {.m.8.8.8.0.0.9.9.9.9.8.8.8.7.8.9.8.8.8.9.6.8.6.6.:.i.",
"9.%.C ( <XI.x.%.5.l.9.9.9.9.9.9.9.9.9.9.9.9.9.9.8.8.8.5.8.8.8.8.q.8.` C Y #.6.%.6.7.8.8.8.8.8.8.8.8.8.8.8.8.8.8.8.8.9.6.9.7.5.6.",
"8. .C T !  .&...6.6.6.8.8.6.8.6.6.6.8.8.8.8.8.8.8.8.9.8.8.8.8.8.7.$.) P Y ` ....%.5.6.6.8.8.7.8.8.8.9.8.8.8.8.9.8.8.8.8.8.8.9.6.",
"%.} j Y I [  . .%.7.9.6.6.9.8.8.8.8.8.8.8.8.8.8.8.8.8.8.8.8.8.7.3...D C Y C } } | 6.6.7.8.8.8.8.8.8.8.8.8.8.8.8.8.8.8.8.8.8.8.&.",
"+.c g I I F v [ ..+.3.5.6.6.8.8.8.8.8.8.8.8.8.8.8.8.8.8.8.8.6.2.1...h j T ) F G } X.3.6.8.8.8.8.8.8.8.8.8.8.8.8.8.8.8.7.8.8.5.%.",
"| z u I I D [ v { <.1.1.%.6.5.5.8.8.8.8.8.7.8.7.8.3.7.5.3.3.2.2.<._ u V T C v v [ | 1.<.1.1.3.3.3.5.7.7.7.5.7.5.7.8.7.3.3.3...X.",
"v h r I I c ..F v [ ..<.<.<.2.2.2.3.2.3.3.6.3.3.3.%.1.....<.2...[ v u V Y j v v v v } ....<.1.X.%.2.3.3.1.3.3.3.<.3.3.1...2.<...",
"F z 0 L L h ..F v v b [ | ..2.2.2.2.2.2.1.<.......+.X.<.<...| G v v y f Y f x v v v v G [ ......<.<.1.X...X...%...<.<.2.1...| G ",
"x i 6 I L d { v v v v b b G G G | ..| | ............| [ v x S v S D 8 r Y f z v v v v v v v b G [ [ } { ..| ..| ....| } [ F S S ",
"8 6 $ H H w u a i i i i i i i k k k D z x z z z d u 0 6 6 6 e p y e # s Y r 0 p a i u g u u i i i d d d d h d d i y y 0 0 0 e e ",
"< 2 B p.W.!.=.*.I.s.! B ! =.! 2 : & $ % $ $ + o o o o o o O ; : & O $ J R s * * = : = = = = = * = @ = * * $ O : 3 E *.*.A 2 , ; ",
"+X#X1X9XaXaX1X+XiXlXlXdXiXyXaXtXwX!.-.M m 4 1 s J j.W.W.!.6XaXtXwX<XQ.E.R.R.Y.E.5X7X!.P.t.t.r.a.a.t.E M M m W 1XkXkXvXzXhXwX<XW.",
"x.c.u.i.b.b.u.&.f.{.$X}.F.S.F. X:X,X}.:.T T T $.u.F.I.F.(.].XX;X>X,X8X8X>X%X*X6XiXfXfX0X0X7X7X8X8X&XD.x.' Y E.zX!.Q.aX4X^.Z.C.b.",
"9.9.9.9.7.9.9.q.9.l.9.8.q.z.l.9.x.0.c.&.P Y @.x.l.v.B.V.H.H.H.H.H.B.V.V.V.V.A.A.A.A.V.m.m.m.x.b.b.M.v.x.' Y =XeXi.:.:.:.8.9.q.x.",
"7.8.8.8.8.8.8.7.7.8.8.8.8.7.8.8.6.9.x. .P I #.9.6.&.8.l.l.9.9.q.9.9.9.z.5.l.7.8.8.8.8.8.8.8.6.8.5.8.z.&.C U p.y.8.$.7.7.8.8.7.&.",
"8.8.8.8.8.8.8.8.7.8.8.8.7.8.8.8.5.8.8. .C Y ' %.X.%.8.6.8.8.8.5.8.5.8.7.5.7.8.5.8.8.8.8.8.6.8.8.8.8.6.X.D U I ] %.X.&.8.8.0.6.6.",
"8.8.8.8.8.8.8.8.8.8.6.6.8.8.8.5.5.5.X._ C T ) } } ..6.6.8.8.8.8.8.8.8.7.8.7.8.9.8.8.8.8.8.8.8.8.6.6.%. .D U I )  .[ %.5.5.8.8.5.",
"8.8.5.8.8.8.8.8.8.8.8.8.5.8.5.5.6.X...h f Y P F [ | %.6.7.5.5.8.8.8.8.8.8.8.8.8.8.8.8.5.8.8.8.3.6.3.3._ h U T D F } | +.6.3.5.&.",
"3.5.7.7.7.7.4.7.7.7.8.7.8.3.3.1.<.<.{ q s Y P v v [ ..1.<.3.3.3.5.4.7.7.8.7.8.8.7.7.6.7.7.7.3.3.3.<...v u Y I D v v [ 2.2.2.2.%.",
"3.3.3.3.7.3.3.3.3.3.3.3.3.1...<.<.| b 0 s Y j v v v G ......3.2.1.3.3.3.7.3.7.3.6.3.2.3.3...<.+....._ l u I Y j F v v G ..+.<.+.",
"1.<...<.+.+.1.X...+.+.%.<.2.....[ b x 0 9 I V c v v v v { | ..2.1.1.1.2.+.1.2.+.2.2.<.<.......<.| b v l q L I d v v v v v { ..| ",
"{ { ........<.......| ....{ [ _ v v x 6 $ I g l F v v v v v [ [ | | ..........3.+.2.<.......} G G v v z - H Y g v v v v v v F F ",
"z l x z c c h d i u y y 0 0 0 0 i u y + * Y s y z z v z z x z z x v v F F F G G G S S v l l l d z z k 8 # Z L 9 i l z x z z z d ",
"% - - - O . .   .       X   X X         1 Y s * % % - 9 - 7 9 % w > - - - 9 r t t n n Z U Z n r > % $ $ > Y ^ N < , > & - # % = ",
"R.r.N M J R =.*.R R R R R R R R / -.=./ / / ( Q R ~ W Q / =.t.U.Q.+XP.J 1 N U.!.#X#XwXgXhXhXsXyX3X1X#XQ.%X1XwXsXgXiX1XE.Y.P.P.R.",
".XF.o.I y.7X{.h.f.i.Z.h.F.^.I.k.k.)./.S.D.F.F.).{.;X;X|.{.6XdXlXzXzXcXE.Y @.i.b.m.A.Z.G.(.`.].XX.X;XoX{.{.{.@X>X,X,X>X>X>X&X&X:X",
"c.e.' H L..X:.9.8.9.8.l.l.0.0.8.8.l.l.0.0.9.z.z.z.l.9.0.9.:.d.K.K.k.E.U.Y $.n.n.B.B.N.B.V.M.B.v.v.n.M.N.n.n.M.m.M.M.M.M.M.M.M.x.",
"z.$.C Y / >.5.3.8.6.6.8.7.8.8.8.6.6.8.8.5.5.8.8.8.8.8.8.8.8.5.&.8.l.' U Y #.c.6.l.z.c.c.c.b.n.M.n.M.n.n.n.n.c.n.n.M.n.n.n.c.0.8.",
"4. .) I I  .%.%.7.8.8.6.8.8.8.8.8.6.9.6.7.8.8.5.5.8.7.4.6.6.8.8.0.6.` V Y ] +...6.8.8.8.8.9.9.x.N.N.v.v.v.v.v.c.c.c.c.z.9.9.8.8.",
"3.[ j I I } } | 6.3.8.7.5.8.8.7.8.8.8.8.8.8.8.8.7.8.8.8.6.8.8.5.6.+.D C I P } } | 5.5.8.8.8.6.6.8.c.c.c.9.9.9.8.8.8.8.5.&.6.8.8.",
"2.F f U I F ` [ +.2.6.7.7.9.7.8.8.8.8.8.8.8.8.8.8.8.8.7.8.7.7.3.+. .z V I ) F [ } X.3.5.5.5.6.8.8.8.8.8.6.6.6.8.8.8.8.7.8.8.3.6.",
"..z u U I D F G | 2.+.2.3.3.3.8.8.8.8.8.8.8.8.8.8.8.8.3.6.3.+.2.+.[ i V I D x F [ ..1.1.1.3.6.7.8.7.8.7.7.7.8.8.8.7.4.3.6.%.3...",
"G k u Y L D F F S { ..<.1.3.2.3.3.6.3.7.7.3.7.6.6.3.3.2.....2.<.} F u V Y C F v x b | 1.2.+.2.2.2.3.6.3.3.6.3.3.3.3.1.X.X.X.<...",
"S k e U L k b v v b G { ..<.<.1.......2.+.+.<...<.<.<.2.<.<...[ F S y f Y f v v v v F _ { ....2.2.<.2.<.2.2.2...%.X.<.1.1....._ ",
"S a 6 L U a S v v v S F G G [ | | ..| ..........<.......{ G G F v v 8 s Y f z F v v v v v G G [ { | ....+.....<.<.......G G G v ",
"y 7 % H H 9 a z z z z z z z z z c F v x F F F v F z z a a k a h a y 6 s Y w y a h z d d l a k a k z a z c h z z l i a u u y i u ",
"< : , Y H < t A B n % & % - > % > $ & % % $ $ $ O + + + + & & O $ & < J ^ ! N : & $ = = = = > - > , > > $ $ = * , 4 N < < < & : ",
"9X*XW.*X2X-X!.wXsXtX3XW.R.Q.<XY.t.J.R.!.-.1 1 1 4 =.J.U.+X<X#X!.<XqXtX2X+XwXuX*XY.P.L.a.a.L.R.%X6XtXqX~.R.R 4 P.eX3XwX3X+XwXeX6X",
"Z.m.D.|._.Z.i.h._. X!.aXkXyX3X;X$X$X4XkXuXQ T #.i.OX>X&X{.^.^._.$X@X).b.m.f.F.S.G.G.(.G.(.(.].XX4XgX9X*XhX6Xa.iXR.d.i.b.0.^.4XE.",
"9.9.8.6.8.9.8.6.9.0.0.u.i.:.&.8.l.l.x.T.qX( #.x.l.x.0.8.0.q.c.c.9.8.0.8.9.8.q.9.9.c.c.c.9.z.9.z.q.b.b.0.I.5X%X=Xx.9.q.9.9.0.0.0.",
"8.8.8.8.8.8.q.6.8.6.6.9.8.&.6.6.8.8.c.#.Q I #.9.5.5.8.8.7.8.8.6.7.9.8.8.7.8.8.8.8.7.8.8.8.8.8.8.7.9.q.$.C Q -.>.8.%.6.6.6.8.7.6.",
"8.8.8.8.8.8.7.7.8.8.8.8.8.6.9.8.8.8.8. .V Y ' ..X.%.8.8.7.7.7.8.8.8.8.8.8.8.8.8.8.8.8.8.8.8.7.7.8.7.7.+.C I T  .+.+.&.9.8.8.8.6.",
"8.8.8.8.8.8.8.8.8.8.8.8.8.8.8.8.4.3.3._ V Y ' } } ..7.7.8.8.8.8.8.8.8.8.8.8.8.8.8.9.8.8.8.8.7.8.7.7.6. .D U Y ` } } %.7.7.7.8.&.",
"8.8.7.8.8.8.8.8.8.8.8.6.8.8.8.8.3.3.X.x g Y P F [ } +.3.7.7.8.8.8.8.8.8.8.8.8.8.8.8.8.8.8.8.7.5.6.3.+._ h U T D F } | 3.3.7.5.6.",
"8.8.8.8.7.8.5.8.8.8.8.7.7.3.3.3...1.| k f Y P S F [ ..<.<.3.3.7.7.7.7.5.5.6.7.7.7.7.8.8.8.6.3.3.......x u I I D F F [ ....%.3.%.",
"..3.3.3.3.3.3.6.6.3.3.3.3.<.<...3.| F a f T C F v v G ......2.%.%.3.%.6.6.3.6.6.5.3.3.3.3.3.....X...[ z y Y I c S v v [ | X.X...",
"X.X.<.X.+.+...3.1.1...<...1.<...{ F F a r U j x F v v F [ ....+.X.X.X.X...3...1.3...1.<.X.3.....| [ v l y L I g x F v v F { ....",
"{ | ........<.......<.<...{ [ G v F S y 9 I g z v v v v S G G [ { | ........<.1.<.1.<.....| | [ v v v h 6 H I p v v S x F v b v ",
"z z z c S F F F v F x z l i i a d h i 6 9 Y s y c F x x x z z x x x c F F F F [ G F F S x l l h z z h 0 # H I 9 i z c c z l z h ",
"w % % 7 & % % % @ + + + + + + + + + + + < Y n + % 7 7 7 7 w 7 7 9 9 9 9 9 9 9 9 7 % % % @ # @ $ % $ # + = Y Y , + @ % - % - - # "
};
