/* XPM */
static char *_38fbf57b81b4d0fa2a755890bbc2cddaZTwhnUwxaGn9HqE[] = {
/* columns rows colors chars-per-pixel */
"64 64 173 2 ",
"   c #030304",
".  c #080703",
"X  c #0C0B03",
"o  c #01010B",
"O  c #07080A",
"+  c #0C0C0C",
"@  c #110E03",
"#  c #100F0A",
"$  c #151104",
"%  c #1A1604",
"&  c #1E1904",
"*  c #14120C",
"=  c #1A160A",
"-  c #1D1A0C",
";  c #000012",
":  c #050812",
">  c #0B0D12",
",  c #00001A",
"<  c #0F1012",
"1  c #131313",
"2  c #181712",
"3  c #1B1A13",
"4  c #151618",
"5  c #1B1B1B",
"6  c #221D04",
"7  c #221E0B",
"8  c #211E13",
"9  c #252003",
"0  c #2A2504",
"q  c #2E2902",
"w  c #25220D",
"e  c #2A240B",
"r  c #322C02",
"t  c #332E0B",
"y  c #373107",
"u  c #3B3402",
"i  c #37310B",
"p  c #3D350A",
"a  c #252212",
"s  c #2A2511",
"d  c #23211B",
"f  c #373114",
"g  c #000023",
"h  c #0C172B",
"j  c #232323",
"k  c #2B2B2B",
"l  c #312E25",
"z  c #34322A",
"x  c #343434",
"c  c #3B3B3B",
"v  c #423A04",
"b  c #443C0C",
"n  c #403910",
"m  c #4C4302",
"M  c #4C430B",
"N  c #514703",
"B  c #534903",
"V  c #594F05",
"C  c #52480C",
"Z  c #584E09",
"A  c #5C5003",
"S  c #5D520A",
"D  c #594E11",
"F  c #615502",
"G  c #655905",
"H  c #6A5D04",
"J  c #61560A",
"K  c #66590B",
"L  c #6A5D09",
"P  c #6F6203",
"I  c #6E620C",
"U  c #726403",
"Y  c #7B6C05",
"T  c #73650A",
"R  c #76680C",
"E  c #7C6D0B",
"W  c #7F7003",
"Q  c #7F7009",
"!  c #776915",
"~  c #6C6126",
"^  c #696037",
"/  c #2A3143",
"(  c #333B4E",
")  c #444444",
"_  c #484848",
"`  c gray29",
"'  c #4B4B4B",
"]  c #4C4C4C",
"[  c gray30",
"{  c #4E4E4E",
"}  c gray31",
"|  c #454850",
" . c #505050",
".. c #515151",
"X. c #525252",
"o. c #535353",
"O. c #545454",
"+. c #575757",
"@. c #5A5A57",
"#. c #595959",
"$. c #5B5B5B",
"%. c #5D5D5D",
"&. c #5F5F5F",
"*. c #626262",
"=. c #646464",
"-. c #6C6C6C",
";. c #747474",
":. c #7B7B7B",
">. c #817204",
",. c #887703",
"<. c #8C7B05",
"1. c #81720B",
"2. c #8D7D0A",
"3. c #907F06",
"4. c #847739",
"5. c #948204",
"6. c #948305",
"7. c #968405",
"8. c #9E8B04",
"9. c #958309",
"0. c #9D8A08",
"q. c #9F8D0A",
"w. c #9C8A0E",
"e. c #A18E05",
"r. c #A18F09",
"t. c #A59205",
"y. c #A69306",
"u. c #AA9605",
"i. c #AA9607",
"p. c #AE9A04",
"a. c #AF9A06",
"s. c #A59209",
"d. c #A89508",
"f. c #B29D05",
"g. c #B49F05",
"h. c #B19C0D",
"j. c #B6A104",
"k. c #B7A105",
"l. c #BBA504",
"z. c #BCA605",
"x. c #BFA904",
"c. c #B7A209",
"v. c #B7A20A",
"b. c #BFA90A",
"n. c #C2AB04",
"m. c #C3AC04",
"M. c #C4AD04",
"N. c #C7B003",
"B. c #C8B104",
"V. c #CCB404",
"C. c #CFB704",
"Z. c #CEB608",
"A. c #D0B703",
"S. c #D2BA03",
"D. c #D3BB03",
"F. c #D5BC03",
"G. c #D8BE03",
"H. c #D8BF04",
"J. c #DCC203",
"K. c #E0C503",
"L. c #E1C603",
"P. c #E5CA03",
"I. c #E7CC02",
"U. c #E9CE03",
"Y. c #EACF02",
"T. c #E5CB0A",
"R. c #EDD103",
"E. c #F2D603",
"W. c #F6DA03",
"Q. c #838383",
"!. c #8B8B8B",
"~. c #929292",
"^. c #989898",
/* pixels */
"k j j j j 5 j 5 5 5 5 5 5 5 4 5 4 5 4 4 5 5 4 5 5 5 5 5 j 5 5 5 j j j j j j k j k 5 j j 4 j x x x c c c ) ) _ ` ]  .o.O.$.&.&.=.",
"k k j j j j 5 5 5 5 4 5 4 2 4 2 2 4 5 2 4 2 2 5 4 5 5 5 5 5 5 j j 5 j j j j j k j 5 4 4 4 1 5 j x x c c c c ) _ ` ] ..O.O.$.&.&.",
"j k j 5 j 5 5 5 5 5 4 4 4 2 4 2 4 2 4 2 4 2 4 4 4 2 2 5 5 5 5 8 5 5 j 5 j j j j j 5 5 2 4 4 2 8 5 j x x c ) ) ) ` ] ] ..O.$.$.&.",
"j j j j 8 5 5 4 5 4 5 4 2 4 4 4 1 2 4 4 4 2 1 4 2 5 4 4 4 4 5 5 5 5 5 j 5 j 5 5 5 8 5 4 2 4 4 4 4 5 5 j k c c ) ) ` ] ....O.$.$.",
"k 5 j 5 5 5 5 5 5 2 4 4 4 4 2 1 1 1 1 4 4 1 2 1 1 4 2 4 4 5 4 5 5 5 5 4 4 4 2 4 4 4 4 1 1 1 1 1 4 8 5 j j j x c ) _ ' ] ..O.O.&.",
"j j j j 5 5 5 5 4 2 4 2 1 1 1 1 1 1 1 1 1 1 4 1 1 4 4 4 2 4 2 5 5 2 4 < < < < # 1 < 1 # 1 1 1 # 4 4 5 j j j k c ) ) ` ] } ....$.",
"j j 5 5 5 5 5 2 4 4 1 4 1 1 1 1 1 1 1 1 1 1 1 1 1 1 4 2 4 < 1 4 4 4 1 1 < # # < # < 1 < 1 1 4 1 < 4 4 8 j k k k c ) ) ] ] ] ..O.",
"j j 5 5 5 5 5 4 4 2 1 1 1 1 1 1 < # 1 < 1 1 1 1 < # 1 1 1 # < # 1 # < # < + + < < < # # < 1 1 < < 1 4 4 5 j k k x ) ) ` ] ] ..O.",
"j j j 5 5 4 5 4 4 2 1 1 1 1 < < 1 < < < 1 # 1 < # > # 1 1 > + + + + + + # + + + > < # < < 1 < 1 1 1 4 4 4 j j x c ) ) _ ` ] ] O.",
"5 j 5 5 5 5 2 4 4 4 1 1 1 * < * 1 # # 1 1 < < # > # > < # + + + + + + + + O + + # + > # # < # < < 1 2 1 4 4 j k x c c ) _ ` ] ..",
"j 5 5 5 5 4 5 2 2 4 1 1 1 < < 1 < < < # < 1 < + # + + + + + + + O + + + . + + + > # + + < < # < 1 1 1 1 4 1 5 5 j k c ) ) ` ] ] ",
"j j 8 5 5 5 4 4 1 1 1 1 1 1 < # < # < < # < # + + + + + + + O + + . + + + + + + + + + + + # > < 1 < 1 1 1 1 4 5 5 j x ) ) ' ] } ",
"j 5 5 5 5 4 2 2 1 1 1 1 < 1 # < < < < < # # + + + + + + O O X + O + + + + + + + + + + + + + < # + + 1 1 1 1 1 8 j 5 4 k x c ) ] ",
"5 j 5 5 5 4 4 4 1 1 1 1 * < # < # + # + + + O O + O . O . O + . O .   + + . + + + + + + # + # < + 1 1 1 1 1 4 3 4 5 5 5 5 5 k x ",
"j 5 j 5 5 2 4 4 4 1 1 1 1 1 1 < + < + + + O O + + . O .   O . O +   + + . + + + + + + + + + > + + 1 + 1 1 1 1 1 4 4 4 5 5 j k j ",
"j j 5 5 5 5 4 2 2 1 1 1 < < # < # + + + O + O % O O O O O . O O   +   + : . O + + O + + + + # < + + 1 + 1 1 1 1 4 1 4 4 a j j x ",
"j 5 5 5 5 4 4 4 4 2 1 1 1 1 3 + + + + . + o $ o o X O O O . O . O O O . O . + . O + + + + + + + + + + 1 1 1 1 1 1 4 5 5 5 5 k ( ",
"j j j 5 5 5 5 4 4 1 + 1 1 * ; + + + O .   = o V 2.  % O . O   .   . O O + O O O . + O + + + + + + 1 + + + 1 * 1 * 1 2 5 4 8 j c ",
"j j 5 5 5 4 2 4 1 + + * + : b = o + O O + &   f.f.o w   O . . O . O O . . O . + + O O + + + + + + + 1 < + 2 ; 1 1 4 2 4 5 5 d x ",
"j 5 5 5 5 5 2 5 4 1 > w o L f.o o $ O O $ o y C.5.  6   O     O   . O O . O O . . O + $ + + + > + 1 + + 1 ; f 8 > 2 4 4 4 5 5 z ",
"j j j 5 5 5 4 4 2 + 1 3 o i.z.o $ + +   -   G F.Y o 6   . O   O O . O O . O . O + + X o O + + + + + # 7 ; I r., : 3 4 4 5 5 j k ",
"j j 5 j 8 5 5 5 4 1 * O o B.a.o - X O + % o 5.A.v o + .     .   .   O . O O + O   * o S v o * + + 1 # 2 ; h.c.; 2 5 5 2 4 8 4 k ",
"j j 5 5 8 5 4 5 4 1 = o M K.0.o 7 + O $   o n.M.  $   .   O   . .   O O   . O O X # o y.C o = O + < = ; b C.w., 8 2 5 5 4 4 5 k ",
"j j j j 5 5 5 4 2 1 3 ; 1.U.E o 6 O O % o v F.y.  %   O   .       O   . O .   O - o v f.p o + + + + 7 o 2.P.E ; a 1 4 5 5 5 j j ",
"j j j 5 j 5 5 4 4 < 8 o 0.P.S o 7 O O &   Y K.Y   %   O       . O   . O .   O   7 o H n.e o + + # + 3 o c.K.b ; 8 1 4 4 5 5 j k ",
"k j j j 5 5 5 5 5 4 - ; k.I.S o 7 + + &   y.D.9   X         .       .           &   Y c.- o + + > 1 o a D.M.; 2 2 1 4 2 5 8 j j ",
"k j j 5 5 8 5 2 4 2 : o n.I.T o - . #     l.p.  $ . O                   . @ $ X 6 o 5.z.o O O + + 7 ; R P.q.; s 1 1 1 2 5 5 5 j ",
"j j j j j 5 5 4 1 3 ; M D.K.E o - O =   V J.5.  & .                 . @ X         o 8.c.o + O $ - 8 o s.K.1.; s < 1 1 1 4 5 5 k ",
"k j j 5 5 5 5 4 1 - o T J.A.9.o + . %   7.K.F   6                 X &     A 8.n.l.W l.n.o 7 - = + o * M.U.1.; s < 1 4 4 4 5 5 k ",
"k k k 5 5 5 4 1 > a ; 9.J.d.y.7 o $     V.D.    $ . $ @ .       $     v y.J.U.C.5.p x.n.o o o o t I f.U.D.b ; 3 < 1 2 2 5 j 5 k ",
"j j j j 5 5 4 1 * 3 ; s.J.E d.M o &   A J.j.  % $         .   %     <.D.U.V.>.      m.c.o b R i.D.J.J.U.r.o t ; 1 1 4 4 4 j j x ",
"k k k 5 5 5 4 < 2 + ; f.M.b c.U   6   Y J.>.  0   r A >.m   6   u j.R.J.,.    &   X M.N.8.C.I.J.f.T c.P.R ; a # 1 1 1 4 2 5 k ) ",
"k k k 5 3 4 1 1 3 ; a b.k.o s.3.  6   p.G.v     P 5.e.D.5.    m F.W.f.    6 @   B 8.J.R.I.C.5.p o M F.J.8 o ; 4 1 1 4 5 1 8 k ( ",
"k k j 5 5 1 1 > 7 ; M M.q.o 2.e.    v J.C.    u f.P V C.z.  N G.I.5.    q   q 8.F.R.R.D.T o o o o 2.U.c.b 2.R ; 2 4 4 5 4 j l c ",
"k j 5 5 5 4 1 1 a ; T D.1.o L f.u   U I.e.    8.k.a.n.J.C.V H.I.U   % $   Y D.R.D.8.C.f.o 7 w $ o z.U.e.f.B.B.D ; 8 4 5 5 k k x ",
"k 5 j 5 4 2 1 1 8 ; 2.F.K ; b n.H   f.K.P   r x.n.n.D.J.C.C.R.<.  9 .   p.I.m.Y     C.l.  6 + o Z G.J.J.R.J.P.s.; a 4 5 8 j k c ",
"k j 5 5 2 4 4 2 3 ; d.C.e o o q.,.  A.G.9   G M.u   C.F.J.R.f.  % &   8.m.A       6 D.m.  % % o 0.P.R.G.D.K.P.D.; 8 4 j j j k x ",
"k j 5 5 5 4 4 3 2 o k.f.o e o 3.e.V K.k.    Y C.e.n.C.a.Y.J.F   6   . G     & 6   6 C.f.  7 o < B.E.D.f s.I.K.I.E , f 5 j j j k ",
"k j 5 5 5 4 4 3 > o x.9.; w o S a.u.U.<.    m z.F.M.r 8.W.C.    @       $ &   $   O A.f.o 0   ,.E.P.K o 2.J.I.U.G.D , d z d j ( ",
"k j j 5 5 2 4 8 ; n x.K o = > o i.U.J.B   &   u B     5.G.5.  @ .     &     . $   $ D.i.  e o e.J.2.o o C G.P.K.U.B.! 8 g h ) O.",
"j j 5 5 5 5 4 8 ; E z.2 o 4 7 o a.R.y.  $ . X     . @ 6 r   .                 % o   M.2.o - o * 7 o - - o Q J.R.P.J.D.h.q.^ | $.",
"j k 5 5 5 4 2 - ; w.5.; - + * o J 2.y o #   . X @ .       @               .   X   o Y p o X +   o 7 > # 8 ; T A.U.R.P.U.T.4.( &.",
"k k 5 5 5 2 4 1 1 i 1 : 1 + + = o     +               . .               O     . O + o   # + O + # + # > > 7 ; 8 2.m.C.c.~ / ..$.",
"x k k 5 5 4 4 1 2 ; > 2 + + > + - w $ o .                                 .   . . + = # . O + + O + > # + > w o ; , > g g z ..%.",
"c c x j 5 5 4 2 1 3 2 > 1 + + + + + + + . O                 .           O . O O O . X + O + + + + + + + + > 1 8 a 2 > d l c o.&.",
"c x x k j 5 4 4 1 1 1 # 1 > * < + + + + + + . O     .                   O O   . + + O O O + + + + + + + * 1 4 1 1 2 2 5 j c $.%.",
"c c x k j j 8 4 2 1 1 # + + 1 + 1 + < + + + + + +   . O .   . +         . . O O + + + + + + + + + + 1 + 1 > 1 1 > 4 2 j k x o.*.",
"c c c k k k j 5 4 4 4 1 1 1 + 1 + 1 + + + + + + + +   O .     O O     . . O O + + O + O X + + + < + + 1 * 1 1 4 1 1 4 j 5 x ) $.",
"( c c z k j j j 5 4 1 4 1 1 1 1 + 1 + < # < # + + + . + . . O . +     O + + + + + + + + + + + + + # < < < # 1 4 2 4 5 j 5 x ..*.",
") c c c x k j j j 5 5 4 1 # 1 1 1 < 1 + 1 + + + + < + + O O + O .   . O # + + + + + > # + . + < 1 + # 1 < # 2 4 1 5 4 4 x ] &.=.",
") ) c c x x x k 8 4 4 4 1 2 1 1 < 1 4 < + < + + + + + + + + + +       + + + + + + < > + + + # + > # 1 1 1 1 4 4 4 5 5 j ) ..) o.",
") ) ) c c x x z k k j 4 5 4 1 1 4 5 2 4 1 + 1 + + + + + + + + .   + + + + + < + # # # > + + + + + + 1 < 1 4 4 5 8 5 j k k c c c ",
"_ ) ) c c c x x x k k k 5 1 2 4 5 j 5 4 1 + < # < + + + + + + O + + # + > + # < + + < + < # > > 1 < < 1 1 4 4 5 8 5 8 j x k c $.",
"` _ ) c c c c x x x x k k j 5 4 5 5 5 5 2 1 1 < < + + + + + + +   # # > # # > # < < 1 < # 1 # 1 * 1 1 4 2 5 j j j x x c ` %.=.;.",
"] ' ) ) c c c x x x k k k k k 8 5 4 4 j 4 1 1 < + + + + + + + + + # > # + < < < < # < 1 1 1 < 1 < 1 4 2 4 5 5 j k x ( @.=.-.;.:.",
" .] _ _ ) ) c c x x x x x x k k j j 5 5 8 2 1 < 1 + 1 + 1 1 1 + + < # > < # < < # < 1 # # 4 1 2 1 2 5 4 8 k x x x ) %.=.-.-.;.:.",
".. .] _ ) ) ) c ( x x x z x k z k k k j j 5 < 4 1 # < + # 1 < < > # < < # # < 1 # 1 4 1 1 4 1 4 j j j j d z ( ) ..&.=.-.-.;.:.:.",
"+.O.] ` ) ) ) c c c c x x x x k k k k k j 4 4 5 1 1 1 < < 1 1 1 < < < 1 < 1 < 1 4 4 5 4 4 8 5 j j j j k c ) ) ..*.=.-.-.;.;.:.Q.",
"@.O...] _ _ ) ) ) c c c x x x x z x k k j j j 5 4 4 # 1 1 < 1 4 5 4 1 4 1 4 1 1 4 5 j 5 5 j d l k k j x O.%.%.*.*.-.-.;.;.:.Q.Q.",
"$.@.O. .] _ _ ) ) c c c c c x x x k k k k k j 8 5 2 1 1 5 4 5 5 j 5 8 5 4 4 j 8 5 j j j k k c ( k k k ` $.%.&.*.=.-.-.;.:.:.Q.!.",
"&.$.O.O...] ` _ ) ) ) c ( c c x x x x x k k j 5 5 5 4 4 5 j 5 j j j j j j j j j j k k ) ) ) ` ` c k ) %.&.*.=.-.-.;.;.:.Q.Q.!.!.",
"*.&.@.+...} ] ` ` ) ) c c c c c c x x x k k j 8 8 4 j j 5 j j k x k 5 j c c k k k x x ) ` ` `  ...o.$.%.&.*.=.-.-.;.;.:.Q.Q.!.~.",
"=.&.$.$.O.....] ` _ ) ) ) c c c c c x x j j 5 j j k x x j j x x x c x c c c ) c x x ) ` ` ] ..o.O.$.$.&.=.-.-.-.;.;.:.Q.Q.!.!.~.",
"=.*.&.$.@.O...] ' _ ) ) ) ) ) ) c c ( c k j k x x x c c c x c c c c c c ) ) ) ) ) ) ` `  .o...O.$.%.&.=.=.-.-.;.;.:.:.Q.!.~.~.^."
};
