/* XPM */
static char *_c315fd23b00468e89433c678955e92becTv7oyOkFGhvtGJ[] = {
/* columns rows colors chars-per-pixel */
"64 64 243 2 ",
"   c #FF79FF",
".  c #FF7BFF",
"X  c #FF7AFF",
"o  c #FF7FFE",
"O  c #FF8BFB",
"+  c #FF81FD",
"@  c #FF93F8",
"#  c #FF7CFF",
"$  c #FF86FE",
"%  c #FF80FE",
"&  c #FF7DFF",
"*  c #FFB3F3",
"=  c #FF9AF9",
"-  c #FF7FFF",
";  c #FFA8F7",
":  c #FEE6E2",
">  c #FFD2E8",
",  c #FF94FC",
"<  c #FF8CFC",
"1  c #FECAEA",
"2  c #FFB1F1",
"3  c #FF82FE",
"4  c #FF98FB",
"5  c #FF88FD",
"6  c #FF82FF",
"7  c #FFA1F6",
"8  c #FFB0F3",
"9  c #FF8DFD",
"0  c #FEC5EF",
"q  c #FF9AFA",
"w  c #FFBEEE",
"e  c #FED5E9",
"r  c #FF84FE",
"t  c #FF9FFA",
"y  c #FEE5E4",
"u  c #FFB0F6",
"i  c #FF89FC",
"p  c #FF90FB",
"a  c #FFA3FA",
"s  c #FF87FE",
"d  c #FF7BFE",
"f  c #FF7CFE",
"g  c #FF7DFE",
"h  c #FF7EFF",
"j  c #FF7EFE",
"k  c #FF81FE",
"l  c #FF82FD",
"z  c #FF9AF7",
"x  c #FF83FD",
"c  c #FF92F9",
"v  c #FF86FC",
"b  c #FF84FD",
"n  c #FF85FD",
"m  c #FF93F9",
"M  c #FFACF2",
"N  c #FFADF1",
"B  c #FFAEF1",
"V  c #FF8EFA",
"C  c #FFA8F2",
"Z  c #FFBFEA",
"A  c #FEE9DB",
"S  c #FEE2DD",
"D  c #FFB2EE",
"F  c #FF8CFA",
"G  c #FF83FE",
"H  c #FF96F8",
"J  c #FF8EFB",
"K  c #FF87FD",
"L  c #FF87FC",
"P  c #FFA1F4",
"I  c #FDEADB",
"U  c #FDFBD4",
"Y  c #FECFE4",
"T  c #FF8DFB",
"R  c #FF86FD",
"E  c #FF88FC",
"W  c #FFA9F2",
"Q  c #FDF2D7",
"!  c #FDFDD3",
"~  c #FEC5E8",
"^  c #FF8AFC",
"/  c #FECEE4",
"(  c #FDFFD2",
")  c #FDEDD9",
"_  c #FF96F7",
"`  c #FF8BFC",
"'  c #FDFAD5",
"]  c #FCFFD1",
"[  c #FEE6DB",
"{  c #FF91F9",
"}  c #FF8CFB",
"|  c #FDF9D5",
" . c #FDEED9",
".. c #FF8FFB",
"X. c #FF90FA",
"o. c #FF92FA",
"O. c #FFB2EF",
"+. c #FF99F7",
"@. c #FF9FF6",
"#. c #FFBAEE",
"$. c #FED4E2",
"%. c #FCFFD2",
"&. c #FDFFD3",
"*. c #FDEBDB",
"=. c #FF93FA",
"-. c #FF94FA",
";. c #FF99F8",
":. c #FFC5E9",
">. c #FFB4EE",
",. c #FDF5D6",
"<. c #FDFDD6",
"1. c #FFCFE6",
"2. c #FF96F9",
"3. c #FF97F9",
"4. c #FFB7ED",
"5. c #FEE0DF",
"6. c #FF96FA",
"7. c #FF9AF8",
"8. c #FFB6EE",
"9. c #FDEFD8",
"0. c #FDFFD4",
"q. c #FDF4D8",
"w. c #FFAFF1",
"e. c #FF95FA",
"r. c #FEDFDF",
"t. c #FDF1D7",
"y. c #FECFE6",
"u. c #FFC5EB",
"i. c #FFC6EA",
"p. c #FFD2E4",
"a. c #FDF4D7",
"s. c #FED9E1",
"d. c #FF9BF7",
"f. c #FF98F9",
"g. c #FEE8DB",
"h. c #FCFED3",
"j. c #FCFDD4",
"k. c #FCFFD3",
"l. c #FEE4DE",
"z. c #FFA5F4",
"x. c #FF95F9",
"c. c #FFA0F7",
"v. c #FFABF2",
"b. c #FED7E1",
"n. c #FDF7D6",
"m. c #FDF6D6",
"M. c #FED2E3",
"N. c #FFA7F3",
"B. c #FF9CF8",
"V. c #FFB8EF",
"C. c #FED2E4",
"Z. c #FED1E6",
"A. c #FFB4F0",
"S. c #FF98F8",
"D. c #FFA0F5",
"F. c #FF9DF7",
"G. c #FF9DF6",
"H. c #FF9FF5",
"J. c #FFA3F4",
"K. c #FF9FF4",
"L. c #FFA0F4",
"P. c #FF9EF5",
"I. c #FFAEF0",
"U. c #FFA1F3",
"Y. c #FF9DF5",
"T. c #FFAAF5",
"R. c #FFA1F5",
"E. c #FFA2F4",
"W. c #FFB3EF",
"Q. c #FFA3F3",
"!. c #FFA3F2",
"~. c #FFA0F3",
"^. c #FF9CF6",
"/. c #FFA2F3",
"(. c #FFABF4",
"). c #FFAFF2",
"_. c #FFA8F4",
"`. c #FFD0EC",
"'. c #FEF0DF",
"]. c #FFD4E9",
"[. c #FFABF3",
"{. c #FFB2F2",
"}. c #FFD9E6",
"|. c #FFAFF3",
" X c #FFA4F2",
".X c #FFA4F1",
"XX c #FFA5F1",
"oX c #FFA2F2",
"OX c #FFA6F1",
"+X c #FFA6F0",
"@X c #FFA7F0",
"#X c #FFA8F0",
"$X c #FFA5F0",
"%X c #FFA8EF",
"&X c #FFA9EF",
"*X c #FFABED",
"=X c #FFAAEE",
"-X c #FFAAEF",
";X c #FFA9F0",
":X c #FFABEE",
">X c #FFACED",
",X c #FFA9EE",
"<X c #FFACEE",
"1X c #FFAFEB",
"2X c #FFAEEB",
"3X c #FFACEC",
"4X c #FFAEEE",
"5X c #FFAFEC",
"6X c #FFADEC",
"7X c #FFADED",
"8X c #FFAFEA",
"9X c #FFB1EB",
"0X c #FFB0EB",
"qX c #FFB1EA",
"wX c #FFB0EC",
"eX c #FFB0EA",
"rX c #FFAEEC",
"tX c #FFAEED",
"yX c #FFB1EC",
"uX c #FFB3E8",
"iX c #FFB2E9",
"pX c #FFB1E9",
"aX c #FFB4E8",
"sX c #FFB3E9",
"dX c #FFB2E8",
"fX c #FFB5E7",
"gX c #FFB4E7",
"hX c #FFB5E6",
"jX c #FFB5E8",
"kX c #FFB6E7",
"lX c #FFB7E6",
"zX c #FFB7E5",
"xX c #FFB8E5",
"cX c #FFB6E6",
"vX c #FFBDE3",
"bX c #FFBFE1",
"nX c #FFBDE2",
"mX c #FFC0E1",
"MX c #FFBCE2",
"NX c #FFBEE1",
"BX c #FFBEE2",
"VX c #FFBCE3",
"CX c white",
/* pixels */
"                                                                                                                                ",
". . . X X . . X X X . . . . . . X . . X X X X . . . . . . X . . . X X . . . . . . X . . . . X X X X . . . . X . . X X X X . . . ",
"X X X X X X X X X X X X X X X X X X X X X X X X X X X X X X X X X X X X X X X X X X X X X X X X X X X X X X X X X X X X X X X X ",
"X X X X X X X X X X X X   X X X X X X X X X X X X X X X X X X X X X X X X X X X X X X X X X X X X X X X X X X X X X X X X X X X ",
"X X X X X X X X X X X o O . X X X X X X X X X X X X X X X X X X X X X X X X X X X X X X X X X X X X X X X X X X X X X X X X X X ",
"X X X X X X X X X X X + @ # X X X X X X X X X X X X X X X X X X X X X X X X X X X X X X X X X X X X X X X X X X X X X X X X X X ",
"X X X X X X X X X X X X X X X X X X X X X X X X X X X X X X X X X X X X X X X X X X X X X X X X X X X $ % X X X X X X X X X X X ",
"X X X X X X X X X X X X X X X X X X X X X X X X X X X X X X X X X X X X X X X X X X X X X X X X X X & * =   X X X X X X X X X X ",
"X X X X X X X X X X X X X X X X X X X X X X X X X X X X X X X X X X X X X X X X X X X X X X X X X - ; : > , X X X X X X X X X X ",
"X X X X X X X X X X X X X X X X X X X X X X X X X X X X X X X X X X X X X X X X X X X X X X X X X # < 1 2 3 . X X X X X X X X X ",
"X X X X X X X X X X X X X X X X X X X X X X X X X X X X X X X X X X X X X X X X X X X X X X X X X X   4 5   X X X X X 6 # X X X ",
"X X X X X 7 8 % X X X X X X X X X X X X X X X X X X X X X X X X X X X X X X X X X X X X X X X X X X X # . X X X X X 9 0 q X X X ",
"X X X X . w e r X X X X X X X X X X X X X X X X X X X X X X X X X X X X X X X X X X X X X X X X X X X X X X X X X X t y u . X X ",
"X X X X X i p # X X X X X X X X X X X X X X X X X X X X X X X X X X X X X X X X X X X X X X X X X X X X X X X X X X % a s X X X ",
". . d f f & . . . # # g g f & g g g g f g f g g g g g g f f h g g j g g g j j # f g g j g d g j f # # g g g g g g g f h g f g g ",
"j o o o k % % o o o o % % o % % % % % % l % % k k % k k k % % l k 3 % 3 z O o o o % % % % o k k o o o % k % % o % + o % % % % % ",
"3 k l o % + l l % % % % k % % % % % l x l o k l o % o k x % % l x l % k c v % + x o % + + k % % x k % o k l 3 % % k k l o % % o ",
"k k o % 3 l 3 % % x 3 % % % l k k % k % 3 % % % % 3 k k % k k k l % % k k % k k x l % o % k % k 3 k k l % % % k l l k o % % k o ",
"x x x 3 x x x l x x 3 3 b l 3 k l b k k l k l x x x 3 % % 3 3 k l n x k k l b 3 x l x x x l l 3 l x x l k x x x x x 3 x x x x b ",
"x l % k l 3 l k x 3 k k 3 3 k l l k k 3 3 k l x 3 k m M N B c % k k x + k l l l 3 k k l l l k 3 l k % k k x x 3 l l k 3 k k l x ",
"% % % k 3 + k l 3 V b % k k x x k o k l l l k 3 3 k c C Z A S D F o 3 k + x 3 l 3 x 3 l k l k 3 x k % + l l 3 k l l k 3 k k G b ",
"b b n l n l l b b H J x n x l l b b K x L b b x b x 3 G L P I U Y T k l x n x n x i 3 R % R k R 3 n k R b n b x b x R R n x K n ",
"R L K n L R n R E L K R K K b n n K i v i E R n n n R K R n W Q ! ~ E n R L n K K ^ n R b K R E b K R E R R L v K E L R R R E K ",
"b x b x L n n b b n b b b b x x l b b x b n b l l R b L k n E / ( ) _ n b b x n x R n x b l n b n x n x R x L x K x R n b x K n ",
"b E n E E E E L E K L R E L R L R E K L R i R b E ` E E n R R B ' ! Z L K L R E K E R R K L L i E R K R i R i E i E L E L K i E ",
"R E E i i i E E E L L K i E L E K E E R E E E n E ^ E L L K n W ' ] [ { K E E E K E E K E K E E E R E E E E E E E E E i E E E L ",
"^ ^ ^ ^ ` } ^ ^ i ` } i ^ ^ ` < ^ E ^ i } ^ ` ^ ` O < } ^ ` E W | ]  .H ` ^ ^ ^ ^ } < ^ ` ` ` ` ` i ^ < < ^ i ^ ` ` ^ ` i < T ^ ",
"T ..T } ..J J ..T J J J ..J T T ..T J J J X.o...} ....} J J ` O.U ]  .+.T T } T ......T T J J ..J ..J T J T J T J ....J T T T T ",
"J J T ..........T ....p p J T ..p ....J J @.#...T p ......T X.$.%.&.*.z ....T ..p p ..} < T J ..T T T J ..T T T ..p J J ..J p J ",
"=.=.=.-.=.=.=.=.=.=.-.=.=.o.=.-.-.=.=.=.=.;.:.W o.-.=.-.=.o.>.,.] <.1.2.=.=.=.=.=.-.=.o.o.o.=.=.=.o.=.=.=.=.o.o.-.-.o.=.-.=.-.=.",
"3.3.3.3.3.3.3.3.3.3.3.3.3.3.3.3.2.3.3.3.3.2.4.5.N ;.2.6.7.8.9.%.0.q.w.e.3.3.3.3.3.3.3.3.3.3.3.3.3.3.3.3.3.3.3.3.3.3.3.3.3.3.2.3.",
"3.2.3.3.2.3.3.2.3.3.3.2.2.2.2.3.3.2.3.2.3.2.@.r.t.y.u.i.p.a.%.%.&.s.d.2.3.3.3.2.2.3.2.2.3.2.3.3.3.2.3.3.2.2.3.2.3.3.2.3.3.2.;.f.",
"2.2.2.3.3.2.3.3.3.3.3.3.2.3.2.2.3.2.2.3.3.3.2.W g.( h.j.( &.k.%.l.z.x.3.3.2.2.3.2.2.3.2.2.3.3.2.3.3.2.2.2.2.2.3.2.3.3.2.3.3.M c.",
"3.3.3.3.3.2.2.2.2.3.3.3.3.3.3.2.3.3.2.2.2.2.3.2.v.b.n.k.%.0.m.M.N.2.3.3.3.3.3.3.3.3.3.3.2.2.2.2.3.3.3.2.3.3.3.3.3.2.2.2.2.3.7.f.",
"3.2.3.2.2.2.2.2.2.2.3.2.3.3.3.2.2.3.3.2.2.2.2.3.6.B.V.C.C.Z.A.7.2.2.2.2.3.2.3.2.3.2.2.3.2.2.3.2.2.3.2.3.2.3.2.2.3.2.2.2.2.3.2.2.",
"2.3.3.3.3.2.3.2.3.2.3.2.2.2.3.2.3.3.2.2.2.3.2.3.2.2.3.f.f.f.3.2.2.3.3.2.3.3.2.2.2.3.3.3.3.2.3.3.2.2.3.2.3.3.3.3.2.3.2.2.3.3.2.3.",
"2.2.3.3.3.2.2.3.2.2.2.3.3.2.2.2.3.3.2.2.2.2.2.2.3.2.2.2.2.3.3.2.3.3.2.2.3.3.3.2.2.3.3.3.2.3.3.2.2.3.3.2.2.3.3.3.3.2.2.2.2.2.3.3.",
"2.2.3.3.3.2.2.2.2.2.2.3.3.2.2.2.2.2.2.2.2.2.2.2.3.3.2.2.3.3.2.2.2.2.2.2.2.3.3.2.3.3.3.2.2.2.2.2.2.3.3.3.2.3.3.3.2.2.2.2.2.2.3.3.",
"3.2.3.2.2.2.2.2.2.2.2.2.2.2.2.2.2.2.2.2.2.2.2.2.2.2.2.2.3.2.3.2.2.3.2.2.2.2.3.2.2.3.2.2.2.2.2.2.2.2.2.2.2.3.3.2.2.2.2.2.2.2.2.2.",
"S.;.S.;.;.;.S.S.;.;.;.D.F.S.;.;.;.;.;.;.;.S.;.S.;.;.;.;.S.;.;.;.;.S.;.;.;.;.S.;.;.;.S.S.S.S.;.;.S.S.S.;.;.;.S.;.;.;.;.;.S.;.;.S.",
"G.H.J.K.K.L.K.P.P.L.L.I.C K.L.K.L.H.P.L.P.G.K.P.H.K.H.U.P.P.Y.K.U.G.L.L.K.P Y.P.L.H.Y.D.T.R.L.P.Y.P.P.U.K.P.G.H.L.L.K.K.P.H.K.K.",
"K.E.W.Q.K.G.!.U.P.Y.P.H.L.~.H.G.H.K.U.L.G.P.U.L.L.Y.^.U./.L.Y.Y.P.H./.K.P.P U.L.K.P.K.(.> ).P.P.P.U.K.K.G.L.L.P.P.H.K.K.K.H.P.H.",
"P.U.L./.U.L./.L.L./.L.L.L.U./.P U.L.L./.L.L./.U./.L.K./.P.L.U.L.H.H.L.L.U.U.H.P L.P._.`.'.].[.U./.L.!./.L.L.L././.P.K./.!./.U.U.",
"P.P.K.L.K.P.K.U.H.G.^.L.~.U.P.P.P.H.K.L.G.Y.K.L.P.H.P.L.L.K.P.Y.L.U.G.G.P.H.K.L.P.^.D.{.}.A.H.P.L.U.U.G.H.P.H.H.P.P.G.K.U.P.G.L.",
"Y.P.L.H.P.P.H.P.Y.G.H.H.P.P.Y.L.Y.G.P.Y.P.Y.P.P.P.K.K.H.Y.G.P.H.K.P.G.P.P.P.K.Y.G.P.K.H.|.R.L.P.K.P.P.P.H.K.Y.^.Y.K.P.G.P.P.P.K.",
"P.G.G.^.^.^.G.^.^.^.Y.P.G.^.G.^.G.Y.G.G.^.G.P.^.G.^.G.Y.G.Y.^.^.G.Y.^.G.^.G.G.G.^.^.G.G.G.P.Y.G.Y.G.G.G.G.^.G.^.^.G.Y.G.Y.^.P.^.",
"/. XU.L./.P /.!..XL././.XXK..XH. X!.XXU./.U.XX/.!.L.!.oX!.XXU.U./.!.U.!.H. XP .XL./.U.OXU.XXK..XU.+XU.!.U././.!.U.U. X X/.U..XL.",
" XXXXXXXXX.XOXXXOX X XXX@X XXX XXXXXXX X!.OXXXXX+XXXXX+X X+X XOXXXXXXXOX!.@X XOX XXXXXXX!.@X X@XOXXXXXXX X XXX+XXX X+XXXXXXXOXXX",
"#XK. XL.@X/..XL.!.L.!.P /.U././.U.!.P /./.XXL. XL.$XK.XXL.XXK.@XL. XK.+XL.!.L. XL.XX/.L.P !.XXP .XK.XXL.XXH. XK.+XK.XXP.!.L.+XU.",
"#XXX+X+X@XOXOXOX@XOXOX+XXXXX+XOXOXXXXX+XXX@X+X@XOXXX+XOXOX%XXX@X@XOX@XOX+X+XXX+XOX+X@X@XXX+XOX+XXXOX+X.X@X+XXXXXOXXX@XXX@XXX%XOX",
"@XOX%X@X@XXX#X@X@XOXOX@X@X@X@X+X@X@X+X@XOX@X%X@XOXXX@X@X@X%X+X@X%X+X@X+XOX@X@X@X#XXX@X@X@XOX+X@XOX%X#XOX@X@XXX@X@X+X@X@X@X@X+X@X",
"XX&X*X&X=X#X-X&X=X&X;X=X*X=X&X%X&X:X=X&X&X=X=X=X&X&X#X%X:X=X=X=X=X>X=X=X&X@X:X=X=X&X&X=X*X&X@X%X*X=X&X=X%X&X:X:X,X%X&X>X=X=X+X%X",
"-X<X1X2X3X:X4X5X6X*X:X7X2X8X2X:X>X9X0X6X*X6X1XqXwX7X*X2X8XeXrX>X>XqXeXrXrX*XrX1XrX=X>XtXqX6X*X2XeX1X>X7X*X6X9XeX*X>X6X1X2X1X>X*X",
"wXrX6X6XeX8XrX6X>XeXqX1X2XrXrXyX2XeX1X0X2X6X>X1X5X1X6XrX2X6X6XrXrX2X8X1X0X1XrX5XrX2XrX6XrX5X6X2X6X6X2XyX1X2XrXrX1X6X3X3XrXeX1X2X",
"uXeXiXpXuXuXuXiXiXuXaXiXiXiXuXuXsXiXiXiXuXuXiXiXsXiXuXiXuXuXuXdXuXpXuXiXuXiXiXsXiXuXuXiXsXuXiXiXiXpXiXaXuXuXuXiXdXiXiXiXuXuXuXpX",
"fXfXgXaXaXgXfXgXfXfXfXgXfXfXaXgXaXfXfXfXfXfXgXfXgXgXfXfXfXfXhXaXfXfXgXjXgXaXgXfXfXhXgXgXgXgXfXgXfXfXfXfXgXfXfXgXgXfXgXfXfXfXaXfX",
"gXaXfXgXfXfXfXfXfXfXfXfXfXfXgXgXaXfXgXfXfXfXfXfXaXuXfXuXfXfXfXaXfXfXfXfXgXfXgXfXfXfXaXgXfXfXfXfXfXgXuXaXgXfXgXfXfXgXfXgXgXgXfXfX",
"fXgXgXuXuXgXfXgXfXfXfXgXfXhXgXfXaXgXfXfXgXfXgXfXfXgXfXgXfXfXgXfXuXfXuXfXfXfXfXfXgXfXfXaXgXgXfXfXfXgXuXfXfXfXfXfXfXaXgXfXgXuXgXgX",
"hXfXgXfXgXfXfXfXfXhXgXgXgXgXfXfXfXfXfXfXaXgXfXfXfXfXuXgXuXfXfXfXgXfXfXfXfXfXfXfXfXfXfXaXuXfXfXfXfXfXfXgXgXfXfXfXfXfXaXgXgXaXfXgX",
"gXfXfXfXfXgXfXuXfXfXfXfXfXfXfXfXfXfXgXfXgXgXaXfXfXfXfXfXfXfXuXfXfXfXfXfXgXfXfXfXgXgXgXaXgXfXfXfXgXfXfXfXfXfXfXgXgXaXaXfXfXfXfXfX",
"gXgXgXfXgXgXfXfXfXfXfXfXfXaXfXfXfXaXgXgXfXfXfXfXfXuXjXkXfXfXgXfXgXgXfXgXgXjXfXfXfXgXfXuXfXfXfXfXaXfXfXfXfXfXfXaXgXgXgXaXfXfXfXfX",
"gXfXgXgXaXgXfXgXfXgXfXfXfXgXfXfXfXgXgXfXfXgXfXfXfXuXgXfXfXfXfXfXgXuXfXfXfXfXaXfXgXgXgXgXaXgXfXfXaXfXaXfXfXfXfXgXgXgXfXuXfXfXfXfX",
"lXzXlXxXlXlXxXlXzXzXlXxXcXcXcXlXxXzXlXxXcXcXcXlXxXlXzXzXlXxXlXlXcXcXcXzXlXxXfXlXfXfXlXcXzXzXlXzXxXzXxXlXzXxXzXlXfXlXlXcXzXzXlXlX",
"vXbXnXmXnXvXbXMXNXBXVXbXnXNXBXVXNXBXBXbXvXBXNXnXNXnXBXbXnXbXnXnXbXnXbXBXVXbXBXbXBXVXbXnXnXbXVXbXbXBXbXVXBXbXnXbXnXnXbXMXbXnXVXNX"
};
