/* XPM */
static char *result[] = {
/* columns rows colors chars-per-pixel */
"64 64 133 2 ",
"   c #88867E",
".  c #8A8780",
"X  c #8E8B81",
"o  c #918E82",
"O  c #928E89",
"+  c #959284",
"@  c #999787",
"#  c #9C9A85",
"$  c #96938C",
"%  c #99968D",
"&  c #9D9B8B",
"*  c #979590",
"=  c #999790",
"-  c #9D9A92",
";  c #A09F85",
":  c #A09E8C",
">  c #A09E94",
",  c #A29F99",
"<  c #A2A287",
"1  c #A4A28D",
"2  c #A8A78F",
"3  c #A9A88D",
"4  c #A5A393",
"5  c #A8A694",
"6  c #ACAB95",
"7  c #A5A39B",
"8  c #A9A69C",
"9  c #ADAB9C",
"0  c #B0AF95",
"q  c #B0AE9C",
"w  c #B3B196",
"e  c #B4B39C",
"r  c #B8B79E",
"t  c #BAB99F",
"y  c #A9A7A2",
"u  c #A5A8A6",
"i  c #ADACA2",
"p  c #A6A9AA",
"a  c #AEACA9",
"s  c #B0AEA4",
"d  c #AEB0AF",
"f  c #B5B3A3",
"g  c #B8B6A4",
"h  c #BDBCA3",
"j  c #B3B2AC",
"k  c #B8B7AB",
"l  c #BCBBAC",
"z  c #B7B7B4",
"x  c #B8B7B2",
"c  c #BBBBB4",
"v  c #BDBDBA",
"b  c #C0BFA6",
"n  c #C1BFAB",
"m  c #C1BFBB",
"M  c #BFC0B1",
"N  c #C2C1A6",
"B  c #C5C4AA",
"V  c #C8C7AD",
"C  c #CAC9AE",
"Z  c #C4C3B3",
"A  c #C9C7B4",
"S  c #CCCBB3",
"D  c #C4C3BC",
"F  c #C7C8BA",
"G  c #CDCCBA",
"H  c #D0CFB6",
"J  c #D1CFBD",
"K  c #D3D1B7",
"L  c #D5D4BB",
"P  c #D8D7BF",
"I  c #D9D8BE",
"U  c #BBC0C0",
"Y  c #BFC4CA",
"T  c #C4C4C2",
"R  c #C9C7C2",
"E  c #CBCAC5",
"W  c #C1C6C8",
"Q  c #C5CBCA",
"!  c #CECDCA",
"~  c #D0CFCC",
"^  c #CFD1CD",
"/  c #D4D4C4",
"(  c #D9D7C0",
")  c #DCDAC3",
"_  c #D4D3CC",
"`  c #DBD7CC",
"'  c #DEDCCA",
"]  c #CDD1D3",
"[  c #D4D6D3",
"{  c #DAD7D2",
"}  c #D7D8D4",
"|  c #DCDBD3",
" . c #D3D6D8",
".. c #D5DADB",
"X. c #DBDDDB",
"o. c #E1DEC7",
"O. c #E0DFCA",
"+. c #E1DED3",
"@. c #E1DCD8",
"#. c #DEE0DD",
"$. c #E3E2CD",
"%. c #E6E5D2",
"&. c #E9E6D5",
"*. c #EAE8D7",
"=. c #E4E3DC",
"-. c #E9E6DB",
";. c #ECEADA",
":. c #F0EEDF",
">. c #D4DBE2",
",. c #DBDEE2",
"<. c #DDE1E3",
"1. c #DDE4E9",
"2. c #DEE9F1",
"3. c #E3E4E3",
"4. c #E8E7E2",
"5. c #ECEBE3",
"6. c #E3E7E9",
"7. c #E4EAED",
"8. c #EBECEB",
"9. c #F0EEE0",
"0. c #F0EFED",
"q. c #EFF0EF",
"w. c #F1F0E3",
"e. c #F3F2EB",
"r. c #E3ECF4",
"t. c #E9EFF3",
"y. c #EEF1F2",
"u. c #EDF3F9",
"i. c #F2F3F3",
"p. c #F7F8F6",
"a. c #F1F5F9",
"s. c #F5F9FB",
"d. c #FAFBFA",
/* pixels */
"} ! R T T T W ~ ,.8.8.@.! W T T ! { _ z 8 , 7 } 6.6.q.X.4.8.X.6.8.@.~ R [ X.,.7.a.8.[ R D ! ~ m j c E ! a > , d m v D ! X.3.#.8.",
"5.8.8.3.@.X.X.,.3.8.8.5.3.@.,.X.3.=.=.#.D = D 1.[ [ } %.| <.<.} } | +.@.@.+.| { | <.,.r.i.r.<.3.@.| ,.u.R O y _ } X.X.#.4.5.5.i.",
"&.&.%.%.&.&.&.&.+.&.*.&.&.&.&.*.;.;.;.;.G 8 X.X.*.;.;.;.;.+.%.;.;.;.&.%.&.*.;.&.&.%.O.` [ ` +.%.%.&.| >.] * l ;.&.-.*.*.&.*.&.e.",
"*.*.*.*.*.*.*.*.*.*.*.*.*.*.*.*.*.*.;.%.G 7 c %.&.%.&.;.*.*.&.*.;.*.*.*.&.*.*.*.*.*.*.&.%.&.&.&.*.;.;._ j $ x &.&.%.*.*.*.*.&.e.",
"*.*.*.*.*.*.*.*.*.*.*.*.*.*.*.*.*.*.*.$.G > i O.O.=.&.*.*.*.*.*.*.*.*.*.&.*.*.*.*.*.*.*.*.*.*.*.*.*.&.( f * k o.O.%.*.&.*.*.*.e.",
"*.*.*.*.*.*.*.*.*.*.*.*.*.*.*.*.*.*.%.' F > 9 ) ' O.&.*.*.*.*.*.*.*.*.*.*.*.*.*.*.*.*.*.*.*.*.*.;.&.$./ f $ f o.' $.&.;.*.*.*.e.",
"*.*.*.*.*.*.*.*.*.*.*.*.-.&.*.*.*.%.%.( B > 9 ( ) ' $.&.&.*.*.*.*.*.*.*.*.*.*.*.*.*.*.*.*.*.*.*.%.%.$.H s % f I ) ' $.%.&.&.*.e.",
"&.&.&.*.*.*.*.*.*.*.*.*.*.&.&.%.%.%.$.P N > 8 P I ( $.%.$.%.*.&.*.*.*.*.*.*.*.*.*.*.*.*.*.*.&.$.%.%.o.S s % s I I ( $.%.%.%.&.0.",
"$.&.%.%.&.%.%.%.%.%.%.%.%.%.%.%.$.$.) K N > 8 K ( ( ( O.$.%.%.%.%.%.%.%.&.&.&.%.*.%.%.%.%.%.%.&.%.o.I V s $ q P ( ( ( o.$.%.%.e.",
"$.$.%.$.$.%.%.%.&.&.%.&.%.%.$.$.o.I P K h & 5 H ( ( ( I ) o.$.$.%.%.%.%.%.&.%.%.%.%.&.%.%.%.$.$.) P I V 5 $ 9 L ( ( I P ) o.$.w.",
"o.) ) $.$.$.$.$.O.O.$.$.$.) I I P P I C 0 & > V ( ( ( ( ) ( ) ) ) o.o.$.O.$.$.%.%.$.$.$.$.) ) ( I P L b 4 $ 5 S ( ( ( P I I ( 5.",
"C C C C C C V V C V B b t t b b b b t e e 8 > r S K S C C C V V C C S H S H H S S S A B B N N N V N b q : $ & r B C A C B B B #.",
"l M e 1 : 8 D _ @.| / F B k 9 s l l Z E 8.t.^ _ 8.5.#.L _ #.O.G l r 8 4 1 : 4 1 : : & : : : : : : 4 1 & + * + @ & & & 1 4 7 9 ` ",
"p.p.8.a * X.a.r.s.d.p.8.<.| { ` @.@.} >.>... .} #.r.s.i.8.#.<.t.q.0.} - % D E T c v Z D D D D v E _ ! m D D T U R ! E E ! ..6.p.",
"5.5.2.Y x p.,.~ >.6.O.` +.%.&.%.&.&.%.+.| +.;.:.&.{ _ _ o.%.#._ _ +.` 8 j 8.=.*.;.*.;.;.;.;.;.*.*.;.;.;.;.;.;.;.5.;.;.5.-.#.<.y.",
"-.;.` c T r.4.*.` ` ;.:.0.w.9.0.9.:.0.w.w.w.:.w.5.;.;.*.;.*.*.*.;.%.J 9 y { ;.&.;.;.;.;.;.;.;.;.*.*.*.&.*.*.;.*.;.;.;.&.;.*.&.q.",
"*.*.' l p U &.=.&.*.*.*.;.*.;.&.&.;.*.*.*.&.&.;.*.*.*.*.*.*.*.*.;.&./ 9 = J %.%.&.*.*.*.&.;.*.*.*.*.*.*.*.*.*.*.*.*.*.*.*.*.*.e.",
"&.&.) l * f $.O.$.*.*.*.*.&.*.*.*.&.*.&.*.;.&.&.*.*.*.*.*.*.*.*.*.%.( i = G O.O.%.*.*.&.*.&.*.*.*.*.*.*.*.*.*.*.*.*.*.*.*.*.*.e.",
"%.%.P h $ f ) O.$.%.*.*.*.*.*.*.*.&.;.;.;.*.;.&.*.*.*.*.*.*.*.*.%.$.H 9 = S ) o.$.&.&.;.*.*.*.*.*.*.*.*.*.*.*.*.*.*.*.*.*.;.*.e.",
"%.$.H g * f I ) ' $.%.%.&.*.*.*.&.;.&.&.&.*.*.*.*.*.*.*.*.%.&.%.%.' A 9 & F I ) ' %.%.&.&.&.&.;.*.*.*.*.*.*.*.*.*.*.*.*.&.%.%.w.",
"$.) C g % s ) o.( o.%.%.%.%.%.&.&.*.&.*.&.*.*.*.*.*.%.*.%.%.%.%.$.( V 9 * A ( P P $.$.%.%.&.%.%.&.*.*.*.%.*.*.*.*.%.&.%.%.%.%.e.",
") I S e % 9 ) O.I P ) $.$.%.%.%.%.%.%.%.%.%.&.%.%.%.%.%.%.%.$.$.( I B 5 % n P ( ( ( ) $.%.%.%.%.%.%.%.%.%.%.%.%.%.%.%.%.%.%.$.9.",
"I I V 6 * 9 P ' P ( P P ) $.$.$.$.%.%.%.$.$.%.%.%.%.%.%.$.$.' I I L N 4 * h P ( ( P ( ) ) ) $.$.$.%.$.%.%.%.%.%.%.$.%.$.$.) ) ;.",
"K S t 2 $ 4 C I P L P P P P P I I I ) ) $.o.o.$.o.) L S B B H P L S e : % w S P L P L P P K L P I I I ) ) ) o.I ) I P K K G L -.",
"w 6 2 & - j l h A S N h h N N h N M h N M t t h w 3 3 < < < 6 6 w w 1 % $ & 6 e e r r r e r r r r g r r r r q e r r e 9 9 9 w ` ",
"M M D T ..t.3.^ 3.q.5.=.@.=.3._ A l 2   + +       w k f M G ^ / D k i y y , 7 s c l 8 - % @ % - & + o o X o s { =.8.5.=._ F c X.",
"` ' ` _ [ _ _ / _ >.1.4.X.| } ,.8.8.| F y O + 8 M [ #...#.3.8.8.8.8.8.6.<...,.6.y.i.8.#. . . .#...R D k % 7 t.6.>.t.y.=.| | ' 5.",
";.;.;.;.*.;.;.;.;.&.+.%.;.9.;.=.+.O.*.:.J - y =.*.:.:.w.w.w.w.w.5.5.5.;.5.5.-.3.=.5.5.-.4.=.=.-.5.;.e.%.i z t.} ` _ ` &.;.;.;.e.",
"*.;.*.*.;.*.;.;.*.*.;.*.;.*.*.*.*.:.;.&.G 4 s -.*.;.:.:.;.5.:.:.:.;.:.;.;.;.;.:.;.;.;.;.;.;.*.;.;.;.;.) f u W %.&.&.*.;.;.;.;.e.",
"*.*.*.*.*.*.*.*.*.*.*.*.*.*.*.*.*.*.*.%.G - i $.$.=.&.*.*.*.*.*.*.;.-.*.;.*.*.;.*.*.*.*.&.*.*.*.&.*.&.) f $ k %.%.%.*.&.&.&.&.e.",
"*.*.*.*.*.*.*.*.*.*.*.*.*.*.*.*.*.*.*.o.G > i ' $.$.&.*.*.*.*.*.*.*.*.*.*.*.*.*.*.*.*.*.*.*.*.*.*.*.&./ f $ k o.O.%.&.;.*.&.;.e.",
"*.*.*.*.*.*.*.*.*.*.*.*.*.*.*.*.&.%.&.) B > 9 ( ) O.%.&.*.*.*.*.*.*.*.*.*.*.*.*.*.*.*.*.*.*.*.*.&.%.%.J f $ f ) ) ' %.&.*.;.&.e.",
"*.*.*.*.*.*.*.*.*.*.*.*.*.*.*.*.&.$.&.H b > 8 P ( ) $.&.%.&.*.*.*.*.*.*.*.*.*.*.*.*.*.;.&.*.;.%.%.%.$.C s + f ) ( ) %.%.%.%.*.e.",
"%.&.&.*.&.&.&.*.&.&.*.&.&.%.%.%.%.&.o.S r > 8 P ( I o.$.%.%.%.%.%.&.&.&.*.*.*.&.&.;.&.&.&.%.%.%.%.$.I C e % s ( ( ( ) $.%.%.%.e.",
"$.%.%.%.%.%.%.%.%.%.$.&.%.%.$.$.O.o.( C 0 : 8 H ( ( ( ) $.$.%.%.%.%.%.&.%.%.%.%.&.$.%.$.%.&.%.$.$.) I C 9 % 9 L ( ( ( ) o.$.&.0.",
"$.$.$.$.%.%.%.%.%.%.%.%.$.$.$.o.I P I b 3 % 4 H ( ( ( I I I ) $.$.$.$.%.%.$.%.%.%.%.%.%.$.$.$.) ) I I B 5 % 5 K ) P ( ( ( I o.:.",
"K I I I I I P J K o.I C V B N C C S S w ; % : N I I P P I P L P P P P ) ) I ) ) ) o.) P L K H H K K S r 1 % 4 B L L K P P K L -.",
"t w r w e 6 < <         # #   3 ; ; # # + $ $ 5 e r g r g g r r r h t h M t N M h h n n N l g r r e w 3 % % - q f r e e e e e | ",
"Q M 4 % + $ > > < < w   - - & & - 7 8 > - > , > > 5 7 7 7 i l F _ _ l & @ 7 / [ [ ..4.0.e.8.5.#.X.{ ^ Q Q ] <.5.5.{ R m z c D 3.",
"-.#.` s & ^ #.#.' o.o.:.' X.| { | =.=.%.} { | } X.3.=.&.=.<.2.y.p.s.t.u * l $.#.=.=.=.-.-.4.4.-.=.3.=.#.#.<.3.5.8.5.6.<.<.3.3.i.",
";.:.O.M -  .-.*.;.;.;.;.;.:.;.:.;.;.;.;.:.;.;.;.;.;.5.;.;.;.#.#.*.#.<.d % / w.w.w.w.w.w.w.w.w.w.:.:.:.w.:.:.:.:.5.9.9.9.9.9.;.e.",
";.;.' h * c *.-.&.*.;.;.*.;.%.;.;.*.*.*.*.;.*.;.*.*.;.*.*.*.*.*.:.*./ 9 - / ;.-.;.;.:.;.;.:.w.:.:.w.:.:.:.:.:.:.9.:.9.9.:.;.;.e.",
"&.&.' M * h $.#.$.;.*.&.&.;.%.*.*.*.*.*.*.*.*.*.*.*.*.*.*.*.*.*.*.%./ 9 - G $.%.%.;.*.&.;.;.;.;.:.w.:.:.:.:.:.;.;.;.;.;.;.*.;.e.",
"&.%.I M $ g ) o.$.&.*.;.;.&.;.*.*.*.*.*.*.*.*.*.*.*.*.*.*.*.*.*.*.#.J 9 % F ' O.$.&.&.;.&.&.;.;.;.;.;.;.;.;.*.*.;.&.;.*.*.&.;.e.",
"%.$.H h * f ) ) o.$.%.;.*.*.*.*.*.*.*.*.*.&.*.*.*.*.*.*.*.*.*.&.%.$.S 9 = S ) ) $.&.%.;.&.;.;.&.;.*.;.*.&.*.*.&.*.*.*.*.&.*.&.e.",
"%.O.S g * e P ( o.$.%.%.&.&.&.*.*.*.*.*.&.;.*.*.*.*.*.*.*.%.%.&.%.I B 9 * A I I ) $.%.%.%.%.%.;.*.*.*.*.;.&.*.;.*.*.*.*.&.%.%.e.",
"$.I S g * s P ( I I $.%.%.%.%.%.&.&.&.&.&.*.&.&.*.&.%.&.%.%.%.$.$.L C 9 % N I I ) ) $.$.%.%.%.%.&.%.%.&.&.&.&.&.%.%.%.%.%.%.%.e.",
"I I C w % 9 H ( I I I ) $.$.%.%.%.$.&.$.%.$.%.%.$.%.%.%.%.$.$.) I I B 2 * M I I ( P ) o.$.$.$.%.%.%.%.%.%.&.$.%.%.%.%.&.$.$.o.;.",
"I K N 3 $ 8 H I I ( P I I I ) $.$.$.$.$.$.$.%.$.%.$.$.$.o.) ( I P K h : & r L I I I I I I I ) ) o.$.$.$.$.$.$.$.$.$.o.) ) I I ;.",
"N t w 1 $ > t C S H S A S S S S S K S K K K K K S S A C B B A A V b 6 & $ < M C C C C C C C C C C C C S S H H C V B N M M N N %.",
"Z k 5 % - , f Z F Z l f 6 9 r 9 5 5 6 9 5 1 1 < : ; < 4 6 f e 9 9 g k 7 7 k k 5 5 5 5 7 5 5 9 9 f f w 2 : & < g M M k e l e s | ",
"#.=.} | 3.@.X.} 3.8.6.<.#.=.6.} E T  .6.T     $ 7 v ! _ X.X.X.X.4.8.3.} [ <.<.] E E F D D ^ [ 3.q.7.<...k . z 1...#.#._ <.7.3.q.",
"%.%.%.+.+.+.&.+.+.+.}  .1.X. .| %.%.X.<.2., > / &.%.%.+.| %.&.+.| | #.%.&.%.| &.*.;.;.;.;.;.&.&.=...X.<.7.c <.} | %.%.&.%. .X.w.",
";.-.*.;.*.*.:.*.*.;.;.&.O.%.&.;.;.;.;.| ] 7 s -.-.*.*.;.;.;.:.;.;.;.;.;.*.;.;.;.;.;.;.;.;.;.;.;.&.;.;.` Q v ..-.-.;.;.;.;.&.;.i.",
"*.*.*.*.*.*.*.*.*.*.*.*.;.*.*.*.*.;.;.#.A - s %.&.$.*.*.*.*.*.*.*.*.&.&.*.*.*.*.*.*.;.*.*.*.*.*.;.;.;./ f * k &.&.&.;.*.*.*.*.e.",
"*.*.*.*.*.*.*.*.*.*.*.&.&.*.*.*.*.&.&.O.G 4 i O.%.#.&.*.*.*.*.*.*.*.*.*.*.*.*.*.*.*.*.*.*.*.*.*.*.*.&./ j $ k O.' %.*.*.*.*.;.e.",
"*.*.*.*.*.*.*.*.*.*.*.*.*.*.*.*.&.&.&.' S > 9 ) o.O.%.;.*.*.*.*.*.*.*.*.*.*.*.*.*.*.*.*.*.*.*.*.&.&.%.( f $ g ) ' O.&.*.*.*.*.e.",
"*.*.*.*.*.*.*.*.*.*.*.*.*.*.*.&.&.%.%.I B - 8 P ) O.$.%.%.*.*.*.*.*.*.*.*.*.*.*.*.*.*.*.*.*.*.*.&.%.$.S s $ f I ) o.$.%.&.&.*.e.",
"%.*.*.*.*.*.*.*.*.*.*.*.&.&.&.&.%.%.$.K B > 8 P ( ( O.%.%.%.&.&.&.*.*.*.*.*.*.*.*.*.*.*.*.%.%.%.%.%.) C e $ f I ( ( $.%.%.&.%.e.",
"%.%.%.%.%.&.%.%.%.%.%.%.%.%.%.%.%.O.) K M & 9 K ( ( ( o.$.%.%.%.&.$.&.%.&.$.&.&.&.%.%.%.%.%.%.%.%.) P V s $ q P ( ( ( ' $.$.%.e.",
"$.%.%.%.%.%.%.$.%.$.%.%.%.%.$.$.) I I K r & 4 H ( ( ( P I ) $.$.$.%.%.$.%.$.%.%.%.%.%.$.&.$.$.$.( ( ( B 5 $ 9 K ( I ( I I o.$.:.",
"I I I o.' o.$.$.$.$.$.o.) ( I I I I K C w % 4 V P P I I I I I I ) o.) $.$.$.$.$.$.$.$.$.) I I L ( P K t 4 * 5 A I P I I I I I :.",
"N N B B N B N N N N h h t r e t t t r e 4 % % e M V V V V V V V C V B A C C C C C B N N N h M b N M h 6 & * & w M N N N N M M $.",
"4 : : ; # & & @ # @ @ @ # # @ # @ # @ $ + % $ @ ; ; 1 1 1 1 1 1 1 1 1 1 1 < & ; & ; # & ; & # ; # # & & + % $ + # # & & ; : & / "
};
