/* XPM */
static char *_654404e773944798999f5877c39a742efQlnAIRJTvd755z[] = {
/* columns rows colors chars-per-pixel */
"64 64 185 2 ",
"   c #000000",
".  c #090700",
"X  c #0D0D00",
"o  c #110F00",
"O  c #151200",
"+  c #191601",
"@  c #1D1A01",
"#  c #211D01",
"$  c #262101",
"%  c #2A2501",
"&  c #2F2901",
"*  c #332D01",
"=  c #373001",
"-  c #3C3401",
";  c #3F3802",
":  c #27251C",
">  c #3D3712",
",  c #302E20",
"<  c #423A01",
"1  c #483F04",
"2  c #4B4201",
"3  c #504701",
"4  c #574C01",
"5  c #594E01",
"6  c #574E0B",
"7  c #5D5203",
"8  c #5B5109",
"9  c #625601",
"0  c #655903",
"q  c #695D02",
"w  c #6E6102",
"e  c #716402",
"r  c #776902",
"t  c #7A6C02",
"y  c #7C6F11",
"u  c #58532F",
"i  c #524E33",
"p  c #514D34",
"a  c #756F45",
"s  c #847402",
"d  c #8C7C03",
"f  c #88790C",
"g  c #928103",
"h  c #998603",
"j  c #9D8A03",
"k  c #98870A",
"l  c #9A8A14",
"z  c #A18E03",
"x  c #A59203",
"c  c #A99504",
"v  c #AE9903",
"b  c #AD9A0D",
"n  c #B29D02",
"m  c #B29E0C",
"M  c #AA9918",
"N  c #B6A103",
"B  c #BBA503",
"V  c #BFA907",
"C  c #B6A314",
"Z  c #B5A31E",
"A  c #B7A93E",
"S  c #C3AD04",
"D  c #C6AF0B",
"F  c #CBB304",
"G  c #CCB509",
"H  c #D4BB04",
"J  c #D9BF04",
"K  c #D4BC0C",
"L  c #C2AD10",
"P  c #CCB612",
"I  c #D5BD12",
"U  c #D2BC18",
"Y  c #CAB628",
"T  c #DCC305",
"R  c #DCC30A",
"E  c #D8C114",
"W  c #E1C604",
"Q  c #E6CB05",
"!  c #E8CD05",
"~  c #E6CC0B",
"^  c #E8CE0B",
"/  c #EDD205",
"(  c #ECD20B",
")  c #F1D505",
"_  c #F5D805",
"`  c #F8DB06",
"'  c #F1D50B",
"]  c #E7CD12",
"[  c #E4CB14",
"{  c #E9CF12",
"}  c #E7CF1C",
"|  c #EAD115",
" . c #EAD11B",
".. c #F1D612",
"X. c #F4D915",
"o. c #F1D71A",
"O. c #F1D81A",
"+. c #DCC523",
"@. c #DCC62B",
"#. c #DBC83B",
"$. c #E2CB21",
"%. c #EBD323",
"&. c #EBD42B",
"*. c #F0D722",
"=. c #F3DB2E",
"-. c #ECD533",
";. c #ECD73B",
":. c #EDD83D",
">. c #F3DC35",
",. c #938B4A",
"<. c #A0995F",
"1. c #B3A855",
"2. c #979167",
"3. c #ACA576",
"4. c #C4BB7B",
"5. c #ECD742",
"6. c #EDD943",
"7. c #EEDA4C",
"8. c #F3DE4C",
"9. c #EFDC53",
"0. c #EFDD5A",
"q. c #F1DE57",
"w. c #F0DE5D",
"e. c #F6E24D",
"r. c #CDC276",
"t. c #F0DF63",
"y. c #F1E065",
"u. c #F1E167",
"i. c #F1E169",
"p. c #F1E16A",
"a. c #F1E26A",
"s. c #F1E16D",
"d. c #F1E26D",
"f. c #F1E26F",
"g. c #F2E26F",
"h. c #F1E271",
"j. c #F2E270",
"k. c #F2E371",
"l. c #F1E273",
"z. c #F2E372",
"x. c #F2E374",
"c. c #F2E375",
"v. c #F2E376",
"b. c #F2E475",
"n. c #F3E477",
"m. c #F3E479",
"M. c #F3E57B",
"N. c #F3E57C",
"B. c #F3E57F",
"V. c #F3E67E",
"C. c #F6E87D",
"Z. c #C5BE8C",
"A. c #CAC38D",
"S. c #D9D192",
"D. c #EADE80",
"F. c #F3E581",
"G. c #F3E682",
"H. c #F4E682",
"J. c #F3E785",
"K. c #F4E684",
"L. c #F4E785",
"P. c #F4E786",
"I. c #F4E78A",
"U. c #F4E889",
"Y. c #F4E88C",
"T. c #F5E88D",
"R. c #ECE295",
"E. c #F3E794",
"W. c #F5E991",
"Q. c #F5E993",
"!. c #FBEE94",
"~. c #F6EB9B",
"^. c #FCF19F",
"/. c #ECE4A2",
"(. c #F6ECA3",
"). c #F9EFA4",
"_. c #F7EEAB",
"`. c #FDF2A4",
"'. c #FBF2AC",
"]. c #F7EFB1",
"[. c #F8EFB1",
"{. c #F9F1B5",
"}. c #F9F1BB",
"|. c #FFF8BA",
" X c #F9F3C2",
/* pixels */
"T.T.U.I.P.G.G.J.B.B.c.B.M.n.n.n.c.c.b.c.b.c.z.c.z.c.z.c.c.c.c.c.c.c.z.z.c.c.c.c.n.n.n.n.M.n.m.V.V.H.V.H.H.P.P.U.U.T.W.W.W.W.~.~.",
"T.I.I.P.H.H.B.B.B.M.M.M.n.n.n.z.c.j.j.c.b.j.c.d.z.z.z.k.c.c.z.d.z.z.c.m.z.z.z.z.z.z.n.n.n.M.n.n.m.V.B.B.H.H.P.P.U.U.T.T.W.W.Q.Q.",
"U.I.P.P.P.H.H.M.n.M.c.c.c.d.z.z.z.d.g.g.g.d.j.d.t.z.t.z.z.t.m.t.d.t.c.t.z.z.d.z.g.n.n.z.z.n.n.n.M.M.M.B.V.H.H.H.P.P.U.U.T.W.Q.Q.",
"U.J.J.H.B.B.B.M.M.c.c.c.z.z.z.d.d.j.d.g.p.p.d.z.d.z.d.t.z.t.z.0.7.7.t.z.t.d.t.d.p.d.d.g.d.z.z.z.c.n.c.m.V.m.V.V.H.P.P.U.T.T.W.Q.",
"U.J.P.B.M.B.B.n.n.c.z.c.z.d.z.d.d.d.p.p.d.t.t.d.t.z.t.z.t.d.t.6.%.&.&.7.t.t.t.z.p.p.p.a.g.g.g.j.z.d.c.b.b.m.m.H.B.G.P.J.U.U.T.W.",
"I.J.G.H.B.M.M.M.c.z.z.z.z.d.d.p.p.u.u.p.t.d.z.t.t.t.t.t.t.t.t.7.:.-.%. .-.7.t.t.p.p.p.p.p.u.p.u.d.z.b.k.b.b.m.V.M.B.G.G.P.P.U.T.",
"P.H.H.M.M.M.n.c.z.z.c.d.p.9.w.d.p.p.t.t.j.t.w.7.7.-.;.5.9.q.0.q.6.-. . .| | ;.7.q.w.7.;.q.t.p.p.d.g.g.g.b.c.b.b.M.B.V.H.H.P.U.T.",
"P.G.B.B.B.n.c.c.c.z.d.p.7. .-.w.t.w.w.q.q.6.&.%. .&. .%.&.&.;.-.-.-.%. . . ./  .&.-.%.&.;.8.q.u.p.p.p.g.g.g.j.b.n.n.m.C.H.P.P.U.",
"P.G.B.n.n.n.n.n.z.d.z.0.%.-.-.;.;.&.%. .^  .^  .&.;.;.&.-. . .%.&.%. . .| | } | ^  .%.&.&.%.&.w.y.u.p.p.p.g.d.n.n.n.V.m.V.V.H.P.",
"H.B.B.B.M.n.z.g.n.t.u.6.%.;.:.-.-.&.-.%.{ {  .{  .-.&.%. . . .{  . .| | | ^ ^ | %.%.&.%.%.&. .6.0.7.y.p.u.p.d.z.z.n.b.m.m.H.G.P.",
"H.B.B.M.n.c.g.z.z.d.w.-.&.-.6.&.&.&.%. . .^ {  .{ Q { { { { { { { { { ^ | ^ ^ ^  . . .%. .} { %.-. .6.9.6.;.0.p.w.p.n.n.M.V.B.G.",
"H.B.n.M.n.n.z.z.d.p.6.{ %.%.%.%. . . .{ { ^ { { ^ ^ { { ~ { { { | ^ ^ ^ ^ ^ { { ~ ^ { ^ { ^ ! ^  . .} &.%./ 6.7. .:.d.n.n.M.V.V.",
"B.B.M.n.n.z.z.z.d.t.-. . .%. .{  .{ { { { { ^ { ^ ^ ^ ^ { ^ ^ ^ ^ ^ ~ ( ~ ^ ^ ^ ^ ~ ^ ^ ! ^ ^ ^ ( | %.%.%.%.%.%.&.%.9.z.n.n.M.V.",
"J.M.n.M.n.z.d.d.t.9.%.%.{ %. .^ { { ^ ^ ^ { { ^ ^ ^ ^ ^ ^ ^ { ^ ^ ^ ~ ^ ( ~ ! ^ ~ / Q ~ ^ ^ ^ ^ ~  .%. .]  . .%.%.%.-.p.n.n.M.V.",
"H.B.M.n.c.z.d.z.w. . .%.{  . .{ { { ~ ~ ^ ^ ^ ! ^ ! ! ^ ~ ! ! ! ^ ^ ^ ( ~ ^ ^ ^ ~ ! ! / ^ ! ! ! ^ ~ ^ | ] | | |  .%.%.7.p.n.M.B.",
"B.B.M.c.c.c.d.u.;.%.&. .{ { { { ^ ~ ( ..^ ^ ^ ^ ! ! ^ ! ! ! ! ^ ^ ^ ~ ^ ^ ^ Q ! ^ ! ^ Q ! ! Q ! ^ ( ~ ! ~ ( | | |  .| 6.w.g.n.n.",
"B.B.n.M.c.z.d.7.%.6.&.{  .| { ^ ~ ..~ B ~ ( Q ~ ^ ! ! ! ! ! ! ! ^ ^ ! ^ ! ^ ^ Q Q ! ^ ! ! ! ! ! ! ! ^ ^ ^ | { | ^  . .&.-.6.z.M.",
"B.B.M.n.z.c.t.-.6.6.&. .{  .{ ^ ' S e v ~ ! ! ! ! ^ ^ Q ! ! ^ ! ! ^ ~ ! ^ ! ! ! ^ ^ ! ! ^ ! ! ! ! ! ^ ^ ~ ( { ~ ~ | |  .%.:.p.n.",
"G.B.n.n.m.d.6.6.7.-.&.{ { ^ | ( h 5 G ' ! ^ ! ! ! ! ! ^ ! ! ! ! ! ! ! ^ ^ Q ! ! ! ! ! ^ ! ! ! ! ~ ! ~ ^ ^ ^ | ( ( | |  .%.-.:.d.",
"P.M.B.n.m.d.9.;.-.&. . .] | ^ e t ~ ' Q Q ! ! ! ! Q ! ! ^ Q ^ Q ! ! ! ^ ! ! ! ! ! Q Q ^ ! ! ! ! ! ( ^ ^ ~ ~ ^ ^ | ] | |  .%.-.d.",
"H.B.B.M.c.z.t.6.&. . .] | { 0 g ( ( ^ ! ^ ! ! ^ Q ^ ! ! ! ! ! ! Q ! ! ! ! ! ! ! ! ! ! ! ! ! ^ ^ Q D ~ ^ ^ ^ ~ | ^ ] | |  .%.0.M.",
"H.B.B.n.n.z.u.9.;.{ { | | 4 f ..{ ~ ^ ^ ^ ! ! ! ! ! ! ! ! ! ! ! ! ! ! ! ! ! ! Q / H S / ! ^ Q / H 2 R ( ] ^ { { |  .|  . .&.6.y.",
"J.B.n.M.M.d.w.9.:.%.{  .w r ( ^ ^ ^ ^ ^ ^ ^ Q ^ ! ! ! ! ! Q ! ! ! Q ! ! ! ! Q Q ) c h / Q ! Q / V * R ( ^ ~ | | { | %.%. .-.6.9.",
"H.B.B.M.c.z.u.0.7.&.o.g 2 { ( ^ Q ^ ^ ~ ^ ! ^ ! ! ! ! ! ! ! Q ! ! ! ! ! ! ! ! Q ) j s ( ~ ! Q ) N @ R ( ~ ^ ^ ^ ^ {  .%.-.6.9.7.",
"J.B.B.n.M.c.z.0.-.=.C   K ..~ ^ ^ ^ ^ ^ ^ ~ ! ! ! ! ! ! ! ! ! ! ! ! ! ! ! ! ! Q / x q / ! ! Q ' b X W ^ ^ ^ ^ { ^  . .%.6.6.6.7.",
"J.P.B.M.c.c.c.7. .@.  b o.^ ^ ^ ^ ^ ^ ^ ^ ^ ! ^ ^ ! ! Q ! ! ! ! ! ! ! ! ! ! Q Q ) v q ! ! ! ! / j   J ( ~ ^ ^ ^ ^  . .&.7.6.&.0.",
"J.H.G.M.M.n.z.0.*.y = { | | { ^ ( ! ! ^ ^ ! ! ! ! ! ! ! ! ! ! ! ! ! ! ! ! ! ! Q ) v 7 Q ! Q ! ( d   R ( ~ ^ { { |  . .;.6.&.-.d.",
"J.G.H.B.n.z.t.8.+.  b ..[ ^ ~ ( ~ ~ ^ Q ^ Q ! ! ! ! ! ! ! ! Q ! ! ! Q ! ! ! ! Q / S * T / ! ! ( t . R ( ~ { { { |  .%. . .6.w.z.",
"J.J.H.M.M.d.9.=.Z   P ..| ( ( ( ( ! ~ Q Q ! ! ! ! ! ! ! ! ! ! ! ! ! ! Q ! ! ! Q / S * T / ! ! ~ q   R ( Q ~ { { {  .%. .6.p.z.n.",
"I.P.G.B.m.p.6.o.M   f L K K K K R ~ ( / Q ! ! ^ ! Q ! ! ! Q ! ! ! ! ! ! ! ! Q Q / S   H / Q ! ! 8 O J / ! ^ ^ { { ^ %.7.d.z.z.c.",
"I.P.H.B.B.u.-.%.U ;     & < ; 5 e d v T / ! ! ! ! Q Q ! ! ! ! ! ! ! ! ! ! ! ! Q / H   F / Q ! T ; # J ( ~ ^ { {  .! -.t.d.d.z.n.",
"U.I.H.P.m.7.&.%.| E M s q 6 <       ; e F / Q ! ~ / / Q ! ! Q ! ! ! ! ! ! ! ! Q ! T   N / ! ) H   * T ( ~ {  . .%.%.0.t.z.z.c.n.",
"T.P.P.H.t.&.%.&. .| O.| { ^ [ J B 0   @ 7 T ! Q / J F ! ! ! ! Q ! Q Q ! ! ! ! Q ! W X v ) F z e   * J ( ^ ] { ^ | -.0.d.z.z.c.M.",
"T.P.P.P.w.%.;.%.&. .%.{ ^ ^ ! ( ' Q t     n / ! T e F ) Q ! W Q ! ! ! ! ! ! Q Q ) W 5 9 e < j z   * W ! T ( ~ ^ | &.:.p.z.c.c.c.",
"T.I.P.P.w. .&.-.-.&.%.{ { { ^ ~ ~ ' F @   s ) / e N ` W / T h Q ! ! ! W Q Q / ! F r   * c J ` B   2 Q c % V ' ! %.6.&.6.c.c.m.M.",
"W.U.I.P.B.t.9.9.:.| %.{ | { ^ ^ ^ ^ W 0   0 W c 3 H J Q ) n r / Q / W r W ) F d   3 4 s ) ! ) x   4 z +   1 [  .%.;.:.7.9.c.m.M.",
"W.T.I.J.c.c.t.;.&.{ %. .| | ^ ^ ~ ! Q w   # 4   % 1 2 n ) s d ) ! H e   F N   3 n Q j q ! Q ) j   @     *   m o.&.%.-.p.9.7.c.B.",
"W.T.U.J.t.t.0.;.%. .%. . .{ { ^ ^ ( T 3   4 7 # 9     @ J e d ) ! d     v n S ! ) ) c 4 Q ! / d     5 q +   e ^ } &.| 6.p.6.9.J.",
"W.W.T.I.H.z.0.0.7. .&.{  . .| { ] ..S     j t t / B =   B 0 s ) ! e     z _ / ! Q / N ; T ! / d     N c   O   K / [  .^ 6.7.%.t.",
"W.W.T.U.c.t.t.t.-. .%. .{  . .{ { ( k   $ j   n _ ! s   N w w / F o #   t ! Q Q Q / F % H ) ! s   * W B   &   x ( ~ | } (  .;.6.",
"Q.W.T.J.9.6.0.7.| %. . .|  .| ] ( K $   e h   H / W e   F t = / n   +   < T ! Q Q ) J * F / Q r   e / S   #   < ~ ! ~  .%. . .-.",
"~.Q.W.J.-.&.;.%.%. .%. . .%. .{ | f     N s   T ) F   4 ! d   v q - e     N ) Q Q ! W < B ) W q   d / J <   %   z ' ]  . . .&.&.",
"~.Q.W.T.n.7.:.-.%.| &. .{ %.} O.C     e R < 4 Q / d   v _ v       n F     d / ! Q ! Q 9 c _ T 4   g ( / c   % .   D |  .%.-.-.-.",
"~.W.Q.W.T.I.M.6.7.t.6.&.%.} *.U #     I R   9 ) F   3 T / T t < c ! ! t   r ! ! Q Q Q s j _ H     c / Q Q r   =   q ] |  .&.&.&.",
"~.Q.Q.W.T.T.G.7.w.u.6.-.&.*.+.6     C X.G   < n 5   S / Q / / T / ! ! W z F ! ! ! Q / d d _ ~ z x W ! Q ! W s       I | ] {  .&.",
"~.~.~.W.W.T.M.9.u.9.:.-.=.$.7     l o.| G   O     j / ! Q ! ! ! Q ! ! ! ) ! Q ! ! Q ) n s ) ! / / ! ! ! ! ! ] b 0 z ] | [  .%.%.",
"(.~.W.Q.W.W.c.9.w.7.6.=.@.8     k %. . .^ s   < c ~ / Q Q Q Q ! ! Q ! Q Q Q ! ! ! Q / J B ) Q Q Q Q ! ! ^ ^ ^ ( ^ | {  . .%.| 6.",
"(.~.~.~.W.W.I.t.q.9.e.Y 1     f %.%. .| | ~ G R / ! Q ! ! ! ! ! ! ! ! ! ! ! ! ! ! Q Q ! ! ! ! ! ! ! ^ ^ ^ ! ^ { { ^  .%. .-. .9.",
"(.~.~.~.Q.W.T.J.B.z.A X     l %.%. . . . .( ( ( ~ ^ Q ! ! ! ! ! ! ! ! ^ ! ! ! ! ! Q ! ~ ^ ! ! ! ! ! ! ^ ~ ^ ^  .~ ^  .{ &.-. .t.",
"(.(.~.~.!.W.T.!.B.,.      M %.%. . . . .%.^ ! ^ | | ! ! ^ ^ ! ! ! ~ ^ ^ ^ ! Q ^ ! ^ ! ! ! Q ! ! ^ ! ! ^ { { ^ { { {  .{ -.-.w.W.",
"(.(.(.~.Q.~.!.r.i     > Y =.%.%.%. .%.%.%. . . .} | ! ^ ^ ^ | ( ! ^ ^ Q ! ! ^ ! ! ^ ! ^ ^ ! ^ ! ^ ! {  .{  .{ ~  .%. .&.&.t.E.~.",
"_.(.(.~.^.R.<.      y #.>.&.%.%.%. . .%.}  .%.%. .| ( Q ^ ^ |  .|  .| %.%.! { { { ^ ! ^ ^ ^ ^ ^ Q ^  . .{ {  . .&.{ ;.9.w.T.~.(.",
"_.(.(.(.4.u     : 1.0.8.:.-.-.%.%.%.%.&. .%.%.&.%.%.| ^ |  .%. .&.-.7.9.7.-.%. .{ Q {  .{ ^ ^ { ^  .%.%.%. . .&. .:.t.t.Q.~.~.(.",
"_.'.S.2.,     a r.!.I.M.c.d.9.&.&.%.&.-.&.-.-.&.&.&.&. .%.%.-.&.%.:.t.t.w.9.-.&.&.-.-.%. .{ ^ ! &.;.&.-.&.6.6.&.9.I.Q.Q.~.~.~.(.",
"|.Z.p     p 4.Q.^.W.T.T.G.P.p.7.-.-.-.:.-.&.-.;.;.%.&.-.&.;.7.;.-.6.p.t.t.p.9.t.t.7.9.7.&.Q  .&.;.7.:.7.t.q.7.z.T.Q.Q.~.~.(.(.).",
"2.    p 3.R.`.~.W.!.T.I.J.B.t.0.6.=.6.-.-.-.%.:.6.;.6.;.7.9.7.-.%.9.d.p.p.d.c.p.7.t.t.0.:.-.&.t.w.7.t.t.H.B.G.W.Q.Q.~.~.(.(.(._.",
"Z.3.A./.'.(.(.~.W.Q.W.T.T.B.p.u.d.0.d.0.6.-.&.&.-.;.7.7.w.t.t.0.0.p.d.d.z.d.z.d.t.z.z.7.-.-.9.H.G.B.B.P.I.W.W.W.E.~.~.~.(.(._._.",
"|.|.|._.(.(.(.~.~.~.Q.W.U.P.w.w.t.u.0.t.6.-.;.;.-.-.9.u.w.t.d.z.z.z.z.d.z.c.z.c.m.m.c.u.:.9.M.H.P.P.I.T.T.W.Q.~.~.~.(.(.)._._.].",
"].].]._._._.(.(.~.~.~.Q.W.T.B.d.p.9.6.6.;.:.;.&.-.:.6.9.7.9.d.z.z.z.z.z.c.c.M.M.c.m.B.B.c.V.P.P.I.I.T.W.W.Q.~.~.~.(.(.(.).].].].",
"}.}.].'._._.(.(.(.~.~.Q.W.W.W.U.U.B.B.M.c.z.t.7.6.6.-.6.:.7.z.n.c.c.c.n.M.M.c.M.B.B.B.P.J.I.P.I.Y.Y.W.W.~.E.E.~.(.(.(._.].].[.].",
"}.}.].].]._._.(.(.(.~.~.~.Q.Q.T.T.U.U.J.P.H.B.M.d.u.9.7.9.u.c.M.n.M.M.M.M.M.M.B.V.H.H.P.P.I.T.Y.Y.Q.Q.Q.E.~.(.(._.)._._.].[.[.}.",
"}.}.}.].{._._._.(.(.~.(.~.Q.Q.Q.Q.T.Y.I.P.P.H.H.B.H.M.B.M.n.M.n.B.n.B.B.B.H.H.P.P.P.J.J.I.T.T.W.Q.Q.~.~.~.~.(.(.(._._.[.[.}.}.}.",
"}.}.}.}.{.]._._._.(.(.~.~.~.~.Q.Q.Q.U.T.U.I.P.P.H.G.H.G.P.B.B.B.B.G.H.B.J.H.H.P.P.I.I.T.T.W.Q.Q.~.E.~.~.(.(.).)._.].[.[.[.}.}. X",
" X}.}.}.{.{.]._._._.(.(.(.~.~.~.Q.W.W.T.T.T.U.U.P.P.P.P.H.H.H.H.G.P.H.H.P.P.I.P.T.T.T.T.W.W.Q.Q.~.~.~.(.(._._._._.].[.}.}.}. X X"
};
