/* XPM */
static char *result[] = {
/* columns rows colors chars-per-pixel */
"64 64 192 2 ",
"   c #1F2632",
".  c #2F3640",
"X  c #3C4249",
"o  c #4F565D",
"O  c #585C60",
"+  c #6C7075",
"@  c #8A837C",
"#  c #AD997D",
"$  c #7DAFF6",
"%  c #7DAFF8",
"&  c #76B3F6",
"*  c #7DB2F6",
"=  c #7DB9F6",
"-  c #868888",
";  c #8C8D8D",
":  c #998D81",
">  c #909392",
",  c #A39683",
"<  c #BBA484",
"1  c #B9A78A",
"2  c #BFAA8A",
"3  c #A4A29C",
"4  c #A9A499",
"5  c #ABAAA3",
"6  c #A8ABA9",
"7  c #BCBBB6",
"8  c #C6AD88",
"9  c #CEB38C",
"0  c #D1B488",
"q  c #C7B99C",
"w  c #E0C494",
"e  c #EAD19E",
"r  c #F6D69E",
"t  c #F6D89E",
"y  c #CFC5A8",
"u  c #DECFAF",
"i  c #C6C4B7",
"p  c #D9CEB8",
"a  c #EACEA9",
"s  c #EED3A6",
"d  c #E2D1AB",
"f  c #EAD2AD",
"g  c #EFD9AC",
"h  c #F4D7A2",
"j  c #F6DBA3",
"k  c #F2D6A9",
"l  c #F5DBAA",
"z  c #F8DFAB",
"x  c #ECD5B3",
"c  c #ECDAB7",
"v  c #EDDBBE",
"b  c #F3DCB3",
"n  c #F1DDBC",
"m  c #F7E1AB",
"M  c #F8E3AE",
"N  c #F9E8AF",
"B  c #EFE0B6",
"V  c #EEE0BC",
"C  c #F3E1B4",
"Z  c #F9E6B2",
"A  c #FAE9B4",
"S  c #F0E3BB",
"D  c #F9E7B9",
"F  c #FAEABA",
"G  c #81B5F6",
"H  c #84BBF6",
"J  c #8ABEF5",
"K  c #83B7F8",
"L  c #86BDF8",
"P  c #88BFF8",
"I  c #92BFF5",
"U  c #95D2EF",
"Y  c #86C1F6",
"T  c #8BC4F6",
"R  c #8FC8F7",
"E  c #8CC4F8",
"W  c #8FC8F8",
"Q  c #92C5F4",
"!  c #9BC6F4",
"~  c #94CBF6",
"^  c #9ACCF5",
"/  c #90C3F8",
"(  c #94CBF8",
")  c #98CDF8",
"_  c #96D2F2",
"`  c #9BD2F6",
"'  c #9ED8F7",
"]  c #96D1F9",
"[  c #9AD4F9",
"{  c #A4CCF4",
"}  c #A6CDF6",
"|  c #BDCFF3",
" . c #A4D2F5",
".. c #ACD2F5",
"X. c #A4DAF6",
"o. c #ABDCF6",
"O. c #A2D5F8",
"+. c #AAD2F8",
"@. c #A4DAF9",
"#. c #AADCF9",
"$. c #B4D4F4",
"%. c #BDD2F5",
"&. c #B4DAF5",
"*. c #BCDBF4",
"=. c #B2D3F8",
"-. c #BCD5F8",
";. c #B4DCF9",
":. c #BBDAF9",
">. c #AEE1F7",
",. c #AEE2F9",
"<. c #B5E2F6",
"1. c #BCE5F6",
"2. c #B4E8F7",
"3. c #BDE8F7",
"4. c #B3E2F9",
"5. c #BCE5F9",
"6. c #B6EAFA",
"7. c #BDEAFA",
"8. c #C8C4C0",
"9. c #CDCCC4",
"0. c #D0CECA",
"q. c #DBD6C7",
"w. c #D5D4CC",
"e. c #D8D5CB",
"r. c #DCDAD3",
"t. c #E4D9C0",
"y. c #ECDEC5",
"u. c #F0DEC3",
"i. c #E1DDD4",
"p. c #EFE0C3",
"a. c #F1E1C4",
"s. c #F2E5CD",
"d. c #E6E3DB",
"f. c #ECE5DA",
"g. c #EDEADD",
"h. c #F3E7D1",
"j. c #F3E8D4",
"k. c #F3EDDC",
"l. c #C3D4F5",
"z. c #C9D7F5",
"x. c #C2DDF5",
"c. c #CBDAF6",
"v. c #C0D7F8",
"b. c #C2DCF9",
"n. c #CADEFA",
"m. c #D1DEF7",
"M. c #D0DFFC",
"N. c #C3E4F5",
"B. c #CCE6F5",
"V. c #C3E9F6",
"C. c #CBEBF6",
"Z. c #C3E6F9",
"A. c #C3ECFB",
"S. c #CCEAFC",
"D. c #D2E2F7",
"F. c #D8E1F7",
"G. c #D5ECF5",
"H. c #DAECF6",
"J. c #D3E4FA",
"K. c #DCE5F9",
"L. c #D5EAFC",
"P. c #DBEDFC",
"I. c #C2F0FC",
"U. c #D6F1F7",
"Y. c #DCF1F6",
"T. c #D7F1FA",
"R. c #DEF0FC",
"E. c #EAE7E0",
"W. c #E4EAE6",
"Q. c #EDECE4",
"!. c #E4EDE9",
"~. c #F1EEE5",
"^. c #F0EEE8",
"/. c #E6F0EC",
"(. c #EAF3EF",
"). c #F2F2E5",
"_. c #F3F4EC",
"`. c #E3EFF5",
"'. c #E1E7FA",
"]. c #E4EBFA",
"[. c #E9EFFB",
"{. c #E4F3F6",
"}. c #ECF5F3",
"|. c #E3F3FC",
" X c #EAF5FC",
".X c #EDF9FD",
"XX c #F3F6F1",
"oX c #F5FAF4",
"OX c #F8FBF5",
"+X c #F0F3FB",
"@X c #F4FBFE",
"#X c #FAFEFE",
/* pixels */
"* * $ $ $ $ $ $ $ $ $ $ $ $ $ $ $ $ $ $ $ $ $ $ $ $ $ $ $ $ $ $ $ $ $ $ $ $ $ $ $ $ $ $ $ $ $ $ $ $ $ $ $ $ $ $ $ $ $ $ $ $ $ $ ",
"$ $ G $ G $ G $ $ $ $ $ G $ G $ $ $ G $ G $ $ $ $ G $ $ $ $ $ G $ $ G * $ $ $ $ $ G $ $ $ $ % % G $ $ $ $ $ $ $ G $ $ G $ $ $ $ ",
"$ G $ G $ $ G G G $ G $ $ $ $ $ $ G $ G $ G $ G G $ G $ G $ G $ $ G $ $ G * $ $ $ * * $ % * G $ G $ $ G G $ $ G % $ % $ G $ $ G ",
"G * G G G G G G G G $ G G G G G $ G G G G $ G % $ G $ G $ G $ G * * $ G $ * G * $ G G * G * $ G * $ G * $ $ G G $ G G * * * G % ",
"G G K K G K G G G G K K G G G G K G G G G G G G G G K K K G G G G G G K K G G G G G G G G G G G G G G G G G G G K G G G G G G K ",
"K K H K K K G K G K K K G H H G K H K G K K K K K G K K K K K G H ! $.*.n.x.*.{ I G G G G G G G G G K K G G G G G G G G G G G I ",
"H H H H H H H H H H H H H H H G K H H H K H H K K K H K G H K I *.|.OX#X#X#X#XOXH...J G K H H K K K K K K K K H K K K H K K K I ",
"H H H H H H H H J H H H H H H H H H H H H H H L H H H H H H J -. X@X#X#X#X#X#X#X#X+X%.I H H H H H H H H H H H H J H H H H H H H ",
"L L L L L L L L H L L L L L L L L L L L L L L L H J J H H H R L..X.X@X#X#X#X#X#X#X#X@XH.*.! G H H H H H H J H H H H H H H H H L ",
"E P P L P Y Y Y L L T L L Y Y L L L L L L Y L P T L L L J J Q J.|. X.X@X#X#X#X#X#X#X#X#X#XJ.{ ! Q Q J T J J J J J J H K H P J L ",
"E L E Y Y E Y E T T J L E P E E L E E L Y E P P L T T / ! ..n.].].[.[.[.[.[.[. X[.+X+X+X+X+X[.].'.F.J.D.D.D.K.J.c.-.+.{ I J P P ",
"E E E Y E E T E T T E E E E P E E E E E E E E E / Q } b.J.K.'.'.K.K.K.F.K.K.'.K.'.K.'.'.'.].].].].].].].].[.[.+X+X+X[.[.D.../ E ",
"/ E E W W E R E E E E E E E / E E E E E E E / / +.-.n.F.J.m.m.c.z.z.z.z.c.c.z.z.z.c.z.c.m.c.m.c.c.z.z.l.z.z.c.m.m.K.'.'.L.=.E E ",
"( W W W R R R W W W W W E / W ( ( } +.} ^ ) ( / } =.J.K.D.c.z.l.l.l.l.l.l.l.l.%.| l.l.l.l.l.l.z.z.l.z.c.c.l.b.v.-.:.+.} ! / / E ",
"] W ( W W W ] W ( W W ( ( ) +.;.b.J.J.J.J.n.:.:.=.:.P.|.P.K.J.D.c.c.l.l.l.%.%.%.| | l.l.z.z.c.z.c.m.m.l.=.} } ^ ) ( W W W W ( W ",
"R W ] ( ( ] W W ( ] ( W ( ] +.=.b.n.M.n.J.J.J.J.M.J.|.].].|. X.X+X X X|.].].`.'.K.`.'.[.+X X[. X.X@X{.B.;.) ( ( ( ( ( ( ( ( ( ( ",
"X._ ] ] ) ] ] ( ] ) ( ] ] ] ] _ ) ` ` O.O.+.+.O.+.;.P.|.|.R.R.|..X.X.X@X@X.X@X@X@X#X#X@X@X@X@X.X+X@X#X#X@XR.o.) ~ ) ] ] R ] ] ( ",
"|.1.' ] ] ] ] ] ] ] ] ] ] ] ] ] ] ] ] [ ) ] ] ] ] #.J.|.|.|.|..X#X@X X.X.X.X.X.X.X|..X.X.X.X.X].{.@X@X#X#X@X|.1.' ] ] ] ] ] ] ] ",
"@X.XZ.o.#.#.@.' [ @.#.5.V.5.&.X.' [ [ [ [ [ [ @.Z.R.|. X|. X.X.X@X#X@X@X@X@X.X|.|.|.|.|.|..X@X@X.X@X@X@X#X#X@X.X*.[ [ [ [ [ ] [ ",
"#X#X@X|.|.R.T.Z.5.L.|.@X#X#X@X|.S.#.O.[ ' ' #.Z.|..X X.X@X@X.X.X.X@X@X@X@X#X@X.X|.|.|.|.@X@X#X#X@X{.|.|..X@X#X#XL.' [ [ ' [ [ [ ",
"#X#X#X#X#X#X@X@X.X@X#X#X#X#X#X#X@X.XL.5.4.7.L..X.X|.P.|..X.X.X X|.|..X X.X@X@X@X#X.X.X@X@X@X@X@X@X@X.X X.X@X#X@X.X1.3.C.I.<.#.@.",
"#X#X#X#X#X#X#X#X#X#X#X#X#X#X#X#X#X#X#X.X|.|..X@X XP.R.|.R. X|.|.|.|.|.|.|.|.|..X.X@X.X@X@X.X X|..X@X@X@X@X@X@X@X@X.X@X.X.X.XT.U.",
"@X#X@X@X@X@X@X#X#X#X#X#X#X#X#X#X#X#X#X#X@X X|.|.R.R.R.R.R.R.R.R.R.R.R.|.P.R.R.P.R.|.|.|. X|.|.|.|..X.X@X@X@X@X@X@X@X.X|.|.|.|. X",
".X.X.X|. X.X@X.X X X X.X X.X.X.X.X@X.X@X.X[.P.P.P.R.R.R.P.R.R.R.R.R.R.L.P.P.P.P.P.R.R.|.R.R.R.|.|.|.|.|. X.X.X@X@X@X X|.|.|.|..X",
"R.R.R.R.R.|.|.|.R.R.P.P.P.P.P.P.P.].R.R.P.P.P.P.P.P.K.P.R.P.P.R.|.|.|.R.P.P.P.P.P.P.P.P.P.P.P.P.|.|.|.|.|.|.|..X@X@X.XR.|.|.|..X",
"R.P.P.P.P.R.R.R.P.P.P.P.L.L.P.L.P.P.P.P.P.P.P.P.L.L.P.P.|.|..X.X.X.X.X.X|.|.R.P.P.P.L.K.L.P.P.P.P.P.|.|.P.R.|.|. X.X|.R.R.|.|.|.",
"P.P.P.P.R.R.R.R.P.P.P.L.L.L.L.L.P.P.P.P.P.R.|.P.P.P.|.|..X X X X|.R.R.|.|.R.P.L.L.L.L.L.P.P.P.P.P.P.P.P.P.P.P.R.|..X X|.R.R.R.|.",
"P.P.P.P.P.P.P.P.P.K.L.L.K.L.L.L.L.P.R.P.P.P.P.P.|.|.|.|.|.P.P.P.P.P.R.L.P.P.L.P.L.K.L.L.P.P.P.L.L.L.L.P.P.P.P.P.R.|.|.|.R.R.R.R.",
"L.L.L.L.L.L.L.L.L.L.L.J.L.L.J.L.L.P.L.P.L.K.P.P.P.R.P.L.L.P.L.L.L.L.L.L.L.L.P.P.R.P.P.P.P.P.L.L.L.L.K.L.P.L.P.L.R.R.T.R.T.R.L.L.",
"S.S.Z.S.S.S.S.S.S.S.S.S.S.J.J.J.J.L.S.S.S.S.S.S.L.L.L.S.L.S.S.S.S.L.S.S.L.L.L.R.R.R.P.L.L.L.L.L.L.L.L.L.L.L.L.L.S.L.S.S.S.S.S.S.",
"Z.S.A.A.A.S.A.S.S.S.A.S.S.S.S.S.S.S.S.S.S.S.S.S.S.S.S.S.S.S.S.S.S.S.S.S.S.S.S.L.L.T.L.S.S.S.S.S.S.S.S.S.S.S.S.S.A.S.S.A.A.S.A.S.",
"A.A.A.A.A.A.7.A.A.7.7.A.S.A.A.A.A.A.A.A.A.A.7.A.A.A.S.S.A.A.A.A.A.A.S.A.I.S.A.I.A.A.I.A.S.A.S.A.S.A.S.S.I.S.A.A.A.A.A.A.A.A.I.I.",
"I.7.7.A.I.I.I.7.I.7.7.A.I.I.I.I.A.I.I.A.I.A.I.I.I.A.I.A.I.I.A.A.I.I.I.I.I.I.I.I.I.I.I.A.I.I.I.I.I.I.I.7.3.2.2.3.2.2.6.I.I.I.7.I.",
",.>.,.>.>.>.>.#.#.,.,.,.,.>.>.>.,.,.,.,.>.>.>.>.>.,.4.#.,.,.,.2.,.,.,.>.4.>.,.,.>.>.<.>.>.>.>.>.4.,.,.X.' _ U U U U ' ,.2.,.,.2.",
"~ _ ) ) ~ ~ ~ ~ ~ ~ ) ^ ~ ~ ) ) ) ~ ) ) ~ ~ ) ~ ~ ~ ) ) ) ) ) ~ ) ) ~ ) ^ ] ) ^ ) ) ~ ^ ~ ~ ) ^ ~ ] ] ~ ] ) ~ ~ ] ~ ) ~ ) _ ] ] ",
") ) ) ) _ ) ) ~ ) ] ) ) ) ) ~ ] ) ) ) ) _ ~ ~ ~ ~ ) ( ( ( ( ] ~ ) ( ) ~ ^ ~ ^ ] ) ) ~ ~ ~ ) ) ~ ~ ~ ~ ^ ~ ~ ~ ~ ~ R ( ~ ) ~ ~ ~ ",
"( ( ~ ~ ~ ~ T ~ ~ ~ ~ ~ ~ R R R T T ~ T R T ~ R ~ R ~ R R R ~ R ( T ~ R R R R ~ ~ ~ R ~ ~ ~ R _ ~ ~ ( ~ ~ ( ~ ~ ( ~ ~ ~ ( / ~ W ",
"W ( W W ( ( ~ T ~ ( ( ~ R _ ~ R ( ( ( ) ~ ~ ~ ~ ~ ~ ~ ~ _ R ~ ~ ) ( ~ ~ R ~ ~ R R T T R T T R Q R R T W W ( ~ ~ ( ( ~ ~ ~ ( ~ ~ ",
"R ( T T E E T T T T H T T T T T T T Y T Y Y H T T T T T R T T T Y T T T T T T T R ~ R ~ ~ R ~ R ~ R ~ W E T T T T T T R R T E W ",
"T T T R E E R E T E R T R T E T T T T T W W R W T R R T Q T T Y T T T T T T T T Y T T T T R Q T T T T Q ~ ~ ~ Q Q ~ ~ ~ ~ Q ~ R ",
"Y Y E T Y Y E Y Y T Y Y T Y Y T T Y T E E E E E R R R R R R Q Q T Q ~ R Q Q Q Q ^ Q { { { $.&.*.B.B.G.G.H.H.H.H.G.G.B.B.N.x.x.*.",
"T T Y Y E Y E E T Y T E T Y Y Y Y T E E T T R ~ ^  .....&.&.*.*.N.N.B.B.G.G.G.H.{.{.{./.{.{./.{.!.H.B.B.N.N.*.&.$.$.......{ { U ",
"Y Y Y E Y Y Y Y Y Y Y Y Y Y Y Y = = = = H T U ..$.*.1.*.x.x.*.*.$.$...{ { ! { ^ ! ! Q ! Q J T Y J H H = G H K H G = = = G = = = ",
"= H = = = = = & & * & & & & & & & & & & & & & * & = * = & & & = & $ & & & & & & & & & & & & & & & & & & & & & & = = = = = = = = ",
"& = & & & & & & & & & & & & & & & & & & & & & & & & & & & & & = = = = = = & = & = = = = = = = = = = = = = = & = & & & & & & $ & ",
"= & & & & & & & & & & & & & * * & & = & = = = & = & & & & = & & & = = H = = = K H = = Y Y T T E T R R T E Y Y Y Y Y Y Y Y Y T Y ",
"= Y Y Y Y E E Y E Y T E T T T E T W R R R ] _ _ R ~ ( ) ] _ ) ) U ^ _ _ ` ] ' ` ' @.@.>.,.,.,.#.#.,.X.o.#.#.#.#.>.#.,.,.,.2.2.>.",
"#.,.,.,.,.6.6.6.6.4.2.,.4.2.#.4.,.,.,.,.2.6.6.,.4.4.4.4.<.5.6.5.3.3.<.5.5.5.7.7.3.6.5.5.6.6.6.7.7.7.7.3.A.7.3.6.5.5.7.7.6.7.7.7.",
"7.7.7.7.Z.A.I.I.I.I.A.I.A.A.3.A.3.3.5.5.5.6.3.2.<.<.<.<.<.1.1.7.3.3.3.1.5.5.7.7.7.I.I.A.5.5.5.5.5.5.5.5.7.Z.7.5.5.5.5.5.5.5.5.5.",
"7.A.Z.Z.N.1.3.5.3.3.3.V.V.C.C.V.Z.3.3.3.3.3.3.3.3.N.N.V.V.1.3.5.1.5.<.<.<.5.;.<.<.5.3.7.3.Z.S.C.7.5.5.5.Z.5.5.5.:.5.5.5.5.Z.1.<.",
"Z.3.3.5.5.5.1.1.5.1.5.1.Z.V.3.1.1.2.1.1.3.V.V.C.G.U.Y.{.{.U.C.N.1.5.5.3.5.5.5.5.3.5.5.1.5.Z.Z.Z.5.5.5.5.5.5.5.5.5.5.5.Z.S.C.Z.5.",
"Z.N.5.5.1.5.N.N.V.S.C.G.C.V.V.C.C.G.G.H.{.}.(._._.oX_.oXoXoX}. XY.Y.Y.R.Y.G.G.H.T.T.Y.|.|.{.|.H.S.Z.Z.5.Z.Z.5.Z.Z.S.J.T.U.U.T.H.",
"Q.!.W.!.!./.}.}.}.XX_._.).).g.g.f.h.y.u.y.n n v C v v u.u.n u.u.s.j.k.k.~.~.^._.oXoXOXOX#XOX#XOX+X@X X{.{.{.{.{./.XX_._.).).).k.",
"a f a a a f f x x x x x f s s s k a x u.u.y.x v p.C l j j l h k j k k k k b b n n u.a.u.u.h.s.j.j.h.h.s.s.s.a.n n n S C C b C b ",
"l l l l l j l k l l j j j l j j k y.f.~.~.Q.g.d.d.g.p.s r r r h j r r r r t j t h j j h h j j h h h h h j j j m l M M M M M M Z ",
"Z Z Z M C Z Z Z Z Z M Z Z M Z g q.i.d.E.^._.XX^.d.r.p r r h r r t h r r t r t t t t t r r r r r r r r r t t t j h j j j m j m m ",
"D Z Z Z Z D F A Z Z Z D Z Z Z u 8.w.i.d.Q.(.).^.Q.r.d j j t j j j j j j t j j j j j t j h h h h h h h t t t t t h t h j t t t j ",
"D F F A D F Z F F F D A D A c p 7 7 0.e.r.i.d.d.d.e.b M M A N A M M M M M M M M N Z M z M M M Z M z z z m m j m j j j j j j m j ",
"Z Z Z Z Z M C M Z Z Z N Z B q.r.; X > 7 i 9.w.e.9.i C A A F F F D D F F F F A A F A A A A F F F A D F D A A A A Z M z M z z m m ",
"Z Z N C A N Z Z Z C M M M t.r.9.O   . ; 5 5 5 5 4 y F F F F F F F F F F F F a.F F F F F F F a.F F F F F D A A F D A Z Z N N N M ",
"Z A A A A A A A A F N N V r.w.+ X o - 6 - @ @ : 1 g N A F F F F F F A A F F A A A A A A A A F A F F F A A F A F a.F F F A F D A ",
"M N Z N N N Z A A A A S q.7 > + - 3 4 , # < < 9 w m A A A A A F A A A A A A A F A A A A A N A A A Z A A A A A F F F F F F F F F ",
"N M M M M M M Z N N m d q 1 2 8 8 8 0 w e s g Z N N N A A A A A A A N A A A A A A A A A A A A A A A A N A A A A A A A A A F F F ",
"Z A Z Z N N M M M Z m m m j l j j m M N N A A A A A A N A A A A A A A N A N A A A A A A A A A A A A A A A A A F F A A A A A F F "
};
