/* XPM */
static char *_b0dd1fdceee49d3da8ec198eda0b0e9DJotmgU5EgdLQqJG[] = {
/* columns rows colors chars-per-pixel */
"64 64 186 2 ",
"   c #BB7820",
".  c #BF7934",
"X  c #BE793B",
"o  c #C57900",
"O  c #CC7900",
"+  c #C5790D",
"@  c #CB790C",
"#  c #D37900",
"$  c #D0790A",
"%  c #CD7913",
"&  c #C6781C",
"*  c #C9781A",
"=  c #C47823",
"-  c #CA7923",
";  c #C2782C",
":  c #CC792C",
">  c #C37834",
",  c #C97936",
"<  c #C3793A",
"1  c #C8793B",
"2  c #BC7843",
"3  c #B5794B",
"4  c #BB794B",
"5  c #A2775E",
"6  c #AF785F",
"7  c #B27753",
"8  c #B57954",
"9  c #BB7853",
"0  c #B1775B",
"q  c #B4795A",
"w  c #BC785A",
"e  c #9E776B",
"r  c #9F7772",
"t  c #9E767F",
"y  c #9F787A",
"u  c #A57762",
"i  c #AD7764",
"p  c #AB7865",
"a  c #A3786D",
"s  c #AC796B",
"d  c #B17962",
"f  c #B57866",
"g  c #B3796B",
"h  c #A47874",
"j  c #AC7972",
"k  c #A3777D",
"l  c #A4797B",
"z  c #AB7A7D",
"x  c #B27970",
"c  c #C37844",
"v  c #7A779E",
"b  c #4F75BE",
"n  c #5476BE",
"m  c #5C76BC",
"M  c #5678BE",
"N  c #5B7ABE",
"B  c #6C75AD",
"V  c #6C78AD",
"C  c #7675A7",
"Z  c #7C77A5",
"A  c #7779A6",
"S  c #7676AC",
"D  c #7378AB",
"F  c #7D7BAA",
"G  c #6375B4",
"H  c #6B76B3",
"J  c #6479B6",
"K  c #6D7AB4",
"L  c #6277B9",
"P  c #637BBC",
"I  c #6C7EBB",
"U  c #7076B1",
"Y  c #727BB3",
"T  c #757BB6",
"R  c #1F76CD",
"E  c #1F75D1",
"W  c #2877CD",
"Q  c #3C74C7",
"!  c #3C76CA",
"~  c #3578CE",
"^  c #3C7ACC",
"/  c #347DD3",
"(  c #4575C6",
")  c #4D75C4",
"_  c #4C7AC6",
"`  c #4376C9",
"'  c #4977C8",
"]  c #447BCB",
"[  c #4B7BCA",
"{  c #5176C4",
"}  c #5977C0",
"|  c #547AC6",
" . c #597DC6",
".. c #557DC9",
"X. c #5A7EC8",
"o. c #417FD1",
"O. c #607EC3",
"+. c #897682",
"@. c #8D768B",
"#. c #957786",
"$. c #987780",
"%. c #9C7A85",
"&. c #93778E",
"*. c #97788A",
"=. c #947A8B",
"-. c #997A8C",
";. c #857795",
":. c #8C7796",
">. c #8A7699",
",. c #82799E",
"<. c #8A7A9B",
"1. c #937993",
"2. c #9C7B92",
"3. c #957D99",
"4. c #A07786",
"5. c #A37982",
"6. c #8677A3",
"7. c #8A77A1",
"8. c #827BA5",
"9. c #8A7AA4",
"0. c #817BAB",
"q. c #6280BF",
"w. c #7981B3",
"e. c #4B80CE",
"r. c #5E80C7",
"t. c #5581CD",
"y. c #5D81C9",
"u. c #4F81D0",
"i. c #5484D1",
"p. c #5C86D2",
"a. c #6382C6",
"s. c #6C87C7",
"d. c #6285CB",
"f. c #6688CC",
"g. c #6B8CCE",
"h. c #708FCF",
"j. c #6F90CF",
"k. c #7291CF",
"l. c #638BD3",
"z. c #6F8FD0",
"x. c #708FD0",
"c. c #6F91D0",
"v. c #7493D1",
"b. c #7996D2",
"n. c #7D99D3",
"m. c #9E808C",
"M. c #8D809E",
"N. c #90829D",
"B. c #8A83A6",
"V. c #8583AC",
"C. c #829DD5",
"Z. c #86A0D6",
"A. c #8AA4D7",
"S. c #87A1D8",
"D. c #8CA5D9",
"F. c #8EA9DA",
"G. c #90A7D9",
"H. c #94ABDB",
"J. c #99AFDC",
"K. c #99AEDD",
"L. c #99AFDE",
"P. c #97B0DD",
"I. c #9BB1DF",
"U. c #9DB2DD",
"Y. c #9CB2DE",
"T. c #9EB3DE",
"R. c #9FB4DF",
"E. c #A1B5DF",
"W. c #A2B6DF",
"Q. c #A4B7DF",
"!. c #A5B8DF",
"~. c #9EB4E0",
"^. c #A1B5E0",
"/. c #A3B6E0",
"(. c #A5B8E1",
"). c #A6B9E1",
"_. c #A8BAE2",
"`. c #A9BBE3",
"'. c #ADBEE3",
"]. c #ABBCE5",
"[. c #ADBDE4",
"{. c #AFC0E3",
"}. c #B1C2E3",
"|. c #B3C3E4",
" X c #B6C5E5",
".X c #BBC8E7",
/* pixels */
".X.X X X}.{.'.[.].`.`.Q.(./././././.J.~.~.J.L.L.L.L.L.L.L.L.L.J.J.G.J.J.G.H.J.J.P.P.P.P.P.P.P.P.P.P.P.P.J.J.L.E.E./.Q._._.`.[.'.",
" X X}.}.'.'.'.'.`.(.Q.E.E.E.Y.H.G.H.H.J.L.L.L.L.L.L.L.L.L.L.G.L.J.G.G.G.G.H.H.H.P.F.F.F.F.P.F.P.P.P.H.H.J.J.L.L.L.E.E.E.Q._.!.'.",
" X|.}.{.'.[.].(.E.E.E.T.~.~.H.n.S.S.n.C.C.C.C.D.D.D.C.S.S.S.G.H.G.H.G.G.G.G.G.G.F.F.P.F.F.F.P.P.H.H.H.F.G.J.J.J.L.E.U.E.T._.'.[.",
"|.{.'.'.].'.(.!.E.E.E.T.H.D.H.A.S.C.n.n.b.n.C.b.n.C.C.C.S.S.S.S.D.C.D.D.A.A.F.G.F.F.F.F.F.F.F.F.F.D.H.D.J.G.G.G.L.K.K.E.T.E.Q.Q.",
"{.'.'.].].Q.Q.T.T.T.T.T.H.H.F.S.S.S.n.n.b.b.n.b.n.n.S.S.S.S.S.S.S.S.A.A.A.A.A.A.F.A.A.F.F.F.A.F.D.D.G.G.G.G.G.H.H.J.J.J.T.T.T.E.",
"].'.`.`.(.E.T.T.Y.Y.Y.J.H.G.A.S.C.n.n.n.b.b.b.b.b.b.b.b.n.n.C.n.C.C.S.Z.A.A.A.C.A.n.n.n.n.n.v.b.b.b.C.C.D.D.G.G.F.H.J.J.Y.Y.T.~.",
"'.`.(.(.E.T.T.Y.Y.J.J.A.S.A.C.n.n.n.b.b.b.v.v.v.v.v.v.b.b.v.b.n.b.C.Z.C.S.b.z.v.b.b.v.c.c.c.j.j.l.x.b.n.C.S.G.H.A.G.J.J.J.P.T.Y.",
"(.(.Q.E.T.T.T.J.J.J.H.Z.C.C.n.n.v.b.v.v.b.b.v.v.v.v.v.v.z.x.v.v.k.b.n.n.v.g.g.z.j.j.l.c.l.c.j.f.l.f.x.x.v.v.C.C.A.F.G.G.J.P.P.Y.",
"(.E.T.T.E.Y.T.Y.H.H.A.C.n.b.b.b.b.v.b.v.x.v.x.x.v.h.v.j.j.g.j.k.k.v.v.k.k.f.j.g.g.f.j.j.l.g.f.d.f.d.f.d.f.f.g.v.S.A.F.G.H.H.J.J.",
"/.E.T.Y.T.P.H.H.D.F.S.n.b.n.v.v.b.x.h.h.h.h.x.x.x.h.h.k.g.g.g.k.f.k.g.h.g.f.s.f.f.f.f.f.f.f.f.y.d.d.f.d.f.d.d.z.k.n.C.F.H.H.H.J.",
"/.~.Y.Y.H.I.H.D.A.S.Z.n.b.b.b.v.x.k.x.x.g.g.h.h.g.x.g.g.f.g.g.g.g.g.g.f.f.f.f.f.d.f.d.p.f.f.y.y.d.d.d.d.d.d.f.f.k.k.k.n.D.G.H.H.",
"/.~.T.J.J.F.A.Z.D.Z.n.v.v.v.v.v.x.x.x.g.h.g.g.g.f.g.g.g.f.f.f.g.f.s.f.d.f.f.y.f.d.d.d.y.y.y.f.y.d.O.d.d.d.d.f.f.f.v.k.k.A.G.G.G.",
"~.Y.P.P.P.F.A.Z.A.n.b.v.v.v.k.k.z.z.g.g.g.g.g.g.s.g.g.d.f.f.f.f.d.d.f.d.y.f.y.y.y.y.y.y.y.y.y.y.X.X.d.d.d.d.d.d.g.f.z.b.A.D.G.G.",
"Y.P.H.F.F.F.Z.Z.n.n.b.b.v.v.k.h.x.z.g.f.f.f.f.g.f.f.f.f.f.d.f.d.d.a.y.y.y.y.y.y.p.y.y.y.y.y.y.y.X.d.d.O.X.d.d.d.f.z.f.b.C.D.D.D.",
"H.F.H.F.F.n.n.Z.n.n.n.v.v.v.v.g.x.f.f.f.f.f.f.f.f.f.d.d.f.d.d.y.a.y.y.y.y.y.y.y.y.q.t.q.y.y.y.r.X.d.X.X.a.d.y.a.f.f.l.C.D.C.A.D.",
"J.J.F.F.A.n.A.n.b.b.v.k.v.g.v.g.x.x.f.h.k. .d.f.d.d.d.d.y.d.d.r.y.y.y.y.y.y.y.t.y.t.y.t.t.t.y.r.X.X.d.X.X.y.d.a.f.g.x.b.n.C.A.D.",
"H.F.H.C.C.C.b.n.v.b.k.k.k.j.g.g.g.g.f.f.f.d.f.f.t.w.w.t.d.a.r.y.d.p.X.X.X.X.X. .X.X.X. .X.X.X.X.X.X.X.l.y.a.y.d.y.f.v.x.g.v.C.S.",
"F.F.Z.C.b.C.n.b.v.k.k.h.g.v.g.g.f.f.d.d.d.d.d.O.t.m.M.t.r.r.y.y.X.d.X.X.X.X.X...X.X...X.X.X.X.X.X.X.X.O.y.X.y.d.a.f.f.g.h.v.C.S.",
"D.A.C.C.C.v.b.b.v.v.h.g.g.g.g.g.g.d.f.d.X.d.X.l.t.3 2.u.r.y.y.r.y.y.X.X.X.X. . ... . . ..... .X...d.0.O.t.a.y.y.d.d.f.l.g.k.C.S.",
"A.C.C.C.n.b.v.b.h.h.h.h.g.g.g.g.f.f.f.d.f.f.X.X.w.o 3.e.a.y.y.t.X.X.X.X.X.X... ....... ...| | O.[ T 4.X.y.y.y.y.d.d.d.f.f.g.C.C.",
"C.n.C.n.b.n.v.v.b.h.h.g.g.g.g.f.f.f.d.d.X.X.O.p.M.o 9.u.r.| y.y.X.y... . . ...| ..| |  ...|  . .[ F h ..y.y.y.X.d.d.d.d.f.v.C.C.",
"C.C.C.C.b.n.b.v.x.s.s.g.g.f.f.f.d.d.X.y.f.X.X.[ %.O F e.r.y.| X.X.X...X...| | ..|  . .|  .| | | o.9.s y.X...y.a.X.d.d.d.a.v.n.n.",
"C.C.C.C.C.n.v.k.h.h.g.g.s.s.d.d.d.X.y.y.d.X.X...s - I e. .| X... . ...| | ..| | | | | | }  .| | ] 1.q | t. .y.a.y.i.l.d.f.v.n.n.",
"C.C.C.n.b.b.v.s.h.h.g.l.V.B.i.d.d.X.y.X.X.X.X.X.4 c  ... .| | ....| { ..| | | |  .| ..| | | | | o.-.8  .|  ...e.P 1.w.y.f.b.b.b.",
"A.A.C.b.v.b.v.k.h.h.h.l.N.m.i.a.d.X.p.X.y. .[ K + g e.| | ..| { { { { ..| | | ..| { | | | { .. .[ %.2 r...e.q.-.= s a.y.f.v.n.v.",
"C.C.n.n.b.b.v.h.k.h.x.X.M.j t.d.X..... .|  .[ ,.O 5.^  .{ { { | { { ..{ { { { {  .{ { | ..{ { | ] l < | _ <.X O 2.y.p.f.f.g.v.n.",
"C.C.n.b.b.v.x.x.x.x.f...B.d a.t.t.8.-...t.N [ =.# 2.^ } ..{ { { { ) { { ) { { ' ] { { { { { |  .[ h > <.7 O z P u.y.d.d.d.g.v.v.",
"C.b.C.b.v.b.b.x.z.x.l...w.4 q.u.I < < } ..| _ p O 9.^ } { { _ ) { { { { { { ` Y ;.m { { { { | | ^ h # # f Y ] ....r.y.r.y.r.g.v.",
"C.C.k.C.s.b.x.x.f.f.d.p.I 2 0.e.Y X ; 0.[ ..J X % Y ] | { ^ C v ' { { { { ^ Z l K ) { { { { { ! ,.: # 2.^ ]  . .X. .X.y.d.y.f.v.",
"C.k.C.b.b.k.x.s.f.X.X.X.} 4 N./ 8.. O 2.[ [ A @ 1 L ' } ] :.2 p { ) ) { ` J 2 Z Q { ' ' { { ! 2.O < @ K ' } | | | | ..X.y.f.g.c.",
"C.C.b.b.k.k.k.h.f.X.d.X.t.q z / <.7 7 s [ ] =.O w { { ` Z 2 k p { { { { ! ;.o 7 5 a @.m ) ~ 1.& 8.y # F ] |  .| | X.X.X.y.d.f.j.",
"C.s.b.k.k.k.s.h.X.X.X.O.[ h 8 ^ 1.s l < } _ p # g ` { ) q l r *.! { ) { { n $.< O =   k W >.  H R l # 0.]  .{ | | | X...y.y.r.f.",
"n.b.b.k.j.j.g.f.y... . .] =.> _ -.j <.o K n c # 4.! ' B > 4 i n ) { { ) { ( ( m >.0 > c B i H Q ) k # 6.` | { ....| X.X.X.X.X.O.",
"v.n.k.k.j.j.f.y. .X.X. .' F o T =.z K o 9.B O # 1.! { #.& w H ( { ) ` ) ) { { ( E @.O 9 >.C Q n ) k # 6.` { | { | ..| ..| X.X.O.",
"n.k.j.j.j.g.d.y.| ..X. .[ K O 9.%.j ) ; z &.# $ Z ~ B 2 O B E ) ( { H ) ) ) ) { ( @.O c G Q ) ) ) a # 7.` { { { | | | | X.X.X.X.",
"b.k.j.j.j.f.y.y.X.| | | ..} . 5.l x W i 2 p # , L ' n e & %.G G v +.X B ( ) ) ) b u O 9 ) ) ) ) ) i # 6.` { { { | | ..| X.X.X.X.",
"k.v.c.j.g.f...X...| | | | _ p w l j W =.+ 2 # f ` { ) e > 3 5 u 3 * O C ` ) ) ( C > # t Q b ) ) ) i # 6.Q ) { { { | | | ....| X.",
"v.v.c.j.g.y.y.|  .| | | } ^ 5.< d g ~ D = , # 5.! } Q &.O & O # # c :.) ) ) ) ( @.@ # >.Q ) ) ) b 7 # S ) ) { { { { | | ..| | ..",
"v.c.j.j.f.r.X.X.| | | | | ] >.* ; j ' M 4 : # 3.! { ' n *.f f %.Z n Q ) ) ) ) ( r # > G ( ) ) ) b 7 # B ( ) ) ) { { { | | | | ..",
"v.j.j.p.X.X.| X.| { | { } ' V > @ g m ! %.# 8 m ) { ) ) Q ( Q Q Q ) ) ) ) ) ) b 0 # 4.Q ) ) ) ) ) 7 c b ) ) ) ) { { { | { | } X.",
"c.c.j.y.r.y.| | | | { | } _ M 8 O w m ` } 6.m ' { ) ) ) ) ) ) { ) ) ) ) ) ) ) Q 7 2 b ( b ) ) ) ( i w ) ) ) ) ) { { | | | { ....",
"c.c.p.y.y.| y.| | | | { { | ` k O c P ' | ! ) ) ) ) ) ) ) ) ) ) ) ) ) ) ) ) ) ( C B Q ) ) ) ) ) Q a 4.` ) ) ) ) { { ) ) { { | X.",
"c.f.y.y. .y.| | | | | | { | ] ,.O 1 H ( | { | { ) ) ) ) ) ) ) ) ) ) ) ) ) ) ) ) ( ( b ) ) ) b ( ) G ) ) ) ) ) ) ' ) | | { { | ..",
"c.f.y.f.y. . .t.| | | | ..{ ' J & # Y ( } ' { { ) ) ) ) ) ) ) ) ) ) ) ) b ( ) ) ) ) ) ) ) ) ) ) ) ( ) ) ) ) ) ) ) ) ) ) | ) | | ",
"v.f.y.r.r. . .| | ..| | | { | ' g 4 N ' { { { | ) ) _ ) ) ) ) ) ) ) ) ) ) ) ) ) ) ) ) ) ) ) ) ) ) ) ) ) ) ) ) ) ) ) ) | ) { { ..",
"c.g.g.f.d.r.y. .| | | | | | | { } { ' | { { ' { ..{ ) ) ) ) ) ) ) ) ) ) ) ) ) ) ) ) ) ) ) ) ) ( ) ) ) ) ) ) ) ) ) ) ) { { ) | | ",
"z.f.g.f.f.y. .}  .....| | | { { _ ' { { { { { | { ) ) ) ) ) ) ) ) ) ) ) ) ) ) ) ) ) ) ) ) ) ) ) ) ) ) ) ' ) ) ) ) ) { ) ) | ) | ",
"z.z.g.f.d.y.y.|  ...| | | | | | { | { _ | { { { | { ) ) ) ) ) ) ) ) ) ) ) ) ) ) ) ) ) ) ) ) ) ) ) ) ) ( ) ) ) ) ) ) ) ) ) ' { { ",
"z.l.g.g.f.a.r. ... .X. ...| | { | { { { { { | { { ' { { ) ) ) ) ' ) ) { ' { ' { ) ) ) ) ) ) ) ' ) ) ) ) ) ) ) ) ) ) ) ) ) ) ) } ",
"x.z.g.g.f.d.d. . .| | | ..| | | | | | { | | { { | | { ) ) ) ..) ) { ) ) ) { { { ) ) ) ) ) ) ) ) ( b ( b ) b b ) ) ) ) ) ) ) ) } ",
"v.g.g.g.g.f.d.y.X.|  .X.r. .| | | | | | { { ........| | ) | ) b ) ) { ' { ) { { ) ) ) ) ) ) ) ) ) ) ( b ) ) ) ) ) ) ) ) { { } { ",
"v.h.h.g.f.f.d.r.y.| y.y.y. .| y.| | | | { .. .X...| | | ) ) ..| { { { { { { { ' ) ) ) ) ) ) ) ) b ) ) ) ) ) ) ) ) ) ) ) { | | } ",
"k.v.x.g.g.f.f.d.X.X.X.X.X.X.X.X.X...| | ..X.X.X.X...|  .| { { { { { { { { { { { ) ) { ) ) ) ) ) ) ) ) ) ) ) ) ) { { { { { | ....",
"v.k.k.g.g.f.f.f.O.X.O.X.y.y.X.....X.| | X.X.O.d.y.y.t.y.y.y.| _ { { { { { { { { ) { { { { ) { ) ) ) ) ) ) ) ) ) ) { { { { ..} ..",
"b.v.k.x.h.g.g.f.l.X.X.X.r.r.r.X.X...X.X.X.O.X.X.y.y.y.y.y.y.t.| ....{ ..{ { | { { { ) { ) ) ) ) ) ) ) ) ) ) ) ) { { { | ..} X...",
"b.v.v.v.g.g.g.f.f.d.d.d.y.d.d.r.X.X.X.d.O.p.d.X.r.r.y.y.y.y.r.y.X.X.......{ { { { { { { ) ) ) { ) b ) ) ) ) ) ) { { ..{ | ....X.",
"n.b.b.k.c.j.j.f.f.f.f.d.d.d.d.r.d.d.X.d.d.X.d.d.l.O.O.l.l.X.O.X.X.X.X.X.X.X.X.X.X.......' { { { { { { { { { { | ..{ | | | | X.X.",
"n.b.b.k.v.c.g.j.g.f.f.f.f.d.d.d.O.d.d.d.d.d.X.d.O.O.l.X.O.O.l.l.O.X.X.x.l.X.X.X.X.X.{ X.X.| | | { { { { ' { ....{ ..| | X.X.X.X.",
"n.n.b.b.v.k.c.j.h.g.g.f.f.f.f.d.d.d.d.d.d.d.d.d.l.O.l.O.f.X.O.O.X.X.x.X.l.X.X.X.X.X.X.X.X.X.X.| { ..| { { { ..........X.X.X.X.O.",
"Z.n.n.n.b.v.v.j.x.g.g.g.g.f.f.f.f.f.f.d.f.d.d.d.f.l.O.f.f.f.l.O.x.X.X.X.O.O.X.X.O.l.X.X.X.X.X.| ........| | X.X.X...X.X.X.X.X.X.",
"Z.n.n.n.n.v.v.v.v.g.k.g.f.g.f.f.f.f.f.f.z.O.f.f.f.O.x.X.O.g.l.l.O.l.l.O.l.X.X.l.X.X.l.X.X.X.X.X.X.X.X...X.X.X.X.X.X.X.X.O.X.b.X.",
"A.Z.A.n.n.n.b.v.v.v.k.j.g.j.g.g.f.f.z.f.l.f.x.O.f.f.l.x.f.l.O.g.x.O.f.l.O.x.l.O.O.l.O.X.X.x.X.X.X.X.X.X.x.X.X.X.X.X.X.X.X.O.b.X.",
"F.n.A.n.n.n.n.b.v.v.v.v.c.g.k.g.g.g.g.f.x.f.f.g.f.f.g.O.O.x.f.f.f.f.g.O.x.X.x.X.X.X.X.x.X.X.X.X.X.X.X.X.X.X.X.x.X.x.X.x.X.X.X.C.",
"F.A.A.A.Z.n.n.n.n.v.v.v.v.k.v.v.x.x.x.z.z.x.x.l.x.x.x.x.g.g.g.g.f.x.x.O.l.x.X.x.x.O.l.O.X.x.X.x.O.O.X.O.X.X.X.X.X.X.X.X.b.b.O.X."
};
