/* XPM */
static char *fd48347bdc7249bcab337b923b4c101dYQWOb5OGtOqbFBOb[] = {
/* columns rows colors chars-per-pixel */
"64 64 255 2 ",
"   c #356673",
".  c #546E79",
"X  c #AB7A7D",
"o  c #FD507D",
"O  c #BC897E",
"+  c #FFAE55",
"@  c #FDA75F",
"#  c #FEAB5B",
"$  c #FFB054",
"%  c #DB9A74",
"&  c #FD9D6D",
"*  c #EF9279",
"=  c #FE9D71",
"-  c #FE947C",
";  c #F69879",
":  c #D5B777",
">  c #FFA564",
",  c #FBA768",
"<  c #F5A876",
"1  c #F1B272",
"2  c #F4D35E",
"3  c #F0D16D",
"4  c #F3EE6F",
"5  c #493D97",
"6  c #6D3D8D",
"7  c #5C36A6",
"8  c #6731B0",
"9  c #3E448E",
"0  c #44438E",
"q  c #4A448F",
"w  c #494491",
"e  c #564595",
"r  c #5A4491",
"t  c #585292",
"y  c #644393",
"u  c #6C4394",
"i  c #6A4C9B",
"p  c #724394",
"a  c #7A4395",
"s  c #724698",
"d  c #714A9C",
"f  c #7D4E9C",
"g  c #68559A",
"h  c #7B529D",
"j  c #5B55A6",
"k  c #6E4EA1",
"l  c #704EA1",
"z  c #7A4BA6",
"x  c #6656A1",
"c  c #6E54A6",
"v  c #6E57A9",
"b  c #6D5AAC",
"n  c #7053A5",
"m  c #7757A9",
"M  c #6C5FB1",
"N  c #755DB4",
"B  c #7A68A8",
"V  c #7272AE",
"C  c #6C66B7",
"Z  c #7764B7",
"A  c #6B73C7",
"S  c #7072C7",
"D  c #727CD4",
"F  c #BE1C93",
"G  c #8D3992",
"H  c #B43192",
"J  c #A83EA2",
"K  c #B93BA5",
"L  c #D2198D",
"P  c #F80387",
"I  c #EB1391",
"U  c #CB2993",
"Y  c #F12D8C",
"T  c #C43CA7",
"R  c #D836A5",
"E  c #E53AA7",
"W  c #F232AD",
"Q  c #87479A",
"!  c #96479C",
"~  c #885799",
"^  c #9A5798",
"/  c #A6479D",
"(  c #B0569C",
")  c #926B8E",
"_  c #B06D90",
"`  c #8B4BA5",
"'  c #9B49A2",
"]  c #8857A6",
"[  c #9957A6",
"{  c #8858B5",
"}  c #A548A2",
"|  c #AB4BA4",
" . c #B549A6",
".. c #BA4DA6",
"X. c #A856A8",
"o. c #B856A9",
"O. c #AF5AB3",
"+. c #8769A8",
"@. c #9B67AC",
"#. c #9071B4",
"$. c #9A77B3",
"%. c #A864AB",
"&. c #BA61AB",
"*. c #A874AA",
"=. c #A76AB2",
"-. c #BC67B4",
";. c #A778B5",
":. c #B878BB",
">. c #CF5393",
",. c #F95387",
"<. c #D06D97",
"1. c #FB6999",
"2. c #ED7092",
"3. c #F97999",
"4. c #C74AA9",
"5. c #D749AC",
"6. c #C556AB",
"7. c #D554AB",
"8. c #D84AB5",
"9. c #C95AB2",
"0. c #D758B2",
"q. c #EB4BAC",
"w. c #F65AAB",
"e. c #EB48B2",
"r. c #F64AB3",
"t. c #E856B5",
"y. c #F956B6",
"u. c #CD66A9",
"i. c #C768B6",
"p. c #D868B9",
"a. c #C577BC",
"s. c #D874BD",
"d. c #E966A6",
"f. c #FA69A5",
"g. c #FC63AB",
"h. c #FE73A2",
"j. c #FB76A0",
"k. c #E866BB",
"l. c #E46BBC",
"z. c #E974B3",
"x. c #8F74C9",
"c. c #AF6DC5",
"v. c #AD73CB",
"b. c #B875CB",
"n. c #B674D0",
"m. c #BA75D1",
"M. c #C87CC3",
"N. c #D679C2",
"B. c #C778D4",
"V. c #D67BDA",
"C. c #EE73C2",
"Z. c #FB77C3",
"A. c #E07EDC",
"S. c #6F98C4",
"D. c #7782DC",
"F. c #50AED2",
"G. c #6EACD3",
"H. c #7D86E3",
"J. c #53CFE3",
"K. c #6FD5E1",
"L. c #B88B8D",
"P. c #8D86B9",
"I. c #9786B8",
"U. c #A789BB",
"Y. c #B18CB4",
"T. c #CB8886",
"R. c #F78887",
"E. c #FE8A8B",
"W. c #F59886",
"Q. c #F38292",
"!. c #FE8295",
"~. c #ED9190",
"^. c #FC999B",
"/. c #F3AA84",
"(. c #F4B689",
"). c #F0B28F",
"_. c #EEB995",
"`. c #D28FB4",
"'. c #F18BA8",
"]. c #FE95A4",
"[. c #D9A7AC",
"{. c #D9AAAB",
"}. c #D8B2B7",
"|. c #E7A7B3",
" X c #EFCC96",
".X c #F5F98C",
"XX c #F3EB9A",
"oX c #F3F393",
"OX c #F1D3AE",
"+X c #F2E8AB",
"@X c #F5F0B2",
"#X c #F6F8B4",
"$X c #8F90CB",
"%X c #999BC7",
"&X c #A688C5",
"*X c #B686C4",
"=X c #A998C6",
"-X c #B997C8",
";X c #8BB1D2",
":X c #A9A2C9",
">X c #BCA8CD",
",X c #ACAFD5",
"<X c #BAAAD4",
"1X c #A9B1D4",
"2X c #B8B6D7",
"3X c #858BE9",
"4X c #8790EF",
"5X c #888FF0",
"6X c #8B92F4",
"7X c #8E96F9",
"8X c #9299FE",
"9X c #A4A8E8",
"0X c #CA87C7",
"qX c #D688C7",
"wX c #C694C9",
"eX c #D794CE",
"rX c #D78AD5",
"tX c #C69DD1",
"yX c #ED8FCF",
"uX c #FC8ACD",
"iX c #FE95D3",
"pX c #C9ABC8",
"aX c #C7A7D4",
"sX c #DCAAD4",
"dX c #C8B9D9",
"fX c #D7B9D9",
"gX c #EDABD7",
"hX c #90D4DF",
"jX c #B9C0DE",
"kX c #93DBE2",
"lX c #A8C5E5",
"zX c #BCC7E3",
"xX c #D0C4D7",
"cX c #E9CAD7",
"vX c #F7F7CA",
"bX c #C8CAE3",
"nX c #D3CDE4",
"mX c #DACDE5",
"MX c #D9D1E5",
"NX c #E5D2E7",
"BX c #E6D2E8",
"VX c #EED1E8",
"CX c #EAD6E9",
"ZX c #F3D5EA",
"AX c #F9D7EE",
"SX c #F5DBED",
"DX c #F9D9EE",
"FX c #F7E1EF",
"GX c #F8E1EF",
"HX c #F7E3F0",
"JX c #F8E3F1",
"KX c #F6E8F3",
"LX c #F9EBF4",
"PX c #FBF4F9",
"IX c #FAF8FB",
/* pixels */
"}.`.0.5.0.0.0.0.0.0.t.0.u.0XnXfX{.{.{.{.{.'.q.w.z.X.c b n v l l s s p p s X.y.Z.[ 6.u.s.Z.y.y.y.y.q.i.fXLXPXLXLXLXLXLXJXJXGXFXGX",
"pXU.4.0.8.9.0.0.0.0.0.i.wXbXxX{.{.{.{.{.{.[.z.t.t.X.b c v c l l s s p p f X.y.C.` %.l.y.y.y.y.y.t.eXAXPXPXPXLXLXLXKXKXJXFXFXJXGX",
"9X5Xx.O.o.8.0.9.0.0.i.-XMX}.{.{.{.{.{.{.{.[.p.t.E K b b n n l l s s s p h X.y.-.i.k.y.y.y.y.y.N.fXLXPXPXPXLXLXLXLXLXJXGXJXJXJXDX",
"7X7X7X5Xx.O...4.8.-.tXnX}.{.{.{.{.{.{.{.{.{.'.e.W W ` v v n l k l s s p d ] o.p.y.r.r.r.y.C.sXSXPXPXPXPXLXLXLXLXLXLXSXGXGXJXSXDX",
"8X8X7X7X6X3Xx.X.&.dXMX}.{.{.{.{.{.{.{.{.{.{.'.e.W W J N v v k z l s s p h %.0.e.e.r.r.t.qXcXPXIXIXPXPXLXKXLXLXLXLXFXJXDXJXSXDXDX",
"8X8X8X8X7X4X3X3X<XMXpX{.{.{.{.{.{.{.{.{.{.[.[.z.W W R 8 v v k k s s s p Q 9.E E e.e.0.sXJXIXPXSXgXAXPXLXLXLXLXKXJXFXJXJXDXDXAXAX",
"8X8X8X7X7X4X4X3XxX}.{.{.{.{.{.{.{.{.gX'.`.{.[.k.W W W ` k v z k s d s p p a } R 5.N.VXPXIXJXgX6./ i.JXLXLXLXLXJXFXGXJXJXDXAXAXAX",
"8X8X8X7X7X6X4X3X%X>X}.{.{.{.{.{.|.iXiX0.5.z.[.z.r.W W ` v k k k d d s p p p u [ sXLXIXPXVXqX4. .K &.SXLXLXKXKXFXGXGXKXDXDXAXDXDX",
"8X8X7X6X6X5X5X3XH.3X%X>X}.[.`.yXiXuXiX0.E e.d.z.r.W W ` v c l l d d u p p p p @.LXIXPXsXi.4.| | K -.FXLXLXGXGXGXGXGXJXAXAXAXAXZX",
"7X7X7X6X5X6XH.3X3XD.H.$X%X}.yXiXuXuXyX9.t.q.r.y.y.e.W ` c v k l d s s p p p p +.KXMXwX*.X.| U.*.J `.KXLXKXGXGXGXJXSXDXAXAXAXZXBX",
"7X7X6X6X6X5XH.3XH.H.D.D.D *XuXuXuXp.....u.t.y.r.y.r.W ` c c l l k d p p a p 6 B jX*X&.[ o...:X@.@.NXLXLXGXGXFXGXJXDXDXDXDXDXCXBX",
"3X6X5X5X5X3X3X3XD.H.D.D.D M.iXz.6.( ..6.6.6.9.y.y.y.8.z c v l d p s p p p p u i @.o.o.6.6. .) I.mXKXLXKXFXGXFXFXDXAXcXVXAXZXBXBX",
"% Y.$X3X3X3X3X3XH.H.D.H.D c.0. . .4.6.( | / ..6.t.y.8.m c c l d s s p p p a p u ! 6.9.6...%.>XCXLXLXJXGXGXGXGXSXcXpX;.2XAXNXNXBX",
"+ # % Y.$X3XD.D.H.H.D D D D ! } ..<.6.X.| | <.6.o.0.8.m c l l d s s p p p p u y ^ 9.6.O.Y.mXLXLXLXJXGXGXGXGXZXfX:.%.@.2XBXNXNXNX",
"+ + $ + % L.x.3XD D D D D S Z ` ! / X. .4.&.o.o.Y.'.8.m c l l d l s p p p p u y [ &.`.xXLXLXLXLXKXFXJXGXZXxXU.$.:.9.=.1XCXBXNXNX",
"+ + $ $ $ $ % L.P.D D D D D S S N Q ! / ( o.! Q +.;.` v c l l d s p p p 6 p u y @.sXCXLXLXLXLXLXGXGXGXFX-X+.[ gXJXgX@.,XBXBXNXMX",
"+ + + + + + + + , L.#.S.S A D x.A C m ` Q G Q Q v v v c c n l d d p p u y u r #.BXPXLXLXLXLXLXJXGXGXGXSX$.d =.eXyXfX@.,XCXBXMXmX",
"> + + + + + + + $ # % L.S A *XN.z M C C m m m M b b b c c d d d s p p u p u y U.PXLXLXLXLXLXKXHXFXGXGXZX$.Q ' yXyXqX$.,XCXMXmXfX",
"- > + + + + + + + $ $ $ % `.iXp.} ' m C C C C M b b v c c n d s s a p y r y y U.PXKXLXLXLXLXHXJXFXFXJXZX;.' 4.eXSXsX*.,XVXnX-X-X",
" X> + + + + + + + + $ # , ].gXC.T t.9.] m b M b b v c c n d d d s p p y y u y wXLXLXLXLXJXFXDXHXGXGXDXZX;.4.Z.Z.DXsX@.,XmXnX$.[ ",
"OX, + + + + + + + + + @ > ^.iXl.T e.k.i.` Q v v b b c c l l d s p p y u u y r >XLXLXLXLXJXHXJXHXJXSXAXZX;.9.uXC.gXsX#.1XmXfX0X0.",
"W., & + + + + + + + + > > ].iXl.T E w.o.X.i.X.f i c c c l l d s p u p u y r r pXLXLXLXcX`.xXJXHXDXDXAXZX$.-.gXC.yXmX@.1X>X=XfXsX",
"# , - # + + + + $ + + > > ^.iXk.4.e.t.%.[ 7.y.' G d c l l d d s u u u y r r r <XLXNXqXe.5.fXKXDXDXAXAXZX;.-XgXgXeX`.@.1X=Xc =X2X",
" XOX(.# + + + + $ $ > > > ].iXl.` [ i.i.^ ..t./ a G z l l d s p u u u y y r r pXsX7.W l.=XxXDXDXDXAXDXZX;.`.qX`.O.%.P.xXwXX.=.*X",
"vXvX^., # $ $ + + # @ > > ^.iXl.{ N z [ X.0.y./ G G a d d s s p p u y y r r r >XC.t.aXaX`.dXSXDXAXDXDXVX$.%.X.@.I.,XdXsXsX0Xi.s.",
"vX/.> , - # $ + + # > > > ].iXl.{ Z N x i  .t./ F H G p s s s p u p u y r r r 2XZ.N.eXr.5.fXZXDXAXDXCXmX*.@.$X2XnXMX=XB 2XzXaXqX",
", # , (.< @ + + $ > > > > ].iXp.] Z S N   . [ Q I Y Y ^ Q p p p p u y y r r r >XZ.q.W k.-XxXDXDXDXVXNXNXaXdXMXMXnXmXU.Q #.-XdXdX",
"> _.OX@X_.> + + + > > > & ].iXC.X.] { B . . V f L Y o 3.<.^ p p u u y r r r t >XZ.R *XaXs.dXSXDXZXNXNXNXCXNXnXnXdXpXaXU.9.N.qXeX",
"OXvXvXcX1 , & # # > > > & ].uXp.a.=.f g     P.B U o ,.3.j.j.( ! p y y y r r r pXZ.E &.q.7.dXSXZXNXNXNXNXBXMXnXMX=Xx =X2XtXN.0XM.",
"PXvX_., @ , < @ > > > > & ].uXC.N.:.N g t t P.m U o ,.1.j.1.f.d./ p y y y r r >Xz.E  .:.wXxXDXZXNXNXBXNXnXnXbXnXU.d ] ;.aXdXtXM.",
"OX< # , (.3 < > > > > , = ].uXk.-.*.z Z S.V ) h >.o ,.3.j.1.f.w.w.>.Q y t r r >XZ.q.o.~ &.dXZXBXBXNXBXmXnXnXmXfXwX%.o.:.M.qX-X[ ",
"> > (.+X#XXX(.= , > > = = !.uXC.| X.a g G.G.V g >.o 1.3.h.1.g.g.w.w.5.u r r r >XZ.E ..d I.dXBXBXBXNXBXmXnXnX-XU.<XdX0XC.M.0X[ s ",
"<  XvXvXOX< @ & - = , , = !.uXl.T 5.6.] S.G.V B >.1.1.h.1.f.f.w.w.q.5.u 5 r r >XZ.E ..f g dXBXVXBXNXmXnXnXnXI.r B =X2XaXwXwXX.d ",
"@XvX@X X, # < 3 1 & & = = ].uXl.4.e.y.o.h V V m >.,.f.h.f.f.w.w.w.r.5.y y r r >XZ.E o.h t 2XBXCXNXMXnXnXmXxX-X@.%.=.M.tX<Xb.` d ",
"vXOX< > ,  X+X X(.- & & = ].C.8.5.0.l.<.) ..X.Q >.1.f.3.h.g.g.w.q.r.5.u r q r >XZ.E ..Q t 2XcXNXMXnXnXMX<X$.<X<XM.l.N.M.-.a d k ",
"(.> # (.OXvXvX X< - E.- & 3.4.E e.e.o.( _ 5.t.} >.1.h.1.f.g.w.w.w.e.5.6 q q r pXZ.E ..f g 2XCXMXnXnXnXnX:Xi m =XdXtX0X0X%.p i l ",
"> <  XvXvXOX(.& , , < - = - R.1.t.t. .X.| 6.t.} <.3.h.h.d...( 7.r.r.8.y q q r >XZ.E ..h t 2XMXnXnXnXmXbX=XX.| i.N.-X<X<X%.d l l ",
"|.+XvXOX).< < /. X4 1 - , - - - ].C. .o.|  .o.! >.1.h.d.( ` f r | e.5.y 5 r q >XZ.q...Q t jXMXnXnXmXbX-X<X>XN.t.N.M.0X@.d z i c ",
"OX#XOX< # < OX#X#X X< - = - - - ].z.T 6.6.K 4.H >.h.h.u.4.7.8.[ e ..5.u e q q pXZ.E ( h g 2XnXnXnXnX2Xg +.>X2XtX0XM.M.Q d l l v ",
"|./.> ,  X+X#X+X XW.- * 2.- - - ].yX4.7...H U R 1.1.3.o.9.9.5.&.i s 5.y q q q =Xz.E o.h g xXnXnXnXbX2Xm ` &.0XaXjXtX-.Q d l n b ",
"V.'._.+X#X+X X/.* * & 1 * - - - ].C.7.7.6.L ,.,.1.h.d./ i.6.7...] u 4.y q 0 0 =XZ.E 6.Q V nXMXMXbX1X:X:.&.0.C.N.M.' Q d k k v b ",
"A.rX@X@X X; , * < 3 2 3 * - - R.E.d.7.8.6.,.1.h.h.h.d.Q X.^ i.O.X.y | y 0 q 0 :Xz.E ..h P.nXnXbX2XV P.<XaXM.N.N.-.a p l k l v b ",
"A.rX_.< & < ). X.XoX X* 3.2.- R.E.E.~.2.2.3.j.h.h.f.d.o.X.^ ^ _ ^ u | y q q 9 :X'.E ..B 1XnXbXzXlX+.` &.N.0X<XtX&.a p l l c b M ",
"A.A.C.Q./.+X#X#XOX/.* - * * - R.E.E.E.!.3.!.h.h.h.3.d.o.0.6. .^ ~ s | y q 0 0 :XfXa.%.%XbXMXbXzXdXa.6.8.k.N.M.=.a s s l l b b N ",
"A.A.rX|.#X#X+X).; ; % 1 1 2 * E.^.!.!.!.!.3.h.h.1.f.d.( <.( 4. .X.d / y 0 0 0 :XBXnXbXbXnXnXzX#.U.dX<X0XN.N.N.' u s l l v b M M ",
"rXA.A.sXXX_.* * W.: 3 4 3 1 2.R.E.!.!.!.!.3.h.h.h.g.w.( _ T.T._ @.a  .r 0 0 0 :XmXnXnXnXnXzX2XB z *.-XaX<X<XN.G p s l l b v j j ",
"yXrXrXyX'.* < _.XXoXoX XW.R.3.2.R.3.!.!.!.j.h.h.f.g.w.! ^ <.* * O Q  .r 0 0 9 %XnXnXnXnXzXzX2X;...7.0.l.0XM.[ p s l c x t w w i ",
"b.M.0XrXV.[.+X#XXX_.* W.R.; < 2 ; !.!.!.!.j.j.h.f.1.w./ Q ~ ^ _ X !  .y q 0 0 %XnXnXnXzXzX=X=XdXtXs.k.s.M.a.G a d e w x $.m ] &.",
"8 ` { -.rXOX+X(.< R.E.W. X3 4 2 W.3.3.!.3.j.h.h.g.g.y.8.o.O.J ` Q !  .y q q 0 %XMXbXzXzXzX#.h a.eXdX2XtXwXM.Q p k w q %.sXa.f Q ",
"8 8 8 =.rX|.R.; ; W. X+X.X.X XW.2.2.3.3.j.j.h.h.g.g.w.0.9.9.0. .X.!  .y q 0 q %XnXnXzXzXzXU.| 5.w.l.qXtX*XX.a p c k r ] sX;.u u ",
"8 8 8 @.rXA.N.~._.oXoXXXOX~.2.- 3.& Q.!.h.j.h.h.g.g.g.p.N.4.9.-.X.!  .r q 0 9 %XMXzXjX2X,X-XM.E t.l.M.N.' u p l b z a i ~ Q p p ",
"8 8 7 =.rXA.A.}.oX#X+X/.E.R.* 1 2 2 W.j.h.j.h.g.g.w.w.p.0.9.T i.o.J | r 0 0 9 %XbXzXzXP.P.1X2XaXqXN.M.0X' u p l v ` G u u p p p ",
"8 8 7 =.rXV.V.OXXX).W.R.W.3 4 4 2 3 2.f.j.h.h.g.g.g.w.8.9.6.R o.| J  .e 0 0 0 $XzXzXzX$.Q o.s.qXaX<XtXN.! u l l b l p p p p p i ",
"7 8 7 =.rXV.V.rXs.Q.~. X.X4 4 3 W.3.2.2.h.h.f.g.g.w.w.5.9.o.0. .|  . .y 0 0 0 %XzXzXdX-Xi.W r.w.N.0X=.Q a d l l N i y k c M A S ",
"{ z 7 @.rXV.V.V.B.[.oX.X.X X~.3.Q./.1 1 3.h.f.g.g.w.y.v.x.-.i.c.O.K  .y 0 0 0 %XbXeXy.tX<X0XC.N.M.M.' p p l l l N M M C S S S Z ",
"x m ] @.0XV.B.B.B.[.oX_.~.Q.~._.2 4 2 1 j.h.g.g.g.y.t.G.C L I E 9.4.o.e 9 9 9 %XzXeXW o.[ ;.I.tXtXM.` p p l l b M M C C ` [ } J ",
"7 5 e %.B.B.B.B.B.qXs.s.~. X.X.X4 3 ).2.2.d.g.w.y.y.t.G.F.#.T I I I R J 5 9 9 $XbXqXW 6.} J ! i.Y.^ a p p g g g z ' K K U H / H ",
"x i 5 [ M.B.B.B.B.B.m.0XoX.X.X X~.3.'.~.< = f.g.y.y.t.G.J.F.! T R W W K 9 9 9 $XlX0XW u.| } } :.%Xu p p f G H H U L U U U U H T ",
"g ] ] ` c.B.B.B.B.B.n.0X X).~.Q.W.1 3 2 2 1 d.g.y.y.t.G.J.F.M [ W I I R @.g 9 $XlXqXW 9. .o.| a.I.p G F L P P P I I I L L U U U ",
"5 w 5 ] b.B.B.B.m.m.n.m.b.i.[. X4 4 4 3 1 3.w.w.y.r.t.G.J.J.K.S.H R W W 5.! q S.lXqXr.-.| | X.b.P.G L I P P P P P P P I I Y I I ",
"5 w 9 n b.B.m.b.m.m.m.n.n.v.}..XXX).~.Q.3.R.< * w.r.t.;XK.K.K.G.` F I W 9.=.+.$XlX0Xr.<.. X ~ ;.$Xr 6 G H L L P P P I L U  .O.x.",
"t e 5 k v.m.m.m.m.m.n.v.v.v.`.[.'.2.~.: 3 2 2 * r.r.8.;XK.K.hXK.;X#.K E 8.i.;.;XlX0Xy.o.^ ) L.U.I.6 6 G H H F L K } { C A D.D D ",
"=.[ ] ] c.m.m.m.m.n.v.v.v.v.c.:.).4 4 4 3 1 ~.d.e.q.t.;XK.kXkXkXkXS.G R 5.-.c.&X<XqXy.6.J / ) U.I.G H F F L P U N A A A D D D 3X",
"c.x.@.[ v.m.m.n.n.v.v.v.v.v.v.c.XX4  X~.'.d.f.d.2.W.d.;XkXkXkXkXkXhX;X*X5.i.:.&Xb.qXk.6.| / / Y.I.H H L I P P L N A A A D D D H."
};
