/* XPM */
static char *result[] = {
/* columns rows colors chars-per-pixel */
"64 64 157 2 ",
"   c #673E60",
".  c #693F61",
"X  c #763E63",
"o  c #744868",
"O  c #982863",
"+  c #843E65",
"@  c #8B3E66",
"#  c #8D3F68",
"$  c #913D67",
"%  c #9B3E6A",
"&  c #AE3770",
"*  c #9F406C",
"=  c #964C71",
"-  c #A3426E",
";  c #B9426D",
":  c #A74470",
">  c #AB4573",
",  c #B14775",
"<  c #B34976",
"1  c #B94A77",
"2  c #B64978",
"3  c #BB4C7B",
"4  c #A75D7B",
"5  c #C34A75",
"6  c #C14F7E",
"7  c #DB4975",
"8  c #C1517E",
"9  c #F3537E",
"0  c #D64F86",
"q  c #C65180",
"w  c #CB5383",
"e  c #D15686",
"r  c #D95087",
"t  c #D25B86",
"y  c #D45788",
"u  c #DA5188",
"i  c #D65989",
"p  c #DA5A8B",
"a  c #E15484",
"s  c #E85B85",
"d  c #E45E89",
"f  c #F15580",
"g  c #F55D83",
"h  c #D46188",
"j  c #DE618D",
"k  c #DA698B",
"l  c #DE6591",
"z  c #DF7891",
"x  c #E2648E",
"c  c #EE678B",
"v  c #E4698F",
"b  c #FD6484",
"n  c #F76983",
"m  c #F3688B",
"M  c #E5728F",
"N  c #EB728E",
"B  c #FB718E",
"V  c #E46690",
"C  c #E66A91",
"Z  c #E96E92",
"A  c #E57090",
"S  c #ED7394",
"D  c #E27D96",
"F  c #EA7892",
"G  c #EE7A99",
"H  c #F07795",
"J  c #FC7690",
"K  c #F27A96",
"L  c #F97E97",
"P  c #F57E99",
"I  c #F87F9A",
"U  c #FF838A",
"Y  c #EF8395",
"T  c #E68A97",
"R  c #E98698",
"E  c #F38695",
"W  c #FB8397",
"Q  c #F38D97",
"!  c #F98997",
"~  c #F7819A",
"^  c #FA839A",
"/  c #FB8A9B",
"(  c #F79696",
")  c #FF9E95",
"_  c #FC939B",
"`  c #F79A99",
"'  c #FD9D9D",
"]  c #FFA49D",
"[  c #FFAB9D",
"{  c #FFB59E",
"}  c #FFB89E",
"|  c #DB86B7",
" . c #DF8DB7",
".. c #D587BB",
"X. c #D789BA",
"o. c #DC8BB8",
"O. c #EA8EA6",
"+. c #E78EAF",
"@. c #EB8FAB",
"#. c #F986A0",
"$. c #F08FA7",
"%. c #FA8FA3",
"&. c #E790AF",
"*. c #EE91AA",
"=. c #F693A6",
"-. c #F997A3",
";. c #FC9CA2",
":. c #F595A8",
">. c #FA9EAF",
",. c #E48EB2",
"<. c #E08EB8",
"1. c #E493B4",
"2. c #E992B0",
"3. c #EB9AB0",
"4. c #FEA1A1",
"5. c #F8B4A4",
"6. c #FFBBA2",
"7. c #FDB4AA",
"8. c #FEBEAB",
"9. c #FCA9B7",
"0. c #FBACB9",
"q. c #FEC1A2",
"w. c #FFCDA5",
"e. c #FFC2AB",
"r. c #FFC8AC",
"t. c #FFD0A6",
"y. c #FFD3AB",
"u. c #FFC5B0",
"i. c #FFCCB7",
"p. c #FEC4BC",
"a. c #FFCCB8",
"s. c #FFDBB1",
"d. c #FFD2BF",
"f. c #FCC9C1",
"g. c #FDCFCE",
"h. c #FFD4C2",
"j. c #FFD8C7",
"k. c #FFD7CA",
"l. c #FFDBCB",
"z. c #F5CAD7",
"x. c #FBCFD7",
"c. c #F5CDDA",
"v. c #FCD6DC",
"b. c #FDDADF",
"n. c #FEE5D4",
"m. c #FFECD2",
"M. c #FFE6DD",
"N. c #FFE9DF",
"B. c #FCD7E0",
"V. c #FCDBE2",
"C. c #FFECE3",
"Z. c #FDE3E8",
"A. c #FEF2ED",
"S. c #FEF8EF",
"D. c #FEF5F4",
"F. c #FEFAF7",
"G. c #FEFEFD",
/* pixels */
"..........X.....X.X...................................................X.....X...............................................X...",
"X.o.o.o.X. .X.|  .| o.o. .X.X.o.o.o.o.| o.o.X.o.X.o.o.o.o.o...o.X. .o.| o.| o.o.X.o.o.| o.o.o.o...o.o.|  .o.o.o.X.X. .o.o.|  .| ",
"| X.X.X.X.X.o.X.X.| o.o.| X.| o.o...o.o.X.o.X.| | X.| o.| o.o...| X.X.X.X.X.X.o.o.o.o. .o.o.| o.o.o.| o.o.o.o. .o.o.o.o. .o.o.| ",
"o.X...o.o.......X.X.X.X.X.o.X.X.o.....o.X.| X.o.o.o.X.o.X.X.o.o.o.o.o.o.o.o.o.|  .o.o.o. .o.o.o.o. .o.o. .o.o. . .o. .o.o.o. .| ",
"X.X.o.o.X.o.o. .o. .o. . .o.o.o.o. .o. .o. .o.o.<.o.o. .o.o. .o. . .o.o.o. .o. .o. .o. .o.o.o.o. . .o.<. .o.o.<. .<.o.o.o.o.o.| ",
" .<.o.o.o.o. . .o.o.o. .<. .o. .o. .o.o.o.<.<.o.o.o.<.o.<.<.<.<.o.<.<.o.<.<.o.o.o.<.3.1.<.<.o.o.o.o.<.o.o.<.<.o.<.<.o.o. . . .| ",
"<.<.<. .<.<.<.<.o. . .<.<.<.<.<. .<.<. .<.<.1.<.<.<.o.<. . .<.o.o.<. . . .<.<.<.<.<.3.1.o.<.<.<.<.o.o.<.1.<.1.<.o.1.o.<.<. .<. .",
" .<. .<.<.<.<. .o.<. .<. .<.<.<.<.<. .<. .<.<.<.<.<.<.<.<. .<. .<.<. . .<.<.<.<.<.o.1.o.<.<.<.<.1.o.<.<.o.<.o.o.<.o.<. .<.<. .| ",
" .,.,.,.,.,.,.,.1.,.1.,.,.,.,.,.,.,.,.,.,.,.,.,.,.,.,.,.,.,.,.,.,.,.,.,.,.,.,.,.,.,.,.,.,.,.,.,.,.,.,.,.,.+.,.,.,.,.,.,.+.1.<.,.",
"+.+.+.+.&.+.&.&.+.+.+.+.+.+.+.+.@.,.,.,.,.+.+.+.+.+.@.+.+.+.+.+.+.,.+.+.,.+.,.,.+.,.,.,.+.+.,.,.+.@.+.+.+.@.,.@.*.+.+.+.2.2.+.+.",
"+.+.+.,.,.+.+.,.+.,.+.+.+.,.,.+.,.@.,.,.+.,.,.+.,.+.,.+.,.+.+.,.+.+.+.,.+.+.+.+.+.+.+.+.@.+.+.@.+.@.+.,.,.@.,.,.,.@.+.+.+.+.+.+.",
"+.,.,.+.,.+.+.+.+.,.+.,.+.+.,.+.,.@.@.@.@.@.@.@.@.2.@.@.@.@.@.@.+.+.*.@.@.@.@.@.O.@.@.@.@.@.$.O.@.@.$.@.$.@.$.@.@.@.@.@.$.O.+.O.",
"@.@.@.@.@.+.@.@.+.*.@.+.+.@.+.@.@.$.@.@.@.@.@.@.@.@.@.@.@.@.@.$.$.@.@.=.@.@.@.@.@.$.@.@.@.$.$.@.@.@.@.@.@.@.$.$.@.@.@.@.@.$.*.@.",
"@.@.@.@.*.*.@.@.@.O.@.@.@.@.@.@.@.@.$.@.$.@.@.@.@.$.$.@.@.@.$.@.@.@.@.@.O.@.@.@.@.@.@.@.@.@.@.@.*.*.*.@.*.@.@.@.$.$.@.@.@.$.$.@.",
"*.*.$.$.*.*.*.*.:.*.@.=.*.*.=.=.*.@.@.:.:.:.@.$.@.:.:.*.*.*.*.:.:.@.:.@.:.$.:.@.:.$.:.:.$.=.:.:.*.:.$.*.@.*.:.@.:.:.*.*.*.*.$.$.",
"=.:.:.:.*.=.:.:.:.=.:.:.:.*.:.:.:.:.:.*.:.$.:.:.:.:.:.:.:.:.:.:.=.:.:.:.:.:.:.:.:.:.:.:.:.:.:.:.:.-.:.:.*.:.:.=.:.:.:.:.=.:.:.=.",
":.:.:.:.:.:.:.:.:.:.:.:.:.:.:.:.:.:.:.:.:.:.:.:.:.:.:.:.:.:.:.:.;.:.:.-.:.>.-.:.>.:.:.:.;.:.:.:.:.:.:.:.:.:.:.:.-.:.=.-.:.:.:.-.",
":.:.>.:.:.-.:.:.:.>.:.:.:.:.:.:.:.=.-.:.:.:.-.:.-.:.>.:.:.-.-.:.:.:.:.:.:.:.:.:.-.:.-.:.:.:.:.>.:.:.-.>.-.:.>.-.:.:.:.:.:.:.:.:.",
":.:.:.:.:.:.-.:.:.-.:.:.:.:.:.>.:.-.:.:.:.>.:.>.:.-.-.:.-.:.:.:.:.:.:.:.:.:.:.:.:.:.:.:.:.-.-.:.:.:.=.:.:.:.:.:.:.:.:.:.:.=.:.-.",
";.-.;.-.;.-.;.>.-.-.>.-.;.-.;.-.-.-.-.>.-.-.-.-.>.-.-.;.;.;.>.;.>.;.:.;.;.;.-.;.-.;.;.-.>.;.-.-.;.;.;.;.;.;.;.;.;.;.;.>.;.-.>.-.",
";.;.;.;.;.;.;.;.-.;.-.;.;.;.-.-.;.;.;.;.-.;.;.;.;.;.;.;.;.;.;.;.;.;.;.;.;.;.;.' ;.4.4.4.4.;.;.' ;.;.' ;.;.' 4.;.;.;.' ;.;.;.;.;.",
";.;.;.;.;.;.;.;.;.;.;.;.;.;.;.;.;.;.;.;.;.;.;.;.;.;.;.;.;.' ;.;.;.;.;.;.;.;.] ;.;.;.;.;.' ;.;.4.;.;.;.;.;.4.' ;.' 4.;.] ;.;.;.' ",
";.' ;.;.] ;.;.4.;.] ;.' ] ;.' ] ;.;.;.;.] ;.;.4.] ;.' ;.' 4.' ] ' ;.;.] ' ;.;.;.' ;.;.] ' ;.] ' ;.4.4.] ] ;.;.;.4.] ' 4.;.' ] ' ",
"4.] ] ] ;.] 4.4.] ] ] ;.] ] ] ] ] ] ] ' ] ] 4.] ] ] ] ] ] ] ] ] ] 4.] ] ] ] ] 4.] ] ] ] ] ] ] ] ] ] ] ] ] ] ] ] ] ] ] ] ] ] ] ] ",
"] ] ] ] ] ] ] ] ] ] ] ] ] ] ] ] ] ] ] ] ] ] ] [ ] ] [ ] ] ] [ [ ] ] ] ] ] ] ] ] ] ] ] [ ] ] ] ] ] ] ] ] ] ] ] ] ] ] ] ] ] ] ] ] ",
"] ] ] ] ] ] ] [ ] ] ] [ ] ] ] [ ] ] ] ] ] ] ] [ ] ] ] [ ] [ ] ] [ ] [ ] [ ] ] [ ] ] [ [ ] [ ] [ [ ] [ [ [ ] [ ] ] ] [ ] ] [ ] ] ",
"[ [ [ [ [ [ ] [ [ [ [ [ [ [ [ [ [ [ [ [ [ [ [ ] [ [ [ [ [ [ ] [ [ [ [ [ [ [ [ [ [ [ [ ] [ [ [ [ [ [ [ [ [ [ [ [ [ [ [ [ [ [ [ ] ",
"[ [ ] [ [ [ [ [ [ [ [ [ [ [ [ [ [ [ ] { [ ] { [ [ [ [ [ [ ] { ] ] [ [ [ [ [ [ [ ] { [ [ [ [ [ [ [ [ [ [ [ [ [ [ [ [ [ { [ [ [ [ ",
"{ [ [ [ { [ [ { [ [ [ [ { [ { [ { [ { [ { [ { [ { [ [ [ { [ [ { [ { { 5.{ [ { { { [ { [ { [ [ { { { [ { [ { [ [ { [ [ [ [ { [ [ ",
"{ { { [ { { 5.[ { { { { { { [ { { { [ { { { [ { { { { { { { { { { [ { } { { { { { { { { { { { { { [ [ { { { { { { { } { { [ { { ",
"{ { { { { { { { { { { [ [ { { { { [ { { [ { [ { { { { { { { { { { } 6.6.q.6.} { { { } { { { { } } } { } } { } } { { { { { { { { ",
"{ [ [ { [ { [ { { [ { { { { [ { { { { { 6.{ { { { { { { { { } r.d.l.C.C.C.N.l.d.r.6.{ { { { { } { { } { { } { } } [ } [ { { { [ ",
"{ { { { } { { { { { { } } { } } { } { } } { } { } { { 6.{ e.l.A.F.G.G.G.G.G.G.F.A.l.8.{ { } { } { } } { } { { { { { { { { { { { ",
"{ } } { } { } } } } } } { } } { } } } { } } } { { { { 6.a.C.F.G.G.G.G.G.G.G.G.G.G.G.M.a.6.{ } { } { { } { } } } { } } } } { } { ",
"{ } } } { } } { } } } { } } } { } } } } { } } } } } } h.D.G.G.G.G.G.G.G.G.G.G.G.G.G.G.D.d.6.{ } } } } { } { } } { } } } } { } { ",
"} } { } { } } { { } } } { } } } { } } } { } } { { { u.A.G.G.G.G.G.G.G.G.G.G.G.G.G.G.G.G.S.i.{ } } { } } } { } { } { { } } } } } ",
"} } { } } } { } { { } } { } } } } { { { { { ] _ ( _ 4.Z.G.G.G.G.G.G.G.G.G.G.G.G.G.G.G.G.G.C.e.{ } } { } } { { } } } { { } { { { ",
"} { { } { } } } } { } } } } } } } ] ' { { { _ ~ ^ ^ ! v.G.F.G.G.G.G.G.G.G.G.G.G.G.G.G.G.G.F.j.{ } } } } } } } } { { { { { { } [ ",
"} } } } { } } } { } } } } { } } } ] _ { { { _ ^ ^ ! / v.G.G.G.G.G.G.D.v.v.v.v.v.B.D.G.G.G.G.C.e.{ } { { { { { { } [ _ _ _ _ ( ! ",
"{ { } { } { } { } } { } { } } } { [ ] { { 6._ / ^ ^ ^ x.G.G.G.G.G.G.b.%.%./ %./ %.B.G.G.G.G.F.i.{ } } { { } } } } ] / ~ W / W W ",
"} } } } { } } { { } } } { } } } [ _ _ _ _ _ W W ^ ^ ^ >.Z.G.G.G.G.G.V./ W W ^ W #.v.G.G.G.G.F.j.} { ] ] { } [ ) } [ / L B ^ ! L ",
"{ } { } } { } { { } } } } } } } [ / / / ! ! / ^ ^ ^ ^ / B.G.S.m.m.m.f.K H H ~ W / f.F.G.G.G.G.C.} { ] ' } [ E n ( Q K n g L / W ",
"} { } } { } } } { } } } { } } } [ / / / ^ / / W ^ ^ ^ / B.G.n.t.w.w.5.Z v v K ^ / x.G.G.G.G.D.M.6.{ [ ] } ` x x v x i p p C I W ",
"{ } } { } } { } } { } } } } } } [ ! / / ^ ^ ^ ^ ^ ^ ^ #.b.V.@.R T T D l x p x K ^ B.G.G.G.C.s.r.] _ _ ] { ` V C C x i i i p S W ",
"{ } } } } { { } { } } } } } } { ] _ / / ^ ~ I ~ ~ ^ W #.B.c.V V p i i i i i p V P B.G.G.G.k.q.7._ _ _ ] { ` p i p p i p p x Z L ",
"} } { { { 6.} { { { { { { { { } [ / / / / P L ^ ^ ^ ^ / v.z.l x p p p p p p p x G p.F.G.D.0./ / ^ ^ ~ _ 6.( x x j p p p i x L L ",
"] ] [ [ [ [ ] { { } } } { { { } [ ! W W L K S ~ I ~ ^ ^ >.:.j j p p p p i i p Z ~ g.G.G.D.0.^ ^ ^ ~ ~ _ { ( V C V V p i p j Z I ",
"_ ] _ ] _ _ ' ] { { { { } ) U { ] ^ ~ L b m H I b J ^ ^ ~ K x C p p i e 3 6 p Z ^ B.G.G.D.0.^ ^ ^ ^ ^ _ 6.` p p p i i p p d Z L ",
"_ _ _ _ / _ / _ ] { } } [ N c M S V V V s d V V s d S I ~ L p p p i y 1 q 3 i Z ~ b.G.G.D.9.W ^ ~ I ~ _ { ` p p j j p i p V ~ I ",
"^ ^ W ~ W ~ ^ ^ ' } } } ` V v j p V C V V V V p u p j I ~ K x C p y 2 q y 3 i x G v.G.F.D.9.^ ^ K K ^ _ { ` V Z C x p i i p S L ",
"W ~ W ^ ~ W ~ ~ ' { { } ] C Z v V C C V j Z V p p p V I ~ K j j p 1 : 3 y 3 i V G 8.y.s.y.' ~ ^ K K ^ _ 6.` p p p p p p p p Z L ",
"^ P Z S v Z Z Z K Q ] } ] j j p p p j p p p p p p i V I W S j j p 6 2 w y q i S / -.] ' ] ! I L Z Z K ~ ( E x x j p p p p p x d ",
"^ H x v v v v V S F Q ` T v v x p V Z j l Z V p p p V L b c j v p q 7 a i 3 i Z ~ ^ ~ ~ ^ ~ ^ H j p x p p j p Z C j p i p i p r ",
"I C v M j x p j j j V j p x v v j V C j V Z V p p p V Z 5 1 2 2 , > ; 1 w 3 i V S ^ ^ ^ ^ ~ ^ K x x x p p p i p p p p p p p p u ",
"P v K Y x Z x C Z j Z V i p p p p p j p p p p p p i V k : , - , , 2 2 > 3 3 e x S ~ ^ ^ P ~ ^ G x p x p p p p x p p p p p p i 0 ",
"I C x v j v x v Z p V d p v Z v j V C l p p p p p p V j - > - 2 2 1 3 > q e p Z S S ^ K C K ! K x x x p p p x Z Z V i p p i 3 & ",
"~ C C Z V S V ~ R x S x p x Z v l C C j p i i i p p V k : , * : : : : % w p i Z Z C ^ K C A A k t t t w w i i p p p p i p i > O ",
"~ C j j p V p d d p p p i p x p p p j p p p i u p p V k : > : 3 3 3 % % w p p H S S ^ W S k : : * * * * & w p i p p p p p i > O ",
"I v C Z p Z V f 9 u p p i x v x p i p p p p p p p i V k : : : : : > % % w p p V Z S G S Z h * % % % $ % * 3 w w w w w w i i > O ",
"^ Z x V p V p i p p p p i x C x p p i p p p p p i p V k : > * 2 : % % % q i i d j x x j d q * % % % % % * > 1 2 3 3 1 1 w i > O ",
"^ Z Z Z V S l p i p i p p p d p p p p i p p p p p p V k : > : 3 > % % % q p p C C G G V S h % % % % % % % : > > > > : > , w > O ",
"^ Z j j p p p p p p p p p p i p p p p p p p p p p p V k : > * * % % % % q i p V V C l x Z 8 $ @ @ @ @ + @ @ @ @ # % % , 1 w > O ",
"~ C C C p p p p p p p i p i y w w w w q q w w w w w y t : : & % % % % % q p p V S S S G v = X X X X X X X X X X + % % > , q > O ",
"I C p p u p p p u p p p p p q 3 3 < < & % : * * * > , , > : : > : > > > q p p S ~ ^ ^ z 4 o .             .     . # % * : q > O "
};
