/* XPM */
static char *result[] = {
/* columns rows colors chars-per-pixel */
"64 64 94 2 ",
"   c #AF827F",
".  c #BA8C89",
"X  c #AC9A95",
"o  c #B49C96",
"O  c #BA9C96",
"+  c #B49E98",
"@  c #BC9D98",
"#  c #AEA19C",
"$  c #B3A29D",
"%  c #BEA29C",
"&  c #B6A4A0",
"*  c #BEA8A2",
"=  c #DC9B8E",
"-  c #C69590",
";  c #C49B95",
":  c #CC9B94",
">  c #D49B94",
",  c #DC9C95",
"<  c #D59F9A",
"1  c #DB9E9A",
"2  c #E49683",
"3  c #E39B8E",
"4  c #E89E8E",
"5  c #E39D94",
"6  c #E29F98",
"7  c #C5A39B",
"8  c #CEA19B",
"9  c #D4A39D",
"0  c #DCA39D",
"q  c #EAA18E",
"w  c #FAA68F",
"e  c #E4A097",
"r  c #EBA394",
"t  c #EEAA96",
"y  c #E3A49D",
"u  c #EAA69D",
"i  c #E6A89D",
"p  c #ECAB9E",
"a  c #F2A696",
"s  c #FDA790",
"d  c #F5AB96",
"f  c #FAAD96",
"g  c #F3AD9B",
"h  c #FAAE99",
"j  c #EBB09F",
"k  c #F3B09E",
"l  c #FBB29C",
"z  c #C4ABA5",
"x  c #DEA5A1",
"c  c #D6ABA5",
"v  c #DCAAA2",
"b  c #D5AEA8",
"n  c #CEB3AC",
"m  c #DDB2A7",
"M  c #D1B5AE",
"N  c #DEB3A9",
"B  c #D4B8AF",
"V  c #D4B7B0",
"C  c #D6BAB1",
"Z  c #D9BDB3",
"A  c #E2A7A1",
"S  c #E8A7A0",
"D  c #E4AAA3",
"F  c #E9ACA3",
"G  c #E7AFA8",
"H  c #E8AFA8",
"J  c #F1AFA1",
"K  c #E6B0A5",
"L  c #ECB2A5",
"P  c #E7B1A9",
"I  c #EAB3AA",
"U  c #EEB9AE",
"Y  c #F3B3A4",
"T  c #FCB6A1",
"R  c #F5B9A5",
"E  c #FBBBA5",
"W  c #F2B6A8",
"Q  c #F3BCAD",
"!  c #FBBDAA",
"~  c #EDBBB0",
"^  c #F2BEB0",
"/  c #DCC1B6",
"(  c #DFC4B9",
")  c #F6C2AF",
"_  c #FEC4AE",
"`  c #E0C5BA",
"'  c #F5C3B3",
"]  c #FDC7B0",
"[  c #F7C8B7",
"{  c #FFCBB3",
"}  c #F5C8B8",
"|  c #FBCDBA",
" . c #FFD1B6",
".. c #FED2BC",
/* pixels */
"0 x 9 x < x x x 0 x x x x x x x x D x D x x x D G G x D x x G x G D G A D x H A G D G G D H I ~ ^ H H H H D H H L ' ............",
"x 0 < x x x x 0 x x x x x x x x x A x x x G x G x x G x G x x D x G x G G G D H D D D H ~ ^ ......U D H F H H H ^ ..............",
"0 0 x 0 < x x < x x x x x x x x x v v x x D x x x D x x x G D D D x G G H H H D G G H ^ ..........^ D H H H H ' ................",
"0 9 0 x x x x x < x < x x x x x A x A A x v x D x x D x x D x D A G x H ~ ^ [ ^ ^ H ~ ............[ ^ ^ H H U ..................",
"0 x 0 x 0 x x x x < x x x x x x x x v A x D D x G x G x x D x D D A G ^ | ........~ ^ ..| ..............[ ~ ^ ..................",
"< x x < 0 9 x x x x x x x x x x x A A v v v x D x D x D D x D A D D ~ ..................................| ....................| ",
"< 0 < x x < x < x x x < 0 x x x x x x x x A x A x x x x x x G ~ I G ^ ......| ^ ^ } ^ | | ..........[ [ [ ^ [ [ ..........| ~ ~ ",
"0 < x x 0 x x 0 x x x 0 x x x x x x x x A v x A D x G x G x H | [ H ~ ^ ^ } ^ ~ ~ ~ ~ ~ ^ [ [ [ } } ~ I U U ~ U ~ } } | | } ~ ~ ",
"< < < 0 0 < < 0 x x x 0 x x x 0 x x x v A A v A A A D A D Q U | ~ ~ I I I ~ I ~ ~ ~ ~ ~ ~ ~ U ~ ~ ~ ~ ~ U ~ U ~ ~ ~ ~ ~ ^ I ~ ^ ",
"x 0 x 0 0 0 x x x < x x x x x x x x x x A x A A x v A A D U L U I H H H H H H H G G H G H I H H H H H G I I H W I I I H I W H U ",
"0 x 0 < < x 0 0 x x < 0 x x 1 x A D x x x x x x x A A A v A A A D x A D x G D D H A G G D D H S D G D G D D H D G G G H F H H H ",
"0 < 0 0 0 x 0 0 < x 0 x 1 1 x x D D D A x x A x x A A v A A A A x D D D D D D A A A G x D H D D G D H D H D D D G G G D H H J H ",
"< x < x 0 0 x x x 1 x x x x x x x A x x x x x A A v A A A D v A D x D D D D D D H A G D G A H D D H F D D D D H F F H H F J H H ",
"< 1 < 1 0 x < 0 1 x 1 6 1 x x A A x x x A A x A A A A x A A A D D A x D D A D D A G A G D D D S D D F D D D D F H H H F H H Y H ",
"1 < x 1 1 1 1 x x 1 1 x x x x x A 0 0 x 0 A 0 x x A A A A A A A D A A S A A D D A A A S S D H D D F F S F F F H F H F F F H H H ",
"x 1 < x x 1 x x 1 x x x 1 1 x x 0 x 0 0 x x A 0 x x x D A A v A x A A A D A S A S G H A H S D D F D D D H D F F F F H F F F F H ",
"< < < x 1 1 x 1 < 0 0 x 0 y 0 0 x x y x x A 0 x 0 A A D 0 A y D A S A A A A A A A D A F A F F D D S D F D D F F D F F H F F G I ",
"x 1 < x x < < x 0 0 x 1 0 0 x 0 0 0 0 0 0 0 y 0 A 0 0 A 0 A A A A A A S A D i D F S D D F D D u F F H H F F F F F F D F F F F F ",
"< 1 1 1 < x 1 1 0 0 0 0 0 0 y 0 0 0 0 0 0 A x A x 0 y A A A A A A A i A A A S D A D A A i A A D S F H H F D F F F F L L F F H H ",
"1 1 < 1 1 1 < x 1 0 1 1 1 x 1 0 y y 0 A A 0 y 0 y A A v A y y y A A A S A F S S F F F D S A F A S F F F F D F F D F D F F F F F ",
"< 0 0 D G I ~ H A 0 0 0 0 y 6 0 0 0 A D A 0 y A y A A 0 x y y A S A S S A A A A F F D S S D A S F D D F S F F D F F F D F F F L ",
"1 0 H ! } } ' ^ H A 0 0 0 0 0 0 0 0 0 y y 0 0 x x A A 0 0 y A y A y A y y S S A y A S A D S F F S F F S F D D S F F F F H F F F ",
"0 I [ ] ^ [ ' ' I D A 1 0 6 0 y 0 y 0 y y 0 y y 0 y x 0 y 0 A 0 i A y A S A A S A D S A F F S F D F S D S F S F A F F F D D D F ",
"I [ [ [ ^ [ ' I D H D 0 y 0 0 0 0 0 0 0 0 0 y x y 0 y y y A y A A A y y y S S i u u A S D u A S S S S D S F S S F p F F F S F Y ",
"Q ] ] ] ] ] ' K D P I K F D y 0 y 1 0 0 0 0 0 y y y y 1 A y 0 y y y y A y S A y y S y S y S A A u F F u F u F u u F u F p F F J ",
"' ] ' ] ] ] ) D D D W ' ) L i y 0 y 0 y y 1 0 0 0 y y A 1 A y y y S S i S y S S S y S S A S S y A A u u S F S F F u p F S S S S ",
") ) ) ) ] ) I D D D Q ] ) U D D y D D A 0 y 1 y 0 A y y y y A y y y y y y A y A i S i A y S S S u Y F D S F F u S S p u S S F J ",
"L ) U L U P D D D D ) ] ' I P I D D F D y 0 y 0 6 6 0 y y 0 y y y y A y S y i A A y y y y S S S A ! W D A u S S u u S F J S S F ",
"D D v D A D D D D G U ) ) F D D F D D D y y 0 y y y y y y y y A y y i y y y u F F p p F A S u A u ! W A S u S F u u u F S S S J ",
"A A A A A v D D D D D D D D D D F D D D D D y e 6 1 1 y y y y y y y y y F Y Y ! ! ! ! ! Y Y Y R R ! W y i A u A S F S u S S S S ",
"1 0 1 0 0 0 0 1 0 0 0 0 0 0 0 y x 0 y y A y 0 0 A y 6 6 1 y y y y y y y W { { { ]  .{  .{ { { { { { W D D D i u u S u S u u S F ",
", > , 1 , 1 < , , , , 1 1 , 1 , 0 , 0 1 0 0 0 e 1 6 1 y y 6 6 y y e e y R { {  . ... .{  ... . ...{ W H F A S u u u u u S u u F ",
", , , > 1 > > , 1 , , , , , , 0 , 0 6 , e 0 0 0 1 y y 6 6 y u e 0 e y y k _ ] ] { _ _ { { { ] ] { { W L I i y u u u u u u u u J ",
", > , > , , , , , 5 1 , 0 , 5 , , , , 6 , , 6 , 1 6 6 6 6 6 6 6 y e u e Y { .... . . . . . . . . . .U P I A u u u u u u u u u S ",
"> > , , > , , , , , , , , , , 0 , 0 6 , , e , y 6 6 6 6 y 6 u 6 e y y e Y _ { { { { { { { { { { { ] W L I A u i u e u u u u u u ",
", , , , > , , , , , , , , 6 , , , 6 0 , 6 , 6 , 6 6 6 6 y 6 6 6 y e 5 e Y {  . .{  . . . . . . ...{ W K I i r i p J F u a u 6 J ",
", , , , , , , , , , , , , , , 5 , , , , , 5 , e 6 e e e 6 6 6 6 u e 6 y l _ ] ] { { { _ _ { { { { { L I P i t k ! _ ^ W S S S a ",
", , , - > , , = , , , 6 , , , , , 6 , 6 6 e e e 6 6 , e 6 6 6 u 6 e e e Y _ { { { { { { { { { { { { W I P L ) _ _ _ _ ! J S S S ",
", , 2 - = , , , , , , , , , , , , , , 6 0 , 5 6 3 0 y 6 6 6 6 6 6 6 e e Y {  .{ { {  . . .{  .{ { { W P P W _ _ _ _ ] E J S a S ",
"2 , , , = , = , = , , 3 , 0 v 8 ; > , 5 6 , , 5 , 5 y 6 6 6 4 6 6 4 e e k ] ] { { { { { { { { { { _ R K P U _ _ _ _ _ T J J S J ",
"6 6 1 , , 5 , , , , = 3 , c M * X > 0 8 > 0 , 5 5 6 6 5 6 5 6 5 6 6 6 4 Y {  . . . . . . . . . . . .W P P W _ E l ) E Y j g F W ",
"g S A 0 A 0 u u , , , , , c V * X > v 7 > 5 , 5 , 5 6 5 , 5 5 6 6 4 6 6 k _ { _ _ { _ _ _ { { _ { { L L P D k g j k k p p L k F ",
"S b V b * @ D L 0 , 0 9 1 c M z $ 9 c 7 : > > = 5 5 5 5 5 5 5 4 6 6 4 u E {  ... . . . . . . . . .{ W P L i g L t L p p g L p Y ",
"G M b V n n M M M M M M M M M M M M B M # # O , 3 5 5 5 5 5 5 5 4 4 4 r E { ] { _ { { { _ { { { { { W P P D F g g p g p k p g g ",
"Z Z B Z M n M Z Z C Z Z M M Z Z Z Z Z M $ % $ , 5 5 5 5 5 3 5 4 5 4 5 4 ! ] { { {  . .{ { { {  .{ { Y P P i p g g p d F F p g F ",
"M M M B M M M B V V Z C M M V Z C C Z M $ $ o = 3 5 3 5 5 5 5 5 5 5 4 6 T ] { {  .{ { { {  .{  . .{ L L I p k k J J g d u d k T ",
"` C Z ( B M C ` ( Z ( ~ V M / ` Z / ` C $ & O = 5 5 3 3 3 4 5 5 4 6 a a E ! { ] { _ _ { { { { { { ] W L P F l k l T g e e a l E ",
"B M M M M M M B V V C V M M V C V C C M $ $ o = 3 3 5 3 3 5 4 e g h h T T { | | {  . . .{  . . . . .L P K F l l l l h a a d l l ",
"M M M M M n M M M M M M M M M C B B V n $ & O , = 5 3 3 3 5 4 a h h h l T _ _ _ _ _ _ _ _ _ _ _ _ _ W L K p l l l l l h a a l T ",
"C B C C M M M Z Z B Z C M M Z Z C V / n $ & o = 3 3 4 r r q r h l h h h E { { {  . . . . . . . . .{ W D K p l E Y p l l l f l l ",
"C C C Z M M C Z Z C / Z M M Z / C / / B $ & o = 3 e d h d k h l h h h l T _ { _ _ _ { _ { _ _ _ { _ Y D L p l l L p l l l l h T ",
"` C Z ` C M V / Z Z ` / M M / ( / / ( V $ $ $ = q h h h l h h l h h h h l { { { { { { { { { { { { { W A Y ! ! ! ! E E Y i g l l ",
"M b M M n n n M n n n V M n M M B B B n $ $ $ = d f f d l f l d h f h h l { { ] { { { { { { { { { { R 0 ) { { _ _ _ _ L 0 i l l ",
"C M B Z M M B C Z V Z C M n C Z B B C B $ $ $ q h f l d d f d f h f f f l { { { { { { _ { { _ { _ { j 0 E _ { _ _ _ _ L 0 i l l ",
"C B B B B n n C V V Z C n n C Z B / / B $ $ % t h f f f f d f f d f f f l { {  . . .{  . . . . . .{ L 0 E _ { { { { _ F 0 u h l ",
"/ B / ( B n B / / C / Z n M Z / B / / B $ $ $ t f f f f f l f f h f f h l _ _ _ _ _ _ _ _ { _ _ _ _ Y 0 ) { { _ _ _ _ p 0 u l l ",
"/ B C / B n B / / V / / n M / / C Z / B $ $ o t h f h d f f f f f f f l l {  . . . . . . . . . . . .L 0 E { { _ _ { _ F 0 i f l ",
"M n n n n n n B B n n n n n B n n B B n $ $ o t f f f f f f f f h f f h T _ ] _ ] ] { ] { ] { _ _ _ L 0 ! _ { { { _ _ F 0 i f l ",
"B B B / B n B B C B / C n n C Z B C / B $ & + d f f f f f d f f f d f f l { {  .{ { { { ] { { { { { Y 0 ) _ { { _ _ _ J 0 i f l ",
"B B M B M n n B B M V B n n B C M B B n $ # $ t f f f f f f f f f f f f l { { { { { { ] {  . .{ { { L 0 R _ ) ) _ { _ F 0 t f f ",
"/ B / / B n B ( / C / / n n / ( Z / ( B # $ # t s f f w f f f f d d d d l _ _ _ ] _ ] _ ! W R E _ _ j 0 R F D L _ _ _ p 9 i f f ",
"M n M B n n n n B n B B n n B B M B B n $ # O q f f f w f t m m N m 7 % 7 ) _ U P v U L F I F F L L y 0 v D D P _ _ ! L 0 i f f ",
"n n n M n n n M n n M n n n B B B B B n # $ o 2 w s s d h K B V V M & # $ L W 0 c o 8 8 c < 8 8 9 0 9 0 c D D D D F ! p 0 i f f ",
"B B B B n n M Z B B C B B M B B B C B n # $ X 2 w s w j B B B C n n M B B Z C B n + X X @ .     - 9 0 9 0 D K D D D _ j 9 t f f "
};
