/* XPM */
static char *result[] = {
/* columns rows colors chars-per-pixel */
"64 64 101 2 ",
"   c #8C8B8A",
".  c #978786",
"X  c #918B89",
"o  c #979390",
"O  c #9C9492",
"+  c #9F9894",
"@  c #A58C8A",
"#  c #BD8785",
"$  c #B48985",
"%  c #B98985",
"&  c #A4918E",
"*  c #A39794",
"=  c #AA9792",
"-  c #A29995",
";  c #AC9994",
":  c #AC9D99",
">  c #B79692",
",  c #B89692",
"<  c #BD9D99",
"1  c #B2A19D",
"2  c #BEA6A2",
"3  c #BFA8A4",
"4  c #C38783",
"5  c #CE8781",
"6  c #C58986",
"7  c #CA8A85",
"8  c #C58D8A",
"9  c #C98E8A",
"0  c #D58C83",
"q  c #C6918E",
"w  c #CA928E",
"e  c #DE9285",
"r  c #D1948E",
"t  c #DB998F",
"y  c #C49490",
"u  c #CC9592",
"i  c #C59C97",
"p  c #CD9996",
"a  c #C59E99",
"s  c #CE9B99",
"d  c #D19692",
"f  c #D29996",
"g  c #DA9B95",
"h  c #D49C99",
"j  c #D99E9A",
"k  c #E79B89",
"l  c #EC9D8A",
"z  c #E09F94",
"x  c #C5A19C",
"c  c #CCA19D",
"v  c #DFA096",
"b  c #D5A19D",
"n  c #DAA19D",
"m  c #EFA08B",
"M  c #F2A08C",
"N  c #E2A297",
"B  c #EBA697",
"V  c #E4A49A",
"C  c #EAA798",
"Z  c #E6AA9D",
"A  c #ECAC9D",
"S  c #F3AA97",
"D  c #F2AD9B",
"F  c #FBAE9D",
"G  c #F2B09E",
"H  c #C1A7A3",
"J  c #C9A5A0",
"K  c #C4ABA6",
"L  c #CAAEA7",
"P  c #C7AEA8",
"I  c #C9AFA8",
"U  c #D5A5A1",
"Y  c #DCA5A1",
"T  c #D3A8A3",
"R  c #DEAAA4",
"E  c #CDB2AA",
"W  c #D7B1A7",
"Q  c #D8B2A7",
"!  c #D2B6AD",
"~  c #D4B8AF",
"^  c #D6BAB0",
"/  c #D9BCB2",
"(  c #E0A7A1",
")  c #E3ABA3",
"_  c #E8AFA5",
"`  c #E6B1A7",
"'  c #EAB2A5",
"]  c #E3B0A8",
"[  c #ECB5A8",
"{  c #EEB9AB",
"}  c #F2B2A1",
"|  c #FEB5A4",
" . c #FFBAA6",
".. c #F3BCAB",
"X. c #FFBDA9",
"o. c #DDC1B5",
"O. c #F7C1AD",
"+. c #F9C3AE",
"@. c #F5C3B1",
"#. c #FAC5B1",
"$. c #FCC8B3",
/* pixels */
"..) d u d p d s d f f f p f f f f f f s f f f f h f h h h h h h h h h h h h h Y Y h h h h Y h Y h j Y Y Y Y h Y Y Y Y j Y Y j Y ",
"+...Y h p d u f f f f p u s f f f f f h h f h f f h h h h h f h h h h h h h Y h j j h j j h Y j Y h Y h j Y Y h Y j Y Y Y j j Y ",
"....) Y p u d p p p d s f f f f f f f h f f f f f h s h h f h h h h h h h h h h j j h h h Y h Y h Y h j Y h Y j h j Y j Y j Y Y ",
"..+...` b ( n c p p p f b j s s h h h f f s f f s f f s f h h h h h h h h h h h j h h h j h h h h h Y j j j j Y Y j j Y j Y j Y ",
"+.+.+...} O.] T s f h [ ......{ { @._ h f f f s s s f s s f f h h h h s h h h h h h h h h h h j j Y h h Y j j j Y j j h Y j Y Y ",
"....O.O.O.O.[ Y U f ) X...X.$...X.@.{ n f f f s f f f f s f f h f h h f h h h h h h h h h h j j h h Y j h Y h Y j h Y Y j Y Y j ",
"+.+.+.O.O.O...R T Y { ..#.@.#...@.X.@.[ h j n h f f f f f f f s f f h s h h h h h h h h h h h j h h j j h j Y j h Y j j j Y j j ",
"' ..X...O.O.[ n Y Y [ ....X.#.#.@.@.@.@.] Y Y n f f f f f f f s s f f h h h h h h h h h h h h Y h j j j j j j j j j Y j j j Y j ",
"U R ) ( [ _ Y Y U U Y ) ] [ { ..] { @.{ R Y Y Y b Y b h f f f s s f s h h h h h f h h h h j h h h h j h h j Y j j Y Y h Y Y j Y ",
"b h b h b b b h n b c b b U U U b n ] Y Y Y n n Y Y U Y h f f s h f f f h f f h h h h h h j h h h h h j j j j j j h j j j j j j ",
"p u u u u s u s f f p p p p f f s u u s f s f s f f f s f s f f f h f f h h h h h h h h h h h h j h j h h j j j j Y j Y Y j j Y ",
"w w q u w u u u y u u p p u u f f s u u s u f f f f f f h f f s f h f h f h f h h h h h h Y h h h j h Y h h j j j h j j j j j j ",
"u u w u u y u u u u u u p u u p u f f s f f f u f f f f f f s s f f f h f h h f h h h h h h Y h h j h j h j j j j j j j Y Y j j ",
"w y q q u q w u u u y u u u p u u u u u s u u s f f f f f f f f f s h h s h f f h h j h h h h h h h h j j Y j j h j j Y j j j Y ",
"q q u q w u u q y u y u u u u u s u u f u f u f b b f f f f u f f s f f h h f h h h h h h h h h h h h j Y ( Y j j j j j j Y j j ",
"w w y u w y u u y u u u u u u u f u u u u u s f h s f f f u s f f f f h f f f f h h h h h h h h h h j h j j j h j h j j j j j j ",
"q u q u q u u q u u w w u u u u f u u u f u u u f u f f d f f f f f f f f f b f f f f h f h h j h h h h j j j h h j j j j Y j j ",
"q y q q u q u w q u u u u u u u u u u u u f u f d u d u d u u f f b b f b f f f h h h h h h h h h h h h j h j j j j j j j j j j ",
"q w u u q u u q q w q u u u u u u u u u u s u f f f f f f f f f f f h b f f f f f h h h f h h h h h h h j h h j j j j j j j j j ",
"q q q q q q u q u q u u q u u q u u u u u u u u u f f f f u u f f f f f f f f f f h f j f h f h j h h j j j j j h j j j j j Y j ",
"q q q u q q u u u q u u q u u u u u u u u u f u d p d u u f p f p f d f f s f f h f h h h f f j ( ( { { { { ] ( h j j j j j j j ",
"q q q q u q q q q q q q u u q u q u q u u u f u u f u f f u f f f f d p f f f f f h f h h h n { @.{ @.@.@.@.@.] j j j h j h h j ",
"q q q q q q u q u q q u q q q u u q u u u u u u f u d p u f d f f f f s d f f h f h f f f n { #.@.@.@.@.@.@.] ( ( Y j j j h j h ",
"q q q q q q q u w q u q q u u q u u u u u u u u u u u d u u u d u d u d d f p d n n V n n ..#.#.@.@.@.@.@.@.] ( ( Y j j j j j ( ",
"q q q q q q q q u u q q q w q u q u u u u u u u u u u u d u u u u f f f p d f ) +.+.#.+...+.#.+.$.$...$.$.@.@.{ ( ( ( j j Y j _ ",
"q q q q q q q q q q w q u q u w w y u q q u u u u u r u d w u d f u p f f h _ ..+.#.+.+.+.+.#.+.$.$.$.X...@.X.$.@.@.( ( ( ( ( [ ",
"q q q q q q u w u q w u u q q u u q u q q u u u u u u u u w u r u f f n Y _ X.#.+.+.#.#.#.+.+.#...$.$.$.$...X.$.@.@._ ] [ @.[ { ",
"q q 8 q q q q w q w w q q u q u q u w u u u w q 9 u u u u u u f d d j n n _ #...+.+.+.+.#.+.+.+...$.$...$.$.@.$.@.{ ( [ @.@.@.[ ",
"q , q q q q q q q q u q q q q w q q w u q w u u u u u u u u u d d d j Y Y ( [ ..+...) [ ..X...) ] [ { ..X.@.@.X.X.( ( _ @.@._ ( ",
"8 8 8 8 8 q w q q q q q 8 q q w w q w w w w w u u u 9 u u r u f b U Y Y Y n Y _ ' ( Y Y Y ) ( ( ( ( ( ) [ _ { [ _ ( ( ( _ _ ( ( ",
"8 # q q 8 q q q 8 q q 8 9 q w 8 w q w w w u q w u u u d h f f h h b f g j h h j j j n n j j j j n j n n j j j j Y ( ( j j ( ( ( ",
"8 8 8 8 8 f h w 9 q 8 q w q 9 u q w w q w u q u 9 u u u u u u r u u u d u d d d u d d d d d d g f f f f h g g h h j ( g g g g j ",
"8 8 # 8 8 w p f y q 8 q 9 y 9 y 9 w w w w w w w w w w w r w w w u u d u w d r u d d d d r d d d d d d t f f g g g h g g g g g g ",
"8 q 8 8 8 q y f u 8 8 8 8 8 9 8 9 w w 9 w w w w w w r w w r r 9 r r d w r r r d r d d d d d d d d t r c g n z g N N N g g g g g ",
"8 # 6 8 8 8 y u 8 8 9 8 8 9 8 9 9 9 8 w w w w w w r w r w r r r r r r r r d r r r d r t r d r d d r t d C G } } ' } G N g g g g ",
"8 8 6 8 6 8 # 8 8 8 8 8 8 q q 8 9 q 9 9 w w w 9 9 w w w r r r r w r r r r r r r r r d r r t r t t g t v ' } } G } } } ' V g g g ",
"# 8 8 8 8 8 8 8 9 9 8 8 8 9 9 9 q w 9 u 9 9 r r w w r w r w w w 9 d d w r r r w r r r r r r r t v A A A G } } } } } } } A g g g ",
"# q 8 6 8 8 6 8 8 8 8 9 9 8 9 q 9 9 9 9 r 9 9 9 w r 9 r w r w r r 9 r r r r r r r r r r r r r g G } G G } G } } G } } } A g g g ",
"8 # # 8 8 8 8 q 8 8 8 8 9 8 8 8 9 8 9 8 9 9 9 w 9 w 0 q , 0 w w 9 d u r w w w r r r r r r d r j G G G ' G G } } G } } D A g t d ",
"q 8 8 8 # 6 8 8 # 8 8 8 8 8 9 7 8 9 9 9 w 9 9 w w u u , > u r r s J J J c < > , p d p y q q w v G G G A A G G } G G D D A g g t ",
"s u 8 8 # 8 8 8 u u u u 8 8 8 8 9 8 8 8 9 9 9 i L L L L L E L E E P I E I I I I E E K * O * = Z D G G G G G G D G G D D G G V z ",
"f f 8 q f u s u f d d u 8 8 8 8 9 8 7 9 8 9 9 p E o.o.~ ~ o.^ ~ / E ^ / / o.o./ / / P - - + ; Z A A G A D D G G } G D _ G D G D ",
"f u u u f f f f d h h f u 8 8 8 9 9 6 8 7 9 7 x L L E E E W E L E I I ! E E E E E ! K - - + : C D G A G D G D G G G G G G D G D ",
"u f f f f f s f f f h h f 9 8 7 8 8 8 9 9 9 5 x E ! o.E ~ ~ ~ o.^ I ! ^ ^ / / ^ ~ / L - - + ; Z G D D G G G D D D G G G _ W W Q ",
"f u f f f f f f d d h f h p w w 9 7 9 r 9 p 9 x E E o.o.o.L o.E ~ I ! ! ! ^ ^ ! ~ ! L - * * : Z A D D D G D D G G G G D _ ! ! ! ",
"w w u u u u u u d w u u w r r r 8 8 8 9 9 r 0 x L o.E E E o.E E ~ E E ^ ^ ! ^ ^ ~ ~ L - O O = C D G D D D G D G D D D G G ! ! ! ",
"6 # 6 6 6 6 4 4 6 6 6 8 9 8 7 9 7 8 6 6 8 7 7 x E o.o.o.o.o.o.o.^ E ! / / o./ o./ / L - O O ; Z D D D D D D D D G D D D A ! ^ / ",
"# 6 6 6 6 6 4 6 6 6 6 6 7 6 6 6 8 7 9 9 7 7 7 i L E L E E L L o.E E E ^ ! ! ! E ! ! P - - - ; C D D D D D D D D D S G G A W ^ / ",
"6 # 4 4 6 # 6 4 4 6 6 4 6 6 6 7 6 7 7 7 7 9 7 i o.o.o.o.o.o.o.o.o.E ! o.o./ o./ / / I - - - ; C D S D S D S D S D S S D A E E E ",
"6 6 4 # # # 6 4 4 6 6 4 6 6 6 6 9 7 7 6 7 9 7 i L ! E L E L L E E E ! ! E ! ! ! ^ ! P - + + ; Z D S S D S D S D S S D D A E ~ / ",
"# 8 a & . # 6 # q q q % 8 6 7 6 6 7 7 9 7 9 7 i E o.o.~ o.o.E o.~ E ! / / / / / ^ ^ P - + O = C S D S S S S D S D S D S A E ~ ^ ",
"6 # 2 O   # 6 y H H 1 X # 7 6 7 6 7 7 7 7 9 7 i E ~ ! ! E o.E o.! P ! ^ ~ / ~ ~ ^ ^ P * O O = B S S S S D S S D S S S S A W / o.",
"i a H 1 : < s H H H 2 : & @ @ @ $ 7 7 6 7 7 5 i E ~ E ! E ~ E E ! P ! ~ ~ ~ ~ ~ ^ ! P - + + ; B S G F F G N C S D D B S A ! ! ! ",
"E H P P P K P I I H P P O       $ 7 5 5 7 5 5 i E ~ o.! ~ ~ o.! / E ! ~ ~ ~ ^ / ^ ^ P - + - ; B S F F F D n S S F D D B Z L ! ! ",
"! K P P E K P I E P P P +   X X $ 5 5 5 5 5 5 i L L E K E L L L E P E E E E ! E E E K - + + : G F F F F | | | | | | } n c E ~ o.",
"! H P P E K E E E K P P O       $ 7 5 7 7 5 0 i ~ o.o.o.o.o.o.o.~ E ! o./ / / / / / L - + + ; | +.+.+.+. . . .X. .| | b c E ! / ",
"! P P P E K I E E K P P O       $ 5 5 5 7 5 5 w I P E E E E E E E L E E L E E E E L K * O o = } X.X.X.X.X. .X.X.X. .| h h E / o.",
"P H P P K K K I P K K K O       9 e 0 7 5 5 0 i E ^ ~ ^ ^ ^ ^ ^ ~ E E o.~ o.o.~ o.~ P - + O ; |  . . . . . .X. . . .| j b E ! ~ ",
"K H J H H H H K K 3 K K o       w m l k 0 5 0 c E E E ! E ! ! ! ! L E ! E E E ~ ~ ~ P - + + = G  .| |  .| | |  . . .| g b I ! ^ ",
"! K K I E K I I I K P P o       w m m m m k k v E ! ^ ^ ! ^ ! ^ ~ E ! ~ ~ o.~ ~ ~ ~ P * + + ; G +.X. .X.X.X. . .X.X.| h c I ! ~ ",
"! H P P I K I E P 3 K P o       r m m m M m m n E ^ ^ ^ ! ^ ^ ^ ^ E ! ~ ~ ^ o.! / ~ P * * O ; } X.X.| X. . . .X.X.X.| g s I / / ",
"I H P P I K K E E K P K o       9 m m m m m m n E E E E E E E E E K E E ! ! ! E ! ! K + o o = G  . .|  .| | |  .| | | h f E ^ / ",
"K 2 2 H H H H H K 2 3 3         q m m m m M M v E / / / ^ o.^ o.^ E ! o.~ o.o.o./ ~ L - O O = G  .| |  .| | | | | | | h s I E ! ",
"P 2 K K K H P P P H K K o       q m m m M M M n I E E E I E E E E K I E E E E E E E K - O O ; }  . . .X.X. .X. .X.X.| h c E ! / "
};
