/* XPM */
static char *result[] = {
/* columns rows colors chars-per-pixel */
"64 64 255 2 ",
"   c #1C1D1D",
".  c #221D1E",
"X  c #1E1D21",
"o  c #221E25",
"O  c #241F29",
"+  c #291F28",
"@  c #351824",
"#  c #242025",
"$  c #2A2125",
"%  c #25212B",
"&  c #29222C",
"*  c #272735",
"=  c #2A2533",
"-  c #262A3C",
";  c #372831",
":  c #332937",
">  c #511C2A",
",  c #691C30",
"<  c #522C32",
"1  c #653839",
"2  c #59403D",
"3  c #2A2D43",
"4  c #2B3349",
"5  c #343549",
"6  c #30334E",
"7  c #353B58",
"8  c #303B65",
"9  c #4E3C4B",
"0  c #463C59",
"q  c #6E3950",
"w  c #443E70",
"e  c #384468",
"r  c #2F4776",
"t  c #384A76",
"y  c #3B527B",
"u  c #484459",
"i  c #594955",
"p  c #715256",
"a  c #464968",
"s  c #574F6C",
"d  c #434B74",
"f  c #455577",
"g  c #56567A",
"h  c #705670",
"j  c #526073",
"k  c #6C6872",
"l  c #98223B",
"z  c #943448",
"x  c #AA2C4D",
"c  c #BA3464",
"v  c #CB3A67",
"b  c #8F4650",
"n  c #91526C",
"m  c #B15174",
"M  c #916870",
"N  c #A46767",
"B  c #D45176",
"V  c #E75368",
"C  c #9E857C",
"Z  c #36538A",
"A  c #2B5CAC",
"S  c #365BAB",
"D  c #305EB5",
"F  c #3B63AF",
"G  c #2963B6",
"H  c #3A64B6",
"J  c #3470BE",
"K  c #4A5989",
"L  c #565B8A",
"P  c #5A5894",
"I  c #6F5488",
"U  c #4A6A88",
"Y  c #4F6F8F",
"T  c #55698A",
"R  c #586797",
"E  c #597495",
"W  c #676495",
"Q  c #707090",
"!  c #777998",
"~  c #465CA7",
"^  c #5869A8",
"/  c #4C70AD",
"(  c #4667B6",
")  c #536BB5",
"_  c #5975BB",
"`  c #6A69A9",
"'  c #7467A6",
"]  c #6B76A5",
"[  c #7579A9",
"{  c #6E6DB6",
"}  c #6878BA",
"|  c #7777B7",
" . c #2F6ECB",
".. c #206BD8",
"X. c #3776D9",
"o. c #2E63EE",
"O. c #4976C8",
"+. c #5979C6",
"@. c #4B71D3",
"#. c #5779D6",
"$. c #6F69CA",
"%. c #6679C8",
"&. c #7777C7",
"*. c #677CD7",
"=. c #787CD4",
"-. c #5C6EE3",
";. c #6F77F0",
":. c #91548A",
">. c #AE588B",
",. c #876887",
"<. c #966485",
"1. c #897B89",
"2. c #956C99",
"3. c #8D7093",
"4. c #96769B",
"5. c #AE6F93",
"6. c #A359AD",
"7. c #8B77A8",
"8. c #977AA5",
"9. c #9572AE",
"0. c #847AB7",
"q. c #AC69A4",
"w. c #AA78A8",
"e. c #B879A6",
"r. c #B77AB4",
"t. c #CF5384",
"y. c #C86F96",
"u. c #E76C93",
"i. c #CF6FAE",
"p. c #C678A7",
"a. c #E56FA9",
"s. c #837DCE",
"d. c #8E7BE4",
"f. c #6C8E92",
"g. c #778899",
"h. c #5C82A8",
"j. c #6D8AAF",
"k. c #7B85A9",
"l. c #7986B8",
"z. c #3186E2",
"x. c #5584D3",
"c. c #6B82CA",
"v. c #7886C8",
"b. c #7895CE",
"n. c #6885D8",
"m. c #7786D7",
"M. c #7789E7",
"N. c #768CEA",
"B. c #6390E1",
"V. c #869098",
"C. c #A6858E",
"Z. c #92AA99",
"A. c #A7B696",
"S. c #848BAA",
"D. c #9B82AD",
"F. c #889BAA",
"G. c #979CA6",
"H. c #8687B7",
"J. c #9987B7",
"K. c #8A94B7",
"L. c #9498BA",
"P. c #AF8AAE",
"I. c #A788B8",
"U. c #B586BA",
"Y. c #B998B7",
"T. c #93A2A9",
"R. c #97B0AB",
"E. c #99A7BA",
"W. c #A9B6AB",
"Q. c #A8ACB9",
"!. c #B6AFB4",
"~. c #A8B6BE",
"^. c #C2849D",
"/. c #CA8CAF",
"(. c #C788B7",
"). c #D988B6",
"_. c #D897B7",
"`. c #E689B4",
"'. c #D0A7B8",
"]. c #D1C7BB",
"[. c #8689C8",
"{. c #988AC5",
"}. c #8A95C9",
"|. c #9898C8",
" X c #858CDA",
".X c #948CD5",
"XX c #8896D8",
"oX c #969AD7",
"OX c #A78BC8",
"+X c #B88BC5",
"@X c #A793C9",
"#X c #B595C8",
"$X c #B08CD3",
"%X c #A799D8",
"&X c #B799D8",
"*X c #8CA4CF",
"=X c #9BA4C7",
"-X c #97A5D9",
";X c #A4A9C8",
":X c #BCA3CC",
">X c #AAB4C8",
",X c #B4B9C8",
"<X c #A6A7D9",
"1X c #B8A6DA",
"2X c #AAB4D7",
"3X c #B5B8D9",
"4X c #858BE2",
"5X c #8D8CED",
"6X c #8996E6",
"7X c #959AE4",
"8X c #A59AE2",
"9X c #B69CE4",
"0X c #8BA6E4",
"qX c #9CA3E4",
"wX c #9BA7E8",
"eX c #A6A9E5",
"rX c #B7ABE5",
"tX c #AAB5E8",
"yX c #B8B8E9",
"uX c #ABAFF0",
"iX c #A9B7F3",
"pX c #B9BDF2",
"aX c #C489C7",
"sX c #C998C9",
"dX c #DB97C8",
"fX c #C598D7",
"gX c #D592D0",
"hX c #D89AD2",
"jX c #CAAACD",
"kX c #C8A6D9",
"lX c #D5A8D8",
"zX c #C7B7DA",
"xX c #D0A5E2",
"cX c #C6B7E9",
"vX c #D8B5E4",
"bX c #C3BCF1",
"nX c #B9C5C8",
"mX c #BBC6D9",
"MX c #BFD5DD",
"NX c #BBC6E7",
"BX c #ADC1F8",
"VX c #BBC5F4",
"CX c #C3CBCB",
"ZX c #C4CBDA",
"AX c #C7D6D8",
"SX c #D3D6D2",
"DX c #DDDFD8",
"FX c #DAE4CC",
"GX c #D8E5DB",
"HX c #C3CDE3",
"JX c #C5C5EC",
"KX c #C7D3E6",
"LX c #D0D3E6",
"PX c #C7C7F3",
"IX c #F7F6ED",
/* pixels */
"                                                                                                                                ",
"                                                                                                                                ",
"                                                                                                                                ",
"                                                                                                                                ",
"                                                                                                                                ",
"                                                                                                                                ",
"                                                                                                                                ",
"                                                                                                                                ",
"                                                                                                                                ",
"                                                                                                                                ",
"                                                                                                                                ",
"                                                                                                                                ",
"                                                                                                                                ",
"                                                                                                                                ",
"                                                                                                                                ",
"                                                          . .                                                                   ",
"                                              X X O : 9 b n N M w d P g 0 : & . X X X .                         X               ",
"                                          . $ : 9 h W W ' ' ' ' P P s.s.&.| ' s 5 & .   X   o                                   ",
"                                    X   = u i p h k [ | &.&.&.$.$.{ .X.X9.{..Xg.E W 7 $ X X o                                   ",
"                              . #   % u T k C ].].1.! l.| { &.` &.| 2X<XY.Y.|.A.k R f.j 6 O   o           X X                   ",
"                          . . . X : g ! g k FXIXIX'.s T &.&.&.&.s.| HXyX!.'.Q.F.f.Y Y f U j : O     X X X       X               ",
"                    X X . . . . s g.g.[ u s ].IXIXA.9 u =.d..X X|.K.GXLX:XY.A.K.g.] U Y k.f.E 0     o o o X X                   ",
"                  X .   #   $ k R.g.g.[ a a 1.].!.s 5 g &..X[.H.=XL.GXGX=XW.W.~.E.f.j j.f.j..X] 8 O O X o X   . X X             ",
"                X . . # . * ! Z.L.S.! 0.L g g i 9 t K ^ { [.s.H.;X=XGXGXL.A.R.R.j.f.U h.Y [.F.f.-.P O O o o o   X               ",
"              . o . # o ; j nXZ.S.E.g.K.W S.}.g u ' { s..XoX=XQ.,X|.FXGX}.T.R.R.f.b.Y y Y j.Y F N.6XL O o o o   X   X X         ",
"            X X o o o $ k k.nXg.~.CXR.k.g.;XqX[ W 7X%XoX%X3X3XCXnX=XGXGXAXnXR.R.h.l.Y Y j.E h.+.N.0X-Xk o o o o X X X X         ",
"          o . o o o o i ].k.K.S.,XH.T.S.~.>Xv.[ ' zXDXI.Q 1.L.L.,X|.GXGX~.>X>XT.f.f.E l.j.E v.j.0Xb.b.,Xi   o o X X X X         ",
"          X o O + o 5 g.,Xk.j.T.>XH.S.0.>X>Xs.] [ zXDX,.2 1 7.L.,X|.SXnXk.F.Z.Z.f.f.T k.k.E h.h.0X_ j.MXG.: o o X X X X X X     ",
"            o o o + Q ;XK.[ j.W.Q.E.!.0.,XmX2X] 0.yXZX1.1 b G.!.,X=XSX>Xk.g.f.f.f.U S.C.p C.}.b.BXh.b.MXnXk O o X X o X X       ",
"        X X o O o u K.=XE.l.nXE.F.mX!.,XGXGXAX] K.ZXAX;X3.h '.FX~.E.SX>XK.E.Z.A.j.E I.N < 2 V.*XMX2XmXMXnXF.5 o o O o X X X     ",
"        X O O + ; ! <X.X|.E.nXF.W.LXKXHXmX<X-XW H.2X*X^ R [ >X3X,X3X3XCXmXNX>XA.g.E Y.C.1 1 M =XNXNXMXMX,X2X! O O X X X X X X   ",
"        X X O O i J.E.|.|.>XE.W.nXLXMXNX<X-XoXR ] &.R K y y U K.3XZXZXZXMXKXMXnXZ.E I.^.N p S.b.}.E.*X-X>X,XQ.9 X O X # X X X   ",
"    o o o + O + 3.<XK.l.|.L.2XKXHXJX2XeX<XqXoXR K K y r 4 * 4 g.HXHXKXLXLXHXmXmX~.L.I.5.b 1.<X|.=X;XE.=XQ.~.nXk = # o X o X X X ",
"X o o o + O + 9 ;XmXNX3Xk.2XKXVXtXeXeXqX7X6X=.T 8 t r 4 * # = f >XzXmXmXAXNX3XHXZXY.D.b b n D.yX-X>X,X!.nXCX].W.: # o o X o X   ",
"o o o + o o o g tXNXNXHX|.mXKXVXyX2XwXeX7X6X&.K 5 t e - % # % - k.MXmXmXKXKXMXNXZX<.4.n 1 b M oXXX-X-X>XCXAXAXCXp X X X o o o   ",
"X o o O o + & 7.qX<XNXJXL.yXKXKXNXtXeXeX7X7Xm.K - e e - % % g 5 f 2XAXHXHXNXMXKX/.<.P.n b b n 9.XXoXoX;XAXnXnXCXV.X O # X o X   ",
"X o o o O O 5 [.7X<XtXVX|.yXNXVXtXwXoXuX7X7X XK 4 e e * % - ] ! - ] mXMXHXHXKXzX5.I.@X<.b M :.7.m.XXoX<XMXMXnXAXG.; O o O X X X ",
"o o o o o O 0 s. X7XwX<XJ.tXNXVXeX7X6X7XwXeX XK 4 e e - % % T >Xs 6 E.NXHXHX,X5.8.|.;X4.:.7.7.7.%.v.XX2XmXnXmX=X^ 3 . o X X X X ",
"o o + O O o g  X4X X XXXH.oXyXiXqX6X6X7XXXm.} f 4 e e - * % y -XF.5 j mXKXmXP.P.XX<XyXJ.3.{.0.2.*.=.v.} _ _ h.) ( 7 O O O X X X ",
"o o O + + @ P 6X X X4XoX| XXuXeX6X4X4X7XM.n._ f 4 d 7 5 * o 7 v.eXQ 4 l.rXP.J.oX XVX1XD.7.|.@X2.%._ ( F ( ( H ( ) d O % % O O X ",
"o o O X O O ` M.m.| v. X{ m.4XM.M.4X6X5Xn.*.) t 4 a 6 6 - O 8 c.XXXXs h w.{.6Xm.6XPX1X8.8.{.%X! ( A A F ( ) ( ) _ d o O o o o X ",
"X o O X O = { 4Xm.` &. X' v.4XM.M.m.*.M.M.*.^ e 7 a - 3 * % 7 %.n.M.s.n 2.7Xm.*.eXPX@X4.8.J.@X' F F F ( ( ) ) ) +.K o o o o X   ",
"X O O O O = { 6X Xv. X4X` =.M.M.*.#.+.*.m.n.R t ' 0 % * * # 4 +.*.*.=.s.m.M.n.#.uXbXD.4.8.D.OX' ~ F ( ( ( _ _ { { L o o o o X   ",
"X X O X # = | v.| [.b. X{ [.|.}.XXoX[..XoX}.R t [ g - % = % 5 %.m.m.*.$.%.*.*.*.yXyXJ.3.8.J.I.' ( F F F ) +.{ 9.6.I O o o o X X ",
"X X X O o * ~ ( ( ( ( ( ( ( ) O.@.O.+.+.+._ P t %.R - * 4 % 7 | v.}.s.|.l.v.v.b.bXrXD.2.4.D.%X}.[.[.v.v.v.v.c.&.6.I o o O o X   ",
"X O X O % & ~  .H +.m. X Xb.-X0X@.G  .G G G Z t H Z * 3 8 % e S S S S ( S H H +.bXrXw.4.8.D.-Xx.x.x.x.O.x.l.j.l.$.P o X o o o   ",
"X O X O O = Z  ... .b.-XtX;X3X-Xm.c.( G A G Z t D Z % r e X K c.H.0.| %._ H S %.bXrXD.4.8.D.-Xn.x.x.x./  .x.( S S t # X # o X   ",
"X X O X X O Z ..X.x.n.XXtXwXNX0Xc.+.J G G G Z y  .r * R e - ] XX1X_./.Y.{.^ A v.bXrXD.4.D.D.<X}.b.b.0X0X2X2X}.%. .8 o # X o o   ",
"X X X X O O r X.@.#.n.m.0XNXNXBX X+. . .....f Z ..8 3  .t 3 ) =.2X<X[.oX&.) G XXJXrXD.4.8.I.<X+.n.z.b.oX<XXX) H G 4 o o X o     ",
"X X X O o O 8 o. .X.X.-.n.7X1XjX+X%.#.#.x.x.K ~ J 4 t n.y - / m.@X<X.X|.x.O. .eXbXrXD.4.8.D.eXn.b.B.X.#.v.&.+.O.A - o % % o   . ",
"X X O X O O 6 =.6X6XN.N.N.N.4XN.;.;.;.;.B.*.P ` ( 3 K -.t - ( N.B.m.n.*.+.#.#.iXbX1XD.8.8.J.eXn.z.z...z.z..X@X4X^ O O O % # X   ",
"X X X O O O : :.r.s.w.w.e.P.I.sX_.OX%X$X7X0.g W ] - P 6Xd * ` 6X6X6XN.N.;.;.5XPXVXrXI.D.D.I.tX-.o.o.o.o.-.$.$.-.f O X O # X X X ",
"X X X O O O O h hXa.`.dXa.`.u.V V B >.>.e.q.M >.:.- h w.w = n e.r.w.I.{.{.{.{.#XcXrX@XU.w.@XpXeX=. X5X.Xd.d.;.$.6 % % O o X     ",
"X X X O O O o 0 gXu.).hXdXdXa.u.u.t.5.m ,.<.n m h 3 p C.u ; p.lXhXkX'.sX:XaX(.).dX(.P.p.5.sX).u.t.v t.t.V t.t.n = O X X o o X   ",
"X X X O O O = = 8.kXfXPXcXxXhXlXvXyXJXkX1X(././.2.4 I :Xs : OXPXvXPXLXvXlXcXzXlXkXsXy.p./.vXdXdXgX`.gXdX)._.i.q O O O X # X     ",
"X X X X O O O O s tXiXiXbXxXxXgXlXVXVXbXCXbXkXhX9.7 4.hXh 6 -XcXvXbXPXvXlXPXcXvXdX).y.5.^.`.`.`.`.a.a.hXsXdX5.; o O X X X X     ",
"X   X X O $ & & = 9.iXrXsXyXkXsXgXcXbXVXJXbXcXzX{.d [ rXW a {.+XhXxXcXpXbXPXvXxXxXU.,.,.OXdX_.).gXhXi.aXi.i.q O O X X o X X     ",
"  X X X o o O + O i &XrX1XtXuXrX9X&XuXiXiXuX%X$XI.:.q.oX] W k.wXcXfXpXpXpXBXyXcXrX3.9 9 OX(.'.).&XpXfXi.(.7.* O O O o X X X     ",
"  X X X X o . @ , 1 :.uXrX1XrXtX:Xp.aX&XeX8X%X+Xp.B B p.#X@X%XeX8X9X8XOXOXOXoX@XOX9.3.:.2.5.m w.r.<X&Xi.{.0 O O o o X X X       ",
"        o + < , l z z P.#XrXfXzX'.jX/.gXkXzXfXeX&Xq.y.).sX<X%X$X7XwX7XeX<X<X%X#X#X%X7X%X#Xr.q.@XP.w.q.r.h = O o o X X X   X     ",
"> > ; > < q z x c x x m m I.&XfX1X9XrXiXkXyX1X1X1XP.Y.jXY.gXfX9X9X&X&XuXiXtX1X:X&X&XxXuXeX%XOX+X(.$XOXQ : O O O O X X X X       ",
"l n m ,.<.7.2.q.2.9.w.q.q.oX7XqX%X@X(.i.r.$X%X%XOX|.eXwX%X$X9XuXxXaX&XaXaX#XP.rX8XuX+Xy./.+Xi.t.y.p.q.q + X % o X X   X         ",
"h k D.H.[.[.H.H.[.}.{.OXq.{.oX0X7XqX|.@XOX+XU.$X7XeXeXrX&XeXeX8X$X9X%XOXr.5.^.p.+XsXp.y.5.#XU.^.C.v c m z < 1 > X o X X .   @ + ",
",.l.k.j.H.j.7.,.3.H.{.w.:.w.9. XXXoXOXoXoX}.@X%XqXwXwX%XOXoX%X8X.X$X$XU.+X<X|.@XU.y.e.P.U.#XOXp.e.n x b 4.2.n p 9 1 < < > , 9 > "
};
