/* XPM */
static char *result[] = {
/* columns rows colors chars-per-pixel */
"64 64 161 2 ",
"   c #3F5B6B",
".  c #27547B",
"X  c #29567B",
"o  c #2E5A7E",
"O  c #315B7E",
"+  c #3A5F7A",
"@  c #3E617F",
"#  c #725C4E",
"$  c #495E66",
"%  c #51676C",
"&  c #5C696F",
"*  c #42647E",
"=  c #44687C",
"-  c #4B687C",
";  c #66737E",
":  c #2F5D80",
">  c #325E81",
",  c #385F81",
"<  c #366184",
"1  c #3A6486",
"2  c #3F6887",
"3  c #3D6788",
"4  c #3E6889",
"5  c #405F81",
"6  c #416485",
"7  c #436A86",
"8  c #4C6C85",
"9  c #426C8D",
"0  c #4F6D8D",
"q  c #536D81",
"w  c #596D82",
"e  c #536E8D",
"r  c #5D6B8D",
"t  c #47728E",
"y  c #55718D",
"u  c #5A7A8E",
"i  c #446E91",
"p  c #496F92",
"a  c #526D91",
"s  c #477193",
"d  c #4A7396",
"f  c #477598",
"g  c #4B7699",
"h  c #4D7B9C",
"j  c #517496",
"k  c #5B7897",
"l  c #54779A",
"z  c #537C9D",
"x  c #5B7D9D",
"c  c #666F89",
"v  c #687987",
"b  c #7A718D",
"n  c #666B91",
"m  c #6D7593",
"M  c #637D9D",
"N  c #6B7E9C",
"B  c #737E9D",
"V  c #7E7D9C",
"C  c #4F7EA0",
"Z  c #4E7AAB",
"A  c #517EA1",
"S  c #5B7EA1",
"D  c #617FA2",
"F  c #6B7EA0",
"G  c #767FA0",
"H  c #7B7FA1",
"J  c #95768E",
"K  c #9B748D",
"L  c #80759C",
"P  c #847D9B",
"I  c #8B7E9B",
"U  c #907890",
"Y  c #997992",
"T  c #957D9A",
"R  c #9B7E99",
"E  c #A2798F",
"W  c #B6798D",
"Q  c #A37C96",
"!  c #AA7E95",
"~  c #A47E9D",
"^  c #AC7E9C",
"/  c #B67D97",
"(  c #BC7D96",
")  c #B47D9B",
"_  c #B97D99",
"`  c #AC7FA0",
"'  c #C57B8D",
"]  c #CE7A8C",
"[  c #D27B8A",
"{  c #C07C94",
"}  c #54809E",
"|  c #5C819E",
" . c #61819E",
".. c #6C809F",
"X. c #728893",
"o. c #76809E",
"O. c #7B819E",
"+. c #75899E",
"@. c #7A8A9B",
"#. c #5581A4",
"$. c #5B82A5",
"%. c #5685A8",
"&. c #5C85AA",
"*. c #5C8AAD",
"=. c #5E8DB1",
"-. c #6583A2",
";. c #6A84A1",
":. c #6288A7",
">. c #6D8AA7",
",. c #6187AB",
"<. c #6A86AB",
"1. c #668AAE",
"2. c #698AAE",
"3. c #7685A2",
"4. c #7B85A3",
"5. c #7687A9",
"6. c #7987A9",
"7. c #738BAD",
"8. c #7989AA",
"9. c #6E91AE",
"0. c #7692AF",
"q. c #7890AD",
"w. c #668AB0",
"e. c #698BB1",
"r. c #728CB4",
"t. c #7B8FBA",
"y. c #6292B4",
"u. c #6C91B5",
"i. c #6593B9",
"p. c #6F96B9",
"a. c #6798BD",
"s. c #6B99BD",
"d. c #7390B7",
"f. c #7B92B2",
"g. c #719ABD",
"h. c #6D9DC0",
"j. c #739EC1",
"k. c #85829D",
"l. c #8B819E",
"z. c #818B9D",
"x. c #93819E",
"c. c #9C819D",
"v. c #A4809D",
"b. c #B99A96",
"n. c #B29898",
"m. c #8384A2",
"M. c #8B83A2",
"N. c #8386A9",
"B. c #8C85A9",
"V. c #868EAD",
"C. c #9482A2",
"Z. c #9A81A1",
"A. c #9287AD",
"S. c #8297B5",
"D. c #8691BF",
"F. c #A381A2",
"G. c #A880A0",
"H. c #C49D96",
"J. c #CE9F95",
"K. c #CDA095",
"L. c #8A90C2",
/* pixels */
"e.e.w.e.2.w.e.e.e.e.e.e.e.u.e.2.1.e.e.e.g.u.2.e.w.r.L.L.L.L.L.e.e.e.u.u.e.p.w.w.w.e.8.q.f.e.1.e.u.e.2.w.e.e.g.u.p.e.e.u.2.t.L.L.",
"e.1.1.e.w.e.e.2.w.e.u.e.r.i.e.2.w.e.2.e.u.e.e.w.1.r.L.L.L.L.L.r.e.e.j.j.g.u.1.e.w.w.e.e.w.2.e.e.e.e.2.w.2.e.g.g.e.e.e.e.e.t.t.D.",
"w.2.2.2.e.w.e.w.e.e.e.e.2.w.w.w.w.1.w.e.w.w.e.e.e.r.L.L.L.L.L.r.e.e.e.e.e.e.e.e.w.2.e.w.w.e.e.w.e.2.2.w.e.e.e.e.e.e.e.e.2.e.e.e.",
"e.e.w.e.e.2.w.e.w.w.2.e.w.w.1.w.w.1.w.w.1.2.e.1.w.e.D.L.L.t.d.e.2.0.w.e.,.$.%.,.w.w.w.2.2.w.w.e.e.e.w.e.e.,.%.%.$.%.$.,.1.e.e.2.",
"e.e.e.e.2.w.w.e.1.r.7.2.e.&.*.&.Z $.$.#.A ,.w.2.e.e.e.r.u.e.e.2.e.e.e.,.#.*.%.A %.&.2.2.e.e.e.e.e.e.e.2.e.&.%.%.z #.A *.e.w.2.w.",
"e.w.e.e.e.e.2.w.2.8.r.,.&.%.i.=.C *.*.h A %.,.2.e.e.e.e.e.e.e.e.e.e.e.&.%.s.=.A A &.2.w.e.2.e.e.r.u.e.2.e.&.w.&.#.&.Z ,.e.2.w.e.",
"2.w.e.u.e.e.e.e.e.e.e.%.C C A A C =.y.=.A ,.e.w.e.e.e.e.e.u.e.e.e.u.e.,.%.=.A A A A w.e.2.,.,.*.w.i.V.7.e.&.A %.A *.S &.e.e.e.e.",
"e.2.e.e.e.w.w.w.e.2.e.%.A A C C %.h.=.%.A &.e.e.e.e.e.e.e.e.e.e.e.u.e.&.#.%.C C A Z w.e.w.&.%.&.&.e.r.2.e.&.A A #.i.%.&.e.,.e.e.",
"e.e.u.e.2.&.A A ,.e.w.$.C C A C A =.%.#.C %.,.e.2.w.e.2.2.w.w.2.e.u.e.,.C C C C C #.w.w.e.&.%.&.&.,.w.w.e.%.C A A A #.&.1.e.w.e.",
"e.e.e.e.2.%.A C =.h.w.&.C A C A C C #.=.A &.w.w.w.w.2.e.w.2.e.e.e.e.e.,.%.h.*.C C #.,.%.%.#.#.#.&.&.2.2.2.*.A C A A C $.w.e.1.e.",
"e.e.w.e.2.Z A C =.=.&.%.A C A A C C C C A A #.#.Z 2.w.<.e.e.e.e.e.e.e.,.A i.=.A A A ,.A C C C A %.,.,.%.S A C A A C C #.w.e.e.e.",
"u.e.0.9.0.%.A A C A &.%.C C C C h h g g C C A C A w.w.w.w.w.e.,.,.&.,.&.%.a.=.A #.$.&.$.+.+.+.+.&.=.,.%.%.A A C C C A %.w.,.1.1.",
"e.w.u.&.A A C f f h &.%.A C f d g g g g g g g g l A e.e.w.,.%.A A A A %.A A C #.A #.&.@.K.K.J.H.<.,.,.A A C A A A C A A %.&.*.&.",
"w.w.*.x f C g i i g g g A g d d #.w.*.&.w.%.g d g z w.2.2.%.A A A C A C C A C #.#.#.&.4.b.b.b.n.<.,.,.#.C C C A C A A A &.&.&.&.",
"$.A d h g g f 4 3 4 i 4 f f f f g g l A A A f S D A w.2.w.S C l h A h A A C A A A #.&.S $.|  .$.%.&.,.Z A A C A A C A A &.&.%.&.",
"f i < 1 4 i i 3 < > > , < i f p p d f %.S A d <.f.S 1.5.,.A g g g g g h C A A C A A &.A h h h g z $.,.#.C C C C A A A A *.Z &.,.",
"4 < < < < 1 1 < > 1 1 1 1 1 3 s f s d d p d f Z D x 9.2.A l l g d d p g A A A A Z g g g d d d g d g g A z z g C A A C A &.&.&.<.",
"< > > > < > : o > , > , : : > i s d f f d d Z r.r.S $.&.l f g p d d g g g C g g g d d d d d d g w.%.i <.r.r.<.g C C C h A C C A ",
"< < , < < > > > > 1 1 > > > , i i s p s p d Z t.S.l p Z f i d f d d p f g g f g g d g d d d g d S C d A D -.S g f g g #.*.C d f ",
"< , > < < > < > > 1 > 1 4 4 4 f p i 4 p 9 i Z r.f.S A S l i p f C l g f A A A A Z d d s d d f p p d d <.f.t.7.g A l l A %.l d d ",
"> > : > < > O > > < < f D S g i i 1 1 1 > 9 f g g C S S C 9 d g w.*.g h A A A A g g p d d d g d d d d D r.2.D g x A S d d g d g ",
"< > > > < : o > > < < 1 , 1 1 4 3 > > > > 9 i i s s A S g i d f *.*.g d C g g g g g d d d d d d d d f S D S S d g p f d d f g g ",
"< > > > > O > : > , > > > > > 4 3 > > > > 9 i 9 i 4 S Z g i p g $.#.d d d d f d f d d d d g g d d d Z S D x S p d d d d d d d g ",
"< > < > > > > : > , > > > > < s i > > > > 9 i 9 i 3 i , 3 9 9 9 s d d d g p d d p f p p d s d s d l l d p i d f d d d d d d d d ",
"1 < < < > > : : > , , > > > 1 4 3 > , < > 1 3 i Z 3 > > , > f i 9 i d d i i A l 9 p f 9 g d S l f l p Z p g S g d i g d C S f f ",
"< < > > , : : > > , , > > > < > > > > < > > > 1 a , , , > > f i 9 1 s g 4 i $.A i S S g D D r.r.D S S D S S <.1.D i D D F r.<.D ",
"> > > > : : : > , > , , , 1 > > < < < > > > > > > 1 > > > > , , < < 4 g 4 i h g i i p M I H I I H p j P G N I A.P a B.A.A.A.A.A.",
"o o o o : X : : : : : : > , > > > > < > > > > > > > 1 > > > > > > > < 1 < < i 9 9 C S f g 1 Z S 9 , 3 9 , , d A ,.p <.2.7.2.D l ",
"o o o X o o : : : : X : X > > : : : : : : : : : > 1 > > > > > : > : : > : > > > 1 g S < o > > > > > > , > > , 3 S p ,.w.e.A 3 > ",
"o o : > : o : : : : : : X > > > : : : > : : > > > > > > > > > > > > > > > > > > < 1 1 , O : > > : > > > : 1 4 s C i C g S s : > ",
"> < , < , < < < > > , > , , , > > > , < > < < < 1 > , , , , , , , < , , < 1 < < 1 < 1 < < < < < , , < < < 1 , , , , , , 1 1 > , ",
"1 1 1 1 1 1 1 4 Z A A S A S C 6 1 1 1 1 < 1 1 6 Z S S Z A A A S A A S A A l A A l A x A l l l l x x l A l l S l S S l S S l l S ",
"S ,.,.S &.&.S S ,.e.e.e.w.w.1.&.$.$.$.$.,.&.$.&.1.1.1.9.1.1.1.1.e.2.e.e.e.e.e.e.1.e.e.e.2.<.<.3.4.4.6.4.m.B.m.B.Z.F.F.G.F.A.C.B.",
"V.N.N.B.N.N.N.6.N.8.N.N.8.m.N.6.4.6.6.6.6.8.8.5.<.2.2.2.2.2.2.2.1.1.1.1.<.<.2.2.2.2.7.6.6.6.6.4.4.m.@.m.M.M.C.C.Z.C.F.) ) G._ ) ",
") ) ) ) ) ) ^ ` ` Z.~ Z.F.` Z.m.m.m.m.m.4.4.4.4.3.3.3.3.3.4.6.4.4.6.4.3.3.3.3.3.3.3.4.4.4.4.4.4.4.4.3.m.4.4.C.C.C.C.C.C.C.G.G.G.",
") ) ) ) ) ` ` ` R ` R ` ~ Z.Z.` Z.M.m.M.m.m.m.m.M.m.m.m.m.m.m.m.I m.m.m.m.m.m.m.m.m.m.N.m.k.4.3.-.| M 4.F 3.Z.C.Z.Z.C.C.Z.` ` ` ",
") _ ) ) ) _ ` ) ` ) ) ) ) ) ^ ` ` T C.m.G 3.H M.C.x.C.C.C.Z.Z.Z.C.Z.M.C.C.C.C.C.T C.Z.T Z.Z.C.-.M ;.o.} h h I ) ) ) / ( ) ` ` G.",
"_ ) ) _ _ / _ _ ) ) ` ` ~ ~ ~ R C.M.m.F S -.S 3.m.m.M.l.x.M.C.l.l.M.M.M.M.l.k.C.M.3.;.m.M.M.M.M x S $.h h h H ~ F.~ ~ G.) ) ) ^ ",
") R ~ ) / _ _ _ / / ^ ) / / / / / / ^ G S G D D F V G.b./ / ! v.v.c.v.c.l.l.l.x.R x h D P G.^ ..#.#.h C C h A F N B ^ c.c.v.v.v.",
"_ I L ` ^ _ _ _ _ ( ( / _ _ ( ( _ _ ) B N L M C f N / ( ) ( ( v.H N H I o.o.O.c.~ x h h N l.I M #.} } h h h h h h x l.c.c.k.O.l.",
"` L I V U Q V P P I ^ ( ( ( ( ( ( ^ T B z z } h h N R R R ( R M z h h x #.|  .Q ^ k h }  .k.P S #.%.#.f } f } f h x l.v.T N  .o.",
"G -. . .F F l B F X.( ( ( { { ( { Q M l h h h h h h N N 3.k.l.h h h h h f f z ....x h #.$.+.X.x } h } } C C } h h z x M l h h h ",
"&.,.2.&.*.$.x M k ..c.c.R R R c.R P h h h h h h } h h } #. .I g h C h h f } h h f } } } %.} C } } f } } f } h } z } C h f h h } ",
"A A z #.#.A h h h N P P V V V P P N h h h h } h h h h h h x B h h h h h h h } h } h } h h h h h h } f C } } } } h h h h h h h h ",
"h h h z h } h h h x k M k | | k M h h h h h h h h } f h h h  .| z h h h h h h } } f h h f #.h h h } } } h } } } } } #.} #.h h h ",
"h M M  .M k z | h } } #.} h } h h h } h h f h h h h h h g z X.X.u h h h h h h } } } } f C 4 h h C f h C h h $.,.:.:.&.%.*.} } h ",
"V T P Y I Y P I h z #.#.} h h h h h h h h h h h h h h h h h #.} h h h h h h h h f } f h C f #.h h h h h h h h h h } h } } h h f ",
"N ..N B N N N N h h } h h h } g h h h h h h h h h h h h h } } } h h h h h h h z } f } h C f h C #.h h } h h h h h h h h h h h h ",
"h h h } } f } } } } } h h #.h f h h h h h h h h h } h h h h h h h h h h h h h h h h h h h h h h f } f #.h h h h h h } f } 4 #.#.",
"g h g g f f f f } f #.%.h 4 4 4 4 t t 4 4 s } } h h h h h h h h h h } h h h h h h h h h h h h z C h h f h } h h } f } } f } f h ",
"} f f t 4 t t 4 4 4 } 4 f f 4 4 9 2 4 9 4 s f f s h h h h h h h h h } x x } x | x } x | | | | | | | #.} | | | | } | | | | | %.} ",
"h t 4 2 4 3 3 4 3 4 4 4 4 4 4 4 4 4 4 4 4 4 2 4 3 f h h h z t d } } } z g z } } } | | } | } |  .:.| | | -. .+.>. ...;.;.>. .+.:.",
"f 4 4 4 4 4 4 2 4 4 4 4 4 4 - = t y 4 4 4 4 1 4 3 f } f f } t d | | | l h x $.x | -.-. .-.-.-.M | |  .-. .>... . .....-. . .;.:.",
"s 4 7 - ; t 3 2 7 4 4 4 4 4 & - y c 4 4 1 4 4 4 3 4 t 4 4 t 9 9 9 t t 9 4 s 9 s t s d d a d d 9 t t j N O.+.-.l j d k P @.+.>. .",
"4 3 2 8 - 4 2 2 ; 2 3 4 2 2 4 4 4 4 4 4 6 4 1 4 4 2 4 d d t t 4 4 3 3 4 4 7 4 4 1 4 7 2 3 p r 9 2 d t m Y N k s 4 4 e ! ! L z.l.",
"4 3 3 3 4 4 3 4 7 4 3 3 3 1 t t 4 4 4 4 4 4 4 4 4 4 4 g t d 9 2 1 1 1 1 1 4 4 4 7 4 4 2 , 9 i 9 2 4 9 7 7 9 4 4 4 2 e E ( H.' G.",
"4 2 1 @ 1 3 3 1 2 2 4 3 3 3 t 4 4 4 4 p 9 9 d 4 4 4 1 4 4 4 4 < < < < > : > < > , , 1 < < 1 < 1 4 4 6 1 4 4 4 6 4 4 e W ] ] ] K ",
"< < : @ : < 1 4 3 2 4 3 3 3 3 3 4 3 4 i 9 1 i 3 4 4 4 4 4 7 < > o o : : : o > > > , n a 1 > 9 1 4 4 4 9 4 4 4 4 4 4 0 W ] ] ] b ",
"o o o o o o : < 2 3 2 3 4 4 4 4 4 4 6 6 1 4 4 4 4 1 4 1 1 4 > o o @ o + o o > > : r L a 9 < 9 1 1 4 6 7 4 4 4 4 2 3 u ' [ ' J r ",
"o o o o @ 1 @ < 3 3 4 3 3 4 1 1 1 1 1 , 6 4 4 1 1 4 4 4 4 4 > o o & * c X o > o : : > 5 1 < > > , 3 w q 4 1 1 4 2 2 y Y E U 9 4 ",
"o O o O % - 7 O 3 3 3 3 3 3 3 O O o : : > , 1 , < , < 4 4 1 > o o @ O @ o o o O : : : , 3 , > , 3 3 4 4 4 4 1 4 4 4 4 7 7 4 4 4 ",
"o o o o o o @ O 3 3 3 3 3 3 4 : O o o o : > , O > o : , 4 4 > o o o o o o < o o : : : : : : > > < 4 4 3 4 1 4 4 4 4 1 4 4 4 4 4 ",
"o o o X 8 O X o 3 3 2 3 3 3 1 O : o O o : X o o o o : > 1 1 + o o o o X = v o o : : > 4 1 1 4 > > 4 4 1 4 4 4 4 4 < < 4 4 4 4 1 ",
"o o X o 8 O X o 1 2 2 3 3 3 1 : X o o : X $ #   . . . : 4 1 o X o o X X @ = o o : : : > > : > > 1 1 4 4 4 4 4 4 < > > < > > < 1 "
};
