/* XPM */
static char *bcb0eed11d4145f6adbbd9ca92095849QtqR55cUHeJ5573S[] = {
/* columns rows colors chars-per-pixel */
"64 64 164 2 ",
"   c #02141B",
".  c #051A1E",
"X  c #0D1E1F",
"o  c #041C22",
"O  c #0C1D23",
"+  c #051F28",
"@  c #0B1F29",
"#  c #121D25",
"$  c #131E29",
"%  c #361722",
"&  c #022026",
"*  c #0D2324",
"=  c #02242B",
"-  c #0C222D",
";  c #03292F",
":  c #112424",
">  c #122826",
",  c #192B26",
"<  c #13212D",
"1  c #1A222E",
"2  c #132C2A",
"3  c #1B2D2B",
"4  c #14302C",
"5  c #19332E",
"6  c #032730",
"7  c #0D2531",
"8  c #022932",
"9  c #0A2A36",
"0  c #0E2B38",
"q  c #132432",
"w  c #1C2736",
"e  c #122A37",
"r  c #1A2B36",
"t  c #152C3B",
"y  c #1A2D3E",
"u  c #1B3530",
"i  c #1E3B35",
"p  c #1D313B",
"a  c #26222F",
"s  c #2C2331",
"d  c #292836",
"f  c #242E3E",
"g  c #2C2C3E",
"h  c #223E37",
"j  c #213F3B",
"k  c #50111E",
"l  c #640E1B",
"z  c #471220",
"x  c #4F2539",
"c  c #572438",
"v  c #204236",
"b  c #25443B",
"n  c #2A463D",
"m  c #2B4C3D",
"M  c #1E2E41",
"N  c #1F3044",
"B  c #212F43",
"V  c #2E2F42",
"C  c #322E41",
"Z  c #3F2F44",
"A  c #243145",
"S  c #293146",
"D  c #273348",
"F  c #2C3349",
"G  c #343144",
"H  c #3A3245",
"J  c #34354C",
"K  c #3A364E",
"L  c #313F4F",
"P  c #3B3750",
"I  c #363D52",
"U  c #3D3851",
"Y  c #4C2E43",
"T  c #5C2F47",
"R  c #5E2F4A",
"E  c #44344C",
"W  c #4B344C",
"Q  c #56304A",
"!  c #443650",
"~  c #4A3651",
"^  c #443A54",
"/  c #4A3B55",
"(  c #4D3C59",
")  c #553551",
"_  c #593653",
"`  c #533A54",
"'  c #593955",
"]  c #543F5D",
"[  c #5B3D5C",
"{  c #62324D",
"}  c #603A55",
"|  c #6B3B57",
" . c #623E5E",
".. c #6D3B5E",
"X. c #753D5D",
"o. c #7A3A5F",
"O. c #643F60",
"+. c #6C3E61",
"@. c #743E62",
"#. c #7B3E63",
"$. c #2C4C42",
"%. c #304E45",
"&. c #2F5143",
"*. c #315443",
"=. c #345A46",
"-. c #375C4A",
";. c #395E48",
":. c #3E644C",
">. c #444557",
",. c #4A445A",
"<. c #55415E",
"1. c #65405C",
"2. c #416A4F",
"3. c #5F7644",
"4. c #436D51",
"5. c #477153",
"6. c #617745",
"7. c #5E4F67",
"8. c #4E5C65",
"9. c #535666",
"0. c #56586A",
"q. c #674161",
"w. c #6B4062",
"e. c #724366",
"r. c #784367",
"t. c #7B466A",
"y. c #8B3650",
"u. c #913753",
"i. c #973953",
"p. c #833C62",
"a. c #8A3D66",
"s. c #913D67",
"d. c #943E68",
"f. c #9A3D69",
"g. c #894065",
"h. c #8C476E",
"j. c #8F486E",
"k. c #93496F",
"l. c #8F4970",
"z. c #9D4770",
"x. c #944970",
"c. c #A1416D",
"v. c #AB4572",
"b. c #A54D75",
"n. c #AB4B75",
"m. c #B04775",
"M. c #B54B78",
"N. c #B84B79",
"B. c #B75079",
"V. c #C04E7E",
"C. c #6A8247",
"Z. c #6D854A",
"A. c #72864A",
"S. c #7C944F",
"D. c #839851",
"F. c #CE5585",
"G. c #D15687",
"H. c #D45788",
"J. c #D65889",
"K. c #D9598B",
"L. c #DD638C",
"P. c #E3648F",
"I. c #F47B97",
"U. c #F9819A",
/* pixels */
"f.f.B.I.U.P.m.F.K.h.@.#.k.h.@.+.] ] ] U ] ] U G P F F B F F K J N D ( ] ] ] [ a.#.@.d.@.#.+.] ] ] F A B B B B B B B F ( O. .[ ] ",
"f.f.M.I.I.L.m.F.K.j.O.+.t.r.+. .] ] ( J ( ] ! ! [ P P S J P _ ~ B D ( ] ] ] ] a.#.@.d.#.#.+.] ] ( F F F A D F D D B A [ @.+.O.<.",
"f.f.n.P.P.K.F.H.H.l.+.@.@.+.] ] ] ] ( K ^ ] U J ~ J F B F F J F B D U ~ ^ ! ( O.' [ +.] [ _ ^ ] ] F J J F D P J D M D ( [ <.] <.",
"f.f.v.G.K.K.K.K.K.l.+.w.O.O.] ] ^ P P P P U F ! _ K P A J K J J B A D F K K F K J G P P F K J U ( F N A N A N A B B D ] @.@.O.<.",
"f.f.v.H.K.K.K.K.H.x.j.x.<.] ] ] U U U U U P F F P F K A ! ~ J F B D P J ^ U K ^ ^ J ~ U 0.7.^ F P J F F D D J F A B S ( O.O.[ <.",
"f.f.v.H.J.K.K.K.H.j.q.q.] ] ] U D F D D D F B F J J K A ~ ~ K J B B D D F F D D F D F F %.I S A F D J K F D J J S B S ] +.O.O.<.",
"| a.v.G.V.M.N.M.z.[ / ] ] <.] U B B N N B N N F P ~ ~ S F J A B B N A ^ ( ( / F S ~ ( ( ] K S ^ ^ F D A B B M M B M V ( O.O.[ <.",
"F  .v.F.v.f.f.s.' F ^ ] ] ] ] U A B N N B B N F J P ~ A F F B B N B F (  .@.[ U J ] [ @.] ( ` 1.] J J B 1 q < < q q q g C V V J ",
"K o.v.G.v.f.f.f.+.F ^ ] ] ] ] ^ A M M N N N B F P J P A N N M M B B F ( | u.( P J ^ } i.( ! y...] F B < @ @ @ $ q q w V C V V G ",
"E a.v.G.v.f.f.f.p.K ( ] ] ] ] P A M A N B B M F F F F N A N A N N B D ^ F B B A B A B F A M V J ( F q O o O O o O @ O # # $ $ 1 ",
"! p.e.b.v.f.z.f.p.J ~ P U 7.] P M y y e M t M t M t y t t M y y t M M F M t t y t M M t y y y A J M @ o                       O ",
"f W f W } Q ) ) W y S 0 y F { T 9 9 9 8 9 8 e c w 8 9 x d 8 8 8 6 6 9 6 9 8 8 9 8 8 9 6 9 8 8 8 t 9 o                         O ",
"J W g / ` W W W E p S t y 7 z z + + o + & O $ l $ O @ k % + 6 8 6 8 8 6 8 8 8 8 8 8 8 8 8 8 8 8 6 8 +                         O ",
"1.a.E k.v.f.f.f.o.J / A J $ O * * .   o .                 o 6 8 8 8 6 8 8 6 8 8 8 8 8 8 8 8 8 8 6 6 +                         # ",
"H ` G k.m.o._ _ E y F t y O i &.&.O 7 7 <                 o 6 8 8 8 8 8 8 8 8 8 8 8 8 8 ; 8 8 8 8 8 +       > > O     h m >   O ",
"f G f 1.o.W S G f e y e t . * 2 > O o o o                 o 8 6 6 8 8 8 8 8 8 8 8 8 8 8 8 8 ; 8 8 6 o     @ -.2.>     n 2.1   # ",
"8 8 8 9 9 8 8 9 8 8 8 8 8 o                               o 6 6 ; 8 8 8 8 8 8 8 8 8 8 8 8 8 8 8 6 8 +     o m =.*     $.:.5   O ",
"9 9 0 p 0 0 e 0 9 0 9 0 9 o           o o                 o 6 8 8 8 8 9 8 6 9 8 8 8 8 8 8 8 8 8 9 8 o     O -.:.2   . h *.>   # ",
"^ ^ q.b.g.o.X.( ^ ^ ^ ~ U $ @ 7 q o @ - <                 O t y y 8 9 S y 0 t 9 8 t t y t 8 9 M J M -     . * - .             X ",
"<.<.t.G.m.f.g.1.] ] ] ] ( $ o @ O   O @ @                 o M B M 9 9 y 9 9 0 6 9 y M M M 8 9 0 M 0 +                         # ",
"7.( t.F.v.f.s. .] 7.( ] ( <                               O y M M 9 0 J B y y 9 6 y B M y 8 9 F ^ A @                         O ",
"` <.t.F.v.f.d.<.] ] ] ] ( $                               @ y B M 8 9 F B B B 9 8 y B M M 8 0 J ( F -         o       > , O   X ",
"] ] t.F.v.f.d.O.] ] ] ] ( $ O > <   o O o                 O M M M 9 9 M B B B 0 9 y M M M 8 0 F U A 7     O $.=.:   o %.5.u   # ",
"] ] t.F.v.d.s. .] <.] ] ( $ i *.*.* - q <           o     @ y M M 8 6 y M B M 9 8 M B B M 8 0 B A M q     O $.;.*   o j =.>   X ",
"] ] t.F.v.f.s.O.] ] ] ] ( $ O * *   o O .       + + + o + & 7 q - + o - q M N 0 8 M A N M 6 0 M D A 7     O =.:.>   o %.4.5   O ",
"( ] e.M.c.f.s. .] ] ] ] ( $                     o o o . o O 7 7 - + + - - r M 9 8 y 8.9.A 8 0 D 8.,.q     O j n *     @ > O   X ",
"] ~ E R R R Q Z J C C G C #   o .   O * O       o         .   o 3 , , O o O e 9 6 t L ,.F 8 0 N >.^ q                         # ",
"] K Z W Q R Y C C V V V C $ @ - q . n &.m                     , D.Z.Z.3   & 7 0 8 0 y p t 8 9 t p A -                         X ",
"^ w $ s s s a < 1 $ $ q $ # o O O   > 3 2 o                   : Z.3.6.3 o o 7 0 8 9 e 9 0 8 8 0 9 9 -                         # ",
"d + o o o o o o + +                                             X X O     o 7 6 8 9 9 9 9 8 8 9 9 9 &       2 u O   o j ;.2   X ",
"d o o o o o o   o o                                             X X O     . & 8 8 8 8 ; 8 8 8 8 8 8 +     O -.2.>   O $.:.5   X ",
"                              o o     o                       : A.6.6.> o + 7 9 8 8 9 9 8 8 0 8 9 9 &     O $.*.*     m 2.5   # ",
"                            O O < o @ #                       X S.C.6.d . o = 9 8 8 9 9 8 8 9 9 8 8 +     O =.:.>   . i m >   @ ",
"                            o   @   O O X                       > : : o . o e y y 9 t p 0 0 M 0 9 M -       O *               O ",
"    > > $ > o                                                           o o e y N 9 y N 0 M M M 0 M 7                         X ",
"  * *.n m *.#   O O                                             : : 7 @ o o r y e 8 9 9 9 8 8 9 9 9 +                         # ",
"    o   o o                                                     7 $ < O o o w y ; 8 8 ; 8 8 8 8 6 8 +         O       2 5 *   X ",
"    O @ @ @     o                                               o           w t 8 8 8 8 8 8 8 8 8 8 o     o *.;.:   o $.2.5   X ",
"    < - < q o   o O                                                       o t t 8 8 ; = = = 6 8 8 6 +     o *.;.>   . b =.3   # ",
"o                                                                           e M ; & + + & + + = 8 8 +     O -.2.>   . $.2.5   X ",
"@ @       .                                                                 w t 6 + 6 6 ; = & = ; ; O       h b O     O *     # ",
"O 7                                                                         t t 6 + = 6 8 8 & = ; ; &           o             O ",
"y r .                                                                       t t 8 = 6 6 8 & o 4 v v X                         X ",
"y r                                                                       o < q = + + = & + . . o O                           # ",
"o   .   . o   .                                                             O o o o o o o       . .                           X ",
"                                                                            @ @ o o       o o + o + .                         X ",
"                                                                            q t 6 6 +   o = 6 8 8 ; +                         X ",
"                                                                            w M 6 6 =   + 6 8 8 8 ; +                         # ",
"  o                                                                         t y 8 8 & . & 8 ; 8 ; 8 +               o         # ",
"                                                                            e t 8 8 =   + 8 = 8 8 8 o                         O ",
"                                                                          o w y 8 8 = . & ; 8 8 8 8 o                         X ",
"                                                                            e y 8 8 =   + ; 8 8 ; ; +                         # ",
"                                              .                             - @ & & +   o & & + & & o                         X ",
"  o o     o .     o             . . . .   . . .     .   .             o .     o .   .     . o . . .   .         o   o         O ",
"o o o   o + o o o o o o o o o o . . . . . . . .     . o o o o o o o o o o o = = 6 = & o o = = ; = = & o o o o o o o o o   o o # ",
"o     o   o   . o     o .       . . .   . . . .     . .   .   .   o     . o & 8 8 8 = o + 8 8 8 8 8 +     o   . .     . .   . # ",
"& . . . . X . . . . . . . . . . . . . X X . X . . . . . & . . . . . . . . . & 8 8 8 ; & + = 8 ; ; 8 = . . & . . o . . . . . . > ",
"X . . . . . X X . o X . . . . . . . * . & . . . . . . . . . . . . . . O . . & ; 8 ; = & o 8 8 ; ; 8 = o o & . . o o . . . . . : ",
". . X . . . . . . . . . . . X . . . . X . . . . . X . . . . . . . . . . . . = ; 8 8 ; o & 8 8 8 8 6 & . . o . X . . . . . . . > ",
". . . . X . . . . . . . . . . o . . . . X . X . . . . . X . X . . . o . . & ; ; 8 8 * . = 8 8 8 8 = o . . . . . . . . O o . . : ",
"X X . X . . . . . . . . . X X . X . . . X X . X . . . X . . X . . . . . . & ; ; 8 8 & o 8 ; ; 8 8 = o . . . . & . . . . . * . : ",
". . . . X . . . . . . . . . . . . . X . . . . . . . X . . . . . . X . . . . = 8 8 ; & & & ; 8 ; 8 8 + . . . & . X . . . . . . : ",
". . . . . . . . . . X . . . . . X . . . . . . . . . . . . . . X . . . . . . & = = & o . o & ; = = = +   . & . . . . . . . . . : ",
". & . . & * . . . . & . . . . . . . . X X . . X . . X . . . . . . . . . X . . & o o o o o O . . & o o . . . . X . . . . . . . : "
};
