/* XPM */
static char *_b33a76e442b4104b417668d12436c4dP7sJKa8HFddVI5PG[] = {
/* columns rows colors chars-per-pixel */
"64 64 161 2 ",
"   c #02151B",
".  c #08171E",
"X  c #041A1E",
"o  c #08191F",
"O  c #031C22",
"+  c #0A1C24",
"@  c #0B1E28",
"#  c #161E27",
"$  c #111F2A",
"%  c #032027",
"&  c #0C2326",
"*  c #02242B",
"=  c #0D222D",
"-  c #01282F",
";  c #10222D",
":  c #1A222B",
">  c #132C2A",
",  c #16312D",
"<  c #18332F",
"1  c #042730",
"2  c #0B2531",
"3  c #012931",
"4  c #0B2A35",
"5  c #0E2B38",
"6  c #132533",
"7  c #1B2635",
"8  c #142936",
"9  c #142C3B",
"0  c #1A2D3D",
"q  c #173630",
"w  c #1C3532",
"e  c #1E3B33",
"r  c #1B303E",
"t  c #21212D",
"y  c #2A2A2F",
"u  c #232837",
"i  c #2E2B35",
"p  c #212C3C",
"a  c #2B2B3D",
"s  c #372738",
"d  c #322B3D",
"f  c #3D2B3D",
"g  c #213D35",
"h  c #233D3A",
"j  c #373B3D",
"k  c #592838",
"l  c #25443A",
"z  c #29423F",
"x  c #29483B",
"c  c #1E2E41",
"v  c #212F43",
"b  c #2C2F41",
"n  c #352D41",
"m  c #233143",
"M  c #2B3145",
"N  c #263A43",
"B  c #293C46",
"V  c #2D3349",
"C  c #2B3E4A",
"Z  c #343144",
"A  c #34354B",
"S  c #3A364D",
"D  c #39384E",
"F  c #3C3751",
"G  c #3E3851",
"H  c #462E41",
"J  c #4C2C42",
"K  c #542E45",
"L  c #43344B",
"P  c #4B344C",
"I  c #5A3242",
"U  c #52354A",
"Y  c #413751",
"T  c #423A53",
"R  c #493C57",
"E  c #4D3D5A",
"W  c #5D3753",
"Q  c #543B56",
"!  c #5B3B57",
"~  c #533F5D",
"^  c #5B3E5C",
"/  c #623044",
"(  c #68354B",
")  c #753647",
"_  c #693757",
"`  c #623E5E",
"'  c #6C3C5D",
"]  c #7D365A",
"[  c #743B5E",
"{  c #7C3B5F",
"}  c #653F60",
"|  c #6B3E61",
" . c #733E62",
".. c #7C3E63",
"X. c #2B4244",
"o. c #2B4843",
"O. c #2C4048",
"+. c #32454B",
"@. c #364F4E",
"#. c #2E5140",
"$. c #315144",
"%. c #375C47",
"&. c #35524C",
"*. c #39524F",
"=. c #395D49",
"-. c #364C57",
";. c #3C4854",
":. c #374858",
">. c #3A5450",
",. c #53415D",
"<. c #53485D",
"1. c #53555C",
"2. c #535B5C",
"3. c #6D425F",
"4. c #40684E",
"5. c #436D51",
"6. c #52645B",
"7. c #53695C",
"8. c #564661",
"9. c #475C61",
"0. c #4D5862",
"q. c #565463",
"w. c #525D6B",
"e. c #674263",
"r. c #694263",
"t. c #724263",
"y. c #7B4065",
"u. c #7C466A",
"i. c #6F546E",
"p. c #7F5B76",
"a. c #686A73",
"s. c #79667D",
"d. c #8D3E5D",
"f. c #843D64",
"g. c #8A3D66",
"h. c #923E67",
"j. c #943E68",
"k. c #9A3D69",
"l. c #824166",
"z. c #8D446C",
"x. c #84486C",
"c. c #95436C",
"v. c #9B436D",
"b. c #934A72",
"n. c #994C74",
"m. c #845572",
"M. c #A3426E",
"N. c #A94773",
"B. c #A44872",
"V. c #AC4976",
"C. c #B64978",
"Z. c #BC4C7B",
"A. c #AE5079",
"S. c #BC517E",
"D. c #9E607F",
"F. c #737181",
"G. c #C65583",
"H. c #CE5585",
"J. c #D05586",
"K. c #D65889",
"L. c #D9598B",
/* pixels */
"k.k. .` f...| ~ 0.6.7.<.~ ~ ~ ~ ~ ~ E ~ ~ ~ ~ ~ ~ ~ } | g.j. . .h.j. . .N.b.} ` ` 8.^ ^ ~ ~ ~ ~ ~ ~ ..k.g.| h.k.k.k.M.J.L.L.L.K.",
"k.g.3.^ | | | ~ 1.2.2.<.~ ~ ~ ~ ~ ~ ~ ~ ~ ~ ~ ~ ~ ~ t.| c.c...p.D.j.l...V.n.y.....r.~ ~ ~ ~ ~ ~ ~ ~  .h.f.| h.k.k.k.M.H.L.L.L.L.",
"j...` ~ ~ ~ ~ ~ ^ ~ ~ ,.~ ~ ~ ~ ~ ~ ~ ~ ~ ~ ~ ~ ~ ~ r.} y.f.3.i.m...t.t.c.x.} ` ` ^ ~ ~ ~ ~ ~ ~ ~ ~ | f.g.| j.k.k.k.M.H.L.L.L.L.",
"k.f.} ~ 8.^ ^ ~ ,.,.,.,.~ ~ ~ ~ ~ ~ ~ ~ 8.~ ~ ~ ~ ~ | | g...^ 3.....| r.z.u.~ ,.~ ~ ~ ~ ~ ~ ~ ~ ~ ~ r.h.g.| h.k.k.k.M.H.L.L.L.L.",
"k.k.| } ....| ^ 2.6.6.<.~ ~ ~ ~ ,.~ E ~ ,.,.' d.^ ^ | | f.[ d.3.~ ~ ~ ~ ,.~ ~ ~ ~ ~ ~ ~ ~ ~ ~ ~ ~ ~ f.k.g.| g.g.[ g.M.H.H.Z.Z.Z.",
"k.j.| ^ | | | ~ 1.1.2.8.,.~ ~ ~ ~ ~ ~ ~ E G U ) A A S S P P ) L E ~ E ~ E 8.~ ~ ~ ~ ~ ~ ~ ~ ~ ~ ~ ~ ..k.g.} f.^ Z ` v.J.C.k.k.k.",
"j.f.} ~ ~ ~ ~ ~ ~ E ~ ~ ~ ~ ~ E ~ ~ ~ ~ ~ r 3 - 1 1 3 1 - 3 1 9 R ~ ~ ~ ~ ~ ~ ~ R Y R ~ ,.~ ~ ~ ~ ~  .g.g.| g.` A _ M.J.Z.k.k.k.",
"' ! F F F G D F G G G A D D R ~ ~ ~ ~ ~ ,.0 3 * 1 3 3 3 - 3 3 8 R ~ ~ ~ ~ ~ ~ E A c D ~ ~ ~ ,.,.~ ~ | f.g.| j...Y f.M.J.Z.k.k.k.",
"S U ( v 9 V 9 c c c v 9 v 9 A E ~ ~ ~ ~ ~ L I 2 3 3 3 3 3 - 3 4 R E E E ,.,.,.~ D m G ~ ,.,.E E ~ ~  .g.g.' j.f.Y f.c.S.C.v.k.k.",
"7 f / u 6 0 6 2 6 2 = @ ; ; 7 a a b a a a s k = - 3 3 3 3 3 3 4 F c m T R R E T T V T T R G 0 M R R ' f.{ ^ ..' S [ L ! c.g.d.f.",
"+ @ ; $ $ $ @                                 . * - - 3 3 3 3 3 9 4 4 9 9 9 0 r r 5 0 c r 5 4 9 c 0 v b b v b b 0 b 0 p A b b b ",
". O                                             O - 3 3 3 3 3 4 9 9 5 9 0 r m T G V T T c r 9 V T R _ d.' ! { { ! { L ! v...d...",
"  O                 O O O             O O O X   X * 3 3 3 3 3 4 m 0 r m m m A ,.,.A ,.E m m 0 D ~ ~ f.k.l.| g...^ ..P t.C.k.g.f.",
"  O         O @   O O * O X > x w O . O * O O   O * 3 3 3 3 3 4 r 0 9 c m a A ,.E A E ,.m m 0 D ^ ~ f.k.f.' W Z b L b 3.Z.g.P L ",
"  O       O 1 = O   O O O   w 5.&.+   O O O     O * 3 3 3 3 3 4 0 9 9 r 9 r r m m r m m 9 9 9 r V V S P L A M p 0 v 0 A ! L b b ",
"O         O * *             q =.o.O             O 3 3 3 3 3 3 3 3 3 3 3 3 3 - - 3 3 3 3 3 3 3 3 3 3 3 3 3 3 - 3 - - 3 1 3 1 1 1 ",
"O O       O * *             w 4.@.O             O * 3 3 3 3 3 3 3 3 3 4 3 3 3 3 3 3 1 1 3 4 1 3 3 3 4 3 1 5 4 1 c 4 c v p 0 0 9 ",
"O             O               + +               O * 3 1 3 3 3 3 3 3 3 3 3 3 3 9 c c c c c v c c m m c v v c V A R R 8.A.B.f.f.[ ",
"  O           O                                 O 1 3 1 3 3 3 3 3 3 3 3 3 3 1 9 c c c c V F V c D F v F F M V F ~ ~ e.G.Z.k.k.f.",
"O O                   O                         O 1 3 3 3 3 3 3 3 3 3 3 3 1 1 c c c c c c V v v v V v v M v V G ~ ~ e.G.Z.k.k.f.",
"  X                 O O O     O       O   O       O O 1 * * * O 3 3 3 3 3 3 3 c c c c m v v v v A D v A A v A R ~ ~ r.G.Z.k.k.f.",
". O       , $.w   O O O O   O O O O O O O O O   O O O O O O O @ * 1 3 3 3 3 3 9 c c c m v v v v V V c V A m V R ~ ~ r.G.Z.k.k.f.",
"O O       z 4.X.  O O O O   O 1 * O     O O       O   O O O   O O 1 1 3 3 3 1 5 2 6 c c v v c v V V c V V c V F ~ 8.r.G.Z.k.k...",
"  O .     h =.h             O O * O                               O 3 3 3 1 1 5 @ 2 c c v v c c A F v F F V M F ~ ~ r.G.Z.k.k.f.",
"  O       l 4.h O           O O * O                 , g g w       O 3 3 3 1 1 0 6 7 c c c v c c v v c M V v M A ~ ~ } S.C.k.k.f.",
"  O       . + .                                     > g < :     O O 3 3 3 4 0.w.6 6 c c v c v a.:.c c c c c ;.F.8.R Q { ] ] ] _ ",
"  O                                                               * 3 3 1 5 9.-.6 c c c v c V w.V c c v c c q.s.~ Y n H K J J H ",
"  X                                                               O 3 3 3 * * 9 6 c v c V c 5 c c c v v c 0 n ~ ~ A d J K J J J ",
"X O           O   . O O O O           O O O                       * * * * * * 5 2 6 c c 7 c 2 7 c 0 0 8 0 6 a F Z = + + @ @ @ + ",
"O O         O *   O * O O O O O @   O O * O O                     O O O O O O @ ; = @ = ; ; = 2 ; ; 2 2 6 @ u a a @ O O O O O O ",
"  O       O * * O   O O O   O * * O     O O                       X   O   O   O + + + + O O O @ + + + + O + # $ : .         O . ",
"          O * @             O O * O                                                                                             ",
"          O O @               * * X                 e l e ,                                                                     ",
"                                                    > , > #             O                                                       ",
"                                                                      O * * O 2 @ .   O ; 6 6 6 6 +     @ 6 @ O     > > & , #   ",
"                                          .                         O * 1 3 1 c 9 +   6 c c m v v 6   O 0 c 0 O   O #.#.l %.<   ",
"                    O O O         .   O % X                         O 3 1 3 3 9 9 @   6 9 c c c c 6 O O 6 c c O     O X o o X   ",
"          O * *     O * * O   * * O O O * O X                       O 3 3 3 3 3 1 O   * 3 3 3 3 3 1   O 1 1 O O     + + + @ +   ",
"          O * *     O O     X % * O     .                           O 3 3 3 3 3 - O   % 3 3 3 3 3 O O O 1 3 1 O     2 2 = 6 =   ",
"          O * *             X O * O                                 * 3 3 3 3 3 3 O   * 3 3 3 3 5 5 O O 1 1 2 ; +         X .   ",
"            O 1                 = O                                 * 3 3 3 3 3 - O   * 4 4 4 5 c 9 = @ 2 9 0 9 @ +             ",
"                                                                    O 3 3 3 3 3 * O   2 m O.O.O.O.O.C X.B V 6 @ + @ X           ",
"                                                                    O 3 3 3 3 3 1 O   1 O.>.>.@.*.*.*.*.&.+.6 & $ 6 X           ",
"                                                                    O 3 3 1 3 1 * O   2 c c m c m m m c v m B B N m +           ",
"                                                                    O O O O O O O     O @ @ @ @ @ = @ @ @ + @ = = = X       X   ",
"                                                                          O O   X   O     O       O   X     . X                 ",
"            .                     .                 . .             O * * * * * O       O * * * * *                             ",
"            j i                 O k #             . j t             O 3 1 3 3 3 *     * 1 1 3 3 3 *                             ",
"            O +                   +               O @ .             * 3 3 3 3 3 - O X * 3 3 3 3 3 * X                           ",
"            O                   O O             O   O               O 3 3 1 3 3 - O   * - 3 3 3 3 *                             ",
"            O                     O                                 O 1 3 3 3 3 - O   % - 3 3 3 3 *                             ",
"          O O O                 O O                 O X       O   O * 1 3 3 3 3 * O X * 3 - 3 - 3 *                             ",
"  O O O O O O O O O O O O O O O O O O O O % % O O * O O O O O O O O 1 9 5 3 3 3 3 O   % - 3 3 - 3 -                   O         ",
"    O O O O O O O O O O O O O O O O O O O X X   O O O O O O O O O O O 2 2 * * * O O   O % % - % * O                             ",
"  O     O   O                 O   X           X           O     O   O       X   X       X X X X   X   O                         ",
"O O O O O O O O O O O O O O O O O O O O O O O O O O O O O O O O O O O O O O * * * O O % * * - - * O O O O O O O O O O   O O     ",
"X X X X X X X X   O O     O     X       X   X     X       X X X       X   X * - - O X * - - 3 3 - % X X X X X X O   X X X X X X ",
"X O X & O O O O O O O O O O O O O % % X % O % O O O % % O O X O O O O = * * * - - % X % - - 3 3 - - X X X & X X O O X o X X X X ",
"% % % % % % & * O O * O O O @ * % & % % % % * % * % & % % % % % O O * - 3 3 3 3 - % X % - 3 3 3 - - X X X X X X X X X O X X X X ",
"X X X X X X O O O O + O O X X O % % X X O X X X o O O O X O + X O O O - 3 3 - - - % X % - 3 3 3 - - X X & X & X . X X X X o o o ",
"X o X X X O O O X X O X O o X o % X X X X X o X X O X X X % X X X o O - 3 3 3 - - X X - 3 3 3 - - % X   X & X X X X X X X X X X ",
"X X X X X % o X O & X X O O o O O X X X X X o X X & O O & X X X X + - - 3 3 3 3 % X O - 3 3 3 - - & X   X X X X & X X X X & X X ",
"X X X o X & & o O O X O & X X O & # + X X & o X X & & & X O X X X & * - - 3 * 3 * X & - 3 3 - - - % X   X X X & X X X & & X X X ",
"X & X X X O y t X X O X O X o X & i & X X X % X X o y t X X X O X X * * 3 3 1 3 - X X - - 3 - - - % X   X X X X X X X X X X X X "
};
