/* XPM */
static char *result[] = {
/* columns rows colors chars-per-pixel */
"64 64 192 2 ",
"   c #BA8064",
".  c #B1896F",
"X  c #C78363",
"o  c #CD8F70",
"O  c #D79671",
"+  c #D89971",
"@  c #E89A7F",
"#  c #7BADF6",
"$  c #76B3F6",
"%  c #7BB4F5",
"&  c #7EB9F6",
"*  c #7FB3F8",
"=  c #7DB9F8",
"-  c #B39783",
";  c #AEA5A4",
":  c #B5A9A0",
">  c #BEBCB8",
",  c #C2A88B",
"<  c #DAAD84",
"1  c #D8A088",
"2  c #DAB38A",
"3  c #EBA081",
"4  c #EAAE8A",
"5  c #EEB38A",
"6  c #F0B88E",
"7  c #E9BB97",
"8  c #CEAFA4",
"9  c #D6B5A5",
"0  c #DCC195",
"q  c #E6C699",
"w  c #EFC99C",
"e  c #F1C295",
"r  c #F2C498",
"t  c #F2CA9A",
"y  c #F6D99F",
"u  c #D2C5BE",
"i  c #E7CBA8",
"p  c #F3CDA1",
"a  c #EED4A7",
"s  c #EDD3AA",
"d  c #F3D2A4",
"f  c #F6DDA4",
"g  c #F8DFA6",
"h  c #F4DCAA",
"j  c #F8DFA8",
"k  c #EBD5B2",
"l  c #EDD9B7",
"z  c #F4DEB1",
"x  c #F7E0A7",
"c  c #F8E0A7",
"v  c #F7E1AA",
"b  c #F8E3AD",
"n  c #F7E2B2",
"m  c #F9E5B3",
"M  c #F9E8B5",
"N  c #F8E7B8",
"B  c #FAEABA",
"V  c #81ADF3",
"C  c #81B4F6",
"Z  c #84BCF6",
"A  c #89BEF7",
"S  c #82B6F8",
"D  c #86BBF8",
"F  c #88BEF8",
"G  c #93BDF4",
"H  c #85D3DF",
"J  c #87CFE2",
"K  c #89CFE3",
"L  c #86D2E1",
"P  c #8BD1E4",
"I  c #91D3E6",
"U  c #93D4EA",
"Y  c #9AD6ED",
"T  c #9BDAEB",
"R  c #86C1F6",
"E  c #8CC4F6",
"W  c #8FC8F7",
"Q  c #8CC4F8",
"!  c #8FC8F8",
"~  c #92C3F5",
"^  c #9CC2F3",
"/  c #93CAF7",
"(  c #99CEF6",
")  c #90C7F8",
"_  c #93CBF8",
"`  c #98CEF8",
"'  c #96D0F6",
"]  c #9BD2F6",
"[  c #9ED9F7",
"{  c #97D2F9",
"}  c #9AD4F9",
"|  c #9DD9F9",
" . c #A0DBEE",
".. c #BBD9EC",
"X. c #A3C5F3",
"o. c #ABCCF5",
"O. c #B4CEF6",
"+. c #BBCFF6",
"@. c #A4D2F4",
"#. c #ABD4F4",
"$. c #A4DAF5",
"%. c #ACDBF4",
"&. c #A1D4F8",
"*. c #ACD5F9",
"=. c #A3DCF9",
"-. c #A8DEF9",
";. c #B2D5F5",
":. c #BDD3F6",
">. c #B5DCF5",
",. c #BBDCF6",
"<. c #B5D7FA",
"1. c #BED7F8",
"2. c #B5DEF8",
"3. c #BFDEF9",
"4. c #A5E0F0",
"5. c #ADE2F4",
"6. c #ACE2FA",
"7. c #B4E3F5",
"8. c #BBE3F6",
"9. c #B3E9F7",
"0. c #BFE8F7",
"q. c #B5E3F9",
"w. c #BBE4F9",
"e. c #B7E9FA",
"r. c #BCEAFA",
"t. c #CDC8CE",
"y. c #C4D4DD",
"u. c #D7D9D0",
"i. c #E0D7C2",
"p. c #ECDEC1",
"a. c #F1DFC1",
"s. c #EEE2C7",
"d. c #EFE5CC",
"f. c #F2E1C2",
"g. c #FAECC0",
"h. c #F3E4CB",
"j. c #EFE7D4",
"k. c #EFE8D4",
"l. c #F1E7D3",
"z. c #F3E9D4",
"x. c #F3ECDD",
"c. c #C0DEED",
"v. c #C3D5F6",
"b. c #C9D7F7",
"n. c #C3DCF6",
"m. c #CBDAF6",
"M. c #C3D4F8",
"N. c #CAD7F8",
"B. c #C3DDF9",
"V. c #CDDCF8",
"C. c #D1DDF6",
"Z. c #D1DDF8",
"A. c #D1E3ED",
"S. c #DAEAEE",
"D. c #C4E3F5",
"F. c #CBE5F6",
"G. c #C4E9F6",
"H. c #C9EAF5",
"J. c #C5E4F9",
"K. c #CBE5F9",
"L. c #C4EDFB",
"P. c #CBEBFC",
"I. c #D4E0F6",
"U. c #DBE5F7",
"Y. c #D4EAF7",
"T. c #DBECF3",
"R. c #D4E4FA",
"E. c #DBE5F9",
"W. c #D4EBFC",
"Q. c #DBEDFC",
"!. c #C1F0FC",
"~. c #D7F0F7",
"^. c #DFF2F6",
"/. c #D5F0FD",
"(. c #DEF1FC",
"). c #F3EFE1",
"_. c #EEF1E7",
"`. c #EAF1EC",
"'. c #F2F0E5",
"]. c #E1EFF2",
"[. c #E3ECFA",
"{. c #E9EEFA",
"}. c #E3F2F4",
"|. c #E9F4F4",
" X c #EDF8F7",
".X c #E3F3FC",
"XX c #EBF5FC",
"oX c #EDF8FD",
"OX c #F6FCF7",
"+X c #F0F4FC",
"@X c #F4FBFE",
"#X c #FAFEFE",
/* pixels */
"# # # # # # # # # # # # # # # # # # # # # G ^ :..X#X#X#X#X#X#X@Xn.V # # # # # # # # # # # # # # # # # # # # # # # # # # # # # # ",
"# # # # # # # # # # # # # # # # # # # V O.U.oX@X#X#X#X#X#X#X#X#XoXG # # # # # # # # # # # # # # # # # # # # # # # # # * # # # # ",
"# # # # # # # # # # # # # # # # # # C 3.+XOX#X@X#X#X#X#X@X@X@X@XoXX.# # # # # # V * # # # # # * # # # # # * # # # # * # # # # V ",
"# # # # * # # # # # # # # # # # # # o.XXOX@X@X@X@X#X#X#XoXXXXX@XE.G * # # # # # # # * # # # # # # * # # * * V # # * # V C V # * ",
"# # V * # # # V V # V V # # # # # C n.XXoX.X.XoX@X@X@X#X#XoX.X(.O.C # * # * * # # # C # * * * V V C * * * * * * * * S V C S C C ",
"# # V % C G X.O.:.O.X.X.# V G G G G B.[.(.(.XX@X@X#X#X#X#X@XoXn.C * * * * V V C C * C C * C C C C * * S C V C * V * * C C # S # ",
"$ % C G :.E.XX+X+X+X{.{.{.{.U.[.[.E.R.W.(.(.XX@X@X@X@X#X#X#X@Xn.C C * C C * C * * C C * C C C C C C S C C C C S C C V S S C S S ",
"C ^ v.[.{.{.[.[.[.{.{.+X{.{.{.{.+XXXXX[..XoXXXoX@XoXoX@X@X@X@XoXo.C C C C C C C C C C C C C S S C C C C C C C S S C S S S S S S ",
"G M.Z.[.E.R.I.I.U.U.E.E.E.E.[.[.[.[.{.[.{.oX@XXXXXXXXXXXoXoXoXoX;.Z C C C C Z S S S S S S S S S S S C C S S S S S D C S Z S D C ",
"G X.O.+.O.+.+.+.M.+.M.M.M.v.M.:.m.[.[.T.XX@X@X@XoXoXXX@X@XXXoXY.~ C C Z Z C Z S D D S D S S Z D Z Z A D D D D S D D A D D D A D ",
"D D D D A G G ~ G G G G G A A ^ n.@X@XoX.XXX@X#X#X#X#X#X#X@XXX,.A Z A A C A Z A A D A Z Z D Z Z A Z A Z D A Z Z Z S D D Z A Z Z ",
"D D Z D D D Z A Z Z A Z D Z #.Q.oX@X#XoX.XXX@X#X#X#X#X#X#X@XoXE.;.G Z Z A Z A D D D D D F F F D D D D D D D F F F F D D A A D D ",
"F F Z F F F F F F F A F D ^ W.oXXX@X@X@XoX@X#X#X#X#X#X#XOX#X#X#X X;.A A A A D A A A F A F F F F A A A A A A A F A F F A A A A A ",
"Q F Q R R F F F R R A A ~ ,.Q..X.X@X#X#X@X@X#X#X#X#X#X@X@X@X@X@X@XF.~ A A A E A E A Q A E F Q F E A A E A A Q Q Q A E F A E E Q ",
"Q Q Q Q Q Q Q Q Q Q E E ;.Q.Q.(..X@X#X#X@X@X@X@X@X@X@X@X@X@XoX+X+XXXT.K.( E A E E A Q Q Q Q Q Q E Q E Q E Q Q Q Q Q Q Q Q Q Q Q ",
"Q Q Q Q Q Q Q Q Q Q E / J..XQ..X.XoX@X@X@X@X@X@X@X@X@X@X#X#X#X#XOX@X@X@X.XF.#./ E Q E E E ~ Q ~ E ~ ) ) E E Q Q ! Q ! Q Q Q ! ! ",
"Q Q ! ! Q ! ! Q ! ! E ) 3.Q.[..XXX{.XXXX+X+X+XXX+X+X+X#X#X#X#X#X#XOX@X@X#XOX@XF.#.;.;.,.n.J.V.R.K.F.V.B.v.<.*.( ) ! ! ! ! W W ! ",
"! ! ! ! ! _ ! ! W / / ( J..XQ.Z.N.b.b.m.m.C.C.C.C.U.[.XX@X+X@X#X#X#X@X@X@XXX{.{.[.[.[.[.[.[.{.{.{.{.{.XXXXXXQ.;./ _ _ _ ! / ` ( ",
"_ _ _ ! _ _ { _ %.J.K.F.R.R.m.:.+.:.+.:.v.v.m.U.|.XXoX@X#X@X#X#X#X#X@X[.E.E.C.V.m.m.m.m.m.C.Z.Z.Z.I.U.U.I.B.*.` / _ _ ( %.J.W.~.",
"{ _ { { _ { ` 7..X@X@X{.R.C.V.V.V.V.R.U..XXX+X#X#X#X@X@X@X#X#X#X#X#X#X@XQ.U.I.F.v.m.:.+.+.:.:.:.v.1.<.*.} ` ` _ { ` } 0.XX@X#X#X",
"{ { { { { { $.(.oX@X@X@XoX@X@X@X@X.X.XXX+X@X@X@X@X#X@X@X#X@X#X@X#X@X@X#X@XXXXX.X}..XD.@.} &.&.&.} } { { { { { { } &.P.XX@X#X@X#X",
"} } } } } =.w.(..X.X.X.X.X.X[.[.[.[.E.U.[.{.XXXXoX@X@X@X@X@X@XoX@X@X@X@X@XXX(..X[.XX.XF.*.} } } | } | | { | | { &.L.oX@X@X@X@X@X",
"| | } [ q.W..X.X[.R.m.m.N.N.N.N.n.m.m.m.m.m.m.C.I.E..XoXoXoXXX.XXXoX@XoX@X.X(.Q.Q.oX@X@XP.&.| | } | | | | | | | w.XX#X@XXX.XoXoX",
"%.[ [ $.L..XXXoXoX.XR.V.n.b.v.M.M.M.v.v.m.m.C.I.T.XXoXXX.XXXXXXX.XXXXX.XXX.XQ.Q.(..X#X#X.Xw.=.| | | | | | | | -.(.@X#X@XXX.X.X.X",
".XP.r.G.Q..X.XXXXXXXXX(.(.(.(..X[.(.Q..XoXoXoX@X@X@X@X.X.X.X.X.X.X.XQ..X.X.X.X[.Q..XoX@XXXP.-.=.=.=.=.=.-.-.6.w..X@X@X@X@XXX.X.X",
"XXXXQ.Q.Q..X.X.X(..X(.XXXX.X(..X.X.X.X.X.X.X.XXXXXXX.X(.Q.Q..X(.(.(.Q.Q.Q.XXXX.XQ.Q..X[.Q.J.2.-.6.6.6.6.w.P.W.Q..X.X.XoXoX@XoX@X",
"XXXX(.Q.(..X.X(.(.(.XXoX@X@X.X(.(..X.X.X.X(.(..X[.Q.(.Q.R.Q.Q.W.W.W.Q.Q.Q.(.(.(.Q.E.Q.W.R.J.K.P.P./.W.W.(.(.(.(.Q.Q.Q..X.X.X.X.X",
"XX.X(.Q.Q.Q.Q.Q./.(..X.XXXXX.X(.Q.(.(.Q.Q.(.Q.Q.Q.Q.Q.W.Q.W.R.R.W.W.R.Q.Q.(..X.XQ.Q.W.R.R.R.W.Q.(..XXXXXXX.XXX.XW.W.Q.Q.Q.Q.Q.(.",
".X(.(..X(.Q.Q.W.W.(.(.(.(.(.(.(.Q.Q.Q.Q.Q.Q.Q.Q.W.Q.Q.Q.(.Q.Q.R.R.W.Q.Q.(.(..XXX.XQ.W.Q.Q.Q.Q.(..XoXoXoXoXoXXX(.Q.W.Q.W.W.Q.Q.Q.",
"(.(.Q.(.Q.Q.Q.(.Q.Q.Q.Q.Q.Q.Q.Q.W.Q.W.W.W.W.R.W.Q.Q.(.(.(.Q.W.R.Q.Q.(..X(..X.X(.Q.Q.Q.Q.Q.Q.(.(.XXXXoXoXXXXX.X(.Q.Q.R.Q.Q.W.Q.R.",
"W.W.W./.W.W.(.(.Q.Q.W.(.Q.Q.W.W.W.W.W.W.W.R.Q.W.Q.Q.(.Q.Q.Q.W.Q.Q.Q.(.Q.Q.Q.Q.Q.Q.Q.Q.(.Q.Q.(.(.(.(.(..X.X.XQ.Q.Q.Q.Q.Q.W.W.R.W.",
"P././.W.W.P.P.W.W.W.W.W.W.W.W.W./.P.P.P.P.P.W.W.W.Q.Q.Q.W.Q.W.R.W.W.W.Q.W.Q.W.W.W.W.Q.W.Q.Q.W.P./././././.W.Q.Q.Q.Q.Q.W.R.P.W.R.",
"P.P.P./.P.P.P.P.P.P.P.P.P.P.P.P.P.L.L.P.P.P.P.P.P.W.W.P.W.P.R.K.P.R.W.W.P.W.W.P.W.P.W.W.P.W.W.P.W.W./.P.P.P.W.W.W.P.W.P.P.P.P.P.",
"L.L.L.P.L.P.L.H.P.L.P.P.!.L.L.L.L.L.!.r.L.L.L.L.P.P.L.P.P.J.5. .T %.7.w.K.P.P.P.P.P.P.L.P.L.L.P.!.r.5.5.5.7.8.L.P.H.P.L.P.L.P.L.",
"!.!.!.!.L.!.L.!.!.L.!.!.!.!.!.!.!.r.e.9.e.r.!.L.L.L.L.P.q.T H H L L L P T %.5.7.r.L.L.G.!.!.L.r.4.P L L H H P T 5.7.e.e.5.5.[ 4.",
"r.e.e.e.e.e.e.r.r.e.r.r.e.e.r.r.e.4.I P Y 6.e.r.e.e.e.q.Y L H H P L L K J K K K Y 5.r.r.e.e.e.$.P J L L K K L J P P I P P L P L ",
"} } ] ] } } ] ] } ] ] ] } ] ] ] } } ( ` ( ( ] ] ] } &.] ' Y ] @.] ' ] ' } ] @.] ` } %.8.%.} } { ' ' ( ( ( ] Y @.@.%.7.8.>.#.7.8.",
"' ` ` ` ` ` ( / } ( ( ` _ ` ` / ` ` ` ` / ( ` / ` / / ` ( ( ( ( ( ( ] ' / ( ( ] ` ` ] #.] ( ` ' ` ( ] / ( ( @.8.%.@.;...$.>.F.F.",
"W / / / _ ) / / / ) / / / / / / _ / / / / / / / / / / / / ( ' / / / _ / W W ~ W W / W W ~ / ! ! W W W ) W W ~ ( ( U U ( ~ ~ / ( ",
"/ / / / / ) W / ) ) / _ W E W W W W W W ) E W ~ E W E ) E W W W W W W W W W ~ W W W / W W W _ ! W / W W W W W W E W W W W E W E ",
"! ! W W W W ~ W ~ W W W W / / / / ) ~ / ~ W W _ / W W E W W ~ W W W W W ! ! E E E E E E ! R E R R E R E E E E E E W W W W ! W W ",
"W E E E E R R R R R R R Z Z Z Z Z Z Z Z R R E R A E E E E E E E E E E R R R R E E E E W ! ! ! ! W W W W W ) ) E W E E E A A R Z ",
">.;.%.%.#.;.%. .@.@.@.Y @.@.@.@.#.@.#.@.@.#.@.@.@.@.@.@.( ( / W W W W W ! ! ! ! R R E R R R R R E R R E E E K E W W W W ) ! W W ",
"@.o.#.o.#.#.#.;.;.;.;...,.D.F.F.F.Y.Y.Y.Y.Y.Y.F.F.D...,.>.o.~ & R & & & & Z Z R R R R R R R & R & R Z Z R Z R & Z Z Z Z A R R E ",
"& & % & $ & $ $ & $ $ & % % % % % & & Z C Z & % & & & $ % % $ $ $ $ $ $ $ $ $ $ = $ $ = $ $ $ $ $ & = $ $ & $ & & & & & & Z & R ",
"& & & & Z Z Z R Z Z Z Z Z & & & & & $ % % % $ $ $ $ & & % = = Z & & & & & & & & $ = $ $ $ $ = $ $ $ $ $ $ $ $ $ $ $ $ $ $ $ $ $ ",
"$ $ $ $ $ $ $ % $ % $ $ % $ $ $ $ $ $ $ $ $ $ $ $ $ $ $ $ $ $ $ % & & & & & & & & & & & R & & R R & & & & & $ $ $ $ $ & & $ & $ ",
"Z R Z Z Z & Z & & Z Z J & & Z & & % $ & & $ & & = & % % % % % % $ $ $ $ % % & % & & & & & & & & & & & & & & & & & & & $ $ % $ $ ",
"5.6.6.-.=.$.*.=.=.-.6.6.6.6.6.=.$.&.&.&.&.=.-.=.=.} ] ] ] ` } ( } ' ` ` ` _ ` ` { ' } } } } } } } { } } } ( ` ` ` ` ` _ _ ! W W ",
"r.r.r.r.r.r.r.r.r.G.r.L.r.r.r.r.r.e.r.w.r.L.r.L.r.r.q.w.q.q.2.q.q.q.7.w.2.q.2.2.q.q.e.q.q.7...8.9.q.q.q.q.q.q.q.q.q.q.q.e.r.e.e.",
"w.w.r.r.r.0.w.0.w.w.w.8.r.w.e.r.e.0.r.G.H.H.G.w.r.r.r.0.r.8.w.w.w.w.r.r.e.w.8.w.w.e.r.8.y.u 9 9 t.c...w.q.w.w.w.q.w.q.w.w.e.e.e.",
"2.w.w.w.q.,.w.8.w.w.w.8.w.7.w.8.w.8.8.w.L.G.8.7.8.7.8.0.8.8.w.r.0.G.H.L.G.w.0.r.G.r.r.8.> 1 @ 3 4 7 i u.F.G.r.r.J.r.w.w.w.w.w.e.",
"w.w.q.2.,.2.2.>.,.3.D.8.,.2.>.7.,.7.8.8.8.8.8.8.,.8.8.8.D.F.W.~.^.}. XoX.X~.Y.H.G.8.0.8...8 5 6 6 7 t w i.G.0.w.w.J.r.w.w.w.w.w.",
"^.(.^.(.}.^.^.[.}.|.`.|.}.T.S.S.S.[.T.}.|.XX|..X^.}.}.}.`._.).).x.x.x.).x.).'._.`.].S.A.A.9 6 e p d t t i j.Y.J.J.8.w.8.w.w.w.J.",
"z.l.h.f.s.a.a.a.N a.a.f.f.f.f.f.f.h.h.z.l.l.z.z.h.h.p.l k s s a a a a a s a s s k i 9 : ; - o 5 6 d p r 7 x.OXOXXX|..X(.(.(.(.~.",
"z z h m b n n n n z n n b n m b b z m m n n n n n n n n m M n n m b b b b b b b v f f 0 , . .   X + O @ < s p.s.d.h.l.j.k.z.k.k.",
"b m b m m m M M N N N N m m N m m m M M n b m m m n M M m m m m m m m n m m b m b b m b h s q 0 2 < 2 q h v m b n z v h k h h a ",
"v v v b b n n m M N m M N N m m n m m m m m b m m b m n b M m m M M N M m m n m n m N M M m M b v v v b v m m M n N m m M M M N ",
"f f f f f j x x h h b j b h b b v c j b m b n b b m M N m m m M N M M M m M m m M M M n M B M m m m b m M M b b n m m m M M M m ",
"f f f f f f y c g f g f g f f f f d f f y f f f f g f v v v v b m n m n m m m m m m m m m m n m m m m m m M M M m m m m m m m n ",
"b b v b b b c c c x f f g f f f f f y y y y y y y y y f y y y y y f f g g g g g v c v v x c c b v v b b M M b b M M M M b m M M ",
"m b m n m m m m m m m b b b b b b c x x f x x x f f f f x y x x c f f f g g f f f f f f f f f f x y x v c b b b b b b b m m M M ",
"M B B B B B B B B M B M N M M M m M b M M c c c x f f f f c c c c c c c c c c j v f j f f f f f x x x x x x x x x b x b b b M M ",
"B g.B B g.B B g.B B B B B B M M M B M B B M M M m M M m M b M b M b b m b b b m b b b b b m v b v b b v b b b b b x b b b b b b "
};
