/* XPM */
static char *_40ff49d8cb14056ec7128d18aaf3bb252SOMeNwtvFBysLO[] = {
/* columns rows colors chars-per-pixel */
"64 64 223 2 ",
"   c #010101",
".  c #0E0C05",
"X  c #120F05",
"o  c #191509",
"O  c #221C16",
"+  c #2A240C",
"@  c #39300C",
"#  c #3D340E",
"$  c #1A132E",
"%  c #170534",
"&  c #1B0137",
"*  c #1E033B",
"=  c #1E083C",
"-  c #20043E",
";  c #220B3E",
":  c #23123E",
">  c #28193B",
",  c #383322",
"<  c #342539",
"1  c #44380C",
"2  c #453A16",
"3  c #4A3738",
"4  c #4C3938",
"5  c #4C3C3C",
"6  c #57470C",
"7  c #554610",
"8  c #6B580D",
"9  c #685713",
"0  c #7B660E",
"q  c #796415",
"w  c #5E4A2D",
"e  c #594734",
"r  c #56433B",
"t  c #5D493B",
"y  c #775F2B",
"u  c #614B36",
"i  c #624E39",
"p  c #6C5637",
"a  c #65513E",
"s  c #6B563D",
"d  c #735C33",
"f  c #70573B",
"g  c #755E3B",
"h  c #7C622A",
"j  c #7C6433",
"k  c #7B653B",
"l  c #1E1546",
"z  c #230541",
"x  c #240D41",
"c  c #251342",
"v  c #291444",
"b  c #251A44",
"n  c #291A44",
"m  c #211749",
"M  c #251B4C",
"N  c #291E4D",
"B  c #321D42",
"V  c #361B49",
"C  c #261C51",
"Z  c #291F51",
"A  c #2B2245",
"S  c #2C224D",
"D  c #332544",
"F  c #3B2D44",
"G  c #32234B",
"H  c #34294C",
"J  c #3B2C4B",
"K  c #3F3244",
"L  c #3D304B",
"P  c #2C2253",
"I  c #2F2559",
"U  c #312654",
"Y  c #352C55",
"T  c #392B53",
"R  c #31265A",
"E  c #33295A",
"W  c #3C3156",
"Q  c #3C335C",
"!  c #3D3860",
"~  c #432B48",
"^  c #443643",
"/  c #4B3B44",
"(  c #44354B",
")  c #48384A",
"_  c #4B3C4C",
"`  c #503F46",
"'  c #443656",
"]  c #44355B",
"[  c #423B61",
"{  c #554343",
"}  c #5D4B43",
"|  c #57464A",
" . c #5B4653",
".. c #695747",
"X. c #634D52",
"o. c #665452",
"O. c #715C5B",
"+. c #7B6740",
"@. c #796558",
"#. c #8D730D",
"$. c #856D15",
"%. c #887012",
"&. c #947A16",
"*. c #846B2B",
"=. c #8C722C",
"-. c #9B7D25",
";. c #977A2A",
":. c #967A2C",
">. c #856C33",
",. c #836A39",
"<. c #8C7333",
"1. c #947932",
"2. c #957B33",
"3. c #826D5D",
"4. c #867454",
"5. c #8C7564",
"6. c #927B64",
"7. c #A7880D",
"8. c #B7960D",
"9. c #AA8815",
"0. c #A5841D",
"q. c #AB8B1D",
"w. c #B28F13",
"e. c #B39312",
"r. c #BB9816",
"t. c #B4931B",
"y. c #BEA01D",
"u. c #9E8229",
"i. c #9A8137",
"p. c #A38425",
"a. c #AC8D22",
"s. c #A2852B",
"d. c #A78929",
"f. c #AB8D2D",
"g. c #AE9129",
"h. c #B29223",
"j. c #BC9C23",
"k. c #B4972B",
"l. c #C29E1A",
"z. c #CAA50A",
"x. c #D5AC03",
"c. c #DAAD01",
"v. c #D4AA0A",
"b. c #D4AC0A",
"n. c #DDB301",
"m. c #DCB40C",
"M. c #CAA413",
"N. c #C9A619",
"B. c #CDA91A",
"V. c #D3AD13",
"C. c #D4AE1B",
"Z. c #D6B114",
"A. c #DBB413",
"S. c #DEB912",
"D. c #E3B600",
"F. c #E5BB01",
"G. c #EBBD00",
"H. c #E3B50A",
"J. c #E3BA0B",
"K. c #EABE0B",
"L. c #F1BE00",
"P. c #E5BC15",
"I. c #CCA828",
"U. c #D0AE2E",
"Y. c #EDC200",
"T. c #E8C204",
"R. c #EFC801",
"E. c #EDC309",
"W. c #F2C500",
"Q. c #F3C901",
"!. c #F6C905",
"~. c #F3CC0B",
"^. c #EDC414",
"/. c #EBC51A",
"(. c #F4CC12",
"). c #F1C71A",
"_. c #F6D014",
"`. c #EEC626",
"'. c #F3CA29",
"]. c #EFC935",
"[. c #F2CB38",
"{. c #9A8550",
"}. c #B39C5A",
"|. c #BBA24C",
" X c #9D8666",
".X c #A28C65",
"XX c #A99368",
"oX c #B69C6E",
"OX c #B4A368",
"+X c #CCB25B",
"@X c #CCB86C",
"#X c #C4AE77",
"$X c #C9B375",
"%X c #D4BC77",
"&X c #EBC946",
"*X c #F1CE4A",
"=X c #E6C95D",
"-X c #F5D351",
";X c #F8D45B",
":X c #DBC277",
">X c #E4C761",
",X c #F4D66A",
"<X c #E8CD78",
"1X c #EDD176",
"2X c #ECD37C",
"3X c #F5D872",
"4X c #F1D67D",
"5X c #F5DA7C",
"6X c #FADE7D",
"7X c #FEE075",
"8X c #FCE07E",
"9X c #EED582",
"0X c #EFD984",
"qX c #F1D781",
"wX c #F5DC83",
"eX c #F9DE83",
"rX c #F5DD8A",
"tX c #F7E086",
"yX c #FBE185",
"uX c #F7E088",
"iX c #FAE289",
"pX c #F6E294",
"aX c #F4E4A2",
/* pixels */
"; @.iXyXiXiXyXiXyXrXiXuXuXwXyXiXtXwX4X4XtXtXwXeXwXrX4XwXiXtX4X4XwXwX2XwXXXx z * z z * * z z z * * & & & & & = * & * * * * * z * ",
"% @.iXiXiXuXuXiXyXtXiXuXwXwXwXiX0X0X4X0X4XwXeXeXwXqXqXwXrXuXwX4XtX5X3X5X2XX.* * * z z * * * z * z * * * & & ; D * * * * * * * z ",
"& 3.yXiXyXuXrXyXtXtXyXwXwXwXwXwX<X2X2X2X4XtX6XwXwXqXwXwXiXiXwX4X8X5XyXyXyX$XV * * - z z * * * * z z * * * & * = * * * * & z z z ",
"& 5.yXyXtXwXyXtXtXwXuXtXqXrXwXqX9X2X2X2X2X4XqXrXrXwXiXwXiXiXwX2XwXyXiXiXwXrX6.- z - z z z * * z & z * & * * * * * * * * z & & z ",
"* 6.wXwXeXwXwXyXwXwXwXwX9XqXrX4XwX0XqX2X2XtXrXaXpXyXuXiXiXiXuX0XiXiXiXiXyXtX9X .z z z z - - - - z * z * * & & * * * * * * * z & ",
"*  XeX4XwX4X2X4XwXuXwXwX4XwXwXqX0X0XwXwX5XtXwXrXrXiXiXiXiXiXiXqXiXiXiXiXiXtXiX#XV z z z - - ; ] z z * * * & & * * * = - z * * z ",
"* XXwXqXwXtXwXqXwXwXrXqX4XwXqX2X0XwXwXwXwXwXwXrXyXwXiXiXiXiXuXwXyXiXyXyXiXiXiXiX5.z - - - - ; ' * * * * * * * * - = - ; - T P * ",
"= XXyXwXwXwXyXwXuXwXeXqX1X4X4XqX2X0XtXtX0XtXtX0XrXyXiXiXiXiXuXwXeXiXiXyXyXyXyXiX<X_ & & = - = & * = z = * * * = * = - - - T N x ",
"; oXyXwXeXwXwXqXqXwXiXwX4X2X2X2X2X0XwXtXwXwXwXrXtXiXiXiXiXtXyXtXiXyXiXyXyXyX8XyXyXOXv - z - * = = ; - % = - - ; x = = = x * z z ",
": #XyXyXrXwXqX4XwXwXwXwX2X1X2X2X2X2XwXwXtXwXwXwXtXiXiXyXiXyXtXtXiXiXyXiXiX8X8XyX8XeX@.; ; ; = = = ; - = = - ; ; z x x z x x x l ",
"B #XyXyXeXwX4X5X4XqX4XqX4X4X4X2X2X0XwXwXwXwXuXuXtXtXtXtXtXtXyXtXiXiXiXiXiXyXyX8XyXyX:X~ * * = = - - = = % - ; - z z x = = z ; x ",
"> $XyXyXeXwXwXwXwXwX0XqX5X5XwX4X0XqXwXwX5X5X5X7X3X5X8X5XtXtXiXyXiXyXiXyXyXiXyX8X6X6XyXXX> - ; - = = = = = - - ; c x c x x x x * ",
"B %X6XeXrXpXwX2X9XqXqXqXwX5X4X5X,X=X&X`.).^.^.^.^.^.).`.[.-X,X6XiXiXiXrX<XrXyX8X6X6X8XwXO.z - ; ; = - ; ; ; ; ; z x x x x x x z ",
"< %XeXeXiXaXqX4X1X1X2XqXqX3X*X`.A.7 8 F.T.T.W.W.R.Y.Y.Y.W.Y.!.).[.-X7X@X, OXiX8XyX8X6X8X%X~ x x : ; - $ z ; ; ; x x x x ; x x ; ",
"< %X8XyXeXqX4X4X1X1X1X3X&XP.F.G.e.. @ n.G.T.Y.Y.W.W.W.Y.Y.G.L.W.!.Q.(.j.o OXyXyX7X8X6X6XeX X: v v ; ; - ; ; ; ; ; x x x x x x x ",
"< <XyX6X6X6X5X5X5X1X*XP.D.D.D.H.9   + 7.T.T.Y.W.Y.W.W.Y.W.G.W.Y.!.!.x.1   , +X8XyX8X8X8X6XqXX.x v : : ; x ; ; ; ; x c x x x x x ",
"5 <X6X6X8X6X6X5X3X[.D.D.D.D.L.7.o     1 m.W.R.W.W.W.Y.G.G.W.W.W.Q.Q.#.      0 '.;X6XeXeX6XyX$XD x v x x x x ; ; ; v x c c c x x ",
"/ <X6X6XeXeX6X,X`.G.F.D.D.L.z.0 $.X X 9 q e.v.F.Y.W.W.G.Y.W.W.W.Q.H.2 X   + 1 7.H.'.;X6X6XeXeX5.v v v x x c c c v ; v x x x ; x ",
"` 1XeXyX6XeX,X`.G.G.F.G.c.&.#.w.8.X X 8.b.8.w.J.W.W.Y.G.W.W.W.W.m.%.$.2   9 z.&.9.z.K.[.3X6XwX<X .x x x v c c ] ] ; c c c x ; ; ",
"X.4X6XeXeX3X`.G.G.G.G.G.v.8.D.L.%.    $.Y.T.Y.R.Y.W.W.Y.G.Q.W.W.m.v.D.@   1 W.W.L.L.G.G.`.;X5X6X#XB ; ; ; ; c v v v v c v c v v ",
"o.<X5XyX6X[.G.G.G.Y.G.G.D.D.D.F.6     1 n.T.T.Y.W.W.W.Y.L.W.W.W.W.G.K.8   o v.W.G.G.G.G.G.K.*X5XwX3.; ; ; : c x c x c c c c v x ",
"..<X1XeX-XY.G.G.G.G.G.G.G.F.G.n.@     + b.Y.T.R.W.W.W.W.W.W.W.W.G.W.Q.z.o   7.Q.L.L.W.L.G.G.D.].,X%X/ ; ; ; : c x x c v v v c x ",
"@.1X4X,X^.G.G.G.D.G.G.Y.G.G.R.b.+     o z.W.W.Y.W.Y.Y.W.L.Y.W.G.G.T.G.Y.8   #.W.G.G.G.G.D.D.n.n.C.>XXXn : : : : : c c c v c : : ",
"@.1X5X[.G.G.G.D.D.G.G.G.G.Y.Q.m.&.6 . q n.G.W.R.R.G.G.G.W.G.W.Y.G.G.G.v.1 # v.L.G.G.G.D.D.n.c.c.F.P.>X@.: v n c : : : : c : c c ",
"4.4X,XJ.D.D.D.D.n.n.n.r.0.-.u.q.e.9 7 z.n.F.G.T.F.T.Y.T.L.D.r.&.h h q @ O 9 F.F.D.D.c.c.D.c.n.D.n.D.P.+X( : : c : ; ; : : : : : ",
"4.,X].D.D.D.c.n.c.9.e > b b b > O , h 9.G.n.n.n.n.n.T.Y.B.i A l m b $ $ b # v.n.c.c.n.D.c.c.c.D.F.G.F.P.{.n c b : : : : : : > : ",
" X3XP.G.G.L.G.G.c.3 l l m m m M l $ > &.W.Q.Y.W.G.G.W.Q.>.C Z Z S S M l l > -.T.G.F.G.G.G.G.G.D.D.G.G.F.J.p x v c c n b c c v b ",
" X*XG.G.G.W.W.R.n.3 l b m b m M M S M h R.R.W.Q.R.T.R.Q.-.N Z Z S C C N N m ( N.W.W.G.G.L.G.G.D.D.F.D.G.L.l.3 m b : c n b b c b ",
".X'.G.G.G.G.T.Y.R.r.4 n l l m m l S N t J.Q.Q.Q.Q.R.W.Q.K.-./ N Z Z Z P P ) H f K.W.W.G.G.G.G.G.F.G.F.G.G.G.r.3 c c c n n n c : ",
"}.^.G.F.G.Y.T.G.G.G.m.9.h w e u d u.} ( m.R.Q.Q.W.W.W.W.Q.Q.H.t.<.,.k <.a.A.1.Y p.Q.W.L.G.G.G.L.G.G.G.G.G.Y.W.0.< b n n v > n b ",
"|.K.G.G.G.G.Y.G.G.G.Y.Y.G.D.D.F.T.W...J N.W.W.Q.Q.Q.Q.Q.W.Q.Q.!.!.Q.Q.Q.Q.Q.S.| ) C.W.L.G.L.L.L.L.G.W.W.W.W.R.T.=.n n n n n n b ",
"U.G.L.G.W.Y.Y.Y.G.G.G.G.Y.G.G.T.T.R.k P h.Q.W.Q.W.Q.Q.Q.W.Q.Q.W.Q.Q.Q.Q.Q.R.Q.u.Z g L.L.D.L.G.L.L.L.Y.W.W.W.R.Y.D.p m n n n b n ",
"I.L.L.G.W.W.G.G.L.W.L.G.Y.G.T.G.G.T.g Z <.Q.Q.W.Q.W.!.!.!.Q.W.!.Q.Q.Q.R.R.W.Q.m.{ P p.W.Y.L.L.W.Y.Y.Y.W.W.Y.R.Y.G.z.3 b n N n n ",
"C.L.L.W.L.W.G.L.W.Y.W.Y.W.T.T.T.R.W.g Z a E.W.Q.!.W.!.W.W.!.!.Q.Q.Q.W.Q.R.W.Q.Q.:.C _ Z.Q.W.Y.G.G.G.G.W.W.Y.Y.Y.F.G.0.A N S n n ",
"A.W.G.L.L.W.L.W.Y.Y.W.W.R.G.T.T.Y.T.d Z ) H.Q.W.Q.W.!.!.!.!.!.Q.Q.Q.Q.W.W.Q.W.Q.Z.( C j T.W.W.L.G.F.G.T.G.W.Y.T.F.T.F.h n n V S ",
"A.D.G.G.L.L.L.L.W.G.G.R.Y.T.G.G.W.W.d C U l.!.W.!.!.!.Q.!.!.W.!.Q.Q.Q.W.Q.Q.W.Q.R.<.C S a.W.W.W.G.c.n.F.W.Y.T.T.F.F.G.M.3 b > N ",
"H.L.D.L.W.L.L.G.G.G.G.W.W.W.Y.W.Y.W.k C N -.Q.W.W.!.!.W.!.!.Q.W.Q.Q.Q.Q.Q.R.Q.Q.Q.B.L C ` A.Q.W.F.n.D.D.G.G.G.G.F.F.n.G.-.n n A ",
"H.L.L.L.L.L.G.W.G.G.G.R.Y.W.W.G.R.!.,.Z C h W.W.W.Q.W.!.Q.!.!.!.Q.Q.Q.Q.Q.R.R.R.R.T.j M N j G.G.F.n.n.c.D.D.F.F.T.T.T.G.H.u n G ",
"K.L.L.L.L.L.G.Y.G.Y.Y.W.R.Y.Y.Y.T.W.j C C 5 G.L.W.W.Q.W.W.!.!.W.Q.Q.Q.Q.Q.W.Q.R.R.R.y.G M A q.Y.n.x.x.c.n.D.G.W.Y.T.T.T.Y.t.D N ",
"H.L.!.L.W.L.W.W.G.G.Y.R.R.R.R.R.Y.Y.j M C ~ V.!.W.W.Q.W.Q.W.Q.Q.Q.Q.Q.Q.Q.Q.Q.Q.Q.Q.T.p M M 5 b.D.c.c.D.G.G.G.L.Y.T.T.G.G.F.p n ",
"H.L.L.L.L.L.L.!.G.Y.Y.W.R.R.R.R.Y.W.>.C N S h.Q.Q.W.W.W.W.W.Q.Q.Q.Q.Q.R.!.Q.!.!.!.Q.W.r.G m m *.G.G.G.L.G.L.L.Y.G.W.W.R.G.G.r.D ",
"N.L.L.!.!.L.L.L.Y.G.G.Y.Y.Y.R.W.W.Y.<.Z Z M =.Q.W.W.W.W.W.W.W.W.W.Q.W.Q.W.W.W.W.Q.!.W.K.u M b D t.L.G.G.L.L.L.G.G.R.W.Y.W.W.F.d ",
"w.L.L.L.L.L.L.!.Y.W.T.G.Y.R.R.W.R.!.1.I Z C f W.W.W.W.W.W.W.W.W.W.W.W.Q.W.W.W.W.W.W.W.W.0.S M M 5 H.L.G.L.L.Y.T.Y.Y.T.Y.L.G.L.l.",
"-.L.!.L.!.L.L.L.W.W.W.G.Y.W.W.Y.W.Q.1.I E Z ` P.Q.W.W.W.W.W.Q.W.R.W.R.W.W.W.W.!.W.W.W.W.m.} M M b *.F.L.L.G.Y.Y.Y.Y.R.Y.W.L.G.D.",
"j L.W.L.!.L.L.L.W.Q.R.Y.G.Y.Y.R.R.Q.2.E R P T N.Q.Q.Q.Q.W.Q.W.Q.W.W.W.Q.Q.Q.W.W.W.Q.R.R.W.p.N M M D r.L.R.E.E.^.T.R.R.R.W.L.G.G.",
"u H.G.G.L.L.L.L.Q.Q.R.Y.F.Y.T.T.R.!.:.P N P U d.Q.!.Q.Q.Q.W.Q.W.Q.Q.Q.Q.Q.Q.W.W.W.W.Q.R.Q.m.5 C M C t P.R.!.~.Q.W.W.R.T.Y.G.G.G.",
"3 z.G.G.L.L.!.!.W.R.R.T.G.G.T.Y.R.~.1.P N N I ,.!.!.W.Q.Q.W.Q.Q.W.W.Q.Q.W.W.W.W.W.Q.Q.Q.Q.Q.:.b N b Z 1.T.W.Q.W.Q.R.R.W.W.W.G.F.",
"D q.L.G.L.L.L.!.W.R.R.G.F.F.G.W.W.~.i.C N C I ..E.Q.Q.Q.W.Q.Q.Q.W.Q.Q.W.Q.Q.!.!.Q.W.W.W.Y.Y.b.K C P P F l.W.Q.W.G.Y.Y.W.G.G.G.G.",
"N =.W.G.W.Y.W.W.W.R.W.G.G.T.Y.Y.W.Q.u.N N C P ' C.Q.!.Q.!.Q.Q.!.Q.W.W.Q.Q.Q.!.!.Q.Q.Q.W.R.T.T.*.P P S N i K.R.W.G.T.T.G.G.G.Y.Y.",
"N a K.W.W.W.W.W.W.Y.Y.W.Y.Y.G.W.W.W.-.M N S I I { s g k >.1.u.p.h.t.r.M.V.A.S.J.K.E.E.E.!.Q.R.M.( N N N S ;.W.Y.W.W.R.G.T.G.G.G.",
"A ( B.Q.W.W.W.W.W.L.W.G.Y.Y.W.W.G.W.u.N S Z Z Z C C C C C Z P P U G S H J L ' _ { } i s k 4.<.=._ M C P Z ( N.W.G.W.Y.L.L.W.Y.G.",
"n P -.W.W.W.W.W.W.W.G.W.Y.T.W.G.G.W.p.Z C S S Z N Z M C N N Z R P N Z P P P Z Z Z P C Z U P P N S N b P P Z ..K.W.Y.W.G.W.W.G.F.",
"A S e x.T.R.W.W.Y.W.W.Y.Y.T.G.W.Y.Q.p.P P Z N N N M C M C m M Z P S N N P U P Z Z N Z P E U P N P S N N P Z U -.W.Q.W.W.Y.Y.G.F.",
"S S < e.n.R.Q.W.W.L.W.L.Y.Y.Y.G.Y.W.&.Z Z n M m N a f i r / K L T Y S N P P P Z C C C P R P P P P P S P P P Z ( B.Q.G.G.W.W.W.G.",
"Y Y Y i.R.W.Q.R.Y.W.L.W.T.T.Y.Y.Y.W.0.M N m N M n h.!.L.J.H.m.V.I.r.a.u.:.>.k s t { / ) ' G Y E I E P P P P P Z f K.G.W.Q.W.W.W.",
"Y Y Y | P.W.R.Y.G.W.W.W.Y.G.G.R.Y.W.0.N N P M N M *.Q.W.W.W.L.W.W.W.Q.Q.Q.Q.~.R.T.J.J.A.B.N.r.k.s.i.k Y P P N P S s.W.W.Q.Q.Q.W.",
"T E Q Q g.Q.Q.R.W.W.Y.G.G.T.Y.W.G.Q.0.N N P Z Z M { a.N.M.V.m.J.F.K.Y.W.W.Q.!.!.!.Q.Q.Q.R.W.Q.Q.Q.!./.} P P S P P _ V.Q.W.Q.Q.W.",
"Y E Q Y ..K.R.Q.Q.W.G.G.G.T.W.Y.W.W.p.N Z P U Z N b S S D F ^ / r i d j =.;.d.g.j.N.A.m.J.J.E.T.Q.!.~.a.P P S S P P k E.Q.W.W.Q.",
"Y Q ! Q ] g.R.R.Q.Q.G.G.G.T.G.W.W.W.q.N Z R R P N N m N C N M M M M l M C S I Y H J ' _ | } ..k <.<.u.2.L S P P E E Y d.Q.Q.Q.R.",
"Q Q Y Q Q ..E._.^.E.!.R.T.G.G.W.W.Y.H.>.` ) ] T S N M C M M l M M M C P P E E E P P E E I P P P P P P P S P S S P P Z / V.Q.W.W.",
"[ [ Q Q Q  .f._.~.~.~.!.W.Y.T.Y.R.G.W.T.J.A.I.j.a.p.;.=.,.d u t r _ ) ( W Y Y P I I P P P P S M S P S P P P P P P S P U :.W.W.Q.",
"Q Q Q Q Q ! o.U.(.~.~.~.~.R.Y.R.R.W.W.Q.Q.Q.Q.Q.W.Q.Q.W.W.W.G.J.m.P.Z.B.N.y.h.h.f.2.<.k g a r 3 ^ ( L Y H Y Y P P C | i.P.Q.R.R.",
"Y Y Y Q Q Q ' 4.(.(.~.~.Q.Q.R.Y.^.^.~.Q.Q.Q.W.W.W.W.Q.W.W.T.T.T.T.T.T.T.R.Q.Q.Q.Q.Q.!.!.R.T.x.b.b.V.V.B.N.k.g.f.1.i.Z.~.Q.Q.R.W.",
"Y Y Y Y Y Y Y | B.R.Q.Q.Q.W.W.T.E.R.R.R.Q.R.W.W.W.W.Q.Q.W.R.T.T.T.T.G.G.Y.Y.R.R.R.Q.R.!.!.R.T.F.T.Y.R.R.Q.Q.!.~._._.Q.R.Q.Q.R.R."
};
