/* XPM */
static char *result[] = {
/* columns rows colors chars-per-pixel */
"64 64 198 2 ",
"   c #241E33",
".  c #281F37",
"X  c #271F38",
"o  c #281F39",
"O  c #262034",
"+  c #27213A",
"@  c #2A223B",
"#  c #2F293F",
"$  c #36273C",
"%  c #30293F",
"&  c #2F2B41",
"*  c #342C42",
"=  c #382F45",
"-  c #2E3448",
";  c #353047",
":  c #3A3245",
">  c #353249",
",  c #3C354A",
"<  c #3D394C",
"1  c #3E3951",
"2  c #443B4C",
"3  c #443B4D",
"4  c #5E3B45",
"5  c #433D52",
"6  c #483F50",
"7  c #3B4655",
"8  c #47404F",
"9  c #4C4455",
"0  c #464359",
"q  c #454659",
"w  c #544C5A",
"e  c #594C59",
"r  c #5B525E",
"t  c #754A4E",
"y  c #7D5251",
"u  c #4D5B68",
"i  c #5D5561",
"p  c #545B67",
"a  c #635A65",
"s  c #665D69",
"d  c #695F6B",
"f  c #586A74",
"g  c #5E737A",
"h  c #6C626C",
"j  c #6F6670",
"k  c #706671",
"l  c #756C74",
"z  c #7A6E74",
"x  c #61757C",
"c  c #7B7375",
"v  c #707278",
"b  c #7D7379",
"n  c #875B59",
"m  c #886D6B",
"M  c #83797D",
"N  c #867A7D",
"B  c #A07D79",
"V  c #C47B65",
"C  c #F27F61",
"Z  c #DA9369",
"A  c #EF8A69",
"S  c #F28163",
"D  c #F08B65",
"F  c #F18669",
"G  c #F0896B",
"H  c #EF916C",
"J  c #EC996D",
"K  c #F09666",
"L  c #F0956B",
"P  c #F19A68",
"I  c #EF8E70",
"U  c #F08E72",
"Y  c #EF9373",
"T  c #EF9D74",
"R  c #EE997B",
"E  c #F09477",
"W  c #EEA36E",
"Q  c #F0A46B",
"!  c #F0AD6A",
"~  c #F1B06F",
"^  c #EEA573",
"/  c #EEAA76",
"(  c #F0AD73",
")  c #EFB473",
"_  c #EEB474",
"`  c #EDBC76",
"'  c #EEB67C",
"]  c #ECBC7C",
"[  c #EDC177",
"{  c #EDC47B",
"}  c #667C81",
"|  c #847E83",
" . c #887E81",
".. c #6B8085",
"X. c #6D8B8D",
"o. c #73908F",
"O. c #748F90",
"+. c #799595",
"@. c #799696",
"#. c #8C8185",
"$. c #8E8789",
"%. c #928686",
"&. c #958A8C",
"*. c #968B8C",
"=. c #9E928F",
"-. c #998D90",
";. c #9D9393",
":. c #A1948F",
">. c #A09494",
",. c #A39B99",
"<. c #AA9E9C",
"1. c #89A29E",
"2. c #98A19E",
"3. c #A4A29D",
"4. c #ADA19E",
"5. c #B0A49D",
"6. c #9EB1AA",
"7. c #ABA7A3",
"8. c #B4A6A2",
"9. c #B5A9A4",
"0. c #B9AEA8",
"q. c #ACB4AD",
"w. c #BDB2AB",
"e. c #ABB7B0",
"r. c #B3BBB1",
"t. c #EE9C81",
"y. c #F09C80",
"u. c #EEA385",
"i. c #EDAA83",
"p. c #EEA48B",
"a. c #EEAC8D",
"s. c #EDB481",
"d. c #EDBE83",
"f. c #EDB58D",
"g. c #EDBE8B",
"h. c #EFA690",
"j. c #EDAD94",
"k. c #EDB994",
"l. c #ECB49B",
"z. c #ECBB9B",
"x. c #C3AEA4",
"c. c #C4B0A6",
"v. c #C3B4AB",
"b. c #C9B5AA",
"n. c #C5B8AF",
"m. c #CEBBAE",
"M. c #C5BAB1",
"N. c #CCBDB2",
"B. c #D1BDB1",
"V. c #ECBCA1",
"C. c #EABAA5",
"Z. c #B9C1B8",
"A. c #ECC483",
"S. c #ECC886",
"D. c #ECC58B",
"F. c #EBCA8C",
"G. c #ECC494",
"H. c #EBCB94",
"J. c #ECC39A",
"K. c #EBCC9A",
"L. c #CEC1B6",
"P. c #C5C4B9",
"I. c #D5C3B5",
"U. c #D8C6B7",
"Y. c #D2C5BA",
"T. c #D9C7B9",
"R. c #D5C9BD",
"E. c #DBCCBC",
"W. c #DFD0BF",
"Q. c #ECC1A5",
"!. c #EACDA2",
"~. c #ECC4AC",
"^. c #EBCDAC",
"/. c #EAD1A4",
"(. c #EAD3AC",
"). c #ECC6B2",
"_. c #EBCCB3",
"`. c #E1CFBF",
"'. c #EBCCB8",
"]. c #EAD4B3",
"[. c #E9D7B5",
"{. c #E3D2BE",
"}. c #EAD4BB",
"|. c #EBD9BC",
" X c #F0D0BA",
".X c #CDCDC0",
"XX c #DBCEC1",
"oX c #DED1C2",
"OX c #DFD7C8",
"+X c #E5D5C3",
"@X c #E9D6C4",
"#X c #E7D8C7",
"$X c #EAD9C5",
"%X c #E5D7C8",
"&X c #E7D9C8",
"*X c #EADCCA",
"=X c #EFE0CE",
"-X c #EEE1D0",
/* pixels */
"  @ @ @ @ @ @ @ @ @ @ @ @ @ @ @ @ @ + @ + @ @ + + + % 2 e h M M N M z d e 2 * . X + @ @ @ + @ @ @ @ @ @ @ @ @ @ @ @ @ @ @ @ + @ ",
"  @ @ @ @ @ @ @ @ @ @ @ @ @ @ @ @ @ @ @ + + @ < a %.8.m.T.oX+X*X@X@X@X+X`.m.8.%.a , @ + @ @ @ @ @ @ @ @ . @ @ @ @ @ @ @ @ @ @ @ ",
"  @ @ @ @ @ @ @ @ @ @ @ @ @ @ @ + @ + O $ i ;.I.#X$X$X$X+X+X{.@X*X#X#X*X@X@X@X@X{.N.=.r = O @ @ @ @ @ @ @ @ @ @ @ @ @ @ @ @ @ @ ",
"  @ @ @ @ @ @ @ @ @ @ @ @ @ @ @ + O # h 8.+X*X$X#X$X@X@X@X+X@X@X@X@X@X&X%X%X@X+X@X#X$XW.8.h $ @ @ @ @ @ @ @ + @ @ @ @ @ @ @ @ @ ",
"  @ @ @ @ @ @ @ @ @ @ # @ @ @ + + w 4.+X=X#X+X+X@X+X+X+X{.{.{.{.`.@X@X#X+X@X#X@X+X@X{.+X#XoX4.r @ @ @ @ @ @ + @ @ @ @ @ @ @ @ @ ",
"  @ @ @ @ @ @ @ + + # @ @ @ + % M R.=X#X{.+X+X+X@X{.{.{.`.+X{.`.`.`.`.{.{.{.`.+X@X{.+X@X@X|.*XR. .* o @ @ @ @ @ @ # @ @ @ @ @ @ ",
"  @ @ @ @ @ @ @ @ @ @ @ @ @ 3 4.=X$X#X#X+X+X$X+X#X#X+X@X{.@X@X*X#X@X+X%X%X*X#X#X@X+X{.+X{.+X$X#X&X7.6 o @ @ @ @ @ @ @ @ @ @ # @ ",
"  @ @ @ @ @ @ @ @ @ @ @ + 9 v.=X$X#X{.{.{.#X@X#X#X%X@X#X#X#X%X#X#X*X@X#X#X$X#X@X$X+X@X+X+X+X+X#X&X*Xn.e X @ @ @ @ @ @ @ @ @ @ @ ",
". @ @ @ @ @ @ @ + @ @ + w N.*X&X&X#X@X@X`.{.+X+X@X#X#X#X&X$X$X@X@X#X@X*X@X}.@X{.+X{.@X+X+X+X+X#X*X*X&XY.r X @ @ @ @ @ @ @ @ @ @ ",
"  @ @ @ @ @ @ @ O @ X 9 M.*X&X&X&X&X#X@X{.{.+X+X#X+X@X+X+X{.@X@X@X@X@X*X*X@X@X+X@X+X`.@X@X#X#X*X*X*X&X*XN.9 X @ @ @ @ @ @ @ @ @ ",
". + @ @ @ @ @ @ @ + : 0.*X&X&X*X*X*X*X#X}.@X@X@X@X`.{.{.{.@X@X@X*X$X@X$X*X*X@X@X+X}.@X@X@X#X*X*X=X=X=X&X*Xw.2 o @ @ @ @ @ @ @ @ ",
"O @ o @ @ @ o @ @ $ =.$X&X&X$X*X*X*X=X*X@X@X+X{.{.`.{.{.{.{.@X@X$X$X$X*X*X@X@X@X+X+X@X+X#X$X$X*X=X*X-X*X&X-X>.& O @ @ @ @ @ @ @ ",
"O @ @ @ @ @ @ & o d +X*X&X$X&X*X=X*X=X*X$X$X$X@X@X{.`.{.{.@X@X$X$X$X$X$X=X$X*X@X@X#X*X*X&X*X&X*X=X=X*X}.}.}.@Xz o @ @ @ @ @ @ @ ",
". @ @ @ @ @ @ @ 2 n.*X*X$X].*X=X-X=X=X*X*X*X*X&X@X+X@X#X@X@X$X*X*X=X$X=X=X=X*X=X*X&X*X=X*X&X&X&X&X*X^.s.J.~.$XL.2 @ @ @ @ @ @ @ ",
". @ @ @ @ @ @ @  .*X*X*X*X^.].=X=X*X=X=X*X*X*X$X#X#X#X#X#X$X*X=X=X=X=X$X X X X=X*X=X=X*X*X=X&X$X$X_._ f.#X*X*X*X&.@ + @ @ @ @ @ ",
"  @ @ @ @ @ o 2 N.*X*X$X*X*X/.|.=X*X=X*X*X*X$X#X#X%X*X&X#X*X*X*X*X*X@Xa.E G L J.=X*X*X=X=X*X&X*X(.' ~ _.*X*X*X*XR.6 + + @ @ @ # ",
"  @ @ % @ @ @ M *X=X*X&X*X*X*X|.*X=X=X*X*X*X*X=X*X*X].~._.}.$X*X&X*X}.] P C D Y $X*X*X=X=X*X*X|.s.! G.$X*X*X*X*X*X#.@ @ @ o @ @ ",
"  @ @ @ @ @ $ w.*X=X*X*X*X*X*X*X|.$X=X=X*X*X*X*X*X'.I A ^ g.}.*X*X&X@Xs.! K K Y $X-X=X=X=X=X|.].d.g.*X=X=X*X*X&X*XM.= @ & o @ @ ",
"  @ @ @ @ + w +X*X*X*X&X*X*X*X*X$X(./.|.*X*X&X*X*Xz.S D K ( !.=X*X*X$Xg.~ Q / j.=X=X=X*X*X(.S.S.K.|.=X=X=X*X*X*X*X%Xi @ @ @ @ @ ",
"  @ @ @ @ + b =X=X*X&X&X&X*X=X*X*X$XH.F.[.#X&X#X&Xz.S D D W d.$X*X&X&X^.^ P _ ^.=X*X=X$X[.S.A.!.$X=X=X*X*X*X#X#X*X=X .@ @ @ @ @ ",
"  @ @ @ # @ 3.=X=X*X*X&X*X=X*X*X&X*X#X/.F.H.^.}.@Xa.C F F K _ K.*X&X&X$XQ./ W J.*X=X=X_.H.K.}.&X=X=X=X=X*X*X*X%X&X*X9.@ @ @ @ @ ",
"O @ @ @ + : n.=X=X*X*X&X*X*X*X*X&X&X#X#X[.K.F.(.!.L C S S K _ K.&X&X*X}.#X_.i.'.*X*X=X/./.$X#X#X*X=X*X=X*X*X%X*X&X*XY., @ @ @ @ ",
"O $ @ + + 2 E.=X*X*X*X*X&X*X*X*X#X&X#X#X#X#X[.[.H.Q H K ^ z.^.#X#X*X/.F.[.#Xj.z.&X&X|.(.$X&X&X&X@X*X*X*X*X*X*X%X*X*XXX9 @ @ @ @ ",
"  @ @ + + w oX*X=X=X=X*X*X&X*X*X&X#X#X*X*X%X&X@XF.{ { A.(.#X@X$X$X{.F.] }.&XC.R }.$X$X$X&X&X$X&X*X*X*X*X*X*X*X+X&X&X%Xi X @ @ @ ",
"  @ @ @ @ r %X*X=X*X-X*X*X&X&X*X*X#X#X&X#X#X*X@XH.{ { K.(.H.H.}.|.H.` ] '.&X].R l.$X$X&X&X&X&X&X#X&X&X&X&X*X&X&X*X*X*Xa X @ @ @ ",
"  + @ @ + r #X*X=X=X*X=X*X$X&X&X*X#X#X$X#X#X*X&X$X(././.{ d.A.H.(.A.d.].}.(.|.k.T }.&X&X$X&X*X&X#X&X$X#X&X&X&X$X$X#X%Xd X @ & @ ",
"O @ @ + X r %X=X=X*XE.E.*X%X#X*X&X&X&X#X$X*X&X$X*X$X].F.A.F.A.) A.K.}.&X{.H.(.F.T i.}.$X&X&X&X*X&X&X&X&X$XE.I.}.#X*X*Xa X @ o @ ",
"O @ @ @ X w +X*XXXT.b.b.I.E.%X&X*X&X&X&X&X&X#X#X$X[.(.F./.A.! ' g.g.D.!.].H.{ { ] W z.#X&X$X*X*X*X$X$XE.I.x.x.I.T.#X+Xr X @ @ @ ",
"O @ @ @ . 6 R.$XT.m.b.x.b.m.%X*X*X*X&X&X*X*X&X@X[.|.]./.(.d.J.}.#X}.^.J.G.J.H.g.g.{ ].*X&X#X&X&X&X#X+Xm.c.9.x.b.B.#XXX9 X @ @ o ",
"O @ @ @ @ : M.@XI.m.b.b.m.I.T.*X*X*X*X*X*X*X&X$X#X#X$X|.].}.&X&X*X&X$X*Xz.H Y L J Q i.).*X*X&X#X&X%XU.N.m.c.c.b.B.%XL., o @ @ @ ",
". @ + @ @ $ 4.E.T.E.m.B.XX@X&X*X=X*X*X&X*X*X*X&X#X#X*X*X&X#X#X&X%X#X&X~.U C S C C C C j.*X#X#X#X#X%X@X+XE.m.b.I.U.E.8.& @ @ @ @ ",
"  + @ @ @ . M @X+X*X`.%X+X*X*X*X*X*X*X*X*X*X*X=X&X&X&X*X#X&X#X#X#X#X&Xp.C S S S C S S p.*X&X&X&X#X#X#X+XE.@XU.+X{.%X#.X @ @ @ @ ",
"O @ @ @ @ o w %X*X*X%X*X#X$X*X*X*X*X*X$X$X*X-X*X*X$X*X=X|.*X#X#X$X&X#Xt.C C S S S S C p.&X&X%X%X$X&X#X+X{.&X{.%X@X%Xr X @ + @ @ ",
"O @ @ @ @ @ * w.*X#X+X*X+XE.E.@X*X=X-X*X*X$X$X$X$X#X$X|.|.*X&X#X#X&X).F S S C S C S F C.&X&X*X#X%X{.U.I.`.%XoX%X*Xn.: @ @ @ @ @ ",
"  @ @ @ @ @ o M *X*XoX+XE.E.I.E.oX=X=X=X=X#X[.$X[./.|.=X[.@X$X#X$X#Xp.C S C S C C C p.*X&X&X&X$X`.I.B.I.U.W.+X%X=X#.+ @ + @ @ + ",
"+ @ @ @ @ @ @ 3 Y.*X+X+XU.I.I.T.E.oX$X*X*X$X/.(.F.{ S.[.[.(.*X#X&X#XE C S S S S C I ).%X&X&X&X%XU.U.I.B.U.E.oX*XE.9 + @ @ @ @ @ ",
". @ @ @ + + @ @ #.*X+XE.E.E.E.W.+X%X$X=X*X|.F.F.{ { [ F.[./.|.*X*X@XU S C C S C S V.*X+X#X#X#X%X$XW.T.T.W.E.{.*X*.@ @ + @ @ @ + ",
"  @ @ @ @ @ @ @ 3 M.%X%X%XW.+XW.%X$X#X=X*X$XF.{ { { [ { K.(./.$X=X XG C S S S S t.#X*X*X*X#X#X&X#X+X+XW.+X+X#XL.6 O @ + @ @ @ @ ",
". @ @ @ @ @ @ @ @ k +X&X&X+X%XoXOX#X=X-X).p.' [ { { { { { /.].|.@Xz.S S C C C S l.&X#X#X#X#X#X#X@X+X%X+X#X*X#Xc . @ @ + @ @ @ @ ",
"O @ @ @ @ @ @ @ @ % ;.*X%X@X%X+XW.W.%X*XQ.D D ! [ { { { { A.].*X$Xk.S C E U C C l.&X&X#X#X#X+XoXE.+X+XoX#X=X3.# + @ @ @ @ @ @ @ ",
"  @ @ @ @ @ @ + @ o 2 w.-X%X%X+XW.E.oX}.d._ ^ ] s.A.{ { { { d.{.$XH.L C y.y.C E '.@X*X%X#X@XW.E.E.E.+X+X*XM.3 @ @ @ + @ @ @ @ @ ",
"O + @ @ $ + + @ @ o o 9 N.*X%X%XW.W.+X!./ l.).+X$X}.K.K.(.^.J s.(.^.F C S E l.@X*X%X%X*X#X%X+XW.W.W.W.%XY.w X @ @ @ @ @ @ @ @ @ ",
"  @ @ @ @ @ @ @ @ @ o X r N.*X&XoX#X&X[.~.#X%X#X*X%X$X$X&X(.` `  X$XR C C h.*X*X%X*X%X*X#X#X%X%X+X%X$XY.a @ @ @ . @ @ @ @ @ @ @ ",
"  @ @ @ @ @ + @ @ @ o o o e M.*X+X$X#X#X#X%X#X#X#X&X&X%X&X!.[ d. X=XV.S C t.*X*X*X+X*X@X#X#X@X#X#X&XM.r X @ @ o @ @ @ @ @ @ @ @ ",
"O @ @ @ @ @ @ @ o @ o & @ + 8 7.*X$X%X*X#X%X#X#X#X*X%X#X%XK.[ g.=X=X@XE C E @X%X*X%X*X&X$X&X&X&X#X9.9 + @ @ @ @ @ $ @ @ @ @ @ @ ",
"  @ @ @ @ @ @ @ & @ @ @ @ @ @ : #.R.=X$X*X%X$X#X$X%X%X$X*X!.` G.*X@X*Xl.C S ).&X%X*X&X&X&X&X&XE.%.: @ @ @ @ . @ @ @ @ @ @ @ @ @ ",
"  @ @ @ @ @ @ @ @ @ @ @ @ @ @ @ + r 9.#X*X#X%X#X$X%X#X#X%X/.` !.*X*X*XC.F C C.*X#X*X*X*X=X&X0.a @ @ @ @ @ @ @ @ @ @ @ @ @ @ @ O ",
"  @ @ @ @ @ @ @ @ @ @ @ @ @ @ @ @ O % j w.%X*X*X#X#X#X%X%X/.] ^.*X@X*X@Xy.C y.*X*X*X=X&Xv.k = o @ @ @ @ @ . @ @ @ @ @ @ @ @ @ . ",
"  @ @ @ @ @ @ @ @ @ @ @ @ @ @ @ @ @ @ + : s ,.Y.&X*X$X&X+XG.` ^.*X&X&Xz.J L E  X*XE.,.h = @ o @ @ @ @ @ @ @ @ @ @ @ @ @ @ & o o ",
"O @ @ @ @ @ @ @ @ @ @ @ @ @ @ @ @ @ @ @ @ X @ 3 j =.v.R.C.A W f.).~.Q.u.J Z V B k 6 @ + @ @ @ @ @ @ @ & @ @ @ @ @ @ @ $ @ @ @ o ",
". @ . @ @ & @ o @ @ @ @ @ @ @ @ @ @ @ @ @ @ @ + . @ * 5 e t y m m n y t 4 2 $ @ + @ @ @ @ @ @ @ @ @ @ @ @ @ @ @ @ @ @ @ @ @ o @ ",
"O @ @ @ @ @ @ @ @ @ @ @ @ @ @ @ @ @ @ @ @ @ @ @ + @ + @ @ + o o o @ o o . . @ @ o @ @ @ @ @ @ @ & @ @ @ @ @ @ @ @ @ @ o @ @ @ @ ",
". . @ @ @ @ @ @ @ @ @ @ @ @ @ @ @ @ @ @ @ o @ @ @ @ @ @ @ @ @ @ & o @ @ @ @ @ @ @ @ @ @ @ @ + @ @ @ @ @ @ @ @ @ @ + @ @ @ @ @ @ ",
". @ @ @ @ @ @ @ @ @ @ @ @ & @ @ @ @ @ @ @ @ @ X . @ @ @ @ @ o @ o @ o @ o @ @ o o @ @ @ @ @ @ + o @ @ @ @ @ @ @ @ @ @ @ @ @ @ @ ",
"  @ @ @ @ @ @ $ @ @ @ @ @ @ @ @ + @ @ @ @ @ * 1 , , : 1 1 , 5 > @ @ * 1 1 > ; 5 5 5 * @ @ @ @ @ @ @ @ @ @ @ @ @ @ @ @ @ . @ @ o ",
"  @ @ @ @ @ @ @ @ @ @ @ @ + @ @ @ @ @ @ @ @ * 5 0 5 1 0 5 5 0 1 @ o , 0 5 1 , 5 0 0 * @ @ @ @ @ o o @ @ @ @ @ @ @ @ @ @ @ @ @ @ ",
"X @ @ @ @ @ @ @ @ @ o @ * 3 * @ X * * @ @ @ @ 5 : + o & = + @ + @ 3 , @ @ @ : @ o * 5 * @ 2 * , 3 2 : @ + @ @ @ @ @ @ o @ @ @ @ ",
"  @ o @ @ @ @ @ @ @ @ @ 9 R.l X X b >.@ @ o < N.#.X X d <.% @ @ * w.>.@ + e 0., X h oX*.* <.r 9.P.q.q.k @ + . @ @ @ o @ @ @ @ @ ",
"  @ $ @ @ @ @ @ @ @ @ X w &Xc X & w.oX0 o . 2 XX-.X @ 4.*Xa + @ : I.<.@ @ *.=Xk X j *XOXs 9.i M.,.- f r.9 . . @ @ @ . @ @ @ @ @ ",
"O @ @ @ @ @ @ @ @ @ @ X 9 %Xc   i oXe.$.@ @ 3 XX*.X 9 R.e.;.& @ * L.7.o , N.r.7.* k *Xr.w.M.i M.:.+ # 5.j . @ @ @ @ @ @ @ @ @ @ ",
"  @ @ @ @ @ @ @ + @ # @ w %Xl O ;.OX2.P.2 X 1 XX*.  | %X2.P.w + : N.4.X j -X2.P.s h *Xv q.%Xr M.:.O , w.p @ + @ @ @ @ @ @ @ @ @ ",
"  @ @ @ @ @ @ @ @ @ + + w %X,.p .Xe.X.6.| X 2 XX0.i M.Z.X.1.-.@ : L.N.p 9.P.X.1.3.v =Xs u .Xi M.v.l 7.1.* @ @ @ @ @ @ @ @ @ @ $ ",
"  @ @ @ @ @ @ @ @ @ @ @ < o.+.x O.q X 7 g o - X.@.g o.u + 7 g & & ..@.} X.f + - g u +.q # g 7 } @.@.x - @ @ @ @ @ @ @ @ @ + @ @ ",
"  @ @ @ @ @ @ + + @ + # + + + @ + X @ @ @ @ & + & @ + + @ @ @ @ @ @ @ @ + + @ + + + + + + O @ @ & @ + @ @ @ @ @ @ @ @ @ + + @ @ "
};
