/* XPM */
static char *_f022c5d2bd14151f9beebc4e87207dfZ5HD9otfNejrGcF5[] = {
/* columns rows colors chars-per-pixel */
"64 64 104 2 ",
"   c #9C0EFF",
".  c #9D13FF",
"X  c #9F1AFF",
"o  c #A01EFF",
"O  c #A124FF",
"+  c #A32BFF",
"@  c #A533FF",
"#  c #A73BFF",
"$  c #A83FFF",
"%  c #A740FF",
"&  c #A943FF",
"*  c #AB4CFF",
"=  c #B24EFF",
"-  c #AE53FF",
";  c #AF59FF",
":  c #B057FF",
">  c #B15CFF",
",  c #AF63FF",
"<  c #B465FF",
"1  c #B56BFF",
"2  c #B96CFF",
"3  c #B772FF",
"4  c #B975FF",
"5  c #BB7DFF",
"6  c #C27FFF",
"7  c #BD83FF",
"8  c #BF8AFF",
"9  c #C485FF",
"0  c #CA86FF",
"q  c #C18DFF",
"w  c #C392FF",
"e  c #CB95FF",
"r  c #CE99FD",
"t  c #D196FF",
"y  c #D49AFF",
"u  c #DB9DFF",
"i  c #E19FFE",
"p  c #DFAEEE",
"a  c #D5A4F5",
"s  c #DBA5F4",
"d  c #DDA1FB",
"f  c #DFA9F8",
"g  c #E7ADEF",
"h  c #EEABEE",
"j  c #FFA7EF",
"k  c #F0ADEF",
"l  c #FFACED",
"z  c #EBBBE6",
"x  c #E4B3EB",
"c  c #ECB3EC",
"v  c #EEBAE8",
"b  c #F3B6E7",
"n  c #FFB5E7",
"m  c #F3BDE4",
"M  c #FFBCE3",
"N  c #F5B6E8",
"B  c #FFB1EA",
"V  c #FFB4E8",
"C  c #FFB7E8",
"Z  c #FFB2EC",
"A  c #E0A7F4",
"S  c #E4A7F5",
"D  c #E3A9F3",
"F  c #E6ABF2",
"G  c #E6ADF1",
"H  c #E4A8F4",
"J  c #E8ADF1",
"K  c #E1A5F8",
"L  c #E2A3FD",
"P  c #E4A2FE",
"I  c #E6A3FF",
"U  c #E7A3FF",
"Y  c #E8A4FE",
"T  c #E9A4FE",
"R  c #E9A4FF",
"E  c #FFA5F1",
"W  c #FFA7F0",
"Q  c #FFAAF0",
"!  c #FFB6F5",
"~  c #FFCFD7",
"^  c #F6C6DE",
"/  c #FFC2DF",
"(  c #FAC6DD",
")  c #FFC5DD",
"_  c #FFC6DD",
"`  c #F7CADB",
"'  c #F7C8DD",
"]  c #FFCBDA",
"[  c #FBCDD9",
"{  c #FFCDD9",
"}  c #FFCCDA",
"|  c #F9C8DC",
" . c #FFD3D4",
".. c #FFD3D5",
"X. c #FFD1D6",
"o. c #FFD0D7",
"O. c #FFD4D4",
"+. c #F2C1E1",
"@. c #F0C0E3",
"#. c #F4C1E1",
"$. c #F4C4E0",
"%. c #FFC0E0",
"&. c #FFC0E1",
"*. c #FFC2E0",
/* pixels */
"W W W W W W W W W W Q W W W W W j j W W W W W W W W W W W W W W W W j W W W Q ! l l W E E W l l W W W W j j j W W W W W W W W Q ",
"l l j l l l l Q l l l l l l l l l l W l l l l l Q l l l l l l l l l l j l l Q Q l l l l W l l l l W l l l l l l W l l l j l l l ",
"B l l l B l l l l l B l l l l l B l l B B B l l B l l l l l l B l l l l l l l Z l B B l l l l l B l l l l B l l l l B l Z l l Z ",
"B B B B B B B B B l B B B B B l B B B B l B B B B l B l n B n l l B l n B l B B B l n l l l B B B B B l B l n B l B B B B B B B ",
"n n n n n n n n n n n B n n n n n n n n n n n n n n n n n n B n n n n n n n n n n n n n n n n n n n n n n n n n C n n n n n n n ",
"n n n n n n n n n n n n B n n n n n C n n n n n n n n n n n n n n n n B n n n n n n n n n n n n n n n n n n n n n n n n n C n C ",
"n n n n n n n n n n n n n n n n n n n n n n n n n n n n n n n n n n n n n n n n n n n n n n n n n n n n n n n n n n n n n n n B ",
"n n n n n n n n n n n n n n n n n n n n n n n n n n n n n n n n n n n n n n n n n n n n n n n n n n n n n B n n n n n n n n n C ",
"n n n n n n n n n n n n n n B n n n n n n n n n n n n n n B C n n n n n n n n n n n n n n n n n n n n n n n n n n n n n n n n n ",
"l n n n n n n n n n n n n n n n n n n n n B n n n n C B n n n B n n n n B n n n n n C n n B n n n n B n n n n n M n n n n n n C ",
"M n M M M M M n M M n M n M M M M n n M M M M n M M M M M M M M M M M M M M n M M M M n M M n M M M M M M M n n Z h h h k k h k ",
"&.M M M M M M M M M M &.M M M M M M M M M M M M M M M M M M M M M M M M &.M M M M M M M M &.M M M M M M M M M g r t u u y u y y ",
"M M M M M M M M M M M M M M M M M M M M M M M M M M M M M M M M M M M M M M M M M M M M M M M M M M M M M M N u w w d d e e e e ",
"M M M M M M M M M M M M M M M M M M M M M M M M M M M M M M M M M M M M M M M M M M M M M M M M M M M M M M M d e w w w w q w w ",
"M M M M M M M M M M M M M M M M M &.M M M M M M M M M M M M M M M M M M M M M M M M M M M M M M M M M M M M N d e w w w w w w w ",
"M M M / M M &.M M M M / M M M M M M / M M M M M M M M M &.&.M M M M M M M M &.M M M M M M &.M M M M M M M &.c d e 8 w w w w w w ",
") / &./ &.) M ) &./ &.) &.&.&.*.*.) ) &.*.&.*.&./ &.) &.) &.&.&.) &.) &.&./ / &.&.&.&.&.M ) M / / / &./ M / g P e 8 w w w w w w ",
"/ / &.&.&./ &.&.&.&.&.) ) &.*.&.*.&.*.*.) &.) &.) &.&.&.&.&.&.) &.&.&.&.M / &./ &.) &.) %.) / / ) &.&./ / M A u w w w w w w w w ",
"/ / M ) / ) ) &./ ) ) / &.&.) ) ) &.) *._ ) &.&.) &.) / / &.) ) ) &.) ) ) ) &./ ) ) ) / M ) b h b M ) ) ] c u u w w w w w w w w ",
") ) ) ) ) ) ) ) ) ) ) ) ) ) ) &.) *.) *.) ) ) ) ) ) ) ) ) ) ) / ) ) &.) ) ) ) ) ) ) ) ) ) b P P L F g c m s r t w w w w w w w w ",
"] ] ] { { { { { ] ] ] ] ] { ] { ] ] ] { { { { ] { ] ] ] ] ] ] ] { { ] ] { ] ] ] { ] ] { ( S i i P u u u r e u e w w w w w w e d ",
"{ { { { { { { { { { { { ] { { { { ] { { { { { { { { ~ ] ] ] { ] { { { { { { { ] { { { ( D P y t t t e t t e a w w w w w w e d d ",
"v | o.{ o.{ { o.o.~ { o.~ { ~ ~ { o.o.o.o.{ { o.o.( m c J F v ^ { o.{ { { o.o.{ { ^ c H P u w t r w e w e t y 8 w w w w e P d e ",
"t A ' O.O.O.o.O.o.O.O.O.o. .O.O.O.o.O.o.O.O.o.O.` s t i u P P d G G x +.$.$.$.m x d P P d w w e e w w w w y t w w w w w P T r w ",
"w e s m o.O.O.O. . . . .o.O.O.O.O.O.O.O.O.o.O.O.x e r y e e u P P P P P P P P P P T T u w w e t w w w w e d e w w w w u R P w w ",
"w w w e p +.^ o.o.O.O.o.O.O.O.o.O.o.O.o.O.O.O.O.x e e r w w e e t T T T T P u t t T u w w w t e w w w w e y w w w w u T R u w w ",
"w w w w e w y D x ^ o.O.o.O.O.o.o.O.O.O.O.o.O.` s w w w w w w w t T d u R d w w r u r w w w t w w w w w y r w w e d P T T w w w ",
"w w w w w w w e e y x ' O.O.O.O.O.O.O.o.O.O.O.^ u e w w w w w w d y w t R u w r u e w w w y t w w w w w e w w q a T T T u w w r ",
"w w w w w w w w q w t S v ^ O.O.O.O.O.o.O.O.o.p P r w w 8 w w u P w w t P t r e w w w w w r w w w w w w 8 w w r P R u u r 8 w w ",
"w w w w q w w q w e u u y u z ` { o.O.O.O.o.z y P r w w w w t u w w w d y w w w w w w w w w w w w w w w w q w d P y e a q w w w ",
"w w e e w w w w r u e w w y d u a x ^ [ O.+.a e r w w w w w t e w w t u w w w w w w w w w w w w w w w w w q t u r w a r w 8 w r ",
"w e u w w w w w e w w w w y r w w w e a x f u w w w w w w w w w w e u e w w q w w w w u P d w w w 8 w w w e u w w r a w w r 8 8 ",
"w d r w w w w 8 8 w w w e t w w w w w w w u r w w w w w w w w 8 w u e w w w w w w r d P T i e w w w w w w u e w w y w w w w w w ",
"y d w w 8 w w w w w w w t w w w 8 w w w P t w w q w w w w w w w w e w w w w w q e P T P y e t w w w w w u r w w t y 8 w w w 8 r ",
"P r w w w w w e w w w w e w w w w w w u u w w 8 w w w w y r w w w w w w t t e w u T u t t w e e w w w t y w w w y e w w w w w w ",
"t w w 8 w w e d r w w 8 w w w w w w t P e w w w w w w w y e w w w w w e e w w u d t e t w w w w w w w t w w w e y w w w w 8 8 r ",
"w w w w w w y t w w w w w w 8 w w 8 y d w w w w w w 8 e y w w w w w w t e w u y e w r e w w w w w w w w w w w d r w 8 w w r 8 8 ",
"w w w w w r u w w w y d u t w w w w a y w w q w q w e y e w w w w w e e w e t w w e e w w q w w w w 8 w w 8 w w 8 8 r w 8 8 8 3 ",
"e w w w w u e e t t d u P P t e w w t w w w w w w r t t e w w w w t e w e e w w w e w 8 8 w w w w w w w w < 4 8 w w 8 8 7 8 7 @ ",
"u e w w e t t e e e t w e P y r r w t w w w w w y y e y e w w w w y e e y w w w w w 7 * 7 w w w w w 8 8 7 * & 5 w 8 8 8 4 4 & X ",
"e e w w w w w w w u t w w r u y e w e w w w w e u e e y w w w w t e u y w w w w w 8 , X , 8 w w w 8 7 1 * X + 1 8 8 3 7 1 * X . ",
"w w w 8 w w w w e y w w e e w e w w w 8 w w w e e w 6 9 w w w w e w t t w w w w w 5 O . - q 7 q w 8 1 < $ . + ; 3 3 ; 1 ; + . X ",
"w w w w w w w w w w w t t y t w q w w w w w w e q 4 % 1 w w w w w w 6 8 8 w w w 8 < X X ; 7 5 3 3 3 < , % X . % , + @ , * O   X ",
"e w w w w w w w w w r t w w w e w w w w w w w w q 2 O @ 3 w w w q ; ; 5 w w 7 7 5 *     # 1 < - @ > < ; @ . . & * X @ ; $ @ . X ",
"t w w w w w w w w w e e w w q q 7 8 8 w w w 7 8 q : X + 3 8 7 w < X $ 3 7 1 < < < * .   X @ @ X X ; < & .   . @ X   + $ $ $ X X ",
"d w w 8 8 w w w w 9 q w w q w 5 5 7 7 8 8 8 * 3 0 = . O < 3 5 7 @   @ < < & @ ; - $ . . @ # @   X @ ; $ .     X X   + $ - * @ & ",
"r e 8 7 8 q 8 w t 0 q w q 4 q 5 3 7 5 5 7 , X # 1 +   O - < 1 < +   + > * X X * , $     X + X   . . O X               . X X @ $ ",
"w e 7 3 8 7 8 w 0 1 5 5 4 1 5 1 1 1 3 3 < * X X % X     + , < $ .   X ; - X   O O .                                   . .     X ",
"5 6 2 < 4 2 2 2 1 1 < < < < 1 < < < < 1 > # o   o O     . % ; +     o + o                                                     . ",
"< 2 < < < < < < < < < < < 2 < > > > > > % X .   . .       . .                                                         .       X ",
"< < < < < < < < < 1 > : : * + o X o X X .                                                                                     X ",
"2 < < 2 < : # @ @ @ O o o                                                                                                     X ",
"< - @ @ @ o                                                                                         .                         X ",
"+ .                                                                                                                           X ",
"                                                                                                                              X ",
"                                                                                                                              X ",
"                                                                                                                              . ",
"                                                                                                                              o ",
"                                                                                                                              o ",
"                                                                                                                              . ",
"                                                                                                                              o ",
"                                              .                                                                               . ",
"                                                                                                                              o ",
"                                                                                                                              o "
};
