/* XPM */
static char *result[] = {
/* columns rows colors chars-per-pixel */
"64 64 88 1 ",
"  c #9A3D69",
". c #A13F6B",
"X c #9F406C",
"o c #A74370",
"O c #AA4572",
"+ c #BC4571",
"@ c #B44A77",
"# c #B74A78",
"$ c #BB4C7A",
"% c #B55078",
"& c #BE567C",
"* c #C14570",
"= c #C14F7D",
"- c #D54B78",
"; c #E25279",
": c #EB517E",
"> c #C65181",
", c #CA5282",
"< c #CB5E83",
"1 c #D15787",
"2 c #D65E83",
"3 c #D55789",
"4 c #D75889",
"5 c #DA5B8B",
"6 c #E35382",
"7 c #EF5982",
"8 c #E55E8A",
"9 c #F25D83",
"0 c #FB5C80",
"q c #CE6184",
"w c #DE618D",
"e c #DD6C8C",
"r c #E2648E",
"t c #ED658B",
"y c #E36A8F",
"u c #FB6284",
"i c #F76E8F",
"p c #FC718E",
"a c #E46790",
"s c #E66A90",
"d c #E96D92",
"f c #E57291",
"g c #EC7393",
"h c #ED7B94",
"j c #F27493",
"k c #F87792",
"l c #F37B97",
"z c #FA7B94",
"x c #F67E98",
"c c #FF8C8E",
"v c #F28494",
"b c #FD8397",
"n c #F28997",
"m c #F88992",
"M c #F78099",
"N c #F9839A",
"B c #F38A98",
"V c #FB8B9B",
"C c #FD949B",
"Z c #FE9C9C",
"A c #FFA39E",
"S c #FFAA9C",
"D c #FFB49E",
"F c #FFB89E",
"G c #CD86BE",
"H c #D385BC",
"J c #D788BA",
"K c #DB8AB9",
"L c #DC92BE",
"P c #E78FAF",
"I c #EB8FAC",
"U c #EE90AA",
"Y c #F797A7",
"T c #F798A7",
"R c #FB9BA3",
"E c #F494A9",
"W c #F39BAD",
"Q c #E48EB2",
"! c #E08EB8",
"~ c #E490B3",
"^ c #FEA1A0",
"/ c #FFACA0",
"( c #FFB5A7",
") c #C587C1",
"_ c #C987C0",
"` c #C388C2",
"' c #DD96C0",
"] c #E2A4C8",
/* pixels */
"``````````__)```)))))`)))))))))))))G))))_))__G_G___GHGGGGG__G_GH",
")``)))```)__)_))_)))`)_G)__)GG)GGGHGGGGHGGGGGHGHHHHHHHHHHHHHHHGH",
"GGGGH_GGG)__HH__HGGH__HHHH_HHHHHGHHHHHHHHHHHHHHHHHHHHHHHHHHHHHHH",
"HHHHHHHHh`__HHK_HHHH__KHHHHHHHHHHHHHHHHHHHHHHHHHHHHHHHHHHHHHHHHH",
"HJHHKHHKHKHKKH_!)__K_hJJ_KHHKKHHKKKHHHKK'HHHKKKHHHKKHKKHKKKHHHHK",
"KKKKKJKKKKKKKKK!x!!K'KKKK!KKKKKKKKKKKKKK_xKKKKK!KHKKKKKKKKKKKKKK",
"JJJKKKKJKKKHHKKH'HL]'HKKKKKKKHKKKKHKKKKHKHKKKH_!HKKKKKKKKHKKKHKH",
"JJJKKKKJKKKKKKKKKKK]]_JJKHKKKKKKKKKKKKKKKKKKKKKHKKKKKKHKHKKKKKKK",
"KKKKKKKKKKKKKKKKJKKLKKJKH'K_hKKKKKKKKKKx_KKK!x_KKKKKKK!!KK!KKKKK",
"!!K!KKKKKKK!KKKKKKKKKKKKxK!__KKKKKKK!!!KLL!K!!LLQK!!!!K!x!!!!!!!",
"KKH_KK!!KH_!_x!K!!!!!K!K_L!x''!!!_KK!!!!!!!!!!!!K!!!!K!!'K!!!!!!",
"!!'x!!!!x'!!LQ!!!!!!!!!Q!!!!!!!!!'xQP!!!!!!!Q!Q!QQ!!Q!Q!K!!!Q!!!",
"QPQPIQ~~QQIQQIPPPQQQQQQIQIQQPPPPPP!PPQPPPPPPPPPPQPQQQQQQQQQIIQIQ",
"QQPPQQQQQIQIQQIQQQQPPQQQQQIQPPIPQQQQPPPPPPPPQQPPQPPPQIQQQQQQQQQQ",
"QQQQQQQQQIQQQQQQPQQQQQQQQQQQPPQQQQQQQQQQQQQQQPQ!QQQQQQQQQIQQ!QQI",
"PQIPIQIQQQQIQQIPQQPPIIIQIQQIPPPPPPPPPPQPPPQIPPPPIIIIQIIIQQQIIIII",
"IIIPUIUPIIIIIIIUIIIUIIUUIIIUIIUIIIIIUIIIIIIIIIIIIIUIIIUIUIUUUIUU",
"IIUUEUUUUIUUUUIUUUUUUUUUUIUUUUUIUUUUUUUUEEUUUUUUIUUUIUUUUUUUUUUU",
"EUEUUEEUUEEEEEEUEEEEEEUEEEEEEEEEEEEEEEEEEEUEEEUEEWEUEUEEEEEEEUUE",
"EUEEEEEEEEEEEEEEEEEUEUEEUEEEEEUEUEUEEEEEEEEEEEEEEEWEEUEEEEEEEEEE",
"EEEEEEEEEEEEEEEEEEEEEEEEEEYEEEEEUEEEEEEEEEEEEEEEEEEEEEEUEEEYYYEY",
"YYEYEEEEYYEYYYYYYEEEEYYEYRYYYYYEEEYYYEYYEEYYYYYYEEETEEETYYYEEYEY",
"YYYRYRYYTYTRTRRTYRYRRYRRTTYTTRRRRYYRRYRYYRYRRTRRTTRTTRTTYRRYRRRR",
"YRYRRYRRRRRTRRRRRRRRRRRRRRRRRRRRRRRRRRRRRRRRRRRRRRRRRRRRRRYRRRRR",
"RRRRRRRRRRRRRRRRRRRRRRRRZRRRRRRRRRRRRRRARRZRRRRRRRRRRRRRRRRRRRRR",
"RRR^ARRZARR^ZR^ZZRAZARRAZ^A^ARAZRZZRARRARAARAA^RA^ZRAZAZZZRZAAZA",
"ZAAAZAAAAAAAAAAZ^ZAAAAAAZAAAAZAAZAAAZAAAAZAAAZ^^^AAAAAAARAAAAAA^",
"AARAAAAAAAAAAAAAAAAAAA^A^^AAAAAZAA^^AAAAAAAZAAAAAAAAAAAZAAAAAA^A",
"AASASSSSAASASASS/AASASAASASSSAASSAASASSSSASASSASAASSSAASSAASAAAS",
"SSSSSSSSSSSSSSSS(SASSSSSSSSSSSSSSSSSSSSSSSSSSSSSSSSSSSSSSSSSSSSS",
"SSSSSSSSSSSSSSSSSSSSSSSSSSSSSSSSSSSSSSSSSSSSSSSSSSSSSSSSSSSSSSSS",
"DDDSSDDSDSDDSDSDDSDSSDDSDSDSSDSDDSDSDSDSDSDSDSSDSDDSDSDSDSDDSDSD",
"DDDDDSDDSDDDDDDDDSD(SDDSDDDDDDSDDDDDDDDDDDDDDSDSDDDSDDDDDDDSDSDD",
"DDDDDDDDDDDSDDSDDDDSDDDDDSDDDDDDDSDDDSDDDSS(DDDDDDDDDDSD(SDDDDDD",
"DDDDDDDDDDDDS(SDDSDDDDDDDDDDDSDDDDDDDDSDDDDDDDSDDDDDDDDDDDDDDDDD",
"DDSDDDDDSDDSDDDDDDDDSDDDDSDSDDDDDDSDDDDDDDDDDDDFDFDDFFFDFFDFDDDD",
"(DDDDDDDDDDDSDDDZSSDDDDDDDDDDDDDDDDDDFFDFDFFFFFFFDDD(DDDDDFDDFFF",
"DDDDDDDDDDDSDDDSZCSDFDDFDDDFFFDDFFFFDFFFFFFDDFDFFSZZASAAZZSDFFFD",
"DDDDDDDD(DDDDDFSZSCZSDDDDDDDDDDDDDDFDFFDFDFFFFDFDACVZZCCVVZDFFFD",
"DFFDFFDDFDDDDDSAZDSCCSDFFFDFFDFFFFFDFFFFFFFFDFFFDCCVZCCCNNCDFFFF",
"FFDFFFDFDDFDDAVNVSDSZDDSDDDDFFFFFFFFFFFDFFFFFFFF(CCVVVCVNNVDFFFD",
"ASASDDFFFFFFDZNNbZAZZZZSFDDFFFDFFDFDFFFDFFFFDFFFFCCVCCCCNNCDFFFF",
"VVNNZ(FFDFFDDCNNVZCCCCCZDDFFFFFFDFFDFDDFFFFFFFFFFCVVVCVNNNCDFFDF",
"NNNNADFFFFFDZNNNMNNVCVVCZDDFFFDFFFFFFDFFFFDFFDDDFCCCCCNNNNCDFFFF",
"NNNMZDFFDDDDZNNNNNNVCVVAZDDDDDDFFFFDFFDFFFDDFFSSFZCBVNNNNMVDFFDF",
"MNNNZDFFDAZCCNNNNNNNCVVCADDDDDDDFFFFFFFDFDDAASZASCCCNNNNNMCDFFFF",
"zpMbZDFFDZZCVNNNNNMVZCVZZDDDDDDFFFDFDFFFFFSVNVZCSCNNNVNNNNCDFFDF",
"t9lMZDFFSCZCNxMNNNbVCVmZZDDDDDDDDFFFFDFFFFDVNNCCSZNNNNNMNNCDFDFF",
"a5gNZDDFSCZVNNNNNNNNbzVZAScSFDDDFFFDDDAAAAZVNVCVSZNNxNNNNNCS(SDS",
"srsNZDFFSCCVNVNNNNNl7tdghvumDFFSSDDDDAZCCCCVNNCCACVNNNNNxNVZZZZZ",
"wwsNCZA/ACCCNNNNNNxs5555aa5fDDSCCSDZVVNVVVNNNVVVCbNNzNNNNNVCCCCC",
"a8dNNNlhBhjhgggggjjw5ws5sa2hDAZCCZZVNNNxlxNNNVRVz0ij0zNNNNNxNNNb",
"dwsxxxgagsraaasrwaaw5ww5552f^ZACCZCVNNNlajNNNNRVx8rr8jNVNxNxNNNN",
"w55wgg5rrw5ras5555555wrwsw5sZZZCCZZCVNNxalNNxxNNl5555dNVNNNNNNNN",
"w555sdrdsw5shBr535555wa5sw5gZCCCCCCCNNNlshlxxllxd5555gNNNNxNNNNl",
"da55dd55w5555w5555555ww5554aNVNNNNbbNNxsaasaaaaaa5545dNNNNNNNNNd",
"s553sgrssw5ass55535555wwsr5abVNMNNxNNNlrwwwrwww585555adxNNNNNNxs",
"5535dg5wr55rrr5555555ww5a55yMVNNNMNNNNjrdwsdwdr34545555hNxNNNNNd",
"sr55ddrysw455ww5355355w5454sMNVMNNxNNxjaawwawar54545:6wgukNNNNNd",
"aw55sdfMnf5asd5455553wwwss5tbNNzkNNNNNhwdwadw5555551*+@$*2xNNNNd",
"5555dd555545555555555585s5-;eeee;gNNNNgwawaa5555545,X    &NNNxxd",
"5335ddwsd85asd55553555555=..XXXXX3NNNNdadw53,>,,,,,>X    %elNNNj",
">>,5sdwwa55rrr55543555555$      XqNNNNgwww31##$#$$##X    %<eNNNg",
"$#$1sd5444455555535555455$.      qxNNNg535=#..OO..O.     oO<xNNg"
};
