/* XPM */
static char *_7c02465676b4dd9b5596bcb3d50d0c2JFEdjJ2uCSPtwLWr[] = {
/* columns rows colors chars-per-pixel */
"64 64 92 1 ",
"  c #332D27",
". c #322F2A",
"X c #36332D",
"o c #38342F",
"O c #373430",
"+ c #3A3631",
"@ c #3D3A35",
"# c #3F3D39",
"$ c #403C37",
"% c #423F3A",
"& c #45413D",
"* c #48443F",
"= c #474441",
"- c #494642",
"; c #4D4945",
": c #4E4C49",
"> c #504B47",
", c #514E4A",
"< c #54524E",
"1 c #58554F",
"2 c #565450",
"3 c #595653",
"4 c #5C5A56",
"5 c #5E5C59",
"6 c #615E5B",
"7 c #64625E",
"8 c #666461",
"9 c #696662",
"0 c #6C6A65",
"q c #6E6C6A",
"w c #716E6B",
"e c #74726E",
"r c #767471",
"t c #797673",
"y c #7B7976",
"u c #7D7C79",
"i c #817E7C",
"p c #83817E",
"a c #868481",
"s c #898684",
"d c #8B8986",
"f c #8D8B8A",
"g c #918E8C",
"h c #92918E",
"j c #959492",
"k c #989694",
"l c #9A9996",
"z c #9D9C9A",
"x c #A19F9C",
"c c #A1A19E",
"v c #A5A4A2",
"b c #A8A7A5",
"n c #A9A9A6",
"m c #ADACAA",
"M c #B0AFAD",
"N c #AFB1AD",
"B c #B1B0AF",
"V c #B4B4B2",
"C c #B9B7B6",
"Z c #B7B9B5",
"A c #B9B9B6",
"S c #BCBCBA",
"D c #C0BFBE",
"F c #C1C1BF",
"G c #C4C4C2",
"H c #C8C7C6",
"J c #C9C8C7",
"K c #CCCBCB",
"L c #D0CFCE",
"P c #D1D0CF",
"I c #D4D4D3",
"U c #D8D7D6",
"Y c #D9D8D7",
"T c #DCDBDB",
"R c #E0DFDE",
"E c #E0E0DF",
"W c #E4E3E3",
"Q c #E8E7E7",
"! c #E7E8E7",
"~ c #E7E7E8",
"^ c #E8E7E8",
"/ c #EBEBEB",
"( c #EFF0EF",
") c #F0F0EF",
"_ c #EFEFF0",
"` c #EFF0F0",
"' c #F4F4F4",
"] c #F8F7F7",
"[ c #F8F8F7",
"{ c #F7F7F8",
"} c #F8F7F8",
"| c #FDFDFD",
/* pixels */
"oX:W||'7g|f.X:W|Q<XooA||y e{|E:J|{e 8[vXXXv|^6YzXOoC|||yXXr|U%XX",
"oX:W||'7h|dXX-T|Q<Xo+F|{w.q{|E2K|{0.4'MoXXc|^6UzXXXV|||eX e|I%X+",
"OX:^||'7l|s.o&U|W>XX+G|'7.7'|E,K|'8.,^A+oXv|)7IxXXXm||]0. 0|U%XO",
"XX,~||(6x|pXX$K|W;Xo#J|'4X5'|E2P|'7X-EDOo.v|'7Kc.+Xv||'7XX0{U%XX",
"OX:~||(4v|t.X+F|W;Xo#K|^2X4`|E2P|'5.%UG+XXx|'7Jc.+Xx||)5XX7'U%XX",
"XX<~||(3v|t.ooS|E;XX$I|W;.3/|E2I|'5.@HP%XXc|'0Jc.o.k||^3.X3`U%X+",
"OX,~||/1n|eXoom|T;XX%I|T=X</|E2U|_4X+AU&XXc|]wHv.o.g||^,XX2_U%XX",
"XX2~||/<m|0XoXc|Y-Xo&Y|I&X:W|W3Y|/3XOvT=XXc|}eSvXo.f||W;XX</U%X+",
"oX2^||/,B{0XX.j|U&oX*T|K@X-W|R4T|/4XXlE=oXz||tCv.oXp||T&XX,~U%Xo",
"oX2/||/<V{9.oXf|P%oX;E|F+O-W|R4T|^<XXaW:oXz||uVvXoXi||P&XX:WU&Xo",
"oX<^||^2S{8Xo.u|K$XX>W|VOX=T|T5T|Q,oXt^2XXz||pBb.o.e[|K#XX-TU&o+",
"XX3^||W2F'6XoXe|J@XX<Q|nXX&Y|E5E|E;ooq^4Xoz||amn.oXq||G+XX&UU#XX",
"XX3/||W3G'2XoX8{J@oX<^|l.o%I|T7W|W=oX4W5XXz||fvmXo.q{|S+oo#IY%+O",
"XX4(||W3H_3XXX5'H@oX1/|g.o$L|E6W|T=XX1E8.Xl||hvn.o.9{|Booo#LY%XX",
"XX4`||W2J/2XXX2`G+oo2/|p.o@H|T7Q|T*oX-TrXXk||lzmXo.7`|vXoX@JU&X+",
"XX6`||W2K/,XXX</F+oo4)|r.X+G|R7Q|Y*XX&It.Xj||zjmXo.6`|lXXo+GY#XO",
"XX7`||E2P~:XoX;WSoXX6'{0.ooS|T7/|I&XX@Hi.Xk||vhMXoX<^|k.XoXSY%OO",
"XX7`||T2IW:ooX&TZoXX8''7XooA|T0/|I&XX+SaXXj||bhmXXo>Q|hXooXCY%Xo",
"OX7'||T2IT*XoX#IVoo.0{/3XXoV|T0/|L$XX.mhX.h||mfm.X.>W|pXooXMY%X+",
"XX7`||T<UU%Xoo@JMX+X0{!<Xoon|Tw/|J@X;yIJ&uJ||VsD6>$wW|t.oo@VY%XX",
"XX8'||U2YI#ooo+SnXXXq{E-XX c|Rw)|I0@v||W:G|||Aa{]x7/|[cy+0K'Y%XO",
"XX8'||U3WL$XoooVD:X#u|~s>%3M|Tw)||U*B||^2S|||Dp||V7'|||Y&p||U%XO",
"OX8'||I3W/Sk=vAW|c@VW|||iw/)|Te)||Y*V||/3C|||Gy||A3/|||U#a||U%XO",
"XX8'||I2W||K:T|||n#P|{||it|||Yt'||Y-C||_3m|||Kt]|G3^|[|I#f||U%XO",
"XX9{||L3~||K;Y|{|v&U||||yi|||Yy)||T-A||'6m|||Kt'|K2Q|||I@h||U&Xo",
"XX0[||K4~||L:I|||v&Y|]|]ya|}|Yi'||Y-A||'6n|||Ir'|P3W|||I#k||U%Xo",
"OXq[||J5~||L;I|||x*T||||ys|||Yi{||Y-S||{7c|||Ue'|Y3R|||P@z||U%X+",
"O.q[||J5/||I:I|||k-W||}|rd|||Yi'||Y-D||]wz|||Tr)|R,I|||I@v||I%XX",
"O.e{{|H5(||I:I|||h:W|||[wg|||Yp]||Y-G|||rk|||Wt(|W3I|/YA$n||U%O+",
"O.e[||F8(||U:P|{|h<^|[|[wg|}|Ya]||Y-G|||uf|||Wt/|^3J[y%,+M||I%XX",
"O.e[||F0`||Y:P|||f2^|[|[9j|||Us}||U-H|||ps|||Qe^|/6J^<XXoV||I%OO",
"O.r[||F0'||Y:K|||f4'|||'6k|||Ys}||U-H||'eu|||^eW|(7G)3XooA||U%XX",
"OXt}||S0{||T:K|||d4'|{|{7l|||Ud[||U*K||A+=K||/rW|'7C|foo+F||U&Xo",
"XXy}||Sq{||T2J|||p7'|||'5c|[|Yf|||U;K||h..u{|`rW|{0V|K#o@G||U%Xo",
"OXu|||Aw{||E<J|||p0'|||`7b|||Uh[||I;L||gX+k||'tT|{rm|Y&X+aE|U&X+",
"X.i|||Cr{||E<H|||iq{|{|`5N|||Uj{||I;P||Bo5W||'pT||uv|c+XoX8~U#XX",
"+.i|||Vr|||E1F||[yr||||`6B|||Ij|||U>I||R-5^||{aY||pcW<XOOO@HU%O+",
"XXa|||Bt{||W<D||[et|{||/5V|||Ul|||I>I|{k++7S|{pI||dkT*XXXXXmU%XX",
"O.p|||mu|||W<S||[qi|{||_4Z|||Ul|||I,U|A@oo.,E|iK||hjI&Xo+XXzY%OO",
"O.a|||mi|||!<A||[0p|||{_3A|||Uz|||I<Y|bXOOOOm|aK||zfJ@oX+XXlY%XX",
"O.a|||na|||!,V||{0d||||~3S|||Ic|||I<T|fXXX-3r{dH||vdNXooXoXrP&Xo",
"+.a|||vs|||W<V||{9h||{|~2S|||Ic|]|P1T|jXXX7A:JkG||malXXoX#+0L&oX",
"X.s|||vd|||^<V||'8k|{||W<G|||Iv|||I1R|COXX0'y8aG||BtfXooX,&<G&XX",
"X.d|||xh|||/<N||'9v||||W<J|||Iv|||L2E|s.oX,RT3&S||CetXooX<--V&Xo",
"+.f|||zj|||/4m||'8n||||E<K|||Ln|||P6R^26+oXa{K2V||GqwXXoX<<#n&oo",
"XXf|||zj|||/4m||'8m|{||T2P|||Im|||L3QG1A&Xo+V|k0'|K00.oX.2qXd&Xo",
"+.f|||zz|||/5n||`6N|{||T2I|||Im|}|L3QkgQ,XXX5`b8j'I97.ooX4k+r&X+",
"X.f|||lc|||`7n||`5V||||T2U|||Pm|||L4RdI]wXXo+GBvjAU6<Xoo.7G#u&XX",
"O.h|||jv|||'7b||/4S||||Y2T|||IN|||L4Iu/|lXOXXfVn~WT5-XooovP&t=OO",
"X.h|||hm|||'7v||/4J||||I2T|||PB|||K6Lw/|dXOOX<zv||W0k@oX%L'SG%XX",
"X.j|||hm|||'8v||^5K||||I2R|||IZ|||K6Eb`W:XXOX+ev||W0J:XX;W||U%X+",
"OXj|||gB|||'9c||^4P|[||K2T|||IS|||K5/||vXXOXXX-z||/wK1XX<~||I%XX",
"XXk|||fV|}|'9z||W5I||||K5W|||LS|{|K7/|{rXXXXOXXh||)eIw X4`||I%O+",
"X.z|||dV|||{9z||W3I||||J5~|||LF|||J7`|`4XXOOXXXf||'tIsXX;I||U%XO",
"+Xz|||aS|||{0k||W4U||||J4/|||IF|||K9`|Y&XXOOX+Xp||{rLvXoXa||I&XO",
"XXz|||sF|||}0j||W7T||[|H4/|||IG|||K9`|Z+XXXX+o@a|||tJG@XX:E|U#XO",
"O.v|||sG|||]0g||R9W||||G5/|||IJ|||J0'|W5+=5ln;+a|||iGW=XoXv|U%Xo",
"oXv|||sH|||}wd||T9Q|}||D7(|{|UJ|||K0'|}r<tn||kXu{||fS'6XXX8'U&Xo",
"oob|]|pL|||]wd||T9/||||A7'|||UK|||Jq'|}0rfv||/00'||hV|pX++#AU%Xo",
"oXn||}sL||||rd||U0/||}|A9'|||IP|||Jq'|_5vlc|||K,G||km|vX-qX0J&Xo",
"XXiP/'sL|[|]i6D^Lq)||||V0{|||IK|||Jr}|E<Kcz|||/1<I|zn|H+%V:+u&OO",
"Ooo#1t10ytrt>.@1q1jllllewWKBd9J|||J8KIv@ffl|{|/0#m|vv|T-oVd.0&XO",
"oooXX.o....XXoX.XXXXXXXX&<&+X+D|||K#@%+X++k|||(u<m|Bc{n#Xlvoa&XO",
"oooo<,@oooXoX@-,oXXoooXXXXXXoo<aVWJ@XOXOoo7nFTW7+rJmer@XX0w<N&XX"
};
