/* XPM */
static char *d20c7204531041f1f409574d893dbb3bQhEQOumLmigt1tr9[] = {
/* columns rows colors chars-per-pixel */
"64 64 181 2 ",
"   c #FF7AFF",
".  c #FF7BFF",
"X  c #FF80FD",
"o  c #FF82FD",
"O  c #FF79FF",
"+  c #FF8EFA",
"@  c #FF94F8",
"#  c #FF7BFE",
"$  c #FF7CFE",
"%  c #FF7FFE",
"&  c #FF8EF9",
"*  c #FF92F9",
"=  c #FF81FE",
"-  c #FF80FE",
";  c #FF81FD",
":  c #FF82FE",
">  c #FF7DFE",
",  c #FF83FD",
"<  c #FF83FE",
"1  c #FF84FD",
"2  c #FF85FD",
"3  c #FF86FD",
"4  c #FF87FD",
"5  c #FF88FD",
"6  c #FF88FC",
"7  c #FF89FC",
"8  c #FF87FC",
"9  c #FF86FC",
"0  c #FF8AFC",
"q  c #FF9DF9",
"w  c #FFB0F6",
"e  c #FF8DFC",
"r  c #FF8EFC",
"t  c #FFC7EF",
"y  c #FEE6E3",
"u  c #FFA4FA",
"i  c #FF8DFB",
"p  c #FF8CFB",
"a  c #FF8EFB",
"s  c #FF8FFB",
"d  c #FF8CFC",
"f  c #FF90FB",
"g  c #FF95FB",
"h  c #FF8FFC",
"j  c #FF8BFC",
"k  c #FFADF7",
"l  c #FFC1F2",
"z  c #FF96FB",
"x  c #FFADF4",
"c  c #FEDDE7",
"v  c #FFA0F8",
"b  c #FF91FB",
"n  c #FF93FB",
"m  c #FFACF4",
"M  c #FEDAE5",
"N  c #FFA2F6",
"B  c #FF91FA",
"V  c #FF90FA",
"C  c #FF95FA",
"Z  c #FF95F9",
"A  c #FF97F9",
"S  c #FF9CF8",
"D  c #FF96F9",
"F  c #FF9FF7",
"G  c #FF99F9",
"H  c #FF98F9",
"J  c #FFAFF2",
"K  c #FFADF6",
"L  c #FFA9F7",
"P  c #FFA9F6",
"I  c #FFD8EA",
"U  c #FFD2EC",
"Y  c #FFA6F8",
"T  c #FF9BF8",
"R  c #FFB1F5",
"E  c #FFE1E5",
"W  c #FFDBE7",
"Q  c #FF99FA",
"!  c #FFA5F5",
"~  c #FFA8F4",
"^  c #FF96FA",
"/  c #FFB3F4",
"(  c #FFAEF4",
")  c #FF9FF9",
"_  c #FFC3F3",
"`  c #FFA7F7",
"'  c #FF9BF9",
"]  c #FF9AF9",
"[  c #FFB6F6",
"{  c #FEEFE0",
"}  c #FFC6F0",
"|  c #FF98FA",
" . c #FFA0F9",
".. c #FFA7F8",
"X. c #FF99F8",
"o. c #FF9AF8",
"O. c #FF98F8",
"+. c #FF9AF7",
"@. c #FF99F7",
"#. c #FFA0F4",
"$. c #FF9FF4",
"%. c #FF9EF5",
"&. c #FF9DF6",
"*. c #FF9DF5",
"=. c #FF9FF5",
"-. c #FFA1F3",
";. c #FF9CF6",
":. c #FFA2F3",
">. c #FFA1F4",
",. c #FFA3F2",
"<. c #FFA0F3",
"1. c #FFACF3",
"2. c #FFA3F4",
"3. c #FFCBEA",
"4. c #FFB4F0",
"5. c #FF9BF6",
"6. c #FFC9EC",
"7. c #FEF0DC",
"8. c #FEE2E2",
"9. c #FFA4F2",
"0. c #FFA4F1",
"q. c #FFACF1",
"w. c #FFD7E6",
"e. c #FFC1EC",
"r. c #FFA4F4",
"t. c #FFA2F2",
"y. c #FFA5F1",
"u. c #FFA7F0",
"i. c #FFA6F1",
"p. c #FFA6F0",
"a. c #FFB6F0",
"s. c #FFAAF2",
"d. c #FFA8F0",
"f. c #FFA5F2",
"g. c #FFA9EF",
"h. c #FFB6F5",
"j. c #FFA8F1",
"k. c #FFA8EF",
"l. c #FFB7F5",
"z. c #FFAAEE",
"x. c #FFA7EF",
"c. c #FFA9EE",
"v. c #FFABED",
"b. c #FFABF0",
"n. c #FFA9F0",
"m. c #FFABEE",
"M. c #FFACED",
"N. c #FFAEEC",
"B. c #FFAFEB",
"V. c #FFB0ED",
"C. c #FFB1EC",
"Z. c #FFADEC",
"A. c #FFB0EA",
"S. c #FFB0EB",
"D. c #FFAFEC",
"F. c #FFAEEB",
"G. c #FFB1EA",
"H. c #FFACEC",
"J. c #FFADED",
"K. c #FFB1E9",
"L. c #FFB0EC",
"P. c #FFAFEA",
"I. c #FFB2E9",
"U. c #FFB2EA",
"Y. c #FFB3E8",
"T. c #FFB4E8",
"R. c #FFB4E7",
"E. c #FFB5E7",
"W. c #FFB5E6",
"Q. c #FFB5E8",
"!. c #FFBCE3",
"~. c #FFBAE4",
"^. c #FFBBE4",
"/. c #FFBBE3",
"(. c #FFBDE2",
"). c #FFBCE2",
"_. c #FFB9E5",
"`. c #F3AEED",
"'. c #E6A6F2",
"]. c #E6A5F3",
"[. c white",
/* pixels */
"                                                    .                         .                                                 ",
"                                                                                                                                ",
"                                                                                                                                ",
"                                                                                                                                ",
"                                                                                                                                ",
"                                                                                                                                ",
"                                                  X o                                                                           ",
"                                                O + @ O                                                                         ",
"                                                  # $                                                                           ",
"                                                                                                                                ",
"                                                                                                        % & .                   ",
"                                                                                                        X * #                   ",
"                                                                                                          O                     ",
". . . .   . . . . . . . . . . . . .   . . . . . . . . . . . . . . . .   . .   . . . . .   . . . . . . . . . . . . . . . . . . . ",
"= - - - ; - - % - o = - = % - : - ; % = : : = - - - % - - - - - % - - > - % % % = o - - % % - - : = - - o - - % - = - = - % : = ",
"- % = - - - % - = = - - - = % % ; = - - - - - - - - - = = - = - % - - % % - % - - - % - - - - % % - = - - % - % - - - = = % - - ",
"% = o o - = = o , o = = = : - - o = = = = = ; = = o = < = = , = : o = ; = = = - - = - o o - = = ; - = o o = - = o o = = o = - - ",
"= = o , = - o 1 : : ; = = - o : = = = - = = o : = o ; = = = o = o = = = , : = = : - ; 1 = - = o = , = : 1 = - o , o = = = = - = ",
"2 , 1 , < o , 1 o : : , 1 , , o ; o 1 : , o , 1 , : , , 1 , , , 1 , 1 o , < , , , o = , , : , , 1 3 o = , o , 1 o : : 1 , : : , ",
", : - - = , % - - : - - = , = o - = - = = ; , % - = = - = = = o : - - - : = - - = : = : = % = o - - % : = = % - = o = o - = = = ",
"3 , , = - = : , , : < = 1 : , o , = o o : 1 1 o : , ; 1 , , : 1 o , = o : o = , = , , , , : = = o , : = 2 < , = = = , o o , 1 o ",
"3 3 4 1 o o 3 4 3 , 5 1 6 , 7 , 3 1 3 1 3 3 3 4 1 2 2 6 3 6 , 6 2 3 = 4 o 6 , 2 o 6 3 2 3 1 1 , 3 1 4 , 4 , 3 1 3 : 6 2 6 3 8 3 ",
"7 3 3 2 3 2 5 3 2 3 4 1 4 4 3 4 4 8 2 3 2 6 3 7 1 2 2 6 3 4 4 3 3 3 3 2 4 8 2 2 3 3 3 3 6 4 7 3 3 1 4 3 3 9 8 8 3 6 2 2 2 9 3 4 ",
"5 1 1 3 3 1 4 , 2 1 3 , 2 1 1 1 3 3 1 5 1 8 3 6 3 1 1 2 1 5 3 9 2 2 1 o 8 1 2 1 4 , 1 1 6 1 6 , 8 1 2 2 3 3 3 2 1 3 , 2 o 2 2 3 ",
"0 6 7 6 0 0 3 3 7 7 7 6 6 6 8 8 8 6 7 5 7 8 7 6 0 6 6 6 q w e 6 7 7 8 6 7 6 8 8 7 7 6 6 7 7 6 3 7 0 8 6 7 5 6 7 6 6 6 6 7 7 6 6 ",
"6 4 7 8 7 7 6 7 7 6 6 4 4 6 6 7 6 6 7 4 4 4 7 6 8 4 6 r t y u 4 6 7 3 5 7 4 4 6 6 7 8 6 7 6 7 6 8 7 6 6 7 6 6 4 6 7 6 7 0 7 6 4 ",
"i p i i a s i p d a a f g h a a i j j j i a i d i i a a k l z a i d j a s i a a i a i p d j i a i a i a a i j 0 p s i p a a i a ",
"i i a a a s a a p p a x c v i i p a s i i i a s a i a i b n j p s a i i s i a a a i i a a a a s p d i a a i f a i a s a s s i a ",
"s a i s f f f s s a a m M N a B s d a s f V a i i f f s s s s s f f s s s f a i s B s s i a f f a i a f f s B V a f f f a f b f ",
"C Z C C C Z C C C Z C A S A Z Z C C C C Z C C C C C Z Z C C Z Z C Z C C C Z Z C Z C C C C C Z C C C C C Z Z C C C C C Z C C C Z ",
"D A A A A A A A A A A D D A A A A A A D A A A A A A A A A A A A A A A A A A A A A A A A D A A A A A A A A A A A A A A A A A A A ",
"F A D D A A D A D A A A D D D D D A A D A A A A A D A D D D A A D A A A A A D A D D D G H D A A A A A D A D D D A A D A A A A A ",
"J H A D D A D D D A A A A A D D D D A D D A A A A A A A D D D D D D A A A A A D A D C K L C D D A A A A A A A D D A D D A A A A ",
"A A D A A A A D D D D A A A D D A A A A D D D D D D A A A A D D A D D D A A A A D H P I U Y D D D A A A A D A A A D A D D D A A ",
"D A D A D D A A D D A D D D A D A D D A D D A D T S D A D A D D A D D A A D D D D H R E W K A D A A D A D A D A D Q A D D A D D ",
"D D D D A A A D D D A D D D D D A A A A D D A D ! ~ D D D D A A A D D A A D D D D D ^ / ( Z D D D A D D D D D D ) _ ` D D A A D ",
"A A D D A A A D D A D D A A D D D A D A D D A D A A A A D D D A A D A A D D A A A D D ' ] D D A A D D A A A D D [ { } | D D D D ",
"A A D A A A D D D D D D D A A D A A A D D D D D D D A A D A D A D D D D D D D A A D A D D D D D D D D D A A D D  ._ ..^ D D D D ",
"D D D D A D D D D D D D D D D D D D D D D D D D D D D D D D D D D D D D D D D D D D D A D A D D D D D D D D D D D Q A D D D D D ",
"X.X.X.o.X.X.X.X.X.X.o.X.X.X.X.X.X.X.O.+.+.X.X.X.X.X.o.X.X.X.+.o.X.X.X.X.@.X.X.O.o.+.X.X.X.X.@.+.X.X.@.X.o.X.O.X.+.X.X.X.X.X.X.+.",
"#.$.$.$.%.#.$.&.*.#.=.=.$.*.%.#.%.$.%.$.#.%.$.$.=.=.#.%.%.#.$.=.$.$.=.%.#.$.=.*.#.#.=.%.&.%.%.#.=.%.#.&.-.$.*.%.#.-.#.$.#.%.$.#.",
"%.#.#.#.=.#.$.$.#.$.;.%.-.$.%.&.%.$.#.#.&.&.-.#.=.$.&.%.#.-.$.*.=.#.-.=.%.$.#.-.:.%.*.$.$.=.&.=.%.%.#.%.#.$.$.$.=.&.&.-.-.=.$.&.",
"-.-.$.:.-.%.>.-.:.#.-.=.$.#.$.#.-.-.$.-.*.%.=.>.-.:.%.%.#.:.-.=.#.>.=.-.%.#.#.=.,.-.*.$.#.:.=.#.:.$.$.-.$.,.#.%.#.<.=.:.$.#.>.=.",
"=.#.#.#.%.&.$.,.%.%.%.$.#.-.$.*.%.#.$.1.N %.%.$.=.%.$.%.#.$.$.%.=.#.=.=.%.=.-.#.#.&.&.#.#.#.%.%.#.>.;.&.%.$.=.%.%.*.%.#.#.=.%.%.",
"$.$.=.=.$.&.&.=.*.$.=.%.#.=.=.&.=.#.2.3.4.=.%.&.*.%.$.=.$.&.*.%.%.#.%.;.#.#.%.%.%.=.=.=.$.$.%.%.%.=.&.;.$.$.%.&.$.%.#.%.=.%.%.%.",
"&.5.&.&.*.&.;.5.;.*.*.&.;.;.;.;.;.N 6.7.8./ &.5.;.&.&.%.;.;.;.&.&.&.&.&.&.%.;.;.&.&.;.;.*.%.;.&.;.;.*.;.&.%.;.;.*.&.%.&.;.;.;.;.",
"#.-.:.#.#.9.-.<.9.=.,.-.,.$.,.#.0.#.q.w.e.r.,.#.:.:.-.,.#.,.#.9.t.0.#.y.$.,.=.,.:.,.#.:.:.:.,.:.:.-.9.-.,.#.0.>.t.$.9.#.9.<.:.=.",
"0.u.y.y.y.y.9.y.u.,.u.9.y.i.p.0.i.0.0.a.s.,.i.9.y.y.,.i.9.i.:.d.p.y.9.u.0.u.9.y.y.y.,.i.y.p.i.y.y.0.p.y.y.,.i.0.u.9.i.9.i.y.9.9.",
"p.#.,.=.y.-.0.#.y.#.i.>.t.-.,.0.-.y.$.f.#.9.%.,.=.u.$.y.#.y.>.u.t.t.:.:.,.-.0.$.,.-.p.p.t.:.u.$.9.#.,.-.p.>.:.-.9.f.>.:.#.0.-.u.",
"u.9.9.9.p.y.g.y.u.9.u.9.y.y.i.i.y.p.y.i.y.p.y.y.y.u.y.p.0.p.y.i.y.9.y.p.p.p.p.9.i.s.h.j.i.i.u.9.y.p.p.u.u.y.y.y.p.y.i.i.,.u.i.p.",
"u.u.y.u.u.p.k.u.u.u.u.p.i.u.k.y.u.u.g.p.i.u.k.u.k.u.i.u.u.u.u.y.p.p.p.u.u.u.i.d.p.l.l.d.u.u.i.y.u.d.d.u.u.k.u.u.u.p.k.u.i.u.p.u.",
"p.z.z.k.k.x.u.z.g.g.k.g.k.z.g.c.k.k.z.k.i.k.z.z.g.k.g.g.c.v.z.x.u.z.z.c.c.u.u.g.k.b.n.k.z.g.g.i.g.m.g.u.u.g.m.g.u.c.k.d.z.c.k.p.",
"z.M.N.B.N.N.V.C.Z.v.N.Z.A.S.Z.M.B.D.N.F.Z.Z.B.G.F.M.M.M.F.B.v.Z.H.D.G.F.v.m.Z.M.N.Z.N.J.G.F.Z.M.B.A.Z.Z.v.F.K.A.F.M.Z.v.A.F.M.F.",
"B.Z.M.B.B.F.D.J.H.F.N.L.B.B.B.F.B.M.N.B.F.B.G.A.F.M.N.B.Z.N.Z.F.A.S.B.Z.Z.N.N.Z.Z.N.B.F.F.F.F.Z.Z.Z.N.B.B.P.F.F.B.B.F.Z.N.D.N.B.",
"K.A.B.K.K.I.G.A.G.K.K.U.B.A.A.Y.K.P.A.K.I.I.I.K.G.A.K.K.B.K.I.K.I.A.G.A.I.I.I.A.A.I.G.K.K.I.K.G.G.A.A.I.I.K.S.A.A.K.K.K.A.I.K.I.",
"T.R.R.R.E.E.E.E.E.E.E.Y.R.E.T.R.E.R.E.T.E.R.E.R.E.E.E.E.E.E.R.R.E.Y.E.E.E.E.E.Y.E.R.E.R.E.W.E.E.E.R.Q.E.E.R.R.T.E.E.E.T.E.R.R.E.",
"E.E.E.E.E.R.E.E.E.E.E.R.R.E.Y.Y.E.R.E.R.R.T.R.R.E.E.E.E.E.E.R.E.E.E.E.E.E.R.Y.Y.R.E.E.E.R.R.R.R.E.E.E.E.E.E.E.R.R.E.E.R.E.R.T.R.",
"E.E.E.E.E.E.R.E.E.E.T.E.R.E.E.T.E.E.T.R.E.R.E.T.E.R.R.R.T.E.E.E.E.E.E.E.T.R.E.E.T.E.E.R.R.R.R.E.E.E.E.R.E.E.T.E.Y.E.R.E.E.E.E.R.",
"R.E.R.R.E.E.E.E.E.E.E.E.R.R.T.E.E.E.R.E.E.E.R.E.E.E.T.E.Y.E.T.R.T.E.E.E.R.E.E.E.R.E.R.E.E.E.R.E.E.R.E.E.E.E.R.E.R.R.R.E.E.R.E.Y.",
"E.E.R.T.R.E.E.E.E.E.E.E.E.E.T.R.R.E.E.E.R.E.R.E.E.E.E.E.T.E.T.T.T.E.E.E.E.E.R.T.R.E.E.E.E.E.E.E.R.E.R.E.R.E.E.R.T.E.E.E.E.E.E.T.",
"E.E.E.E.T.E.E.R.E.E.E.E.E.E.E.E.T.T.R.T.E.E.E.E.R.E.E.E.E.E.R.E.Y.E.R.T.E.E.E.E.E.E.R.R.E.E.R.E.T.E.E.E.E.E.E.Y.T.E.R.E.E.E.E.E.",
"E.E.E.R.E.R.E.E.E.E.E.T.T.E.E.E.E.R.E.E.R.R.E.T.R.E.E.R.E.R.E.E.T.E.E.T.E.T.E.E.E.W.E.E.T.R.R.R.R.E.E.E.T.T.E.E.E.E.E.E.R.R.E.E.",
"E.T.R.E.R.E.E.E.E.E.E.E.E.T.R.E.E.R.E.T.R.Y.T.R.E.E.E.E.E.E.E.E.E.E.E.E.E.T.E.R.E.E.E.E.E.Y.E.R.E.E.E.E.E.E.E.E.E.T.R.R.E.E.E.T.",
"!.!.~.!.^./.(.!.(.!.^.(./.^.).~./.!.!.(.~.!.!.^.(.^.^.(./.(.!.^.(.!.!.(.^.!.!./.(.~./.(._.!././.(.~.(.).^.(.!.!.(.~./.`.'.].'.'."
};
