/* XPM */
static char *_169fa2a7f4441b3f3c8b30f7cdd1528vaTnQAro9lezWJIy[] = {
/* columns rows colors chars-per-pixel */
"64 64 90 1 ",
"  c #9C0EFF",
". c #9D12FF",
"X c #9F1AFF",
"o c #A01FFF",
"O c #A123FF",
"+ c #A32BFF",
"@ c #A533FF",
"# c #A639FF",
"$ c #A93CFF",
"% c #A944FF",
"& c #AC4BFF",
"* c #B24EFF",
"= c #AE54FF",
"- c #AE5AFF",
"; c #B253FF",
": c #B15DFF",
"> c #B566FF",
", c #B569FF",
"< c #BA6CFF",
"1 c #B672FF",
"2 c #BA73FF",
"3 c #B678FF",
"4 c #BB7CFF",
"5 c #C46DFF",
"6 c #C37EFF",
"7 c #BD83FF",
"8 c #BF8AFF",
"9 c #C184FF",
"0 c #CD86FF",
"q c #C18CFF",
"w c #CB8CFF",
"e c #C391FF",
"r c #CB95FF",
"t c #CD99FC",
"y c #D79FF7",
"u c #D196FF",
"i c #DD97FF",
"p c #D399FF",
"a c #DB9DFE",
"s c #E09FFE",
"d c #D4A1F6",
"f c #DCA5F5",
"g c #DFA8F3",
"h c #DCA1FA",
"j c #E9AEEF",
"k c #EAB7E7",
"l c #ECBBE6",
"z c #E5B4E9",
"x c #EAB4EB",
"c c #EEB9E9",
"v c #F6B7E7",
"b c #FFB5E7",
"n c #F2BEE3",
"m c #FFBCE3",
"M c #F2B7E8",
"N c #FFB3E8",
"B c #FFB4E8",
"V c #E0A7F5",
"C c #E6A6F6",
"Z c #E1ABF3",
"A c #E6ABF0",
"S c #E4ABF3",
"D c #E6AFF1",
"F c #E5A9F4",
"G c #E6AAF5",
"H c #E4A8F6",
"J c #E2A4F8",
"K c #E3A2FD",
"L c #E2A1FE",
"P c #E5A2FE",
"I c #FFCFD7",
"U c #F5C5DF",
"Y c #FFC3DE",
"T c #FBC6DE",
"R c #FFC5DD",
"E c #F6C8DD",
"W c #FBCDD9",
"Q c #FBCED8",
"! c #FFCCD9",
"~ c #FFCDD9",
"^ c #FDCCDA",
"/ c #FDC8DC",
"( c #FCC9DC",
") c #FFD0D7",
"_ c #FED2D6",
"` c #FFD4D4",
"' c #F1C1E1",
"] c #F3C1E1",
"[ c #FFC1E0",
"{ c #FFC2E0",
/* pixels */
"bNbbbNbbNbbbbbbbbbbbbBBbbbbbbbBbbbbbbbbbBbBbbbbbbbbbbbNbNbbbbbbb",
"bbbbbNbbbbbbbbbbBBbbbbbbbNbbbbbbNbbbbbbbBNBBbbbBbbbbbbbNNbbbbbbb",
"bbbbbbbNbbbbbBbbbbbBbBbbbbbbbbNNbNbbbNbbNNNNbBbbbbbbbbNBbbbbbbbb",
"mmmmmmmmmmmmmmmmmmmmmmmmmmmmmmmmmmmmmmmmmmmmmmmmmmmmmmmmmmmmmmmm",
"mmmmmmmmmmmmmmmmmmmmmmmmmmmmmmmmmmmmmmmmmmmmmmmm[mmmmmmbmmmmmmmm",
"mmmmmmmmmmmmmmmmmmmmmmmmmmmmmmmmmmmmmmmmmmmmBmmmmmmmmmmmmmmmmmmm",
"mbmmmmmmmmmmmmmmbmmmmmmmmmmmmmmmmmmmmmmmmmmmmmmmmmmmmmmmmmmmmbmm",
"mmmmmmmmmmmmmmmmmmmmmmmmmmmmmmmmmmmmmmmmmmmmmmmmmmmmmmmmmmmmmmmm",
"[[mmYmYmmmR[mm[m[mm[[[[m[m[mmm[[mm[m[m[[[mmm[mmmm[[mmm[m[mm[[[mm",
"R[[[Rm[[R[vmR[RmR[[[[[[[[[[[R[RmY[RmR[[[[[[RRmR[[[R[[[[[Rm[[[[[[",
"[[[R[[[[vxsCvY[[[[mY[[[[[[[[[[[[R[[[[[[[[[R[[[Ym[[[[R[[[Ym[[[[R[",
"[[RRR[RvhapaGnR[YRRR[[R(R[RRRR[RRRR[[RRR[RRRYYRRRR[R(RR[RRRR[RRR",
"RRR[R[jappeuaVMYRRRRRRRRRRRRRRRRRRRRRRRRRRRRRRRR[RRRRRRRRRR[((R[",
"~~~~TArreereputfn!~~~~~~~~~~~~~~~~~~~~~~~~~~~~~~_~~~~~~!~nVfc[~_",
"~~(kfreeerpeerreyxn/~!~~~~~~!!!~~~~~~~!~~~~!~~~!~~~~!!~~xLLLhJc(",
"Q'geeeuuerueeeeerpaGl~_~I_~__~__~_~__~~I__~_~_~_~~_III~xLLuuptaG",
"dteeeuareareeeeeeppphx'Q````_`_`_`_`_`_``_`_````_`_``(Ahareepett",
"8eeepaeeuueeeeeeeeeehaafk~`_`_`_`_`_`_`__`_``````___]Vuueeeeetee",
"eeraPu1>preeeee8eeetrraauZ'QQ__`_``____``_`_`_```_Exdreteeeeeeee",
"phhPu9@o<eeeeeeeeeeeeetuerdfdzlE__(Ac_``_`_`_`_'kAharereeeeeeeee",
"upLue-. O,qeeeeeeeeeeereeeeteeetz]VaPc```_`_``'Gprrreepeeeeeeeee",
"tauq<O   O>eeeeeeeeeeeeee8eeeeeethrpphcQ_``~'lhdeeeeerueeeeeqeee",
"eee3+   o58eeeeee8eeeqeeeeeeeeeeateuethg''xgdteeeeeeeueeeeeeeeee",
"eee7>.   @,8eeeeeeeeeeeeee8qeeeerere8eeteteteeeeeeeeereeee8eeeee",
"ee7&O    o%4eeeeee8eeeeeeeeeqeeeeeeeeeeeeee8eeeeeeerrreet8eee8ee",
"ee4+     o@>7eeeeeeeeeee8eeeeeeeeeeeeeeeeeeeeeeeeeeureerdee8eeee",
"8,#.       .%7eeeeeeeeeee8eeeeeeeeeareeeeeeeeeeeqeereeepteee8eet",
"3:*%.      o&7eeeee8eeeee8tdreeqeeuareeeeeeeeeeeeereeerLreeeeeeh",
"3>#O.      o+&38eeeeee8eethpee84etpareeeet8eeeee8ee8eeaaeeeeeeeh",
"87:O       +,98eeeeeeet8thheee-+4uutqeeeee8eeeeeeeeeeuaueeeeeeee",
"4=Oo        O>48eeeeet8ehdeee3+ +0eeeeeee8eee8eeeeeeraaeqeerreee",
"@@-+        .+@>e8eee8edhee8-O  .&8eeee8eeeeee8eeeepaareerhLaphu",
"77-. .      X%38eeeeeerLteq8>%   .=8eeeee8eeeeee8eppupeerpuhrrLh",
"&@            $-8eeeerasreeq,+   +>8e8eeeeeeeee8tdpepreeuurueqru",
"++O            .%,8eepapee83#.   o:88eeeeeeeeeeepueppeeepeueeeer",
"73-.          #:>17rpupteeq,@.    +4eeeeeeee8eehperpeeearrueeere",
"%o..          .@=38tutpee4$X      .&8qwaateeeeareeuueeraerreeear",
"              X@@&1tetuee1$       X#,96phawqeuueeraeeuaeeeeeeuPa",
"@O            X,q9rrrp881%O       o#;<166922rpreerpuupreeeeeuPPL",
">+            .X$#$=ut871,=O       O&:<<<1,,26497wpq9qqeee9uPiuu",
".             X@+$#;0q917,+.       o@:>>>>>>>,<>><431479ee20s669",
"@.            X$>59214<&#X         OOO%:>>>>>>>>>>><,,<9791<<><4",
">X              O@%&:>>=&+         +:=-:>>>>>>>>><>>>>>>,<<>>,,,",
".                O#%>,:=@.          O%=:>,>>>>>>>>>>>>>>,>>>>>>>",
".               X@%>>-+..           .XO%>>>>>>>>>>>>>>>>>>>>>>>>",
"                X+&&%@+O.          X%;:>>>>>>>>>>>>>>>>>>>>>>,,,",
".                O+@%&&#X          .+#&:>>>>>>>>>>>>>>>><>,>>;&&",
".               .X@=%O..              .OO@:>>>><<><>>>>>>&%%O.  ",
"                  .o.O%@               .+%:>:>:&&&&&&@OOOo      ",
".                    .+o               oOOooOOo  ....           ",
".                                                               ",
"                                                                ",
".                                                               ",
"                                                                ",
".                                                               ",
"                .                                               ",
".   .   .                                 .                     ",
"                                                                ",
".                                                               ",
".                         .                                     ",
"                                                                ",
".          .                                .    .              ",
".                                  .                            ",
"                     .                                          "
};
